<svg width="32" height="31" viewBox="0 0 32 31" fill="none" xmlns="http://www.w3.org/2000/svg">
<mask id="mask0_723_1442" style="mask-type:luminance" maskUnits="userSpaceOnUse" x="0" y="0" width="32" height="31">
<path d="M0 0H31.0837V30.9999H0V0Z" fill="white"/>
</mask>
<g mask="url(#mask0_723_1442)">
<path d="M30.6788 12.6596C30.5495 11.9446 29.8333 11.4544 29.1172 11.5838C28.4018 11.7156 27.9161 12.4339 28.0445 13.1497C28.1738 13.901 28.2726 14.6852 28.2726 15.467C28.2726 22.5481 22.5473 28.2922 15.4892 28.2922C8.43117 28.2922 2.70587 22.581 2.70587 15.4999C2.70587 8.41886 8.43117 2.67476 15.4892 2.67476C17.2146 2.67476 18.9046 3.00262 20.4654 3.68799C21.1487 3.98207 21.9274 3.65504 22.2237 2.96967C22.5143 2.2843 22.1884 1.50254 21.5076 1.20846C19.5879 0.423414 17.5711 0 15.4892 0C6.96589 0 0.0395508 6.94927 0.0395508 15.4999C0.0395508 24.0506 6.96589 30.9999 15.4892 30.9999C24.0125 30.9999 30.9389 24.0506 30.9389 15.4999C30.9389 14.5205 30.8401 13.5764 30.6788 12.6596Z" fill="#00A3E1"/>
</g>
<path d="M12.074 11.2934C10.517 8.99868 6.79974 11.1955 8.38573 13.4902C10.2942 16.2695 12.0419 19.1777 13.9471 21.9578C14.8688 23.2826 16.7452 23.4107 17.6347 21.9578C21.1299 16.2043 24.7531 10.6147 29.3929 5.73646C31.2981 3.73296 28.2806 0.628995 26.3745 2.66513C22.2744 6.99518 18.8732 11.844 15.727 16.883C14.5206 15.0108 13.344 13.1354 12.074 11.2934Z" fill="#00A3E1"/>
</svg>
