<svg width="169" height="169" viewBox="0 0 169 169" fill="none" xmlns="http://www.w3.org/2000/svg">
<g clip-path="url(#clip0_851_2300)">
<path d="M131.504 109.373C131.249 109.373 130.988 109.342 130.721 109.255C129.764 108.969 129.043 108.185 128.595 106.929C128.291 106.076 128.03 105.218 127.775 104.391C127.514 103.526 127.265 102.717 126.973 101.915C126.594 100.876 126.177 99.7872 125.605 98.9101C125.313 98.4622 124.953 98.2134 124.599 98.2072C124.213 98.2196 123.784 98.4809 123.449 98.9661C122.628 100.154 122.199 101.616 121.746 103.159L121.621 103.588C121.292 104.689 120.894 105.995 120.378 107.296C119.291 110.045 117.14 109.311 116.438 109.068C114.828 108.515 114.032 107.277 113.572 106.394C112.541 104.403 112.298 102.313 112.149 100.503C112.087 99.7437 112.05 98.9786 112.006 98.2134C111.938 96.8449 111.869 95.5572 111.677 94.3006C111.534 93.3862 111.13 92.422 110.707 91.4018L110.471 90.8357C109.545 88.5839 108.805 86.1267 109.601 83.3709C110.322 80.8889 112.112 78.8485 114.523 77.7786C116.804 76.7646 119.34 76.7771 121.478 77.8159C121.858 78.0025 122.249 78.1705 122.634 78.3384L122.734 78.382C124.027 78.9481 125.226 78.9294 126.513 78.326L126.612 78.2824C127.855 77.6915 129.266 77.0259 130.994 77.0259H131.013C135.053 77.0445 138.59 79.7816 139.615 83.6882C140.262 86.1516 139.547 88.4283 138.832 90.363C138.726 90.6429 138.621 90.9166 138.521 91.1965L138.409 91.4951C137.589 93.6661 137.185 95.7065 137.166 97.722C137.148 99.6815 136.824 101.597 136.507 103.445L136.402 104.079C136.234 105.087 135.774 105.933 135.37 106.686L135.295 106.823C134.885 107.582 134.288 108.123 133.853 108.446C133.518 108.695 132.629 109.361 131.516 109.361L131.504 109.373ZM118.004 80.7583C117.345 80.7583 116.674 80.9013 116.027 81.1875C114.629 81.8096 113.585 82.9853 113.175 84.4098C112.721 85.9774 113.119 87.4828 113.914 89.4112L114.138 89.9524C114.635 91.1343 115.145 92.3598 115.356 93.7221C115.58 95.1715 115.655 96.6147 115.723 98.0144C115.76 98.7422 115.797 99.47 115.853 100.192C116.003 102.039 116.226 103.426 116.867 104.664C116.985 104.888 117.09 105.05 117.184 105.174C117.519 104.254 117.799 103.333 118.041 102.524L118.166 102.108C118.681 100.347 119.216 98.5307 120.378 96.8449C121.435 95.3146 122.97 94.4375 124.648 94.4748C126.264 94.4935 127.756 95.3706 128.732 96.8698C129.521 98.0766 130.031 99.3953 130.478 100.639C130.802 101.529 131.075 102.431 131.342 103.302C131.541 103.943 131.728 104.558 131.927 105.162C131.958 105.125 131.983 105.087 132.001 105.056L132.076 104.913C132.355 104.397 132.641 103.856 132.71 103.457L132.822 102.81C133.126 101.025 133.412 99.3456 133.425 97.6847C133.443 95.2213 133.928 92.7641 134.91 90.1639L135.028 89.8529C135.128 89.5916 135.233 89.3241 135.326 89.0566C135.992 87.2651 136.333 85.8965 135.998 84.6213C135.401 82.3508 133.344 80.7521 130.988 80.7396C130.087 80.7583 129.217 81.1564 128.197 81.6354L128.098 81.6851C125.835 82.7551 123.523 82.7862 121.236 81.7847L121.137 81.7411C120.701 81.5483 120.266 81.3617 119.844 81.1564C119.278 80.8827 118.65 80.7458 118.004 80.7458V80.7583Z" fill="#00A3E1"/>
<path d="M104.97 87.545L105.044 88.0489C105.094 87.8622 105.138 87.6756 105.193 87.489L104.97 87.5388V87.545Z" fill="#0D2957"/>
<path d="M143.593 66.4198C136.557 61.3002 127.943 59.2287 119.353 60.591C118.943 60.6532 118.545 60.7341 118.141 60.8149L123.393 55.882C123.847 55.4963 124.201 54.9986 124.437 54.4263C125.202 52.5104 124.269 50.3269 122.355 49.5556L108.233 43.9134L112.609 29.4193C112.783 28.8781 112.833 28.312 112.752 27.7397C112.46 25.7056 110.564 24.2811 108.519 24.5734L93.4778 26.7569L90.0033 11.9455C89.879 11.4043 89.6366 10.9067 89.301 10.4836C88.0268 8.86628 85.6711 8.58635 84.0551 9.86158L72.1152 19.2796L61.8348 8.31886C61.4432 7.85853 60.9398 7.49773 60.3804 7.27379C58.466 6.50865 56.2844 7.43553 55.5137 9.35771L49.8762 23.4973L35.4004 19.1179C34.8659 18.9437 34.2878 18.894 33.7222 18.9748C31.6836 19.2672 30.2664 21.1645 30.5586 23.2111L32.7402 38.2651L17.9349 41.7424C17.3942 41.8731 16.897 42.1094 16.4743 42.4454C15.6912 43.0674 15.1939 43.9508 15.0758 44.9461C14.9577 45.9351 15.2374 46.918 15.8528 47.6956L25.263 59.6392L14.3175 69.9282C13.8576 70.3201 13.4971 70.824 13.2733 71.3838C12.9004 72.3107 12.9128 73.3309 13.3044 74.2516C13.696 75.1722 14.4232 75.8814 15.3555 76.2546L29.4771 81.8967L25.1014 96.3971C24.9273 96.9321 24.8776 97.5168 24.9646 98.0704C25.1076 99.0595 25.6235 99.9366 26.4253 100.534C27.2209 101.131 28.2029 101.38 29.1974 101.243L44.2388 99.0595L47.7133 113.871C47.8376 114.406 48.0738 114.897 48.4218 115.339C49.0434 116.129 49.9197 116.596 50.8459 116.72C51.8155 116.851 52.841 116.608 53.6677 115.955L65.6076 106.537L75.888 117.498C76.2733 117.952 76.7706 118.312 77.3486 118.549C79.263 119.314 81.4384 118.381 82.2091 116.465L87.8465 102.332L93.9191 104.167C95.2678 107.793 97.2754 111.221 99.9481 114.263L73.2775 150.983C72.3141 152.308 71.9225 153.938 72.1836 155.568C72.4446 157.198 73.3148 158.628 74.6387 159.593L76.3479 160.837C77.4418 161.633 78.7036 162.013 79.9591 162.013C81.8673 162.013 83.7443 161.129 84.9501 159.474L111.621 122.754C125.537 128.757 141.797 124.359 150.803 111.967C161.363 97.4297 158.137 77.0011 143.612 66.4322L143.593 66.4198ZM92.5765 99.6256L87.2436 98.0144C86.2616 97.7221 85.2174 98.2197 84.8383 99.1715L78.6539 114.68L67.236 102.506C66.5337 101.759 65.3776 101.672 64.5758 102.307L51.4798 112.639L47.6697 96.3846C47.4771 95.5697 46.8058 94.985 46.0164 94.8792C45.8362 94.8544 45.6497 94.8544 45.4633 94.8792L28.9674 97.2742L33.7906 81.2996C34.0889 80.3167 33.5855 79.2716 32.6345 78.8922L17.1394 72.7088L29.303 61.2815C30.0489 60.5786 30.1359 59.4215 29.5019 58.6191L19.178 45.5121L35.4191 41.6989C36.4135 41.4625 37.0662 40.5045 36.9232 39.4905L34.5302 22.9747L50.4854 27.8019C51.4674 28.1005 52.5116 27.5967 52.8907 26.6449L59.0751 11.1368L70.493 23.3106C71.1953 24.0571 72.3514 24.1442 73.1532 23.5097L86.2492 13.1772L90.0593 29.4318C90.2954 30.4271 91.2526 31.0802 92.2657 30.9372L108.762 28.5422L103.938 44.5106C103.64 45.4935 104.144 46.5385 105.094 46.918L120.59 53.1076L108.793 64.1928C104.628 66.4757 100.98 69.6669 98.1083 73.6295C92.4895 81.368 90.7057 90.8358 92.589 99.6318L92.5765 99.6256ZM147.77 109.765C139.522 121.118 124.4 124.894 111.813 118.735C110.999 118.337 110.017 118.58 109.489 119.314L81.917 157.272C81.1276 158.355 79.6048 158.597 78.5233 157.807L76.8141 156.563C75.7326 155.773 75.4902 154.249 76.2796 153.167L103.851 115.208C104.386 114.474 104.311 113.467 103.684 112.813C101.57 110.624 99.8611 108.173 98.5744 105.56C97.8286 104.048 97.2133 102.481 96.7471 100.876C94.3106 92.5341 95.7029 83.2653 101.123 75.8067C103.323 72.771 106.039 70.2517 109.122 68.3171C110.253 67.6079 111.44 66.9734 112.665 66.4322C114.958 65.4058 117.401 64.6718 119.949 64.2736C121.472 64.031 123.001 63.9128 124.512 63.9128C130.553 63.9128 136.427 65.8101 141.411 69.4368C147.646 73.9716 151.735 80.6588 152.941 88.2791C154.147 95.8932 152.313 103.526 147.782 109.759L147.77 109.765Z" fill="#0D2957"/>
<path d="M52.7853 54.5942C51.393 54.5942 50.0007 54.109 48.8757 53.1137C46.4393 50.9551 46.2031 47.2165 48.3598 44.7718C50.5166 42.3271 54.2583 42.1031 56.6948 44.2555C57.8757 45.3005 58.5843 46.7437 58.6775 48.3176C58.7708 49.8914 58.2549 51.4092 57.2045 52.5974C56.0422 53.9161 54.4137 54.588 52.779 54.588L52.7853 54.5942ZM52.7853 46.5136C52.1824 46.5136 51.5795 46.7624 51.1506 47.2476C50.355 48.1496 50.442 49.5244 51.3433 50.3206C51.7783 50.7063 52.3377 50.8929 52.9158 50.8618C53.4938 50.8245 54.0283 50.5632 54.4137 50.1278C54.7991 49.6923 54.9917 49.1325 54.9545 48.5539C54.9172 47.9754 54.6623 47.4404 54.221 47.0548C53.8108 46.6877 53.2949 46.5073 52.7853 46.5073V46.5136Z" fill="#0D2957"/>
<path d="M84.9189 83.0225C83.5266 83.0225 82.1343 82.5373 81.0155 81.542C78.5729 79.3834 78.3429 75.6448 80.4997 73.2001C81.5439 72.0182 82.9858 71.309 84.5584 71.2157C86.1247 71.1162 87.6475 71.6387 88.8346 72.6838C91.2773 74.8424 91.5073 78.581 89.3505 81.0257C88.182 82.3445 86.5597 83.0163 84.9251 83.0163L84.9189 83.0225ZM84.9251 74.9419C84.8816 74.9419 84.8318 74.9419 84.7883 74.9419C84.2103 74.9792 83.6758 75.2405 83.2904 75.6759C82.4948 76.5779 82.5818 77.9527 83.4769 78.7489C84.3719 79.5452 85.7517 79.4581 86.5473 78.5623C86.9327 78.1269 87.1254 77.567 87.0881 76.9885C87.0508 76.41 86.7959 75.875 86.3609 75.4893C85.9568 75.1347 85.4534 74.9419 84.9251 74.9419Z" fill="#0D2957"/>
<path d="M53.9223 81.6788C53.481 81.6788 53.0397 81.5233 52.6855 81.2123C51.9147 80.528 51.8402 79.3523 52.5239 78.5809L82.3892 44.7592C83.0729 43.9879 84.2476 43.9132 85.0183 44.5975C85.7891 45.2818 85.8636 46.4575 85.1799 47.2288L55.3146 81.0505C54.9479 81.4673 54.432 81.6788 53.9161 81.6788H53.9223Z" fill="#0D2957"/>
</g>
<defs>
<clipPath id="clip0_851_2300">
<rect width="144" height="155" fill="white" transform="translate(13 7)"/>
</clipPath>
</defs>
</svg>
