<svg width="169" height="169" viewBox="0 0 169 169" fill="none" xmlns="http://www.w3.org/2000/svg">
<g clip-path="url(#clip0_851_2291)">
<path d="M143.542 51.2528C141.125 42.623 135.562 35.4096 127.847 30.8482C127.734 30.7609 127.608 30.686 127.476 30.6298C127.37 30.5674 127.263 30.4988 127.15 30.4364C127.037 30.374 126.924 30.3178 126.811 30.2554C126.698 30.1743 126.572 30.1119 126.44 30.062C109.866 21.2512 89.0987 27.1729 79.8009 43.5278C79.7632 43.5964 79.7256 43.6588 79.6942 43.7275L79.6502 43.8086C79.1543 44.7071 79.4744 45.8366 80.3722 46.342L107.349 61.4863L83.5238 104.08C83.0152 104.985 83.348 106.121 84.252 106.626C84.5408 106.788 84.8547 106.863 85.1686 106.863C85.8278 106.863 86.4744 106.514 86.8134 105.902L110.626 63.3333L137.584 78.4652C137.879 78.6274 138.193 78.7085 138.507 78.7085C139.16 78.7085 139.794 78.3716 140.139 77.7726L140.189 77.6914C140.227 77.629 140.271 77.5604 140.309 77.498C144.873 69.4672 146.015 60.1447 143.529 51.2591L143.542 51.2528ZM110.833 59.1339L102.835 54.6411C107.292 46.0612 113.068 39.2222 125.078 34.0992C126.428 43.6027 125.712 52.4634 118.856 63.6391L110.839 59.1401L110.833 59.1339ZM121.142 31.7405C113.489 35.3348 105.842 40.9008 99.5578 52.8003L83.9067 44.0145C91.8422 31.5596 107.543 26.5614 121.142 31.7405ZM137.785 74.2595L122.134 65.4736C129.14 53.9734 129.994 44.5886 129.134 36.2208C134.351 40.2518 138.111 45.8116 139.913 52.2512C141.991 59.6705 141.225 67.4267 137.778 74.2595H137.785Z" fill="#0D2957"/>
<path d="M48.4481 37.6809C40.362 37.6809 33.7764 44.2204 33.7764 52.2636C33.7764 60.3069 40.3557 66.8464 48.4481 66.8464C56.5405 66.8464 63.1199 60.3069 63.1199 52.2636C63.1199 44.2204 56.5405 37.6809 48.4481 37.6809ZM48.4481 63.0962C42.4338 63.0962 37.5432 58.2353 37.5432 52.2574C37.5432 46.2795 42.4338 41.4186 48.4481 41.4186C54.4625 41.4186 59.3531 46.2795 59.3531 52.2574C59.3531 58.2353 54.4625 63.0962 48.4481 63.0962Z" fill="#00A3E1"/>
<path d="M48.7184 33.313C49.7605 33.313 50.6018 32.4769 50.6018 31.441V23.872C50.6018 22.8362 49.7605 22 48.7184 22C47.6762 22 46.835 22.8362 46.835 23.872V31.441C46.835 32.4769 47.6762 33.313 48.7184 33.313Z" fill="#0D2957"/>
<path d="M36.5769 35.0352C36.9285 35.6343 37.5563 35.9712 38.2092 35.9712C38.5294 35.9712 38.8496 35.8901 39.1509 35.7216C40.055 35.2037 40.3626 34.0618 39.8415 33.1633L36.0307 26.6051C35.5097 25.7065 34.3608 25.4008 33.4568 25.9187C32.5527 26.4366 32.2451 27.5785 32.7662 28.4771L36.5769 35.0352Z" fill="#0D2957"/>
<path d="M22.903 39.4531L29.5013 43.2408C29.7963 43.4092 30.1228 43.4903 30.443 43.4903C31.0959 43.4903 31.7299 43.1534 32.0752 42.5544C32.5963 41.662 32.2887 40.5139 31.3847 39.996L24.7865 36.2083C23.8887 35.6904 22.7335 36.0024 22.2125 36.8947C21.6914 37.787 21.999 38.9352 22.903 39.4531Z" fill="#0D2957"/>
<path d="M29.3821 51.9953C29.3821 50.9594 28.5408 50.1233 27.4987 50.1233H19.8834C18.8413 50.1233 18 50.9594 18 51.9953C18 53.0311 18.8413 53.8673 19.8834 53.8673H27.4987C28.5408 53.8673 29.3821 53.0311 29.3821 51.9953Z" fill="#0D2957"/>
<path d="M29.2317 60.8186L22.6335 64.6062C21.7295 65.1241 21.4219 66.2661 21.9429 67.1646C22.2945 67.7636 22.9223 68.1006 23.5752 68.1006C23.8954 68.1006 24.2156 68.0195 24.5169 67.851L31.1151 64.0634C32.0192 63.5454 32.3268 62.4035 31.8057 61.505C31.2846 60.6064 30.1358 60.3007 29.2317 60.8186Z" fill="#0D2957"/>
<path d="M38.6802 68.5375C37.7762 68.0195 36.6273 68.3253 36.1062 69.2239L32.2955 75.782C31.7744 76.6743 32.082 77.8225 32.9861 78.3404C33.2811 78.5089 33.6076 78.59 33.9278 78.59C34.5807 78.59 35.2148 78.253 35.56 77.654L39.3708 71.0958C39.8919 70.2035 39.5843 69.0554 38.6802 68.5375Z" fill="#0D2957"/>
<path d="M48.1783 71.2144C47.1362 71.2144 46.2949 72.0505 46.2949 73.0863V80.6554C46.2949 81.6912 47.1362 82.5274 48.1783 82.5274C49.2205 82.5274 50.0617 81.6912 50.0617 80.6554V73.0863C50.0617 72.0505 49.2205 71.2144 48.1783 71.2144Z" fill="#0D2957"/>
<path d="M60.3198 69.4922C59.7987 68.5936 58.6499 68.2879 57.7458 68.8058C56.8418 69.3237 56.5342 70.4656 57.0552 71.3641L60.866 77.9223C61.2176 78.5214 61.8454 78.8583 62.4983 78.8583C62.8185 78.8583 63.1386 78.7772 63.44 78.6087C64.344 78.0908 64.6516 76.9489 64.1306 76.0503L60.3198 69.4922Z" fill="#0D2957"/>
<path d="M73.994 65.0742L67.3958 61.2866C66.4918 60.7687 65.3429 61.0744 64.8218 61.973C64.3008 62.8653 64.6084 64.0135 65.5124 64.5314L72.1106 68.319C72.4057 68.4875 72.7322 68.5686 73.0523 68.5686C73.7052 68.5686 74.3393 68.2317 74.6846 67.6326C75.2057 66.7403 74.8981 65.5922 73.994 65.0742Z" fill="#0D2957"/>
<path d="M77.0133 50.6599H69.3981C68.3559 50.6599 67.5146 51.4961 67.5146 52.5319C67.5146 53.5677 68.3559 54.4039 69.3981 54.4039H77.0133C78.0555 54.4039 78.8967 53.5677 78.8967 52.5319C78.8967 51.4961 78.0555 50.6599 77.0133 50.6599Z" fill="#0D2957"/>
<path d="M66.7305 43.9584C67.0507 43.9584 67.3709 43.8772 67.6722 43.7088L74.2704 39.9211C75.1744 39.4032 75.4821 38.2613 74.961 37.3628C74.4399 36.4704 73.291 36.1584 72.387 36.6764L65.7888 40.464C64.8848 40.9819 64.5771 42.1238 65.0982 43.0224C65.4498 43.6214 66.0776 43.9584 66.7305 43.9584Z" fill="#0D2957"/>
<path d="M58.2175 35.9899C58.5126 36.1584 58.839 36.2395 59.1592 36.2395C59.8121 36.2395 60.4462 35.9026 60.7915 35.3035L64.6023 28.7454C65.1233 27.8531 64.8157 26.7049 63.9117 26.187C63.0076 25.6691 61.8588 25.9748 61.3377 26.8734L57.5269 33.4316C57.0058 34.3239 57.3135 35.472 58.2175 35.9899Z" fill="#0D2957"/>
<path d="M148.614 86.7767L146.348 84.5241C144.81 82.9953 142.763 82.153 140.578 82.153C138.394 82.153 136.347 82.9953 134.809 84.5241L115.473 103.743H30.556C26.0546 103.743 22.3945 107.381 22.3945 111.855V118.095C22.3945 122.569 26.0546 126.207 30.556 126.207H37.5748L32.4457 143.598C32.1506 144.59 32.7219 145.632 33.7264 145.919C33.9022 145.969 34.0842 145.994 34.26 145.994C35.0761 145.994 35.8232 145.463 36.0681 144.646L41.5111 126.201H107.512L112.955 144.646C113.194 145.463 113.947 145.994 114.763 145.994C114.939 145.994 115.115 145.969 115.297 145.919C116.295 145.626 116.866 144.59 116.577 143.598L111.448 126.207H116.584C117.664 126.207 118.718 125.995 119.723 125.577C121.035 125.196 122.228 124.491 123.188 123.542L148.639 98.2457C151.822 95.0821 151.822 89.9342 148.639 86.7767H148.614ZM145.952 95.6L120.501 120.897C119.974 121.421 119.302 121.808 118.574 122.007C118.486 122.032 118.398 122.064 118.316 122.101C117.758 122.344 117.168 122.469 116.565 122.469H30.556C28.1326 122.469 26.1613 120.51 26.1613 118.101V111.861C26.1613 109.453 28.1326 107.493 30.556 107.493H116.245C116.747 107.493 117.224 107.294 117.576 106.944L137.464 87.1761C138.287 86.3587 139.392 85.9032 140.572 85.9032C141.752 85.9032 142.857 86.3524 143.68 87.1761L145.946 89.4287C147.66 91.1322 147.66 93.9028 145.946 95.6063L145.952 95.6Z" fill="#0D2957"/>
</g>
<defs>
<clipPath id="clip0_851_2291">
<rect width="133" height="124" fill="white" transform="translate(18 22)"/>
</clipPath>
</defs>
</svg>
