<svg width="169" height="169" viewBox="0 0 169 169" fill="none" xmlns="http://www.w3.org/2000/svg">
<g clip-path="url(#clip0_851_2286)">
<path d="M140.402 93.6711C140.402 93.6711 140.37 93.6458 140.352 93.6332C140.37 93.6458 140.383 93.6585 140.402 93.6711Z" fill="#0D2957"/>
<path d="M17.0922 90.1631C12.0758 90.1631 8 86.1064 8 81.1135V56.773C8 51.7801 12.0758 47.7234 17.0922 47.7234C22.1086 47.7234 26.1844 51.7801 26.1844 56.773V81.1135C26.1844 86.1064 22.1086 90.1631 17.0922 90.1631ZM17.0922 51.4681C14.1514 51.4681 11.7623 53.8459 11.7623 56.773V81.1135C11.7623 84.0406 14.1514 86.4184 17.0922 86.4184C20.0331 86.4184 22.4221 84.0406 22.4221 81.1135V56.773C22.4221 53.8459 20.0331 51.4681 17.0922 51.4681Z" fill="#00A3E1"/>
<path d="M151.908 90.1631C146.891 90.1631 142.815 86.1064 142.815 81.1135V56.773C142.815 51.7801 146.891 47.7234 151.908 47.7234C156.924 47.7234 161 51.7801 161 56.773V81.1135C161 86.1064 156.924 90.1631 151.908 90.1631ZM151.908 51.4681C148.967 51.4681 146.578 53.8459 146.578 56.773V81.1135C146.578 84.0406 148.967 86.4184 151.908 86.4184C154.849 86.4184 157.238 84.0406 157.238 81.1135V56.773C157.238 53.8459 154.849 51.4681 151.908 51.4681Z" fill="#00A3E1"/>
<path d="M136.388 29H136.075C130.456 29 125.885 33.5498 125.885 39.1418V62.2965H122.486H120.06C118.429 62.2965 116.805 62.2965 115.175 62.3089C114.592 62.3089 114.247 61.9969 113.733 61.5288C113.645 61.4477 113.545 61.3603 113.438 61.2604C112.993 60.8672 112.899 60.5552 112.805 60.2556C112.78 60.1682 112.755 60.0871 112.717 59.9935C112.617 59.7376 112.51 59.5004 112.41 59.2633C111.952 58.1835 111.557 57.2599 111.576 56.1677C111.626 53.4153 111.613 50.6193 111.601 47.9169V45.9821C111.582 42.6868 110.171 40.2652 107.393 38.7861C106.227 38.162 105.048 37.8499 103.888 37.8499C102.358 37.8499 100.809 38.3991 99.2856 39.4851C99.1852 39.56 99.0912 39.5974 99.0222 39.6287L98.9344 39.6661C98.8278 39.716 98.7087 39.741 98.5833 39.741C98.2948 39.741 98.0315 39.5974 97.8747 39.3603C96.213 36.8139 93.987 35.522 91.2656 35.5157C88.4564 35.5157 86.2743 36.7827 84.5938 39.3915C84.4684 39.585 84.2615 39.7223 84.0357 39.766C83.9856 39.7722 83.9354 39.7784 83.8852 39.7784C83.7034 39.7784 83.5278 39.7223 83.3836 39.6099C81.8222 38.4553 80.2609 37.8936 78.5992 37.8936C78.2104 37.8936 77.8091 37.9248 77.4078 37.9872C75.3699 38.3055 73.6643 39.3603 72.3475 41.1203C72.1908 41.3325 71.9337 41.4573 71.6703 41.4573C71.5512 41.4573 71.432 41.4323 71.3254 41.3824C70.8802 41.1827 70.4538 40.9643 70.0463 40.7583C69.7954 40.6335 69.5509 40.5087 69.3063 40.3901C68.2404 39.7847 67.0051 39.4352 65.682 39.4352H65.4249C61.4243 39.4352 58.17 42.6119 58.17 46.5126V62.2965H58.0383C58.0383 62.2965 56.2763 62.3027 54.5143 62.2965C53.6364 62.2965 52.7522 62.2965 52.0938 62.2965C51.7615 62.2965 51.4856 62.2965 51.2975 62.2965C51.1846 62.2965 51.0843 62.2965 50.9965 62.284C49.454 62.2965 47.9428 62.2965 46.5131 62.2965H44.3999H43.1208V39.1418C43.1145 33.5498 38.5433 29 32.9249 29H32.6114C26.9931 29 22.4219 33.5498 22.4219 39.1418V98.7447C22.4219 104.337 26.9931 108.887 32.6114 108.887H32.9249C38.5433 108.887 43.1145 104.337 43.1145 98.7447V75.9957H44.563H48.1936C50.9526 75.9957 53.072 75.9957 55.0661 76.0145C55.4486 76.0145 56.27 76.1767 56.6588 76.7759C57.6244 78.255 58.5901 79.7716 59.5244 81.2321C59.7815 81.6377 60.0448 82.0434 60.3082 82.4553L60.7471 83.1356C64.0538 88.8358 65.7092 91.6922 65.7134 91.7047V91.7234L65.7259 91.7421C65.9015 92.3101 66.0331 92.9092 66.1397 93.5583V93.5833V93.6082V137.084C66.1397 138.108 66.911 138.975 67.8641 139.019C67.8892 139.019 67.9206 139.019 67.9456 139.019C68.9427 139.019 69.7516 138.214 69.7516 137.221V92.2352C69.7516 91.9793 69.6888 91.7234 69.576 91.4738L69.5572 91.4363V91.3926C69.5133 91.1679 69.4443 90.9557 69.3377 90.7748L61.0983 76.5699L61.0105 76.4139L61.0983 76.2392C61.1547 76.1393 61.2676 76.0706 61.3867 76.0706H80.7939C81.0259 76.0706 81.2391 76.1643 81.4021 76.3328L81.6153 76.5574L81.3959 76.7759L77.5583 80.4956C77.1633 80.8826 76.9438 81.4193 76.9563 81.9685C76.9689 82.4678 77.1695 82.9109 77.527 83.223C77.8593 83.5101 78.2794 83.6723 78.7184 83.6723C79.1886 83.6723 79.6401 83.4913 79.9787 83.1606L93.222 70.3288C93.2722 70.2789 93.3098 70.2289 93.3537 70.1728L93.3788 70.1353L93.4415 70.0604L93.5355 70.0292C93.8114 69.9418 94.0811 69.9044 94.357 69.9044C94.7332 69.9044 95.0843 69.9044 95.4355 69.9044C96.1127 69.9044 96.7962 69.9044 97.4734 69.8982C98.1694 69.8982 98.8466 69.8919 99.5238 69.8919C100.703 69.8919 101.662 69.9044 102.546 69.9356C102.659 69.9356 102.766 69.9356 102.872 69.9356C105.424 69.9356 107.701 68.9433 109.826 66.9024C109.914 66.815 110.014 66.6715 110.127 66.503C110.202 66.3906 110.284 66.2721 110.372 66.1535C110.529 65.935 110.786 65.8102 111.055 65.8102C111.156 65.8102 111.256 65.8289 111.35 65.8664C111.701 65.9974 111.927 66.347 111.896 66.7214C111.425 72.2448 108.014 77.3813 105.004 81.9061C104.722 82.3305 104.446 82.7487 104.17 83.1668C102.966 85.0704 101.875 86.7867 100.753 88.5155C100.113 89.5016 99.6869 90.5376 99.4423 91.6922V91.7109L99.4361 91.7234C99.3734 91.9231 99.342 92.0916 99.342 92.2539V92.2976C99.2605 92.8468 99.2166 93.4085 99.2166 93.964C99.2166 100.255 99.2166 106.552 99.2166 112.843V113.137C99.2166 119.965 99.2166 126.786 99.2229 133.614C99.2229 133.945 99.2542 134.325 99.3295 134.825V134.85V134.875V137.103C99.3295 138.126 100.101 138.994 101.054 139.037C101.079 139.037 101.11 139.037 101.135 139.037C102.132 139.037 102.941 138.232 102.941 137.24C102.941 107.424 102.945 92.4994 102.954 92.4661L102.966 92.4287L102.985 92.3912C109.109 81.8354 112.184 76.545 112.209 76.52L112.234 76.495L112.265 76.4763C112.974 76.0457 113.789 75.9895 114.341 75.9895C114.429 75.9895 114.523 75.9895 114.617 75.9895C116.047 76.0332 117.608 76.0519 119.533 76.0519C120.612 76.0519 121.696 76.0519 122.787 76.0394C123.822 76.0394 124.844 76.027 125.879 76.027V98.7759C125.879 104.368 130.45 108.918 136.068 108.918H136.382C142 108.918 146.571 104.368 146.571 98.7759V39.1418C146.571 33.5498 142 29 136.382 29H136.388ZM39.3522 98.7447C39.3522 102.271 36.4678 105.142 32.9249 105.142H32.6114C29.0686 105.142 26.1842 102.271 26.1842 98.7447V39.1418C26.1842 35.6156 29.0686 32.7447 32.6114 32.7447H32.9249C36.4678 32.7447 39.3522 35.6156 39.3522 39.1418V98.7447ZM99.1664 45.8948C99.1852 43.1549 101.255 41.0017 103.882 40.9892C106.484 40.9892 108.635 43.1611 108.672 45.8323C108.698 47.5362 108.691 49.2462 108.685 50.9064C108.685 51.6366 108.685 52.3481 108.685 53.0596C108.685 53.3155 108.572 53.5526 108.372 53.7149C108.221 53.8335 108.033 53.9021 107.845 53.9021C107.782 53.9021 107.719 53.8959 107.663 53.8834C107.255 53.796 106.854 53.6962 106.459 53.5963C105.594 53.3779 104.772 53.1782 103.951 53.0845C103.537 53.0409 103.085 53.0159 102.527 53.0159C102.139 53.0159 101.75 53.0284 101.361 53.0346C100.947 53.0471 100.527 53.0533 100.101 53.0533C99.6743 53.0533 99.3106 52.735 99.2605 52.3106C99.2542 52.2357 99.2417 52.1671 99.2354 52.0984C99.2103 51.9299 99.1852 51.7427 99.1852 51.543V50.7816C99.179 49.1651 99.1727 47.5174 99.1852 45.8948H99.1664ZM86.4875 43.2735C86.5439 40.8332 88.5568 38.7487 90.9709 38.6301C91.0524 38.6301 91.1277 38.6301 91.2092 38.6301C93.6923 38.6301 95.7992 40.5149 95.912 42.8366C96.0124 45.021 95.9936 47.2366 95.9685 49.3835C95.9559 50.3135 95.9497 51.2309 95.9497 52.1484C95.9497 52.6227 95.5609 53.0096 95.0843 53.0096H87.3466C86.87 53.0096 86.4812 52.6227 86.4812 52.1484V50.457V46.756C86.4812 46.4065 86.4812 46.057 86.4812 45.7075C86.4812 44.9024 86.4687 44.0848 86.4938 43.2735H86.4875ZM73.8336 45.0834C73.9716 42.8304 76.1349 40.9955 78.6494 40.9955C78.7309 40.9955 78.8124 40.9955 78.8939 40.9955C81.5401 41.1203 83.5404 43.0488 83.5592 45.4766C83.5654 46.7997 83.5592 48.1166 83.5592 49.446V51.2122C83.5592 51.6428 83.1892 51.9923 82.7252 52.0048L79.0005 52.1172L74.6864 52.2482H74.6613C74.4419 52.2482 74.2349 52.1733 74.0782 52.036C73.9026 51.8862 73.8023 51.674 73.8023 51.4494C73.8023 50.8565 73.796 50.2448 73.7835 49.627C73.7584 48.1353 73.7396 46.6062 73.8336 45.0709V45.0834ZM61.4181 46.5126C61.4181 45.9197 61.556 45.358 61.8006 44.8525C62.7537 43.5356 64.2461 42.6431 65.8513 42.6119C67.977 42.6993 69.6826 44.4156 69.6826 46.5126V59.3382C68.7545 60.4678 67.3625 61.1731 65.7886 61.1731H65.6757C63.8385 61.1294 62.2709 60.0809 61.4243 58.5331V46.5126H61.4181ZM87.5786 70.7594L85.3902 72.8814L85.3275 72.9438L85.2334 72.9688C84.9261 73.0437 84.6063 73.0811 84.2677 73.0811C75.9029 73.0499 67.7387 73.0437 60.8537 73.0437H52.144H43.4343H43.1208V65.236H48.1685H53.141C58.2389 65.236 63.3368 65.236 68.4347 65.2235C69.3001 65.2235 69.8895 65.5294 70.4162 66.2533C72.1594 68.6437 74.561 69.8732 77.552 69.8982C78.6306 69.9106 79.7091 69.9106 80.7876 69.9106C81.6153 69.9106 82.443 69.9106 83.2707 69.9106H83.3522C84.205 69.9106 85.0578 69.9106 85.9169 69.9106H86.8825C87.2023 69.9106 87.4908 70.0916 87.635 70.3725L87.6475 70.3974L87.6601 70.4474L87.7416 70.6409L87.5786 70.7657V70.7594ZM109.017 62.5461C108.453 65.2173 105.957 67.1521 103.092 67.1521H78.7121C75.8339 67.1521 73.3571 65.2235 72.7865 62.5523H72.9307V59.5192C73.5076 57.6905 74.9686 56.2051 76.9563 55.6496H76.9752L77.0002 55.6434L77.4768 55.581H77.4956H77.5144C79.289 55.5685 81.1764 55.5623 83.6281 55.5623C84.7129 55.5623 85.7977 55.5623 86.8888 55.5623H86.9264C87.9987 55.5623 89.0709 55.5623 90.1432 55.5623C91.3095 55.5623 92.4695 55.5623 93.6359 55.5623H93.7675H93.7989C94.9966 55.5623 96.2005 55.5623 97.3982 55.5623C99.1852 55.5623 100.972 55.5623 102.759 55.5435H102.822C104.829 55.5435 106.503 56.2238 107.801 57.5657L107.826 57.5969L107.851 57.6281C108.961 59.0011 109.381 60.7923 109.011 62.5399L109.017 62.5461ZM114.749 72.9938C114.504 72.9938 114.266 72.8877 114.109 72.7004C113.946 72.5132 113.877 72.2635 113.921 72.0201L114.191 70.3538L114.893 66.0162C114.962 65.598 115.319 65.2922 115.746 65.2922H125.891V72.9938H114.749ZM142.822 98.7572C142.822 102.283 139.937 105.154 136.394 105.154H136.081C132.538 105.154 129.654 102.283 129.654 98.7572V39.1418C129.654 35.6156 132.538 32.7447 136.081 32.7447H136.394C139.937 32.7447 142.822 35.6156 142.822 39.1418V98.7447V98.7572Z" fill="#0D2957"/>
</g>
<defs>
<clipPath id="clip0_851_2286">
<rect width="153" height="110" fill="white" transform="translate(8 29)"/>
</clipPath>
</defs>
</svg>
