<svg width="169" height="169" viewBox="0 0 169 169" fill="none" xmlns="http://www.w3.org/2000/svg">
<g clip-path="url(#clip0_851_2256)">
<path d="M84.0188 70.0655C54.7611 70.0655 37.9795 61.5601 37.9795 46.7288C37.9795 38.3231 45.224 32.215 55.2085 32.215C69.0389 32.215 79.0607 43.7027 84.4785 51.9652C86.8768 48.2978 90.2816 43.8273 94.5562 40.1039C100.62 34.8176 107.088 32.134 113.786 32.134C120.484 32.134 126.436 35.0667 129.257 39.9793C130.425 42.0092 131.015 44.3129 131.021 46.8409C131.021 58.3847 114.879 70.0717 84.025 70.0717L84.0188 70.0655ZM55.2085 35.5586C47.1625 35.5586 41.3222 40.2533 41.3222 46.7226C41.3222 59.4307 56.886 66.7156 84.0188 66.7156C111.151 66.7156 127.678 56.4732 127.678 46.8346C127.678 44.9044 127.231 43.1548 126.361 41.6418C124.143 37.7814 119.44 35.4714 113.786 35.4714C100.26 35.4714 90.5177 48.3103 85.9138 55.9626C85.6093 56.4669 85.0688 56.772 84.4847 56.772C83.9007 56.772 83.3602 56.4669 83.0557 55.9626C78.458 48.3414 68.7283 35.5523 55.2085 35.5523V35.5586ZM76.6313 60.4892C76.5941 60.4892 76.5568 60.4892 76.5257 60.4892C64.9196 59.742 58.0293 57.2888 54.2952 55.3586C49.4986 52.8805 46.6344 49.5929 46.6344 46.5669C46.6344 43.1859 50.1634 40.8199 55.2147 40.8199C65.3359 40.8199 73.2203 50.1284 78.0542 57.9364C78.3835 58.4718 78.3897 59.1381 78.0666 59.6798C77.7621 60.1841 77.2216 60.4954 76.6376 60.4954L76.6313 60.4892ZM55.2085 44.1635C51.9715 44.1635 49.9708 45.4088 49.9708 46.5607C49.9708 47.5258 51.1948 49.9852 55.8236 52.3762C58.9053 53.9701 64.3666 55.9564 73.3508 56.8654C69.3744 51.1931 62.8941 44.1635 55.2147 44.1635H55.2085ZM92.4065 60.4892C91.8224 60.4892 91.2757 60.1841 90.9712 59.6735C90.6482 59.1318 90.6544 58.4594 90.9899 57.9301C95.861 50.1222 103.764 40.8199 113.786 40.8199C117.526 40.8199 120.508 42.1275 121.764 44.3192C122.385 45.4026 122.845 47.1958 121.471 49.5929C118.098 55.4582 107.274 59.5303 92.5183 60.483C92.481 60.483 92.4438 60.483 92.4127 60.483L92.4065 60.4892ZM113.786 44.1635C106.193 44.1635 99.7069 51.1931 95.7056 56.8654C109.511 55.4645 116.563 51.4235 118.576 47.9243C119.278 46.6977 118.974 46.1622 118.868 45.9878C118.477 45.3092 116.967 44.1635 113.78 44.1635H113.786Z" fill="#0D2957"/>
<path d="M142.229 70.3518H26.7707C25.7891 70.3518 25 69.5548 25 68.5773C25 67.5997 25.7953 66.8027 26.7707 66.8027H142.229C143.211 66.8027 144 67.5997 144 68.5773C144 69.5548 143.205 70.3518 142.229 70.3518Z" fill="#0D2957"/>
<path d="M84.4973 152.634C83.5156 152.634 82.7266 151.837 82.7266 150.859V78.639C82.7266 77.6553 83.5218 76.8645 84.4973 76.8645C85.4728 76.8645 86.268 77.6615 86.268 78.639V150.859C86.268 151.843 85.4728 152.634 84.4973 152.634Z" fill="#00A3E1"/>
<path d="M79.483 31.2187C78.8493 31.2187 78.2404 30.8638 77.9422 30.2474L70.853 15.4472C70.4429 14.5941 70.8033 13.573 71.6545 13.1683C72.4995 12.7573 73.5246 13.1185 73.9285 13.9715L81.0177 28.7717C81.4277 29.6247 81.0674 30.6459 80.2162 31.0506C79.9801 31.1627 79.7253 31.2187 79.4768 31.2187H79.483Z" fill="#00A3E1"/>
<path d="M89.5171 31.2187C89.2686 31.2187 89.0201 31.1626 88.7777 31.0506C87.9265 30.6396 87.5724 29.6185 87.9763 28.7717L95.0716 13.9715C95.4817 13.1184 96.5007 12.7635 97.3456 13.1683C98.1968 13.5792 98.551 14.6003 98.1471 15.4471L91.058 30.2474C90.7659 30.8576 90.1571 31.2187 89.5171 31.2187Z" fill="#00A3E1"/>
<path d="M126.734 155H42.2663C38.0352 155 34.5869 151.551 34.5869 147.304V82.7796C34.5869 78.5332 38.029 75.0837 42.2663 75.0837H126.734C130.965 75.0837 134.413 78.5332 134.413 82.7796V147.304C134.413 151.551 130.971 155 126.734 155ZM42.2663 78.639C39.9861 78.639 38.1346 80.5007 38.1346 82.7796V147.304C38.1346 149.589 39.9923 151.445 42.2663 151.445H126.734C129.014 151.445 130.866 149.583 130.866 147.304V82.7796C130.866 80.4945 129.008 78.639 126.734 78.639H42.2663Z" fill="#0D2957"/>
</g>
<defs>
<clipPath id="clip0_851_2256">
<rect width="119" height="142" fill="white" transform="translate(25 13)"/>
</clipPath>
</defs>
</svg>
