<svg width="169" height="169" viewBox="0 0 169 169" fill="none" xmlns="http://www.w3.org/2000/svg">
<g clip-path="url(#clip0_851_2319)">
<path d="M67.6292 93.315C66.184 93.315 64.7388 92.8082 63.5739 91.776C61.0385 89.53 60.8018 85.6262 63.0381 83.0862C65.2745 80.5399 69.1617 80.3022 71.6908 82.5481C74.2262 84.7941 74.463 88.6979 72.2266 91.2379C71.0181 92.6143 69.3237 93.315 67.6292 93.315ZM67.6292 84.5501C66.9066 84.5501 66.1902 84.8504 65.6794 85.4322C64.7263 86.5145 64.8322 88.1662 65.9037 89.1234C66.9814 90.0805 68.626 89.9742 69.5791 88.8981C70.5322 87.8158 70.4263 86.1642 69.3548 85.207C68.8627 84.7691 68.246 84.5564 67.6355 84.5564L67.6292 84.5501Z" fill="#00A3E1"/>
<path d="M102.358 124.139C100.913 124.139 99.468 123.632 98.3031 122.6C97.0759 121.511 96.3471 120.01 96.2412 118.365C96.1415 116.726 96.6834 115.143 97.7674 113.91C100.004 111.364 103.891 111.126 106.42 113.372C108.955 115.618 109.192 119.522 106.956 122.062C105.747 123.438 104.053 124.139 102.358 124.139ZM102.365 115.368C102.309 115.368 102.259 115.368 102.203 115.368C101.511 115.412 100.876 115.725 100.415 116.244C99.9539 116.769 99.7234 117.439 99.767 118.133C99.8106 118.828 100.122 119.466 100.639 119.929C101.717 120.886 103.361 120.78 104.315 119.703C105.268 118.621 105.162 116.97 104.09 116.012C103.611 115.587 103.006 115.355 102.371 115.355L102.365 115.368Z" fill="#00A3E1"/>
<path d="M68.863 122.688C68.4457 122.688 68.0283 122.544 67.6919 122.243C66.9631 121.593 66.8945 120.473 67.5362 119.741L99.811 83.0612C100.459 82.3292 101.574 82.2604 102.303 82.9048C103.032 83.5554 103.1 84.6753 102.458 85.4072L70.1837 122.087C69.8348 122.481 69.3489 122.688 68.863 122.688Z" fill="#00A3E1"/>
<path d="M138.982 138.972L133.568 56.9166C133.275 52.4372 129.233 48.9275 124.367 48.9275H112.799C111.335 33.2558 99.4246 21 84.9972 21C70.5698 21 58.6591 33.2558 57.1889 48.9275H45.6208C40.7556 48.9275 36.7189 52.4372 36.4199 56.9166L31.019 138.972C30.8695 141.2 31.6544 143.352 33.2304 145.041C34.9809 146.924 37.5288 148 40.2199 148H129.787C132.478 148 135.02 146.924 136.776 145.041C138.346 143.352 139.131 141.2 138.988 138.972H138.982ZM84.9972 24.541C97.4872 24.541 107.816 35.214 109.255 48.9212H86.3054C85.8693 48.9212 85.4333 48.9525 84.9972 49.0088C84.5611 48.9525 84.1188 48.9212 83.689 48.9212H60.7397C62.1787 35.2077 72.5009 24.541 84.9972 24.541ZM134.191 142.613C133.101 143.783 131.494 144.453 129.781 144.453H40.2137C38.5006 144.453 36.8871 143.783 35.8032 142.613C34.9062 141.65 34.4576 140.436 34.5386 139.204L39.9458 57.1543C40.1202 54.5268 42.612 52.4747 45.6208 52.4747H57.0332V61.7714C57.0332 62.7473 57.8243 63.5419 58.7961 63.5419C59.7679 63.5419 60.5591 62.7473 60.5591 61.7714V52.4747H83.6828C84.0192 52.4747 84.368 52.506 84.7106 52.5561C84.8975 52.5873 85.0844 52.5873 85.2713 52.5561C85.6139 52.4998 85.9628 52.4747 86.2991 52.4747H109.423V61.7714C109.423 62.7473 110.214 63.5419 111.186 63.5419C112.158 63.5419 112.949 62.7473 112.949 61.7714V52.4747H124.361C127.37 52.4747 129.868 54.533 130.036 57.1543L135.45 139.21C135.531 140.449 135.082 141.656 134.185 142.62L134.191 142.613Z" fill="#0D2957"/>
</g>
<defs>
<clipPath id="clip0_851_2319">
<rect width="108" height="127" fill="white" transform="translate(31 21)"/>
</clipPath>
</defs>
</svg>
