<svg width="169" height="169" viewBox="0 0 169 169" fill="none" xmlns="http://www.w3.org/2000/svg">
<g clip-path="url(#clip0_851_2121)">
<path d="M56.7169 19.2876C55.9381 18.7689 54.8479 18.9751 54.3308 19.7564C53.8137 20.5376 54.0193 21.6314 54.798 22.1501C54.798 22.1501 59.1591 25.0126 54.3806 31.3126C47.3717 40.5251 54.742 45.4189 54.798 45.4189C55.5768 45.9376 56.6671 45.7314 57.1842 44.9501C57.7013 44.1689 57.4957 43.0751 56.7169 42.5564C56.7169 42.5564 52.3558 39.6939 57.1343 33.3939C64.1433 24.1814 56.773 19.2876 56.7169 19.2876Z" fill="#0D2957"/>
<path d="M83.5879 19.2876C82.8092 18.7689 81.7687 18.9751 81.2018 19.7564C80.6847 20.5376 80.8903 21.6314 81.6691 22.1501C81.6691 22.1501 86.0302 25.0126 81.2516 31.3126C74.2427 40.5251 81.6691 45.4189 81.6691 45.4189C82.4478 45.9376 83.5381 45.7314 84.0552 44.9501C84.6284 44.1689 84.4166 43.0751 83.5879 42.5564C83.5879 42.5564 79.2268 39.6939 84.0054 33.3939C91.0143 24.1814 83.644 19.2876 83.5879 19.2876Z" fill="#0D2957"/>
<path d="M110.521 19.2876C109.686 18.7689 108.652 18.9751 108.079 19.7564C107.562 20.5376 107.767 21.6314 108.546 22.1501C108.546 22.1501 112.907 25.0126 108.129 31.3126C101.12 40.5251 108.546 45.4189 108.546 45.4189C109.325 45.9376 110.415 45.7314 110.932 44.9501C111.505 44.1689 111.293 43.0751 110.515 42.5564C110.459 42.5564 106.104 39.6939 110.876 33.3939C117.885 24.1814 110.515 19.2876 110.515 19.2876H110.521Z" fill="#0D2957"/>
<path d="M139.366 102.919C138.363 102.919 137.547 102.1 137.547 101.094C137.547 100.088 138.363 99.2687 139.366 99.2687C154.618 99.2687 157.658 78.65 158.231 72.2438H138.494C137.491 72.2438 136.675 71.425 136.675 70.4187C136.675 69.4125 137.491 68.5938 138.494 68.5938H160.175C160.667 68.5938 161.134 68.7937 161.477 69.15C161.82 69.5062 162.007 69.9813 161.994 70.475C161.988 70.8 161.739 78.525 158.96 86.375C155.135 97.2063 148.356 102.931 139.36 102.931L139.366 102.919Z" fill="#0D2957"/>
<path d="M35.5908 119.844C36.8777 119.844 37.9209 118.797 37.9209 117.506C37.9209 116.215 36.8777 115.169 35.5908 115.169C34.304 115.169 33.2607 116.215 33.2607 117.506C33.2607 118.797 34.304 119.844 35.5908 119.844Z" fill="#0D2957"/>
<path d="M45.958 135.381C47.2449 135.381 48.2881 134.335 48.2881 133.044C48.2881 131.753 47.2449 130.706 45.958 130.706C44.6711 130.706 43.6279 131.753 43.6279 133.044C43.6279 134.335 44.6711 135.381 45.958 135.381Z" fill="#0D2957"/>
<path d="M19.168 118.019C20.4548 118.019 21.498 116.972 21.498 115.681C21.498 114.39 20.4548 113.344 19.168 113.344C17.8811 113.344 16.8379 114.39 16.8379 115.681C16.8379 116.972 17.8811 118.019 19.168 118.019Z" fill="#0D2957"/>
<path d="M27.9834 133.1C29.2703 133.1 30.3135 132.054 30.3135 130.763C30.3135 129.472 29.2703 128.425 27.9834 128.425C26.6965 128.425 25.6533 129.472 25.6533 130.763C25.6533 132.054 26.6965 133.1 27.9834 133.1Z" fill="#0D2957"/>
<path d="M46.6426 109.7C47.9294 109.7 48.9727 108.654 48.9727 107.363C48.9727 106.072 47.9294 105.025 46.6426 105.025C45.3557 105.025 44.3125 106.072 44.3125 107.363C44.3125 108.654 45.3557 109.7 46.6426 109.7Z" fill="#0D2957"/>
<path d="M54.25 124.313C55.5369 124.313 56.5801 123.266 56.5801 121.975C56.5801 120.684 55.5369 119.638 54.25 119.638C52.9631 119.638 51.9199 120.684 51.9199 121.975C51.9199 123.266 52.9631 124.313 54.25 124.313Z" fill="#0D2957"/>
<path d="M135.909 127.094H67.6825C66.8228 127.094 66.125 126.394 66.125 125.531C66.125 124.669 66.8228 123.969 67.6825 123.969H135.909C136.769 123.969 137.466 124.669 137.466 125.531C137.466 126.394 136.769 127.094 135.909 127.094Z" fill="#0D2957"/>
<path d="M135.622 50.7625H29.3422C27.2426 50.7625 25.5293 52.6063 25.5293 54.875C25.5293 55.1688 25.6664 77.8625 34.9368 100.419C35.8091 100.012 36.7249 99.6937 37.6781 99.4562C28.5821 77.4437 28.4388 55.1625 28.4388 54.8687C28.4388 54.225 28.85 53.675 29.3422 53.675H135.622C136.115 53.675 136.526 54.2187 136.526 54.8687C136.526 55.2187 136.314 87.6187 120.402 112.894C119.792 113.869 120.477 115.131 121.623 115.131C122.122 115.131 122.589 114.875 122.857 114.45C139.23 88.4187 139.429 55.225 139.429 54.8625C139.429 52.5938 137.716 50.75 135.616 50.75L135.622 50.7625Z" fill="#0D2957"/>
<path d="M121.629 115.438C120.981 115.438 120.408 115.1 120.096 114.531C119.785 113.963 119.804 113.288 120.152 112.738C136.046 87.4875 136.226 55.1938 136.226 54.875C136.226 54.4125 135.94 53.9875 135.622 53.9875H29.3418C29.0303 53.9875 28.7374 54.4125 28.7374 54.875C28.7374 55.0938 28.8434 77.2938 37.9518 99.3438L38.0889 99.6688L37.7462 99.7563C36.8304 99.9813 35.927 100.3 35.061 100.7L34.7745 100.831L34.6561 100.538C25.3295 77.8438 25.2236 55.1 25.2236 54.875C25.2236 52.4375 27.0678 50.4563 29.3418 50.4563H135.622C137.89 50.4563 139.74 52.4375 139.74 54.875C139.74 55.2063 139.547 88.4938 123.118 114.625C122.794 115.138 122.24 115.444 121.629 115.444V115.438ZM29.3418 53.375H135.622C136.289 53.375 136.831 54.0438 136.831 54.875C136.831 55.2 136.644 87.6688 120.663 113.063C120.433 113.425 120.42 113.863 120.626 114.238C120.832 114.606 121.205 114.831 121.629 114.831C122.022 114.831 122.395 114.625 122.607 114.294C138.943 88.3125 139.136 55.2 139.136 54.8688C139.136 52.7688 137.56 51.0625 135.628 51.0625H29.3418C27.4042 51.0625 25.8342 52.7688 25.8342 54.8688C25.8342 55.0938 25.9401 77.525 35.1047 100.006C35.8087 99.7 36.5314 99.4438 37.2665 99.2438C28.239 77.1875 28.1393 55.0875 28.1393 54.8688C28.1393 54.0438 28.6814 53.3688 29.348 53.3688L29.3418 53.375Z" fill="#0D2957"/>
<path d="M38.9051 149C24.5446 149 11.4737 139.188 7.92874 124.588C4.78874 111.675 9.78532 98.4064 20.6507 90.7939C21.1429 90.4502 21.7721 90.3689 22.3329 90.5814C22.8936 90.7939 23.3172 91.2689 23.4605 91.8564L25.4292 99.9627L55.9819 94.6002C56.9725 94.4252 57.9133 95.0877 58.0877 96.0814L60.2496 108.4L65.1963 103.638C65.6262 103.225 66.2305 103.044 66.8162 103.163C67.4018 103.281 67.8877 103.675 68.1245 104.225C68.8659 105.931 69.4515 107.681 69.8814 109.438C74.0431 126.575 63.5329 143.906 46.456 148.088C43.9328 148.706 41.3971 149 38.9051 149ZM20.5884 95.4439C12.4643 102.356 8.90064 113.169 11.4675 123.725C15.1557 138.906 30.4632 148.244 45.5963 144.544C60.7293 140.844 70.0371 125.488 66.3489 110.306C66.1745 109.6 65.9751 108.888 65.7383 108.181L60.3119 113.406C59.8259 113.875 59.1281 114.031 58.4864 113.825C57.851 113.613 57.3775 113.069 57.2591 112.406L54.8231 98.5127L24.3826 103.856C23.4418 104.025 22.526 103.425 22.3017 102.488L20.5884 95.4439Z" fill="#00A3E1"/>
</g>
<defs>
<clipPath id="clip0_851_2121">
<rect width="155" height="130" fill="white" transform="translate(7 19)"/>
</clipPath>
</defs>
</svg>
