<svg width="169" height="169" viewBox="0 0 169 169" fill="none" xmlns="http://www.w3.org/2000/svg">
<g clip-path="url(#clip0_851_2238)">
<path d="M97.8378 100.71H73.2128C72.6878 100.71 72.1878 100.479 71.8503 100.084C71.5128 99.6901 71.3565 99.1581 71.4315 98.6386C71.844 95.8659 71.9815 89.7072 72.1003 84.2683C72.1503 82.0652 72.194 80.0248 72.2565 78.3725C72.194 78.3725 72.1315 78.3725 72.0628 78.3725C71.4128 78.36 70.8253 78.0721 70.4065 77.5714C69.4003 76.3634 69.7003 74.4232 70.369 70.1797C71.1128 65.4418 72.1253 58.9576 71.394 52.3483C71.3878 52.2795 71.3815 52.2169 71.3815 52.148V51.5722C71.3003 50.2829 71.7878 49.1501 72.7565 48.3802C74.8503 46.7091 78.519 47.2286 80.4253 47.8169C83.1628 48.4053 90.3315 48.4866 94.8128 47.3913C96.369 47.0158 98.0065 47.4226 99.194 48.4929C100.394 49.5694 100.988 51.1717 100.782 52.7677C100.05 58.4194 99.7628 66.2554 99.6503 71.8383C99.619 73.4155 99.7128 74.9615 99.9378 76.4323C99.9378 76.4323 99.9378 76.4698 99.944 76.4824C100.369 79.2738 100.813 81.5958 101.169 83.4609C102.075 88.2051 102.488 90.3707 100.575 91.3971C100.269 91.5599 99.9565 91.6475 99.6565 91.6788V98.8889C99.6565 99.8841 98.8503 100.691 97.8565 100.691L97.8378 100.71ZM75.219 97.0989H96.0315V89.1064C96.0315 88.4117 96.4253 87.7858 97.0503 87.4791C97.4128 87.3039 97.8128 87.26 98.1878 87.3352C98.0503 86.4339 97.8315 85.2823 97.6128 84.1494C97.2503 82.253 96.8003 79.8872 96.3628 77.0206C96.3628 77.0206 96.3628 76.9893 96.3565 76.9705C96.1065 75.3057 95.994 73.5595 96.0315 71.782C96.144 66.1115 96.4378 58.1315 97.194 52.3233C97.2753 51.7162 96.9315 51.3344 96.7753 51.1967C96.6253 51.0653 96.2253 50.7711 95.6503 50.9151C90.8815 52.0792 82.944 52.098 79.5565 51.3407C79.5065 51.3281 79.4565 51.3156 79.4003 51.2968C77.344 50.6397 75.2753 50.8712 74.969 51.2343C74.969 51.2343 74.969 51.2781 74.969 51.372C74.969 51.422 74.969 51.4721 74.969 51.5159V52.0542C75.7315 59.1079 74.6378 66.1052 73.9128 70.743C73.7503 71.7695 73.5815 72.871 73.469 73.7785C73.919 73.5783 74.444 73.5595 74.9128 73.7598C75.6503 74.0727 76.1003 74.8175 76.0128 75.6124C75.8565 77.0394 75.7753 80.5944 75.6878 84.3497C75.5878 88.8248 75.4753 93.7755 75.2065 97.0989H75.219Z" fill="#00A3E1"/>
<path d="M86.1309 44.675C81.2371 44.675 77.2559 40.6943 77.2559 35.7999C77.2559 32.0697 78.9559 30.4799 80.4621 29.0842C82.1559 27.5133 83.8996 25.886 83.8996 19.8086C83.8996 18.8135 84.7059 18.0061 85.6996 18.0061C89.9246 18.0061 95.0121 27.8512 95.0121 34.0287C95.0121 39.3299 92.2684 44.675 86.1309 44.675ZM87.3121 23.1446C86.6621 28.2393 84.5371 30.2171 82.9184 31.7254C81.5934 32.9584 80.8621 33.6344 80.8621 35.7937C80.8621 38.6978 83.2246 41.0574 86.1309 41.0574C89.4371 41.0574 91.4059 38.4286 91.4059 34.0224C91.4059 30.0982 89.1246 25.4979 87.3059 23.1383L87.3121 23.1446Z" fill="#00A3E1"/>
<path d="M127.169 54.5764C126.244 54.5764 125.5 53.8253 125.5 52.9053V38.4599C125.5 37.5336 126.25 36.7888 127.169 36.7888C128.087 36.7888 128.837 37.5399 128.837 38.4599V52.9053C128.837 53.8316 128.087 54.5764 127.169 54.5764Z" fill="#0D2957"/>
<path d="M136.181 54.5764C135.256 54.5764 134.513 53.8253 134.513 52.9053V38.4599C134.513 37.5336 135.263 36.7888 136.181 36.7888C137.1 36.7888 137.85 37.5399 137.85 38.4599V52.9053C137.85 53.8316 137.1 54.5764 136.181 54.5764Z" fill="#0D2957"/>
<path d="M118.156 54.5764C117.231 54.5764 116.487 53.8253 116.487 52.9053V38.4599C116.487 37.5336 117.237 36.7888 118.156 36.7888C119.075 36.7888 119.825 37.5399 119.825 38.4599V52.9053C119.825 53.8316 119.075 54.5764 118.156 54.5764Z" fill="#0D2957"/>
<path d="M39.4246 70.1047C39.4559 69.3599 39.0371 68.6777 38.3559 68.371C37.4184 67.9517 36.5309 67.3508 35.7121 66.5685C34.8184 65.7173 34.0309 64.6846 33.3621 63.4954C31.9559 60.9668 31.2121 57.9501 31.2121 54.7581C31.2121 50.8651 32.3246 47.2287 34.3371 44.5061C35.2871 43.2231 36.3871 42.2217 37.5996 41.5269C40.0434 40.1312 42.8246 40.1375 45.2621 41.5269C46.4746 42.2217 47.5746 43.2231 48.5246 44.5061C50.5434 47.2287 51.6496 50.8713 51.6496 54.7581C51.6496 57.9438 50.9059 60.9668 49.4996 63.4954C48.8371 64.6846 48.0496 65.7173 47.1496 66.5685C46.3309 67.3446 45.4434 67.9517 44.5059 68.371C43.8309 68.6714 43.4059 69.3599 43.4371 70.1047L44.6746 97.4433H48.2871L47.0996 71.1061C47.9934 70.5929 48.8434 69.9482 49.6371 69.1972C50.7996 68.0956 51.8121 66.7688 52.6496 65.2604C54.3559 62.1998 55.2621 58.5697 55.2621 54.7643C55.2621 50.1078 53.8996 45.7016 51.4246 42.3593C50.1746 40.6695 48.6996 39.3363 47.0496 38.3913C45.2746 37.3836 43.3871 36.8704 41.4309 36.8704C39.4746 36.8704 37.5871 37.3836 35.8121 38.3913C34.1621 39.3301 32.6871 40.6695 31.4371 42.3531C28.9621 45.689 27.5996 50.0953 27.5996 54.7581C27.5996 58.5634 28.4996 62.1873 30.2059 65.2541C31.0496 66.7625 32.0621 68.0894 33.2184 69.1909C34.0121 69.942 34.8621 70.5866 35.7559 71.0999L34.4371 100.222C35.6059 99.59 36.8371 99.0518 38.1184 98.6262L39.4059 70.0985L39.4246 70.1047Z" fill="#0D2957"/>
<path d="M125.231 72.2951C125.281 71.3062 124.518 70.4613 123.531 70.405C122.5 70.3486 121.612 69.9418 120.962 69.2346C120.268 68.4773 119.887 67.4258 119.887 66.3054C119.887 66.2429 119.893 63.658 119.9 61.9243H123.206C123.543 61.9243 123.918 61.9243 124.231 61.9243H130.006C130.343 61.9243 130.718 61.9243 131.031 61.9243H134.362C134.362 62.5251 134.362 63.2261 134.362 63.8895V66.2554C134.362 67.4195 133.987 68.471 133.293 69.2283C132.643 69.9356 131.756 70.3424 130.725 70.3987C129.737 70.455 128.975 71.3 129.025 72.2889L130.268 98.432C131.543 98.82 132.775 99.3145 133.95 99.9091L132.7 73.7034C133.95 73.3278 135.068 72.6394 135.95 71.6818C137.256 70.261 137.975 68.3333 137.975 66.2679C137.975 66.2429 137.975 65.135 137.975 63.8895C137.975 62.2935 137.968 60.4722 137.968 60.4034V60.128C137.968 59.1328 137.162 58.3254 136.168 58.3254H131.018C130.712 58.3254 130.368 58.3254 130.037 58.3254H124.218C123.912 58.3254 123.568 58.3254 123.237 58.3254H118.106C117.112 58.3254 116.306 59.1328 116.306 60.128V60.4034C116.306 60.5223 116.293 66.0488 116.287 66.2679C116.287 68.3333 117.006 70.261 118.312 71.6818C119.193 72.6394 120.312 73.3278 121.556 73.7034L120.425 97.4368H124.037L125.237 72.2951H125.231Z" fill="#0D2957"/>
<path d="M133.962 99.909C132.787 99.3207 131.562 98.82 130.281 98.4319C129.325 98.144 128.344 97.9062 127.337 97.7435C126.55 97.5369 125.762 97.4368 124.987 97.4368H44.6125C44.2 97.4368 43.7688 97.4681 43.2875 97.5432C41.5063 97.7059 39.7812 98.0814 38.1375 98.6259C36.8562 99.0515 35.625 99.5898 34.4563 100.222C27.05 104.215 22 112.089 22 120.907V143.001C22 147.407 25.5813 150.994 29.9813 150.994H139C143.4 150.994 146.981 147.407 146.981 143.001V127.936C146.988 127.798 146.994 127.661 146.994 127.529V120.907C146.994 111.907 141.713 103.815 133.956 99.909H133.962ZM143.381 143.007C143.381 145.423 141.419 147.388 139.006 147.388H29.9813C27.5688 147.388 25.6062 145.423 25.6062 143.007V129.156C31.5563 128.75 34.7875 126.346 37.4313 124.387C37.45 124.375 37.4688 124.356 37.4938 124.343C39.625 122.766 41.325 121.521 44.0813 121.521C45.5625 121.521 46.7313 121.884 47.8313 122.466C48.7938 122.973 49.7 123.636 50.7 124.381C53.6 126.534 57.2063 129.219 64.35 129.219C71.4938 129.219 75.0563 126.534 77.9875 124.375C80.15 122.779 81.8625 121.521 84.5562 121.521C87.25 121.521 89.0563 122.785 91.2063 124.387C94.0938 126.54 97.6812 129.219 104.831 129.219C111.981 129.219 115.556 126.54 118.456 124.387C119.288 123.774 120.05 123.204 120.831 122.741C122.088 121.996 123.388 121.514 125.106 121.514C127.763 121.514 129.444 122.716 131.519 124.256C131.562 124.293 131.612 124.325 131.656 124.356C134.287 126.309 137.512 128.7 143.375 129.138V143.001L143.381 143.007ZM143.394 125.52C138.95 125.132 136.469 123.43 134.137 121.708C134.025 121.627 133.919 121.546 133.806 121.464C132.944 120.826 132.075 120.181 131.125 119.618C129.475 118.642 127.587 117.909 125.112 117.909C124.375 117.909 123.694 117.972 123.056 118.085C121.681 118.329 120.506 118.798 119.437 119.386C118.312 120.006 117.306 120.751 116.319 121.483C113.588 123.511 110.769 125.601 104.844 125.601C98.9188 125.601 96.0875 123.511 93.375 121.483C91.0125 119.724 88.575 117.903 84.575 117.903C80.575 117.903 78.2438 119.712 75.8688 121.458C73.1 123.499 70.2375 125.601 64.3688 125.601C58.5 125.601 55.5937 123.505 52.8687 121.477C51.7312 120.632 50.5688 119.768 49.225 119.105C48.1688 118.579 46.9938 118.179 45.6313 118.003C45.1438 117.941 44.6375 117.903 44.1 117.903C41.3875 117.903 39.3875 118.748 37.6375 119.843C36.8188 120.357 36.0563 120.92 35.3063 121.477C35.1 121.627 34.8937 121.784 34.6875 121.934C32.4312 123.586 29.9563 125.176 25.6312 125.52V120.901C25.6312 114.21 29.0562 108.164 34.2812 104.547C35.4312 103.752 36.675 103.076 37.9812 102.531C39.7687 101.793 41.6813 101.305 43.6875 101.123C43.725 101.123 43.7562 101.117 43.7937 101.111C44.125 101.061 44.3937 101.036 44.6437 101.036H125.013C125.5 101.036 126.006 101.104 126.513 101.242C126.575 101.261 126.638 101.273 126.7 101.28C128.013 101.492 129.281 101.837 130.494 102.294C131.8 102.788 133.037 103.408 134.194 104.152C139.756 107.726 143.425 113.998 143.425 120.895V125.501L143.394 125.52Z" fill="#0D2957"/>
</g>
<defs>
<clipPath id="clip0_851_2238">
<rect width="125" height="133" fill="white" transform="translate(22 18)"/>
</clipPath>
</defs>
</svg>
