<svg width="169" height="169" viewBox="0 0 169 169" fill="none" xmlns="http://www.w3.org/2000/svg">
<g clip-path="url(#clip0_851_2276)">
<path d="M94.3184 148C93.5136 148 92.7151 147.981 91.9355 147.943C91.1558 147.906 90.3573 147.843 89.5651 147.767C88.8043 147.692 88.0121 147.598 87.2073 147.478C86.4277 147.365 85.6417 147.227 84.8621 147.069C84.095 146.919 83.3154 146.743 82.542 146.548C81.7498 146.346 80.9765 146.133 80.2471 145.913C79.4612 145.674 78.7004 145.422 77.9899 145.164C77.248 144.9 76.4998 144.611 75.7704 144.309C75.0788 144.026 74.3432 143.699 73.6013 143.347C72.8594 142.995 72.1489 142.637 71.4698 142.272C70.7719 141.895 70.074 141.505 69.4013 141.096C68.7348 140.7 68.0557 140.273 67.3893 139.826C66.7228 139.38 66.0689 138.921 65.4464 138.456C64.8051 137.978 64.1701 137.487 63.5665 136.991C62.9503 136.488 62.3467 135.96 61.762 135.431C61.1773 134.903 60.5988 134.35 60.0392 133.79C59.4859 133.237 58.9389 132.659 58.3982 132.068C57.8826 131.502 57.3608 130.892 56.8452 130.269C56.3548 129.672 55.8644 129.043 55.3802 128.396C54.9087 127.761 54.4434 127.1 54.0096 126.447C53.5946 125.824 53.1796 125.17 52.7395 124.441C52.3057 123.712 51.9221 123.033 51.5637 122.36C51.1991 121.681 50.8407 120.964 50.4949 120.241C50.1616 119.53 49.8347 118.801 49.5329 118.065C49.2248 117.317 48.9356 116.575 48.6778 115.84C48.3949 115.054 48.1497 114.312 47.9296 113.576C47.697 112.803 47.4832 112.029 47.2946 111.288C47.1059 110.533 46.9299 109.753 46.7727 108.974C46.6155 108.175 46.4772 107.389 46.364 106.622C46.2508 105.88 46.1565 105.107 46.0748 104.271C45.9993 103.472 45.9365 102.674 45.8987 101.888C45.861 101.114 45.8422 100.316 45.8422 99.5112V78.6494C45.4335 78.5425 45.0248 78.4356 44.6161 78.3161C43.6981 78.0458 42.799 77.7377 41.9439 77.3982C41.0888 77.0649 40.2212 76.6814 39.3661 76.2664C38.5299 75.8515 37.6936 75.3988 36.8888 74.9083C36.1029 74.4305 35.3107 73.9086 34.5436 73.3491C33.7828 72.7958 33.0472 72.2047 32.3367 71.5949C31.6325 70.985 30.9472 70.3311 30.287 69.6583C29.6268 68.9793 28.9981 68.2751 28.407 67.552C27.8223 66.8415 27.2564 66.0808 26.722 65.3011C26.1813 64.5089 25.6846 63.7041 25.2319 62.8993C24.7729 62.0882 24.3454 61.2457 23.9555 60.3843C23.5657 59.5418 23.2136 58.6616 22.8992 57.775C22.5849 56.8948 22.3082 55.9894 22.0693 55.084C21.8304 54.166 21.6292 53.2418 21.472 52.3301C21.3148 51.4058 21.1891 50.469 21.1136 49.5322C21.0319 48.5891 20.9941 47.6397 20.9941 46.7154V28.0982C20.9941 27.5764 21.0444 27.042 21.1513 26.5201C21.2519 26.0045 21.4091 25.4952 21.6103 24.9985C21.8115 24.5081 22.063 24.0365 22.3648 23.5901C22.6603 23.15 22.9998 22.735 23.3645 22.3641C23.7292 21.9994 24.1442 21.6599 24.5843 21.3581C25.0307 21.0563 25.5085 20.8048 25.999 20.6036C26.4894 20.4024 26.9987 20.2452 27.5142 20.1446C28.0361 20.044 28.5705 19.9874 29.0924 19.9874H35.3044C35.8262 19.9874 36.3607 20.0377 36.8825 20.1446C37.3981 20.2452 37.9074 20.4024 38.4041 20.6036C38.8882 20.7985 39.3598 21.0563 39.8062 21.3518C40.2589 21.6536 40.6676 21.9931 41.0323 22.3578C41.4032 22.7288 41.7365 23.1374 42.0382 23.5839C42.3338 24.024 42.5853 24.4955 42.7927 24.9922C42.9939 25.4827 43.1511 25.9919 43.2517 26.5075C43.3523 27.0294 43.4089 27.5638 43.4089 28.0857C43.4089 28.6075 43.3586 29.1357 43.2517 29.6575C43.1511 30.1668 42.9939 30.6761 42.7927 31.1791C42.5853 31.6758 42.3338 32.1411 42.0445 32.5812C41.749 33.0213 41.4095 33.4363 41.0385 33.8073C40.6613 34.1845 40.2463 34.524 39.8062 34.8132C39.3661 35.1088 38.8882 35.3603 38.4041 35.5615C38.0206 35.7186 37.6182 35.8507 37.1969 35.9513V46.7091C37.1969 47.2435 37.2221 47.7968 37.2786 48.3564C37.3289 48.8846 37.4107 49.4379 37.5176 49.9849C37.6245 50.513 37.7565 51.0537 37.9137 51.5693C38.0772 52.0975 38.2595 52.6193 38.467 53.116C38.6745 53.6127 38.9008 54.1032 39.1712 54.6062C39.429 55.0903 39.7119 55.5618 40.0137 56.0083C40.3092 56.4484 40.6361 56.8948 40.9945 57.3349C41.3341 57.7436 41.705 58.1586 42.1011 58.5547C42.4784 58.9319 42.8933 59.3092 43.3146 59.655C43.7359 60.0008 44.1823 60.334 44.635 60.6295C45.0814 60.925 45.5592 61.2143 46.0496 61.4721C46.5275 61.7298 47.0305 61.9688 47.5335 62.1762C48.0553 62.39 48.5772 62.5786 49.0739 62.7295C49.6083 62.893 50.1428 63.0251 50.6709 63.1319C51.1928 63.2388 51.7398 63.3143 52.2994 63.3709C53.3682 63.4778 54.5063 63.4778 55.5751 63.3709C56.1347 63.3143 56.6817 63.2325 57.2036 63.1319C57.738 63.0251 58.2725 62.893 58.8006 62.7295C59.3036 62.5786 59.8255 62.39 60.3536 62.1762C60.8503 61.9688 61.3533 61.7298 61.8312 61.4721C62.3216 61.2143 62.7931 60.925 63.2458 60.6295C63.7048 60.3215 64.1512 59.9882 64.5662 59.6487C64.9875 59.3029 65.3961 58.9319 65.786 58.5421C66.1758 58.146 66.5468 57.7373 66.8863 57.3223C67.2447 56.8822 67.5716 56.4421 67.8608 56.0083C68.1626 55.5556 68.4456 55.084 68.7096 54.5936C68.9737 54.0969 69.2063 53.6127 69.4075 53.116C69.615 52.613 69.8036 52.0912 69.9671 51.563C70.1243 51.0412 70.2626 50.5067 70.3632 49.9786C70.4701 49.4316 70.5519 48.8846 70.6084 48.3438C70.6587 47.8031 70.6839 47.2498 70.6839 46.7091V35.9513C70.2689 35.8507 69.8602 35.7186 69.4704 35.5552C68.9863 35.354 68.5147 35.1025 68.0746 34.807C67.6408 34.5177 67.2258 34.1782 66.8485 33.801C66.4776 33.4237 66.1381 33.015 65.8426 32.5749C65.547 32.1348 65.2955 31.6632 65.0943 31.1728C64.8869 30.6698 64.736 30.1605 64.6354 29.6512C64.5348 29.1482 64.4782 28.6138 64.4782 28.0731C64.4782 27.5324 64.5285 26.9979 64.6354 26.4887C64.736 25.9794 64.8931 25.4701 65.0943 24.9797C65.2955 24.4892 65.5533 24.0114 65.8488 23.5713C66.1444 23.1312 66.4776 22.7225 66.8485 22.3515C67.2132 21.9868 67.6219 21.6473 68.0683 21.3455C68.5147 21.0437 68.9863 20.7922 69.4767 20.591C69.9797 20.3835 70.489 20.2326 70.9983 20.132C71.5201 20.0314 72.0483 19.9749 72.5701 19.9749H78.7821C79.304 19.9749 79.8384 20.0252 80.3603 20.132C80.8759 20.2326 81.3851 20.3898 81.8819 20.591C82.3723 20.7922 82.8438 21.0437 83.2902 21.3455C83.7241 21.6347 84.1328 21.9743 84.51 22.3452C84.8873 22.7225 85.2205 23.1312 85.5223 23.5776C85.8115 24.0114 86.063 24.483 86.2705 24.9734C86.4717 25.4575 86.6226 25.9668 86.7295 26.4887C86.8364 27.0231 86.8867 27.5512 86.8867 28.0794V46.7154C86.8867 47.6397 86.8489 48.5828 86.7672 49.5322C86.6855 50.4753 86.566 51.4184 86.4088 52.3301C86.2516 53.2481 86.0504 54.1723 85.8115 55.084C85.5726 55.9957 85.2959 56.9011 84.9816 57.775C84.6672 58.6616 84.3088 59.5418 83.919 60.3906C83.5355 61.2268 83.1079 62.0757 82.6426 62.8993C82.1711 63.7293 81.6744 64.534 81.1525 65.2948C80.6181 66.0745 80.0522 66.8352 79.4675 67.552C78.8639 68.2939 78.2288 69.0044 77.5875 69.6583C76.9399 70.3311 76.2483 70.985 75.5441 71.5949C74.8336 72.211 74.098 72.7958 73.3372 73.3491C72.5827 73.9023 71.7905 74.4242 70.9857 74.9083C70.1872 75.3925 69.351 75.8515 68.5147 76.2601C67.6596 76.6814 66.792 77.0649 65.9306 77.3982C65.0755 77.7314 64.1827 78.0395 63.271 78.3099C62.8623 78.4293 62.4536 78.5425 62.0386 78.6431V99.5049C62.0386 100.561 62.0889 101.63 62.1958 102.667C62.3027 103.711 62.4536 104.767 62.6611 105.799C62.8686 106.842 63.1264 107.873 63.4282 108.867C63.73 109.873 64.0884 110.879 64.497 111.853C64.9057 112.834 65.3584 113.796 65.8488 114.714C66.3456 115.638 66.8926 116.55 67.4773 117.43C68.0557 118.304 68.6908 119.159 69.3635 119.971C70.0426 120.794 70.7593 121.586 71.495 122.316C72.2432 123.064 73.0291 123.781 73.8402 124.441C74.6701 125.12 75.5252 125.755 76.3866 126.327C77.2543 126.912 78.166 127.459 79.1028 127.956C80.0271 128.452 80.989 128.905 81.9699 129.307C82.9507 129.716 83.9504 130.074 84.9501 130.376C85.9624 130.684 86.9935 130.942 88.0247 131.15C89.0621 131.357 90.1184 131.514 91.1558 131.615C93.237 131.822 95.3999 131.822 97.4873 131.615C98.531 131.514 99.581 131.357 100.625 131.15C101.65 130.942 102.687 130.684 103.693 130.383C104.693 130.081 105.692 129.722 106.68 129.314C107.66 128.905 108.622 128.452 109.54 127.962C110.477 127.465 111.389 126.912 112.257 126.333C113.13 125.749 113.986 125.114 114.803 124.447C115.614 123.787 116.4 123.07 117.148 122.322C117.89 121.586 118.601 120.794 119.273 119.977C119.94 119.166 120.575 118.311 121.16 117.437C121.751 116.55 122.298 115.638 122.788 114.72C123.285 113.796 123.737 112.834 124.146 111.86C124.549 110.891 124.907 109.885 125.215 108.879C125.523 107.867 125.781 106.83 125.982 105.805C126.19 104.774 126.347 103.717 126.447 102.674C126.548 101.617 126.605 100.549 126.605 99.5112V64.6472C126.221 64.3831 125.85 64.1002 125.498 63.8047C124.863 63.2703 124.266 62.6792 123.737 62.0442C123.203 61.4092 122.719 60.7238 122.304 59.9945C121.889 59.284 121.537 58.5169 121.254 57.731C120.971 56.9451 120.751 56.134 120.613 55.3166C120.468 54.5056 120.399 53.6693 120.399 52.8331C120.399 51.9843 120.474 51.1481 120.619 50.337C120.763 49.5259 120.984 48.7148 121.266 47.9289C121.556 47.1492 121.908 46.3884 122.329 45.6654C122.75 44.9423 123.234 44.2507 123.769 43.622C124.297 42.9932 124.894 42.4022 125.536 41.8615C126.183 41.3208 126.875 40.8429 127.592 40.4342C128.321 40.0193 129.082 39.6672 129.861 39.3842C130.635 39.1013 131.446 38.8875 132.27 38.7429C133.099 38.6046 133.955 38.5354 134.759 38.5354C135.596 38.5354 136.438 38.6172 137.255 38.7618C138.079 38.9064 138.89 39.1327 139.664 39.4157C140.437 39.6986 141.198 40.057 141.921 40.4782C142.631 40.8932 143.317 41.3773 143.958 41.9181C144.599 42.4588 145.19 43.0561 145.718 43.6974C146.253 44.3387 146.731 45.0304 147.139 45.7471C147.554 46.4702 147.9 47.231 148.183 48.0169C148.46 48.7965 148.673 49.6139 148.812 50.4313C148.95 51.2424 149.019 52.0786 149.019 52.9211C149.013 54.166 148.843 55.4047 148.516 56.6056C148.189 57.8002 147.711 58.9508 147.083 60.0322C146.46 61.1011 145.7 62.0945 144.813 62.9748C144.197 63.5909 143.524 64.1442 142.807 64.6409V99.5049C142.807 100.31 142.788 101.108 142.751 101.888C142.713 102.68 142.656 103.485 142.575 104.264C142.499 105.063 142.399 105.861 142.285 106.622C142.172 107.402 142.034 108.188 141.877 108.961C141.726 109.728 141.55 110.508 141.355 111.281C141.154 112.08 140.94 112.847 140.72 113.576C140.487 114.343 140.236 115.104 139.972 115.833C139.708 116.563 139.425 117.311 139.117 118.053C138.808 118.788 138.488 119.524 138.148 120.228C137.802 120.951 137.444 121.668 137.073 122.353C136.69 123.064 136.3 123.762 135.897 124.422C135.476 125.126 135.049 125.799 134.627 126.434C134.193 127.088 133.728 127.742 133.257 128.377C132.772 129.024 132.282 129.659 131.792 130.251C131.27 130.886 130.748 131.489 130.239 132.055C129.729 132.621 129.195 133.18 128.604 133.771C128.019 134.356 127.434 134.91 126.875 135.413C126.296 135.934 125.693 136.463 125.077 136.966C124.473 137.462 123.844 137.953 123.203 138.43C122.568 138.902 121.914 139.361 121.254 139.801C120.594 140.241 119.921 140.669 119.242 141.078C118.569 141.48 117.878 141.876 117.173 142.247C116.482 142.618 115.771 142.976 115.048 143.316C114.3 143.668 113.564 143.995 112.866 144.278C112.137 144.58 111.389 144.869 110.647 145.133C109.918 145.397 109.157 145.642 108.396 145.881C107.642 146.107 106.874 146.321 106.101 146.516C105.321 146.711 104.542 146.887 103.775 147.038C103.001 147.189 102.215 147.327 101.436 147.447C100.618 147.566 99.8262 147.667 99.0717 147.736C98.2858 147.811 97.4873 147.874 96.7014 147.912C95.928 147.95 95.1232 147.969 94.3184 147.969V148ZM29.0987 23.7725C28.8157 23.7725 28.5391 23.7976 28.2499 23.8542C27.9795 23.9045 27.7091 23.9925 27.4451 24.0994C27.181 24.2063 26.9358 24.3383 26.6969 24.4955C26.4579 24.659 26.2379 24.8413 26.043 25.0363C25.8481 25.2312 25.6657 25.4512 25.5085 25.6901C25.3513 25.9291 25.2193 26.1743 25.1124 26.4321C24.9992 26.7024 24.9175 26.9728 24.8672 27.2432C24.8106 27.5261 24.7855 27.809 24.7855 28.092V46.728C24.7855 47.5516 24.8232 48.3879 24.8924 49.2241C24.9615 50.0477 25.0684 50.8777 25.213 51.7013C25.3513 52.5061 25.5337 53.3298 25.7412 54.1409C25.9487 54.9457 26.2002 55.7442 26.4768 56.5238C26.7534 57.3035 27.0678 58.0831 27.4136 58.8313C27.7594 59.5984 28.143 60.3403 28.5454 61.0571C28.9478 61.7676 29.3879 62.4843 29.8657 63.1822C30.3373 63.8739 30.8403 64.5466 31.3622 65.1817C31.884 65.823 32.4373 66.4454 33.022 67.0427C33.6068 67.6463 34.2167 68.2248 34.8391 68.7592C35.4679 69.2999 36.1218 69.8218 36.7945 70.3122C37.4736 70.8089 38.1778 71.2742 38.8694 71.6955C39.5799 72.1293 40.3155 72.5317 41.0574 72.8964C41.8119 73.2673 42.579 73.6068 43.3398 73.9024C44.1005 74.2042 44.899 74.4745 45.7038 74.7134C46.4961 74.9461 47.3134 75.1473 48.1245 75.317C49.0047 75.4994 49.6335 76.2664 49.6335 77.1655V99.53C49.6335 100.272 49.6524 101.008 49.6838 101.724C49.7152 102.447 49.7718 103.183 49.841 103.912C49.9164 104.679 50.0045 105.39 50.1113 106.088C50.2119 106.798 50.3377 107.521 50.4823 108.251C50.6269 108.974 50.7904 109.697 50.9664 110.395C51.1362 111.08 51.3311 111.791 51.5512 112.507C51.7524 113.186 51.9787 113.865 52.2428 114.588C52.4817 115.261 52.7521 115.953 53.0287 116.638C53.3117 117.311 53.6072 117.99 53.9152 118.644C54.2296 119.31 54.5629 119.964 54.9024 120.599C55.2356 121.222 55.5877 121.844 55.9838 122.511C56.3862 123.177 56.7698 123.787 57.1596 124.359C57.562 124.963 57.9895 125.566 58.4234 126.157C58.8698 126.755 59.3225 127.339 59.7752 127.886C60.253 128.465 60.7371 129.024 61.2087 129.546C61.7054 130.093 62.2147 130.628 62.724 131.137C63.2333 131.653 63.7677 132.156 64.3147 132.646C64.8491 133.136 65.4087 133.614 65.9746 134.08C66.5342 134.539 67.1126 134.991 67.7036 135.431C68.2821 135.859 68.8857 136.28 69.5019 136.695C70.1117 137.104 70.7342 137.494 71.3504 137.865C71.9728 138.236 72.6141 138.6 73.2618 138.946C73.8842 139.279 74.5444 139.613 75.2234 139.933C75.9088 140.254 76.5815 140.556 77.2228 140.82C77.9019 141.103 78.5935 141.367 79.2726 141.612C79.9327 141.851 80.6369 142.084 81.36 142.304C82.0327 142.505 82.7432 142.706 83.4726 142.888C84.1768 143.064 84.8998 143.228 85.6103 143.366C86.3334 143.511 87.0627 143.637 87.7732 143.743C88.5151 143.85 89.2507 143.945 89.9487 144.014C90.678 144.083 91.4136 144.139 92.1367 144.177C93.5639 144.246 95.0981 144.246 96.519 144.177C97.2421 144.139 97.984 144.089 98.7071 144.014C99.405 143.945 100.134 143.857 100.889 143.743C101.606 143.637 102.335 143.511 103.045 143.366C103.756 143.228 104.473 143.064 105.189 142.888C105.9 142.706 106.617 142.511 107.302 142.304C108.006 142.09 108.704 141.857 109.383 141.618C110.062 141.373 110.754 141.109 111.427 140.826C112.074 140.562 112.747 140.26 113.439 139.933C114.099 139.619 114.759 139.286 115.394 138.946C116.042 138.6 116.683 138.236 117.305 137.865C117.934 137.494 118.557 137.098 119.16 136.695C119.764 136.286 120.374 135.865 120.958 135.431C121.543 134.998 122.128 134.539 122.687 134.086C123.253 133.621 123.813 133.136 124.347 132.652C124.869 132.181 125.404 131.671 125.944 131.137C126.485 130.59 126.982 130.074 127.453 129.553C127.925 129.031 128.409 128.471 128.893 127.886C129.34 127.339 129.799 126.761 130.245 126.157C130.679 125.573 131.106 124.969 131.509 124.365C131.899 123.781 132.295 123.158 132.684 122.511C133.049 121.901 133.414 121.259 133.766 120.599C134.105 119.964 134.439 119.304 134.753 118.638C135.061 117.984 135.363 117.311 135.646 116.632C135.929 115.953 136.193 115.261 136.432 114.588C136.671 113.916 136.903 113.212 137.123 112.501C137.325 111.828 137.526 111.118 137.708 110.382C137.884 109.678 138.048 108.955 138.186 108.244C138.331 107.528 138.456 106.798 138.563 106.082C138.67 105.384 138.758 104.648 138.834 103.906C138.909 103.189 138.959 102.454 138.997 101.718C139.035 101.001 139.054 100.266 139.054 99.5237V63.6224C139.054 62.9496 139.412 62.3271 139.997 61.9876C140.789 61.5286 141.518 60.9691 142.166 60.3214C142.82 59.6738 143.379 58.9445 143.838 58.1586C144.304 57.3663 144.656 56.5175 144.895 55.6373C145.14 54.7508 145.259 53.8391 145.266 52.9274C145.266 52.3112 145.222 51.6951 145.115 51.0978C145.008 50.4879 144.857 49.8906 144.65 49.3121C144.442 48.7337 144.184 48.1741 143.882 47.6459C143.581 47.1115 143.229 46.6022 142.832 46.1307C142.443 45.6591 142.009 45.219 141.537 44.8229C141.066 44.4268 140.563 44.0684 140.041 43.7603C139.506 43.4522 138.947 43.1881 138.381 42.9744C137.809 42.7606 137.211 42.5971 136.608 42.4902C135.998 42.3771 135.401 42.3268 134.772 42.3205C134.162 42.3268 133.546 42.3708 132.936 42.4714C132.339 42.5783 131.741 42.7354 131.169 42.9429C130.591 43.1504 130.031 43.4082 129.49 43.7163C128.962 44.0181 128.453 44.3702 127.975 44.7663C127.504 45.1624 127.063 45.5962 126.674 46.0615C126.284 46.5268 125.925 47.0298 125.617 47.5642C125.309 48.0924 125.045 48.6582 124.838 49.2304C124.624 49.8088 124.467 50.4061 124.36 51.0034C124.253 51.6008 124.196 52.2232 124.196 52.8457C124.196 53.4618 124.247 54.078 124.354 54.6753C124.46 55.2789 124.618 55.8762 124.825 56.4547C125.033 57.0331 125.297 57.5927 125.599 58.1208C125.907 58.6553 126.259 59.1646 126.655 59.6298C127.051 60.1014 127.485 60.5352 127.956 60.9313C128.422 61.3274 128.931 61.6795 129.459 61.9876C130.044 62.3271 130.402 62.9496 130.402 63.6224V99.5237C130.402 100.687 130.346 101.875 130.232 103.057C130.113 104.227 129.943 105.402 129.711 106.559C129.484 107.704 129.195 108.861 128.849 109.992C128.51 111.118 128.107 112.243 127.655 113.325C127.202 114.419 126.693 115.494 126.139 116.525C125.592 117.55 124.982 118.568 124.322 119.556C123.668 120.536 122.958 121.492 122.21 122.397C121.461 123.309 120.663 124.189 119.833 125.019C118.997 125.856 118.11 126.66 117.211 127.396C116.306 128.138 115.35 128.848 114.375 129.502C113.407 130.15 112.382 130.766 111.339 131.326C110.32 131.873 109.239 132.382 108.145 132.835C107.051 133.287 105.925 133.69 104.812 134.029C103.687 134.369 102.536 134.658 101.386 134.891C100.222 135.123 99.0466 135.299 97.8834 135.406C95.5633 135.639 93.1427 135.639 90.8163 135.406C89.6594 135.293 88.4774 135.117 87.3142 134.891C86.1699 134.664 85.013 134.375 83.8813 134.029C82.7621 133.69 81.6429 133.287 80.5489 132.835C79.4549 132.382 78.3797 131.873 77.3486 131.319C76.3049 130.76 75.28 130.15 74.3118 129.496C73.3561 128.861 72.4004 128.151 71.4761 127.39C70.5707 126.648 69.6905 125.849 68.8542 125.013C68.0369 124.196 67.2321 123.309 66.4776 122.391C65.7294 121.48 65.0189 120.524 64.3713 119.549C63.7174 118.568 63.1075 117.544 62.5542 116.512C62.0072 115.488 61.4979 114.412 61.0452 113.318C60.5925 112.224 60.1901 111.105 59.8506 109.98C59.5111 108.867 59.2219 107.716 58.9892 106.547C58.7629 105.396 58.5868 104.214 58.4674 103.051C58.3542 101.888 58.2913 100.699 58.2913 99.5174V77.153C58.2913 76.2539 58.9201 75.4868 59.8003 75.3045C60.6114 75.141 61.4288 74.9335 62.2273 74.7009C63.0321 74.4619 63.8243 74.1916 64.5851 73.8898C65.3458 73.5943 66.1192 73.2547 66.8737 72.8838C67.6156 72.5191 68.3512 72.1167 69.0554 71.6892C69.7659 71.2553 70.4701 70.7901 71.1366 70.3059C71.8031 69.8155 72.4632 69.2936 73.092 68.7529C73.7144 68.2122 74.3243 67.6338 74.9028 67.0364C75.4686 66.4517 76.0282 65.8293 76.5689 65.1691C77.0845 64.534 77.5875 63.8613 78.0591 63.1697C78.5181 62.4969 78.9645 61.7801 79.3794 61.0508C79.7881 60.3214 80.1717 59.5732 80.5112 58.8313C80.857 58.0768 81.1714 57.3035 81.448 56.5175C81.7247 55.7379 81.9699 54.9331 82.1836 54.1346C82.3974 53.3235 82.5735 52.5061 82.7118 51.6951C82.8501 50.884 82.957 50.054 83.0325 49.2178C83.1016 48.3816 83.1393 47.5391 83.1393 46.7217V28.0982C83.1393 27.8153 83.1142 27.5324 83.0576 27.2494C83.001 26.9728 82.9193 26.6961 82.8124 26.4384C82.7055 26.1806 82.5672 25.9228 82.41 25.6901C82.2528 25.4512 82.0705 25.2312 81.8756 25.0363C81.6744 24.8351 81.4543 24.659 81.2154 24.4955C80.9827 24.3383 80.7312 24.2063 80.4735 24.0994C80.2031 23.9862 79.9327 23.9045 79.6624 23.8542C79.3794 23.7976 79.0965 23.7725 78.8136 23.7725H72.6016C72.3186 23.7725 72.042 23.7976 71.7528 23.8542C71.4824 23.9045 71.212 23.9862 70.9417 24.0994C70.6839 24.2063 70.4387 24.3383 70.1998 24.4955C69.9608 24.6527 69.7408 24.8351 69.5459 25.03C69.351 25.2249 69.1686 25.4449 69.0051 25.6901C68.848 25.9228 68.7159 26.1743 68.609 26.4321C68.4959 26.7024 68.4141 26.9728 68.3575 27.2494C68.3009 27.5261 68.2758 27.8027 68.2758 28.092C68.2758 28.3812 68.3009 28.6578 68.3575 28.9282C68.4141 29.2111 68.4959 29.4752 68.609 29.7518C68.7159 30.0096 68.848 30.2611 69.0051 30.4938C69.1686 30.7327 69.3447 30.9465 69.5459 31.1539C69.7471 31.3551 69.9671 31.5312 70.1998 31.6884C70.4387 31.8456 70.6902 31.9839 70.948 32.0908C71.212 32.204 71.4761 32.2794 71.7591 32.336C72.042 32.3926 72.3123 32.4177 72.6079 32.4177C73.6516 32.4177 74.4941 33.2602 74.4941 34.304V46.728C74.4941 47.3944 74.4627 48.0672 74.3998 48.7337C74.3306 49.4064 74.23 50.0729 74.1043 50.7331C73.9785 51.3807 73.815 52.0409 73.6138 52.6885C73.4126 53.3424 73.1863 53.9774 72.9348 54.5873C72.6896 55.1846 72.4004 55.8008 72.0734 56.4044C71.7528 57.0017 71.4007 57.5864 71.036 58.1334C70.6839 58.6616 70.2815 59.2086 69.8414 59.743C69.4264 60.2523 68.9737 60.749 68.4896 61.2331C68.0117 61.711 67.515 62.1637 66.9932 62.5912C66.4839 63.0062 65.9432 63.4086 65.3773 63.7921C64.8177 64.1631 64.2393 64.5089 63.6482 64.8296C63.0635 65.1439 62.4473 65.4331 61.8312 65.6909C61.1836 65.955 60.5485 66.1814 59.9261 66.37C59.2847 66.5649 58.6308 66.7284 57.9769 66.8604C57.3356 66.9861 56.6692 67.0867 55.9901 67.1559C54.676 67.2879 53.2802 67.2879 51.9599 67.1559C51.2808 67.0867 50.608 66.9861 49.9667 66.8604C49.3191 66.7284 48.6589 66.5649 48.0113 66.37C47.4014 66.1876 46.7601 65.955 46.1188 65.6972C45.4901 65.4394 44.8802 65.1439 44.2954 64.8296C43.6981 64.5089 43.1197 64.1631 42.5727 63.7984C42.0194 63.4275 41.4787 63.0251 40.9568 62.5975C40.4349 62.1637 39.932 61.711 39.4604 61.2457C38.9763 60.7616 38.5236 60.2586 38.1086 59.7556C37.6685 59.2211 37.2661 58.6741 36.9077 58.1334C36.543 57.5864 36.1909 57.008 35.8765 56.4169C35.5433 55.7945 35.2604 55.1972 35.0152 54.5873C34.7637 53.9837 34.5373 53.3424 34.3361 52.7011C34.1412 52.0597 33.9777 51.4058 33.8457 50.7457C33.7137 50.0792 33.6131 49.4127 33.5502 48.7588C33.4873 48.0735 33.4496 47.3944 33.4496 46.7468V34.3228C33.4496 33.2791 34.2921 32.4366 35.3358 32.4366C35.6313 32.4366 35.9017 32.4114 36.1721 32.3549C36.4613 32.2983 36.7254 32.2165 36.9831 32.1096C37.2535 31.9965 37.4987 31.8644 37.7376 31.7072C37.9703 31.5501 38.1903 31.3677 38.3915 31.1728C38.5927 30.9716 38.7688 30.7578 38.9322 30.5126C39.0894 30.28 39.2215 30.0285 39.3284 29.7707C39.4415 29.5003 39.5233 29.23 39.5736 28.9596C39.6302 28.6704 39.6553 28.3938 39.6553 28.1108C39.6553 27.8279 39.6302 27.5449 39.5736 27.262C39.5233 26.9917 39.4352 26.7213 39.3284 26.4572C39.2215 26.1931 39.0894 25.9479 38.9322 25.7153C38.7688 25.4701 38.5864 25.25 38.3915 25.0551C38.1966 24.8602 37.9766 24.6779 37.7313 24.5144C37.4987 24.3572 37.2535 24.2252 36.9957 24.1246C36.7254 24.0114 36.455 23.9297 36.1846 23.8794C35.8954 23.8228 35.6188 23.7976 35.3358 23.7976H29.1238L29.0987 23.7725Z" fill="#0D2957"/>
<path d="M134.822 58.7937C138.138 58.7937 140.826 56.1054 140.826 52.7892C140.826 49.473 138.138 46.7847 134.822 46.7847C131.506 46.7847 128.817 49.473 128.817 52.7892C128.817 56.1054 131.506 58.7937 134.822 58.7937Z" fill="#00A3E1"/>
</g>
<defs>
<clipPath id="clip0_851_2276">
<rect width="128" height="128" fill="white" transform="translate(21 20)"/>
</clipPath>
</defs>
</svg>
