<svg width="886" height="200" viewBox="0 0 886 200" fill="none" xmlns="http://www.w3.org/2000/svg">
<g clip-path="url(#clip0_652_2637)">
<path d="M325.453 190.421C320.805 191.846 314.951 193.13 307.903 194.299C300.854 195.467 293.459 196.045 285.705 196.045C277.95 196.045 270.517 194.812 264.174 192.36C257.845 189.908 252.44 186.377 247.985 181.794C243.53 177.21 240.102 171.651 237.701 165.116C235.313 158.594 234.119 151.251 234.119 143.111C234.119 134.971 235.121 127.82 237.123 121.298C239.126 114.776 242.066 109.179 245.943 104.518C249.821 99.8578 254.545 96.2758 260.104 93.7594C265.664 91.243 272.057 89.972 279.298 89.972C284.215 89.972 288.542 90.5498 292.291 91.7181C296.04 92.8864 299.275 94.1703 301.984 95.5953V46.9241L325.453 43.0469V190.421ZM258.166 142.52C258.166 152.868 260.618 160.982 265.535 166.863C270.452 172.743 277.231 175.683 285.897 175.683C289.646 175.683 292.843 175.529 295.501 175.195C298.145 174.874 300.315 174.514 301.997 174.129V115.957C299.93 114.532 297.182 113.21 293.755 111.977C290.327 110.745 286.68 110.129 282.803 110.129C274.265 110.129 268.039 113.043 264.084 118.859C260.143 124.675 258.166 132.558 258.166 142.52Z" fill="white"/>
<path d="M354.546 143.304C354.546 134.381 355.868 126.562 358.526 119.835C361.171 113.12 364.701 107.522 369.092 103.055C373.483 98.5996 378.529 95.2359 384.216 92.9763C389.904 90.7167 395.719 89.5869 401.664 89.5869C415.632 89.5869 426.519 93.9264 434.338 102.58C442.157 111.246 446.073 124.174 446.073 141.365C446.073 142.662 446.034 144.113 445.97 145.73C445.906 147.348 445.803 148.799 445.675 150.095H378.772C379.414 158.235 382.29 164.539 387.4 169.007C392.51 173.462 399.905 175.696 409.598 175.696C415.286 175.696 420.485 175.182 425.21 174.142C429.922 173.115 433.645 172.011 436.367 170.843L439.473 190.036C438.177 190.678 436.405 191.359 434.145 192.078C431.886 192.784 429.292 193.438 426.391 194.016C423.477 194.594 420.344 195.082 416.98 195.467C413.617 195.852 410.189 196.045 406.696 196.045C397.774 196.045 390.019 194.722 383.433 192.065C376.834 189.42 371.403 185.735 367.141 181.011C362.878 176.299 359.707 170.727 357.64 164.333C355.573 157.94 354.533 150.917 354.533 143.291L354.546 143.304ZM422.616 132.827C422.616 129.592 422.167 126.524 421.255 123.622C420.344 120.708 419.022 118.191 417.276 116.06C415.529 113.929 413.398 112.247 410.882 111.015C408.366 109.782 405.361 109.166 401.869 109.166C398.377 109.166 395.078 109.846 392.369 111.207C389.66 112.568 387.362 114.34 385.487 116.535C383.613 118.731 382.162 121.26 381.122 124.097C380.082 126.947 379.376 129.849 378.991 132.827H422.629H422.616Z" fill="white"/>
<path d="M475.742 95.4029C480.261 94.1062 486.154 92.8865 493.395 91.7182C500.636 90.5499 508.648 89.9722 517.442 89.9722C525.71 89.9722 532.63 91.102 538.189 93.3616C543.748 95.6212 548.178 98.7923 551.477 102.862C554.777 106.932 557.101 111.849 558.461 117.601C559.822 123.353 560.503 129.656 560.503 136.512V193.528H537.034V140.197C537.034 134.766 536.674 130.144 535.968 126.331C535.262 122.518 534.094 119.411 532.476 117.023C530.858 114.635 528.663 112.889 525.877 111.785C523.091 110.694 519.702 110.142 515.696 110.142C512.717 110.142 509.623 110.334 506.388 110.719C503.153 111.105 500.765 111.425 499.211 111.695V193.528H475.742V95.4029Z" fill="white"/>
<path d="M592.869 65.3475L616.338 61.4702V92.116H652.402V111.708H616.338V153.01C616.338 161.149 617.635 166.978 620.215 170.457C622.796 173.949 627.2 175.695 633.401 175.695C637.663 175.695 641.45 175.246 644.75 174.334C648.05 173.436 650.669 172.588 652.607 171.818L656.484 190.434C653.776 191.602 650.206 192.796 645.816 194.016C641.425 195.249 636.251 195.852 630.307 195.852C623.066 195.852 617.019 194.876 612.178 192.938C607.325 190.999 603.487 188.187 600.636 184.503C597.786 180.818 595.784 176.363 594.628 171.125C593.46 165.887 592.882 159.917 592.882 153.189V65.3475H592.869Z" fill="white"/>
<path d="M713.679 89.5871C721.434 89.5871 727.969 90.5628 733.271 92.5014C738.573 94.4401 742.797 97.149 745.968 100.641C749.14 104.133 751.399 108.37 752.76 113.339C754.121 118.32 754.801 123.776 754.801 129.721V191.192C751.181 191.962 745.724 192.912 738.419 194.004C731.114 195.095 722.872 195.647 713.692 195.647C707.619 195.647 702.06 195.069 697.015 193.901C691.969 192.733 687.668 190.871 684.125 188.278C680.568 185.697 677.782 182.333 675.78 178.199C673.777 174.065 672.775 168.955 672.775 162.883C672.775 156.81 673.905 152.15 676.165 148.144C678.424 144.138 681.493 140.877 685.37 138.348C689.247 135.832 693.741 134.022 698.851 132.917C703.96 131.826 709.288 131.274 714.847 131.274C717.428 131.274 720.15 131.441 722.987 131.762C725.825 132.083 728.867 132.635 732.103 133.405V129.528C732.103 126.819 731.782 124.226 731.14 121.773C730.498 119.321 729.355 117.152 727.75 115.277C726.133 113.403 724.001 111.952 721.357 110.912C718.712 109.885 715.374 109.359 711.368 109.359C705.938 109.359 700.956 109.744 696.437 110.527C691.905 111.297 688.22 112.209 685.383 113.236L682.469 94.2346C685.447 93.2076 689.774 92.1676 695.461 91.1277C701.149 90.1006 707.221 89.5742 713.692 89.5742L713.679 89.5871ZM715.618 177.044C722.859 177.044 728.354 176.659 732.103 175.875V149.89C730.806 149.505 728.931 149.12 726.479 148.722C724.027 148.337 721.305 148.144 718.34 148.144C715.759 148.144 713.14 148.337 710.482 148.722C707.838 149.107 705.437 149.826 703.306 150.853C701.174 151.893 699.454 153.344 698.17 155.218C696.873 157.093 696.231 159.455 696.231 162.292C696.231 167.851 697.978 171.703 701.47 173.834C704.962 175.965 709.674 177.031 715.631 177.031L715.618 177.044Z" fill="white"/>
<path d="M821.692 195.467C814.708 195.339 808.918 194.555 804.334 193.143C799.738 191.718 796.092 189.69 793.383 187.032C790.674 184.387 788.761 181.088 787.657 177.146C786.553 173.205 786.014 168.711 786.014 163.666V46.9241L809.483 43.0469V159.211C809.483 162.061 809.701 164.449 810.163 166.387C810.613 168.326 811.421 169.969 812.59 171.33C813.758 172.691 815.337 173.718 817.34 174.437C819.343 175.143 821.898 175.695 825.005 176.081L821.705 195.467H821.692Z" fill="white"/>
<path d="M882.2 195.467C875.216 195.339 869.426 194.555 864.842 193.143C860.246 191.718 856.6 189.69 853.891 187.032C851.169 184.387 849.269 181.088 848.165 177.146C847.061 173.205 846.521 168.711 846.521 163.666V46.9241L869.991 43.0469V159.211C869.991 162.061 870.209 164.449 870.671 166.387C871.12 168.326 871.929 169.969 873.097 171.33C874.266 172.691 875.845 173.718 877.848 174.437C879.851 175.143 882.405 175.695 885.512 176.081L882.213 195.467H882.2Z" fill="white"/>
<path d="M24.4905 113.839L24.4648 113.762C24.4648 113.762 24.4648 113.775 24.4905 113.839Z" fill="white"/>
<path d="M179.954 51.7773L179.748 50.0441L179.53 48.4906C179.35 47.271 179.158 46.2053 178.927 45.0627C178.477 42.816 177.9 40.582 177.193 38.3738C174.407 29.5537 169.413 21.1572 162.468 14.6224C155.56 8.06182 146.804 3.49127 137.651 1.42425C128.484 -0.694121 118.996 -0.360317 110.266 1.83509C103.025 3.68385 96.2588 6.71376 90.2118 10.6039C84.5243 7.00905 78.2462 4.09468 71.506 2.25876C63.2892 -0.000835184 54.3407 -0.681282 45.5591 0.872191C36.7903 2.39999 28.2141 6.13603 21.1401 11.8364C14.0403 17.511 8.53254 25.0473 5.07896 33.2512C3.34574 37.3467 2.07472 41.6091 1.26589 45.8972C0.49557 50.1853 0.0718954 54.345 0.00770235 58.6845C-0.120684 67.2735 1.35576 76.0551 4.44986 84.1691C7.49262 92.296 12.1659 99.6654 17.3912 105.995C18.6879 107.587 20.0231 109.115 21.3198 110.553L23.1942 112.645C23.7591 113.274 24.2855 113.878 24.6193 114.301C24.7477 114.751 24.8889 115.341 25.0173 115.932C25.3768 117.562 25.7106 119.36 26.0444 121.183C26.3654 123.122 26.712 125.278 27.0972 127.602C33.4908 167.209 40.4108 199.986 60.3235 199.986C76.6414 199.986 80.6856 183.617 83.6385 171.651C85.2304 165.194 87.413 156.361 90.276 156.361C93.139 156.361 95.3088 165.206 96.9007 171.651C99.8536 183.604 103.898 199.986 120.229 199.986C130.962 199.986 139.499 189.561 146.368 168.121C150.579 154.936 153.532 139.285 154.418 125.843C149.501 127.91 142.195 130.44 136.213 132.057C135.134 141.108 133.17 150.879 130.615 159.596C126.07 175.105 121.5 181.049 119.805 182.346C117.404 181.435 115.35 173.077 113.95 167.44C111.139 156.04 106.876 138.797 90.276 138.797C73.6757 138.797 69.4261 156.027 66.6016 167.44C65.2792 172.794 63.1095 181.589 60.6702 182.372C59.7201 181.601 55.9841 177.737 51.7345 161.92C48.4735 149.787 46.1369 135.344 44.4422 124.791C44.057 122.415 43.6975 120.22 43.3637 118.243C43.0684 116.343 42.7603 114.417 42.3751 112.363C42.1697 111.31 41.9643 110.283 41.592 108.909C41.4893 108.55 41.3737 108.165 41.2068 107.689C41.117 107.446 41.0271 107.189 40.873 106.842C40.719 106.508 40.5649 106.149 40.1926 105.507L39.9615 105.122L39.4865 104.39C39.2554 104.043 39.0243 103.748 38.8188 103.478C37.9972 102.413 37.3167 101.617 36.662 100.859L34.8004 98.7153C33.6064 97.3416 32.4766 96.0064 31.411 94.6583C27.1485 89.3046 23.772 83.707 21.4995 77.7113C19.24 71.7285 18.1615 65.3862 18.2642 58.9156C18.3027 55.7059 18.6622 52.3422 19.2271 49.2224C19.792 46.1026 20.6394 43.0856 21.8205 40.2354C24.1571 34.5222 27.7648 29.5023 32.4124 25.6892C37.0471 21.8762 42.6704 19.2956 48.7303 18.153C54.7901 16.9975 61.2222 17.1772 67.6159 18.4868C74.0095 19.7963 80.3903 22.1329 86.6042 25.2271L91.0207 27.4225L94.0249 25.2271C100.611 22.0944 107.274 19.6037 114.002 18.3841C120.704 17.1259 127.444 17.0617 133.722 18.5381C140 20.0017 145.739 23.0702 150.309 27.4481C154.88 31.8133 158.256 37.4623 160.208 43.7403C160.696 45.3066 161.107 46.9115 161.428 48.542C161.582 49.338 161.736 50.2367 161.838 50.9685L162.018 52.355L162.147 53.5747C162.493 56.977 162.506 60.3792 162.211 63.7172C161.607 70.3933 159.605 76.8383 156.331 82.59C153.07 88.3417 148.525 93.3616 143.145 97.2517C140.436 99.2032 137.612 100.834 134.479 102.233C131.347 103.645 127.996 104.826 124.594 105.789C117.789 107.715 110.702 108.755 103.898 108.563C97.1062 108.383 90.6227 106.919 85.3588 103.928C82.7141 102.439 80.3775 100.577 78.3489 98.3687C78.0922 98.0862 77.8482 97.7781 77.6043 97.4828C84.9994 94.761 92.3559 91.9365 99.6611 89.0478C105.066 86.9038 110.445 84.7212 115.812 82.513C121.191 80.2919 126.507 78.058 131.912 75.7085L137.702 73.205L137.15 67.0039C136.777 61.6374 135.019 56.258 132.13 51.7516C129.267 47.2068 125.428 43.5092 121.191 40.7361C112.679 35.1898 102.704 32.9302 92.8951 33.7005C91.6626 33.8032 90.4429 33.9445 89.2232 34.1499C88.607 34.2526 88.0421 34.3553 87.3488 34.4965L86.4629 34.6891L85.6028 34.8945C83.2148 35.4851 80.9167 36.2683 78.6956 37.1926C74.2406 39.0542 70.0552 41.5321 66.2678 44.6647C62.4804 47.7973 59.1039 51.5976 56.4976 56.0141C53.8914 60.4177 52.1453 65.4504 51.4649 70.5474C50.7716 75.6443 51.1054 80.7412 52.1197 85.4915C53.1211 90.2161 54.8286 94.7353 56.7544 98.6896C58.8728 103.068 61.5304 107.099 64.8684 110.758C68.1808 114.391 72.1222 117.511 76.3846 119.899C84.948 124.726 94.4357 126.652 103.423 126.909C112.474 127.14 121.217 125.83 129.652 123.455C133.863 122.261 137.997 120.772 142.08 118.91C146.188 117.062 150.245 114.712 153.93 112.003C161.351 106.573 167.629 99.5498 172.148 91.5C176.68 83.463 179.389 74.4118 180.159 65.3092C180.557 60.7643 180.493 56.2066 180.018 51.7388L179.954 51.7773ZM69.9525 81.6271C69.3234 78.6614 69.1565 75.7727 69.5417 73.0252C70.2606 67.5431 73.175 62.5489 77.8226 58.6588C82.4316 54.8072 88.5685 52.1368 94.3844 51.6618C100.316 51.1097 106.62 52.5733 111.408 55.6803C113.796 57.2209 115.786 59.1467 117.186 61.2907C117.468 61.7144 117.712 62.1638 117.943 62.6131C115.003 63.8585 112.05 65.091 109.097 66.3235C103.808 68.506 98.5056 70.6629 93.1904 72.7685C85.4744 75.824 77.7327 78.7898 69.9782 81.6271H69.9525Z" fill="white"/>
</g>
<defs>
<clipPath id="clip0_652_2637">
<rect width="885.51" height="200" fill="white"/>
</clipPath>
</defs>
</svg>
