<svg width="1243" height="200" viewBox="0 0 1243 200" fill="none" xmlns="http://www.w3.org/2000/svg">
<g clip-path="url(#clip0_652_2542)">
<path fill-rule="evenodd" clip-rule="evenodd" d="M31.1979 130.142C31.1979 143.575 34.3793 154.1 40.7588 161.733C47.1299 169.375 55.933 173.192 67.1762 173.192C72.0399 173.192 76.1874 172.983 79.627 172.558C83.0666 172.142 85.8733 171.683 88.0553 171.175V95.6667C85.3736 93.8167 81.8091 92.1 77.3617 90.5C72.9144 88.9167 68.1756 88.1083 63.1453 88.1083C52.077 88.1083 43.9902 91.8833 38.8683 99.4417C33.7547 106.992 31.1979 117.233 31.1979 130.15V130.142ZM118.495 192.325C112.457 194.175 104.87 195.85 95.7257 197.358C86.5895 198.867 76.987 199.625 66.9264 199.625C56.516 199.625 47.2132 198.025 38.9932 194.842C30.7731 191.658 23.7773 187.083 17.9892 181.125C12.201 175.167 7.74533 167.95 4.65553 159.475C1.54907 151 0 141.475 0 130.892C0 120.492 1.29922 111.058 3.89765 102.575C6.49609 94.1083 10.3105 86.8417 15.3491 80.8C20.3794 74.7583 26.5007 70.1 33.713 66.8333C40.9253 63.5583 49.2204 61.9167 58.6147 61.9167C64.9942 61.9167 70.6075 62.675 75.4795 64.1917C80.3433 65.6917 84.5324 67.375 88.0553 69.225V6.03333L118.495 1V192.325ZM244.544 117.558C244.544 113.358 243.953 109.375 242.779 105.6C241.613 101.825 239.889 98.55 237.624 95.7833C235.358 93.0083 232.593 90.8333 229.32 89.2333C226.047 87.6417 222.158 86.8417 217.627 86.8417C212.93 86.8417 208.816 87.725 205.301 89.4833C201.77 91.25 198.797 93.5583 196.365 96.4083C193.933 99.2667 192.043 102.533 190.702 106.225C189.361 109.917 188.436 113.7 187.937 117.558H244.544ZM156.231 131.15C156.231 119.567 157.955 109.417 161.394 100.692C164.826 91.9667 169.398 84.7 175.103 78.9167C180.799 73.125 187.345 68.7583 194.724 65.825C202.103 62.8917 209.657 61.4167 217.377 61.4167C235.483 61.4167 249.608 67.0417 259.769 78.2833C269.912 89.5333 274.984 106.317 274.984 128.633C274.984 130.308 274.943 132.2 274.859 134.3C274.776 136.4 274.643 138.283 274.485 139.967H187.687C188.52 150.533 192.251 158.717 198.88 164.508C205.501 170.292 215.104 173.192 227.688 173.192C235.067 173.192 241.813 172.525 247.942 171.175C254.064 169.842 258.886 168.408 262.409 166.9L266.431 191.817C264.757 192.658 262.442 193.542 259.519 194.467C256.579 195.383 253.222 196.225 249.45 196.983C245.677 197.733 241.604 198.367 237.249 198.867C232.885 199.367 228.437 199.617 223.915 199.617C212.339 199.617 202.278 197.9 193.725 194.467C185.172 191.025 178.126 186.242 172.588 180.117C167.058 173.992 162.944 166.775 160.262 158.467C157.572 150.158 156.231 141.05 156.231 131.15ZM313.478 68.9667C319.349 67.3 326.97 65.7 336.381 64.1833C345.767 62.6833 356.16 61.925 367.57 61.925C378.305 61.925 387.275 63.3917 394.487 66.325C401.7 69.2667 407.446 73.375 411.727 78.6583C415.999 83.95 419.023 90.325 420.78 97.7917C422.545 105.258 423.42 113.442 423.42 122.333V196.35H392.98V127.125C392.98 120.075 392.514 114.075 391.597 109.125C390.681 104.175 389.166 100.15 387.067 97.0417C384.968 93.9333 382.12 91.6667 378.514 90.2417C374.908 88.825 370.502 88.1 365.305 88.1C361.449 88.1 357.418 88.35 353.229 88.85C349.04 89.3583 345.933 89.7833 343.918 90.1167V196.35H313.478V68.9667ZM465.436 29.95L495.876 24.9167V64.6917H542.673V90.1083H495.876V143.733C495.876 154.317 497.55 161.858 500.907 166.4C504.263 170.925 509.968 173.192 518.021 173.192C523.551 173.192 528.457 172.608 532.737 171.425C537.01 170.258 540.408 169.158 542.923 168.158L547.953 192.325C544.439 193.825 539.817 195.383 534.12 196.983C528.415 198.567 521.711 199.367 513.99 199.367C504.596 199.367 496.759 198.117 490.471 195.592C484.175 193.075 479.186 189.425 475.497 184.642C471.807 179.858 469.209 174.067 467.702 167.275C466.194 160.475 465.436 152.717 465.436 143.992V29.95Z" fill="white"/>
<path fill-rule="evenodd" clip-rule="evenodd" d="M624.69 174.95C634.084 174.95 641.213 174.45 646.077 173.45V139.708C644.394 139.208 641.963 138.708 638.781 138.2C635.591 137.7 632.069 137.45 628.204 137.45C624.856 137.45 621.458 137.7 618.019 138.2C614.587 138.7 611.481 139.625 608.716 140.967C605.943 142.308 603.719 144.2 602.053 146.633C600.371 149.067 599.53 152.133 599.53 155.817C599.53 163.042 601.795 168.025 606.326 170.8C610.856 173.567 616.978 174.95 624.69 174.95ZM622.175 61.4167C632.243 61.4167 640.705 62.675 647.584 65.1917C654.463 67.7083 659.952 71.2333 664.066 75.7667C668.172 80.3 671.112 85.8 672.869 92.2583C674.626 98.7167 675.509 105.808 675.509 113.525V193.325C670.812 194.333 663.724 195.558 654.255 196.983C644.778 198.4 634.084 199.117 622.175 199.117C614.288 199.117 607.075 198.367 600.538 196.85C594 195.35 588.42 192.908 583.806 189.55C579.192 186.2 575.586 181.833 572.988 176.467C570.389 171.092 569.09 164.467 569.09 156.575C569.09 149.025 570.556 142.65 573.496 137.442C576.427 132.242 580.408 128 585.447 124.733C590.477 121.458 596.298 119.108 602.936 117.683C609.549 116.258 616.47 115.542 623.682 115.542C627.038 115.542 630.561 115.75 634.251 116.167C637.94 116.592 641.879 117.3 646.077 118.308V113.275C646.077 109.75 645.66 106.392 644.819 103.208C643.978 100.017 642.512 97.2083 640.414 94.775C638.315 92.3417 635.55 90.45 632.11 89.1083C628.679 87.775 624.357 87.0917 619.16 87.0917C612.114 87.0917 605.651 87.5917 599.788 88.6C593.908 89.6083 589.128 90.7917 585.447 92.1333L581.666 67.4667C585.522 66.1167 591.143 64.775 598.53 63.4333C605.901 62.0917 613.788 61.4167 622.175 61.4167ZM762.307 198.867C753.254 198.7 745.742 197.692 739.795 195.85C733.832 194 729.102 191.358 725.579 187.917C722.056 184.483 719.583 180.2 718.158 175.083C716.726 169.958 716.018 164.125 716.018 157.583V6.03333L746.458 1V151.792C746.458 155.483 746.749 158.592 747.341 161.108C747.924 163.625 748.973 165.767 750.489 167.525C751.988 169.292 754.045 170.633 756.652 171.55C759.25 172.475 762.565 173.192 766.588 173.692L762.307 198.867ZM840.809 198.867C831.748 198.7 824.236 197.692 818.29 195.85C812.335 194 807.596 191.358 804.073 187.917C800.55 184.483 798.077 180.2 796.653 175.083C795.229 169.958 794.512 164.125 794.512 157.583V6.03333L824.952 1V151.792C824.952 155.483 825.244 158.592 825.835 161.108C826.418 163.625 827.468 165.767 828.983 167.525C830.482 169.292 832.539 170.633 835.146 171.55C837.745 172.475 841.059 173.192 845.082 173.692L840.809 198.867Z" fill="white"/>
<path fill-rule="evenodd" clip-rule="evenodd" d="M982.3 191.8C987.022 191.8 990.845 189.1 990.845 184.375V180.325C990.845 175.6 987.014 172.9 982.3 172.9H920.462V38.8C920.462 34.075 916.631 30.25 911.917 30.25H907.42C902.698 30.25 898.875 34.075 898.875 38.8V183.25C898.875 187.975 902.698 191.8 907.42 191.8H982.3ZM1065.74 30.25C1070.69 30.25 1075.19 33.625 1076.76 38.35L1122.18 183.7C1122.41 184.375 1122.41 184.825 1122.41 185.5C1122.41 188.875 1119.71 191.8 1116.11 191.8H1108.02C1103.07 191.8 1100.6 188.425 1099.25 183.7L1087.33 143.65H1029.53L1017.62 183.7C1016.27 188.425 1013.57 191.8 1008.85 191.8H1002.1C998.507 191.8 995.808 188.875 995.808 185.5C995.808 184.825 995.808 184.375 996.033 183.7L1041.46 38.35C1042.8 33.625 1047.53 30.25 1052.47 30.25H1065.74ZM1058.77 48.25H1058.32L1035.16 124.975H1081.71L1058.77 48.25ZM1173.68 30.25C1217.3 30.25 1236.41 43.525 1236.41 71.2C1236.41 87.85 1228.32 99.55 1212.34 105.85V106.3C1235.96 114.4 1242.71 129.475 1242.71 147.025C1242.71 183.475 1212.8 191.8 1179.52 191.8H1136.57C1131.85 191.8 1128.03 187.975 1128.03 183.25V38.8C1128.03 34.075 1131.85 30.25 1136.57 30.25H1173.68ZM1181.32 116.425H1148.94V173.575H1178.62C1208.52 173.575 1221.35 165.025 1221.35 145.9C1221.35 125.65 1206.96 116.425 1181.32 116.425ZM1173.56 48.7H1148.94V99.55H1176.02C1191.78 99.4167 1215.05 96.675 1215.05 73C1215.05 50.275 1190.98 48.7 1172.1 48.7H1173.56Z" fill="white"/>
</g>
<defs>
<clipPath id="clip0_652_2542">
<rect width="1242.71" height="200" fill="white"/>
</clipPath>
</defs>
</svg>
