<svg width="1263" height="200" viewBox="0 0 1263 200" fill="none" xmlns="http://www.w3.org/2000/svg">
<g clip-path="url(#clip0_652_2553)">
<path fill-rule="evenodd" clip-rule="evenodd" d="M33.0234 129.139C33.0234 142.574 36.3883 153.104 43.1356 160.739C49.8829 168.374 59.2038 172.191 71.0985 172.191C76.2459 172.191 80.6369 171.983 84.28 171.557C87.9145 171.139 90.8882 170.687 93.2011 170.174V94.6522C90.3578 92.8087 86.5929 91.087 81.8802 89.4956C77.185 87.9043 72.1593 87.1043 66.838 87.1043C55.1259 87.1043 46.5527 90.8783 41.1445 98.4261C35.7275 105.983 33.0234 116.217 33.0234 129.139ZM125.416 191.322C119.025 193.174 111 194.843 101.322 196.365C91.6447 197.87 81.4803 198.626 70.8377 198.626C59.8212 198.626 49.9698 197.026 41.2749 193.843C32.5799 190.652 25.1632 186.078 19.0419 180.122C12.912 174.165 8.20802 166.948 4.92134 158.47C1.64334 150 0 140.47 0 129.896C0 119.496 1.3738 110.052 4.1301 101.574C6.8777 93.1043 10.9121 85.8435 16.2421 79.8C21.5721 73.7652 28.0499 69.1043 35.684 65.8348C43.3095 62.5565 52.1001 60.9217 62.0471 60.9217C68.7857 60.9217 74.7417 61.6783 79.8891 63.1826C85.0365 64.6956 89.4709 66.3739 93.2011 68.2261V5.02609L125.416 0V191.322ZM258.831 116.557C258.831 112.365 258.205 108.374 256.962 104.6C255.718 100.817 253.901 97.5565 251.51 94.7739C249.11 92.0087 246.18 89.8348 242.719 88.2348C239.259 86.6435 235.129 85.8435 230.338 85.8435C225.364 85.8435 221.017 86.7217 217.287 88.487C213.556 90.2522 210.409 92.5565 207.835 95.4087C205.261 98.2609 203.262 101.539 201.836 105.226C200.418 108.922 199.445 112.704 198.914 116.557H258.822H258.831ZM165.36 130.148C165.36 118.565 167.186 108.409 170.821 99.687C174.455 90.9652 179.298 83.7043 185.341 77.913C191.367 72.1217 198.297 67.7652 206.105 64.8261C213.913 61.887 221.904 60.4174 230.068 60.4174C249.24 60.4174 264.196 66.0435 274.934 77.287C285.672 88.5304 291.046 105.313 291.046 127.635C291.046 129.313 291.002 131.2 290.915 133.296C290.828 135.4 290.689 137.287 290.515 138.957H198.645C199.531 149.53 203.479 157.713 210.496 163.504C217.513 169.296 227.668 172.191 240.989 172.191C248.797 172.191 255.944 171.522 262.422 170.174C268.9 168.835 274.004 167.409 277.734 165.896L281.994 190.817C280.221 191.661 277.777 192.539 274.673 193.461C271.56 194.383 268.013 195.226 264.022 195.983C260.022 196.739 255.718 197.365 251.11 197.87C246.484 198.374 241.789 198.626 236.989 198.626C224.747 198.626 214.087 196.896 205.035 193.461C195.993 190.026 188.524 185.243 182.672 179.113C176.812 172.991 172.464 165.774 169.63 157.461C166.778 149.157 165.369 140.052 165.369 130.157L165.36 130.148ZM331.79 67.9652C337.998 66.2957 346.076 64.6956 356.023 63.1826C365.961 61.6783 376.969 60.9217 389.038 60.9217C400.402 60.9217 409.906 62.3913 417.531 65.3217C425.165 68.2696 431.243 72.3739 435.773 77.6609C440.294 82.9478 443.494 89.3304 445.364 96.7913C447.224 104.27 448.155 112.443 448.155 121.339V195.348H415.931V126.13C415.931 119.07 415.444 113.07 414.47 108.13C413.497 103.174 411.897 99.1478 409.679 96.0435C407.454 92.9304 404.436 90.6696 400.619 89.2435C396.802 87.8174 392.142 87.1043 386.647 87.1043C382.56 87.1043 378.299 87.3565 373.865 87.8609C369.431 88.3565 366.135 88.7826 364.014 89.113V195.348H331.79V67.9652ZM492.621 28.9565L524.844 23.913V63.687H574.37V89.113H524.844V142.739C524.844 153.313 526.618 160.861 530.165 165.391C533.721 169.922 539.756 172.191 548.277 172.191C554.137 172.191 559.319 171.609 563.849 170.426C568.38 169.252 571.979 168.165 574.631 167.157L579.961 191.33C576.24 192.835 571.353 194.391 565.319 195.983C559.285 197.574 552.181 198.374 544.016 198.374C534.069 198.374 525.774 197.113 519.114 194.6C512.462 192.078 507.176 188.426 503.272 183.643C499.359 178.861 496.62 173.07 495.012 166.278C493.42 159.478 492.621 151.713 492.621 142.991V28.9565Z" fill="white"/>
<path fill-rule="evenodd" clip-rule="evenodd" d="M661.181 173.957C671.12 173.957 678.658 173.443 683.814 172.443V138.704C682.041 138.209 679.467 137.704 676.093 137.2C672.72 136.696 668.989 136.443 664.903 136.443C661.355 136.443 657.764 136.696 654.121 137.2C650.487 137.704 647.2 138.626 644.27 139.965C641.339 141.313 638.983 143.2 637.218 145.635C635.436 148.07 634.549 151.13 634.549 154.817C634.549 162.035 636.949 167.026 641.739 169.8C646.53 172.565 653.017 173.957 661.181 173.957ZM658.521 60.4174C669.172 60.4174 678.128 61.6783 685.414 64.1913C692.692 66.713 698.5 70.2348 702.856 74.7652C707.204 79.2957 710.308 84.8 712.177 91.2522C714.038 97.7218 714.968 104.817 714.968 112.53V192.33C709.995 193.339 702.5 194.557 692.466 195.983C682.44 197.4 671.12 198.122 658.521 198.122C650.174 198.122 642.539 197.365 635.618 195.861C628.697 194.339 622.793 191.913 617.907 188.557C613.029 185.2 609.212 180.835 606.455 175.461C603.708 170.096 602.334 163.461 602.334 155.574C602.334 148.026 603.882 141.643 606.994 136.443C610.099 131.243 614.316 127 619.646 123.73C624.967 120.461 631.132 118.113 638.148 116.687C645.157 115.261 652.478 114.539 660.112 114.539C663.668 114.539 667.39 114.757 671.294 115.165C675.206 115.6 679.38 116.296 683.814 117.313V112.27C683.814 108.748 683.371 105.4 682.484 102.209C681.597 99.0174 680.041 96.2087 677.823 93.7739C675.606 91.3391 672.676 89.4522 669.042 88.1131C665.39 86.7652 660.825 86.0957 655.321 86.0957C647.869 86.0957 641.026 86.6 634.818 87.6C628.601 88.6087 623.541 89.7913 619.646 91.1304L615.646 66.4609C619.733 65.1131 625.671 63.7739 633.488 62.4348C641.296 61.087 649.643 60.4174 658.521 60.4174ZM806.839 197.87C797.248 197.696 789.301 196.696 783.006 194.852C776.702 193 771.685 190.357 767.964 186.922C764.225 183.478 761.617 179.2 760.104 174.078C758.591 168.965 757.843 163.122 757.843 156.583V5.04348L790.058 0V150.791C790.058 154.487 790.371 157.591 790.997 160.104C791.605 162.626 792.727 164.765 794.318 166.53C795.918 168.287 798.092 169.635 800.839 170.557C803.596 171.478 807.1 172.191 811.36 172.696L806.839 197.87ZM889.919 197.87C880.329 197.696 872.381 196.696 866.086 194.852C859.782 193 854.765 190.357 851.044 186.922C847.305 183.478 844.697 179.2 843.184 174.078C841.671 168.965 840.923 163.122 840.923 156.583V5.04348L873.138 0V150.791C873.138 154.487 873.451 157.591 874.068 160.104C874.694 162.626 875.807 164.765 877.398 166.53C878.998 168.287 881.172 169.635 883.92 170.557C886.676 171.478 890.18 172.191 894.44 172.696L889.919 197.87Z" fill="white"/>
<path fill-rule="evenodd" clip-rule="evenodd" d="M954.991 190.261C956.773 190.261 958.321 189.609 959.616 188.313C960.921 187.009 961.564 185.469 961.564 183.687V115.026H1047.26V183.687C1047.26 185.469 1047.91 187.017 1049.21 188.313C1050.51 189.617 1052.05 190.261 1053.83 190.261H1063.82C1065.6 190.261 1067.15 189.609 1068.44 188.313C1069.75 187.009 1070.39 185.469 1070.39 183.687V26.3998C1070.39 24.6172 1069.74 23.0694 1068.44 21.7737C1067.14 20.4694 1065.6 19.8259 1063.82 19.8259H1053.83C1052.05 19.8259 1050.5 20.4781 1049.21 21.7737C1047.9 23.0781 1047.26 24.6172 1047.26 26.3998V93.1129H961.564V26.3998C961.564 24.6172 960.912 23.0694 959.616 21.7737C958.312 20.4694 956.773 19.8259 954.991 19.8259H945.009C943.226 19.8259 941.679 20.4781 940.383 21.7737C939.079 23.0781 938.436 24.6172 938.436 26.3998V183.687C938.436 185.635 939.088 187.217 940.383 188.435C941.687 189.652 943.226 190.261 945.009 190.261H954.991ZM1113.69 44.4172C1115.47 44.4172 1117.02 43.765 1118.32 42.4694C1119.62 41.165 1120.26 39.6259 1120.26 37.8433V23.965C1120.26 22.1824 1119.61 20.6346 1118.32 19.3389C1117.01 18.0346 1115.47 17.3911 1113.69 17.3911H1099.81C1098.03 17.3911 1096.48 18.0433 1095.19 19.3389C1093.88 20.6433 1093.24 22.1824 1093.24 23.965V37.8433C1093.24 39.6259 1093.89 41.1737 1095.19 42.4694C1096.49 43.7737 1098.03 44.4172 1099.81 44.4172H1113.69ZM1111.26 190.261C1113.04 190.261 1114.59 189.609 1115.88 188.313C1117.19 187.009 1117.83 185.469 1117.83 183.687V70.2259C1117.83 68.4433 1117.18 66.8955 1115.88 65.5998C1114.58 64.2955 1113.04 63.652 1111.26 63.652H1102.25C1100.47 63.652 1098.92 64.3042 1097.62 65.5998C1096.32 66.9042 1095.67 68.4433 1095.67 70.2259V183.687C1095.67 185.469 1096.33 187.017 1097.62 188.313C1098.93 189.617 1100.47 190.261 1102.25 190.261H1111.26ZM1196.68 192.695C1206.58 192.695 1215.54 191.478 1223.58 189.043C1231.61 186.608 1238.47 183.2 1244.15 178.817C1249.83 174.435 1254.25 169.2 1257.42 163.113C1260.58 157.026 1262.17 150.33 1262.17 143.026C1262.17 137.026 1261.24 131.626 1259.37 126.835C1257.5 122.052 1254.54 117.826 1250.48 114.174C1246.42 110.522 1241.18 107.235 1234.78 104.313C1228.37 101.391 1220.53 98.7128 1211.28 96.2781C1202.2 93.8433 1194.48 91.652 1188.15 89.7042C1181.82 87.7563 1176.59 85.6085 1172.45 83.252C1168.31 80.9042 1165.31 78.2607 1163.44 75.3389C1161.57 72.4172 1160.64 68.8433 1160.64 64.6259C1160.64 60.4085 1161.62 56.7129 1163.56 53.5476C1165.51 50.3824 1168.11 47.7476 1171.36 45.6346C1174.6 43.5215 1178.29 41.9389 1182.43 40.8868C1186.57 39.8346 1190.91 39.3042 1195.46 39.3042C1201.46 39.3042 1206.74 40.1563 1211.28 41.8607C1215.83 43.565 1219.68 45.5998 1222.85 47.9476C1226.01 50.2955 1228.52 52.7302 1230.39 55.252C1232.26 57.7737 1233.6 59.8346 1234.41 61.4607C1235.54 63.7302 1236.65 65.1998 1237.7 65.8433C1238.75 66.4955 1240.18 66.8172 1241.96 66.8172H1251.94C1253.4 66.8172 1254.7 66.2955 1255.84 65.2346C1256.97 64.1824 1257.46 62.9215 1257.3 61.4607C1257.13 57.3998 1255.67 52.8172 1252.91 47.7042C1250.16 42.5911 1246.13 37.7998 1240.86 33.3389C1235.59 28.8781 1229.18 25.1042 1221.63 22.0172C1214.08 18.9302 1205.36 17.3911 1195.46 17.3911C1185.72 17.3911 1177.24 18.7302 1170.02 21.4085C1162.8 24.0868 1156.79 27.6172 1152 31.9998C1147.22 36.3824 1143.6 41.4172 1141.17 47.0955C1138.73 52.7737 1137.51 58.6172 1137.51 64.6259C1137.51 70.1476 1138.29 75.2607 1139.83 79.965C1141.37 84.6694 1143.92 88.9737 1147.5 92.8694C1151.06 96.765 1155.7 100.217 1161.37 103.217C1167.05 106.217 1173.96 108.782 1182.07 110.887C1191 113.156 1198.99 115.313 1206.05 117.339C1213.11 119.365 1219.07 121.6 1223.94 124.035C1228.81 126.469 1232.55 129.191 1235.14 132.191C1237.74 135.191 1239.04 138.8 1239.04 143.026C1239.04 147.243 1237.91 151.061 1235.63 154.469C1233.36 157.878 1230.27 160.8 1226.38 163.235C1222.48 165.669 1217.98 167.539 1212.87 168.835C1207.75 170.139 1202.35 170.782 1196.68 170.782C1190.02 170.782 1184.26 169.974 1179.39 168.348C1174.52 166.722 1170.38 164.739 1166.97 162.382C1163.56 160.035 1160.84 157.513 1158.82 154.835C1156.79 152.156 1155.29 149.678 1154.31 147.408C1153.34 145.139 1152.24 143.669 1151.03 143.026C1149.81 142.374 1148.39 142.052 1146.77 142.052H1136.78C1135.32 142.052 1134.06 142.574 1133.01 143.635C1131.96 144.687 1131.43 145.948 1131.43 147.408C1131.59 152.6 1133.34 157.878 1136.66 163.235C1139.99 168.591 1144.49 173.461 1150.17 177.843C1155.85 182.226 1162.67 185.8 1170.63 188.556C1178.58 191.313 1187.26 192.695 1196.68 192.695Z" fill="white"/>
</g>
<defs>
<clipPath id="clip0_652_2553">
<rect width="1262.17" height="200" fill="white"/>
</clipPath>
</defs>
</svg>
