<?xml version="1.0" encoding="UTF-8"?>
<svg id="_圖層_2" data-name="圖層 2" xmlns="http://www.w3.org/2000/svg" viewBox="0 0 1968.11 180.69">
  <defs>
    <style>
      .cls-1 {
        fill: #fff;
      }
    </style>
  </defs>
  <g id="_圖層_1-2" data-name="圖層 1">
    <g>
      <path class="cls-1" d="m278.04,123.94c0,2.81-.04,4.94,0,7.07.15,6.85,2.33,10.75,9.07,11.8,9.96,1.55,20.13,1.81,30.22,2.49,2.14.15,4.3-.33,6.46-.33,42.63,0,85.27,0,127.9.02,1.99,0,3.97,0,6.54,0,.09-2.02.24-3.76.24-5.51.02-18.45-.02-36.9.02-55.35.04-18.81,7.77-31.24,25.73-37.18,11.21-3.71,23.3-5.97,35.1-6.45,23.94-.97,47.95-.51,71.93-.2,12.17.16,24.22,1.93,35.64,6.57,17.15,6.97,25.09,18.4,25.17,36.77.11,27.76.05,55.51.02,83.27-.01,8.67-3.09,12.17-11.63,12.97-3.95.37-7.99.4-11.95.07-9.15-.77-12.25-4.22-12.27-13.47-.06-22.6-.02-45.21-.02-67.81,0-17.38-4.46-24.6-21.99-25.57-26.67-1.48-53.51-.17-80.27.07-1.92.02-3.88.88-5.75,1.54-9.87,3.49-13.88,8.95-13.91,19.38-.07,23.93-.01,47.87-.03,71.8,0,9.49-2.05,11.91-11.66,12.01-40.76.43-81.53.69-122.3.92-20.8.12-41.64.77-62.39-.27-10.6-.53-21.44-3.17-31.47-6.79-16.46-5.94-24.35-18.7-24.3-36.27.05-17.12-.02-34.24.02-51.36.04-18.27,7.95-30.05,24.86-37.06,11.55-4.79,23.76-6.6,36.1-6.76,25.31-.31,50.65-.71,75.93.18,11.65.41,23.56,2.58,34.69,6.06,17.12,5.36,24.94,17.36,25.29,35.33.2,10.47.14,20.94-.03,31.41-.12,7.08-2.44,9.51-9.43,10.38-2.47.31-4.99.25-7.48.25-45.8.01-91.6,0-137.4,0-1.98,0-3.96,0-6.65,0Zm124.65-31.36c2.38-16.62-.42-20.04-16.35-20.58-1.16-.04-2.33-.07-3.49-.08-24.63-.03-49.26-.16-73.89-.03-7.3.04-14.62.56-21.88,1.31-4.35.45-8.21,2.5-8.73,7.46-.41,3.86-.08,7.81-.08,11.92h124.42Z"/>
      <path class="cls-1" d="m0,89.49c0-25.26-.01-50.52,0-75.78C.02,3.7,3.1.5,13.08.49c46.96-.02,93.92-.07,140.88.1,13.69.05,27.25,1.54,40.17,6.56,17.44,6.77,27.99,18.88,30.37,37.86,3.69,29.35,3.91,58.7.12,87.99-3.29,25.4-17.03,39.13-43.29,43.7-9.46,1.65-19.18,2.53-28.78,2.58-46.13.26-92.26.12-138.39.11-11.4,0-14.16-2.77-14.16-14.12,0-25.26,0-50.52,0-75.78Zm37.5,56.25c1.62.09,2.77.21,3.93.21,37.65,0,75.29.03,112.94-.06,4.64-.01,9.33-.36,13.92-1.04,10.23-1.53,17.19-7.87,18.5-17.5,3.39-24.82,3.42-49.7.11-74.55-1.16-8.7-6.31-14.39-14.66-16.34-6.26-1.47-12.83-2.19-19.26-2.22-37.15-.22-74.29-.13-111.44-.13-1.28,0-2.55.21-4.04.34v111.3Z"/>
      <path class="cls-1" d="m962.74,86.51c1.3-9.91-.4-12.99-9.08-13.5-14.94-.88-29.93-.94-44.9-1.2-9.44-.16-12.12-2.48-12.87-11.85-.12-1.49-.11-2.99-.06-4.48.43-12.68,3.18-15.49,15.69-15.33,17.47.22,34.94.59,52.41,1.04,2.97.08,5.96.67,8.87,1.34,15.82,3.63,24.67,12.93,25.47,30.16,1.06,22.71.87,45.5.45,68.24-.24,13.22-7.69,22.66-19.18,28.9-10.75,5.84-22.55,8.62-34.53,8.79-32.95.49-65.93.73-98.87-.16-10.38-.28-21.05-3.4-30.88-7.1-14.24-5.36-22.32-16.46-23.05-31.99-.34-7.11-.2-14.29.32-21.4.83-11.3,7.05-19.09,17.17-23.82,10.91-5.1,22.66-6.84,34.49-6.99,37.29-.47,74.59-.48,111.89-.66,2.15-.01,4.29,0,6.67,0Zm.26,31.74c-1.33-.11-2.46-.28-3.59-.28-35.95.02-71.9-.02-107.85.17-5.62.03-11.25.94-16.84,1.75-5.08.74-8.57,3.34-9.01,8.99-.54,6.98,1.27,10.97,7.39,13.01,4.83,1.6,10.02,2.86,15.07,2.94,27.95.42,55.91.61,83.87.45,6.91-.04,13.9-1.24,20.68-2.72,5.23-1.14,9.62-4.34,10.19-10.28.44-4.56.09-9.19.09-14.02Z"/>
      <path class="cls-1" d="m1623.76,143.05c24.98,0,49.96.07,74.94-.06,4.97-.02,9.97-.55,14.9-1.26,4.45-.64,7.08-3.26,7.14-8.11.06-4.8-1.72-8.21-6.68-8.99-4.91-.78-9.89-1.51-14.85-1.55-21.48-.19-42.97-.05-64.45-.17-11.39-.07-22.55-1.73-33.22-5.96-24.49-9.71-28.45-31.15-21.71-52.68,2.55-8.14,9.33-13.17,16.87-16.86,9.74-4.76,20.21-6.78,30.91-7.08,14.15-.4,28.31-.15,42.46-.23,4.95-.03,8.29,2.25,8.39,7.2.12,5.73-.3,11.55-1.21,17.21-.82,5.07-4.36,7.35-9.71,7.32-13.65-.07-27.31.07-40.96.31-2.78.05-5.64.63-8.3,1.47-4.34,1.36-5.53,4.78-5.29,9.05.24,4.29,3.14,5.82,6.61,6.12,5.96.52,11.97.65,17.96.71,21.81.23,43.63.11,65.44.65,10.7.27,21.01,2.99,30.74,7.74,23.38,11.42,27.11,35.44,20.68,56.24-2.48,8.04-9.02,12.99-16.4,16.6-11.11,5.44-23.09,7.57-35.28,8.03-15.47.59-30.96.6-46.45.63-37.81.08-75.61.03-113.42.02-8.28,0-11.33-2.18-12.13-10.45-.56-5.7-.17-11.63.77-17.3,1.08-6.57,4.1-8.52,10.8-8.53,27.15-.02,54.29,0,81.44,0v-.06Z"/>
      <path class="cls-1" d="m1292.7,123.94c-2.06,14.1.64,18.73,14.06,20.11,13.37,1.37,26.92,1.04,40.39,1.43,2.5.07,5,.08,7.49.02,4.52-.11,7.9,2.22,8.29,6.34.65,7,.57,14.14-.02,21.15-.3,3.61-3.16,6.36-7.27,6.32-21.27-.2-42.71,1.77-63.63-3.59-6.21-1.59-12.42-3.95-18-7.07-11.47-6.42-17.48-16.68-17.64-29.85-.23-19.11-.18-38.23-.05-57.34.11-15.56,7.85-26.39,21.65-33.06,11.92-5.76,24.8-7.82,37.81-8.02,26.14-.4,52.31-.67,78.43.15,10.99.35,22.22,2.5,32.74,5.77,17.79,5.54,25.95,17.76,26.23,36.29.15,9.97.14,19.95-.03,29.92-.14,8.04-2.76,10.65-10.79,11.3-2.32.19-4.66.13-6.99.13-45.8,0-91.6,0-137.41,0-1.78,0-3.57,0-5.26,0Zm123.99-31.44c2.74-15.63-.43-20.25-15.1-20.37-30.78-.25-61.57-.11-92.36.05-3.76.02-7.78.58-11.17,2.05-2.35,1.02-4.86,3.77-5.46,6.2-.91,3.72-.24,7.82-.24,12.06h124.32Z"/>
      <path class="cls-1" d="m1807.56,123.94c-.27.86-.35,1.01-.36,1.16-.89,14.14,1.42,17.86,15.64,19.19,14.05,1.32,28.27.96,42.41,1.16,10.65.15,13.59,2.71,13.83,13.45.1,4.61-.32,9.3-1.14,13.83-.66,3.62-3.04,6.57-7.14,6.55-21.44-.12-43.03,1.78-64.13-3.59-5.9-1.5-11.76-3.76-17.1-6.66-12.12-6.58-18.25-17.21-18.37-30.96-.18-18.78-.15-37.57-.02-56.35.1-14.83,7.01-25.66,20.12-32.51,12.24-6.4,25.61-8.58,39.11-8.81,26.47-.45,52.96-.39,79.44,0,11.81.18,23.53,2.03,34.62,6.62,15.55,6.43,23.32,18.11,23.55,34.79.14,10.14.1,20.28,0,30.42-.09,8.31-2.7,10.99-10.99,11.58-2.32.17-4.66.11-6.99.11-46.3,0-92.61,0-138.91,0-1.14,0-2.27,0-3.56,0Zm124.31-31.38c.11-1.24.21-1.9.22-2.55.02-2.49.07-4.98,0-7.47-.18-5.88-2.15-8.41-8.09-9.53-3.73-.7-7.59-1.02-11.39-1.03-26.96-.1-53.92-.14-80.88-.03-5.46.02-10.96.58-16.38,1.35-3.74.53-7.38,2.3-7.92,6.49-.54,4.15-.12,8.44-.12,12.76h124.57Z"/>
      <path class="cls-1" d="m1128.46,132.45c10.65-13.49,20.93-26.52,31.21-39.54,12.15-15.4,24.27-30.82,36.52-46.14,1.49-1.86,3.48-3.88,5.64-4.57,11.65-3.73,23.47-4.73,35.19-.19,7.6,2.95,8.62,6.45,3.64,12.68-31.54,39.49-63.08,78.97-94.74,118.36-8.14,10.13-27.27,10.2-35.46.12-32.17-39.62-64.23-79.33-96.29-119.04-4.21-5.21-3.52-8.68,2.53-11.32,13.06-5.7,26.34-4.65,39.39-.04,2.39.84,4.28,3.57,6,5.74,21.16,26.71,42.24,53.49,63.34,80.24.82,1.04,1.67,2.05,3.02,3.69Z"/>
      <path class="cls-1" d="m688.73,40.12c0-9.26-.02-18.01,0-26.77.02-7.73,2.73-11.61,10.42-12.7,5.85-.83,11.95-.81,17.84-.21,6.96.71,9.76,4.46,9.8,11.46.06,9.13.01,18.25.01,28.21h6c36.29,0,72.59,0,108.88,0,8.13,0,10.31,1.85,11.46,9.8.24,1.64.32,3.31.33,4.96.05,14.13-2.69,16.9-16.64,16.9-34.46,0-68.93,0-103.39,0-1.98,0-3.96,0-6.64,0,0,2.33,0,4.27,0,6.2,0,29.57,0,59.15,0,88.72,0,8.91-3.06,12.51-11.89,13.2-4.78.37-9.67.37-14.42-.22-8.63-1.07-11.77-4.99-11.77-13.64,0-29.41,0-58.82,0-88.23v-6.03c-4.34,0-8.27.05-12.2-.01-5.93-.1-8.88-2.01-9.66-7.86-.74-5.5-.65-11.21-.15-16.76.43-4.75,3.65-7.19,8.65-7.05,4.28.12,8.57.02,13.37.02Z"/>
      <path class="cls-1" d="m1471.27,123.47c0-13.63.02-27.25,0-40.88-.03-16.75,7.84-28.4,22.91-35.36,10.13-4.68,20.98-6.41,32-6.88,9.31-.4,18.65-.14,27.97-.24,4.53-.05,7.81,2.17,8.11,6.43.46,6.36.31,12.85-.49,19.17-.54,4.26-4.28,5.89-8.52,6.27-8.94.81-17.94,1.37-26.78,2.83-13.32,2.21-19.09,9.07-19.2,22.48-.19,22.93-.08,45.87-.11,68.8-.01,9.67-3.12,13.16-12.91,13.91-4.12.31-8.34.25-12.44-.22-7.39-.85-10.51-4.55-10.53-11.94-.04-14.79-.01-29.58-.01-44.37Z"/>
      <path class="cls-1" d="m1929.32,145.96c5.49,0,10.97.08,16.45-.02,4.96-.1,8.38,2.36,8.76,7,.5,6.02.24,12.2-.53,18.2-.57,4.43-3.96,6.62-8.62,6.6-10.64-.06-21.28-.09-31.91.01-4.97.05-8.29-2.47-8.89-6.99-.77-5.83-.83-11.85-.36-17.72.38-4.71,3.7-7.16,8.65-7.09,5.48.07,10.97.02,16.46.02Z"/>
    </g>
  </g>
</svg>