<svg width="32" height="32" viewBox="0 0 32 32" fill="none" xmlns="http://www.w3.org/2000/svg">
<path d="M13.6612 15.973H10.0702V20.4652H13.6387V32C13.1405 31.8962 12.6475 31.8158 12.1658 31.6904C7.38303 30.4493 3.86905 27.6203 1.63422 23.2189C0.759829 21.497 0.283284 19.6539 0.0912819 17.7339C-0.329047 13.5384 0.699288 9.73037 3.23769 6.37033C5.7761 3.01116 9.14046 0.907788 13.3048 0.222808C21.1337 -1.06672 28.5387 3.34414 31.1212 10.7872C31.9178 13.0826 32.1677 15.4446 31.891 17.8697C31.3997 22.1759 29.4832 25.7098 26.1984 28.512C24.1927 30.2227 21.8922 31.3626 19.3226 31.955C19.2603 31.9697 19.1946 31.9671 19.109 31.9749V20.4929H22.2199C22.4561 18.9862 22.6887 17.5073 22.9274 15.986H18.1827V15.5103C18.1827 14.6921 18.1827 13.8748 18.1827 13.0567C18.1827 11.4731 19.0182 10.5935 20.607 10.5451C21.4995 10.5183 22.3938 10.5373 23.2872 10.5364C23.3815 10.5364 23.4766 10.5364 23.5899 10.5364V6.58136C22.9412 6.50698 22.2943 6.4153 21.6448 6.36168C20.3881 6.2579 19.1341 6.20514 17.8921 6.52255C15.6296 7.10115 14.0305 8.84041 13.8013 11.1695C13.6629 12.5775 13.7009 14.0037 13.6612 15.4212C13.6568 15.5907 13.6612 15.7611 13.6612 15.9739V15.973Z" fill="#0D2957"/>
</svg>
