<svg width="35" height="35" viewBox="0 0 35 35" fill="none" xmlns="http://www.w3.org/2000/svg">
<g clip-path="url(#clip0_320_462)">
<path d="M14.9427 17.4708H11.0151V22.384H14.9181V35.0001C14.3732 34.8866 13.8341 34.7986 13.3072 34.6615C8.07609 33.304 4.23271 30.2099 1.78838 25.3959C0.832031 23.5126 0.310815 21.4967 0.100815 19.3967C-0.358915 14.808 0.765815 10.643 3.54217 6.96797C6.31852 3.29391 9.99825 0.993371 14.553 0.244182C23.1157 -1.16622 31.2149 3.6581 34.0395 11.7989C34.9107 14.3095 35.1841 16.8928 34.8814 19.5453C34.3441 24.2551 32.2478 28.1203 28.6551 31.1851C26.4615 33.0562 23.9453 34.303 21.1349 34.9509C21.0668 34.967 20.9949 34.9642 20.9012 34.9727V22.4143H24.3038C24.562 20.7665 24.8165 19.1489 25.0776 17.485H19.8881V16.9647C19.8881 16.0699 19.8881 15.1759 19.8881 14.2811C19.8881 12.549 20.8019 11.587 22.5396 11.534C23.5158 11.5047 24.4939 11.5255 25.4711 11.5246C25.5742 11.5246 25.6782 11.5246 25.8022 11.5246V7.19878C25.0927 7.11742 24.3851 7.01715 23.6747 6.95851C22.3003 6.84499 20.9287 6.78729 19.5703 7.13445C17.0957 7.76729 15.3466 9.66959 15.096 12.217C14.9446 13.757 14.9862 15.3169 14.9427 16.8673C14.938 17.0527 14.9427 17.239 14.9427 17.4717V17.4708Z" fill="white"/>
</g>
<defs>
<clipPath id="clip0_320_462">
<rect width="35" height="35" fill="white"/>
</clipPath>
</defs>
</svg>
