<svg width="58" height="58" viewBox="0 0 58 58" fill="none" xmlns="http://www.w3.org/2000/svg">
<path d="M46.1558 22.5417C44.4645 19.2673 41.8084 16.9024 38.5228 15.2799C33.0871 12.6011 27.469 12.3018 21.7567 14.2823C18.0388 15.5704 14.965 17.7885 12.7089 21.0424C10.4499 24.2992 9.57335 27.9052 10.194 31.8281C10.6705 34.8414 12.0353 37.4409 14.0708 39.7031C14.1855 39.8293 14.2943 40.02 14.2973 40.1814C14.3296 41.8538 13.8502 43.3736 12.8324 44.7086C12.5795 45.0431 12.2912 45.3512 12.0177 45.6739C12.6324 45.9292 13.6266 46.0378 14.3855 45.9556C16.1916 45.759 17.7593 44.9962 19.2006 43.9399C19.3624 43.8225 19.4801 43.7609 19.6977 43.8636C24.457 46.1346 29.4103 46.5864 34.499 45.2602C38.7964 44.1394 42.4349 41.9213 45.0204 38.2683C48.5443 33.2863 48.9678 27.9874 46.1558 22.5447V22.5417ZM23.1039 32.8462C22.9039 33.1895 22.6362 33.4623 22.3038 33.6619C21.9685 33.8614 21.5891 34.0022 21.1596 34.0873C20.7302 34.1694 20.2948 34.2105 19.8507 34.2105C19.1036 34.2105 18.4976 34.1518 18.0299 34.0345C17.5623 33.9171 17.2416 33.7998 17.0622 33.6765C17.0181 33.6325 17.0004 33.5298 17.0122 33.3684C17.024 33.2071 17.0475 33.0428 17.0887 32.8697C17.1269 32.6995 17.1769 32.5469 17.2387 32.4119C17.2975 32.2799 17.3564 32.2183 17.4122 32.23C17.7005 32.3298 18.0152 32.4295 18.3535 32.5205C18.6947 32.6144 19.1242 32.6613 19.6477 32.6613C20.1713 32.6613 20.636 32.5851 21.0096 32.4295C21.3832 32.274 21.5685 31.9953 21.5685 31.5963C21.5685 31.253 21.4449 30.9713 21.2008 30.7571C20.9567 30.5429 20.5154 30.3111 19.883 30.0676C19.5389 29.9327 19.2124 29.7859 18.9065 29.6246C18.6006 29.4632 18.33 29.2754 18.0976 29.0583C17.8623 28.8412 17.6799 28.583 17.5446 28.2837C17.4122 27.9844 17.3446 27.6294 17.3446 27.2157C17.3446 26.8842 17.4093 26.5673 17.5358 26.268C17.6652 25.9687 17.8623 25.7105 18.13 25.4934C18.3976 25.2763 18.7388 25.1061 19.1565 24.977C19.5742 24.8508 20.0713 24.7863 20.6508 24.7863C21.0302 24.7863 21.342 24.7951 21.5949 24.8098C21.845 24.8274 22.0509 24.8508 22.2126 24.8772C22.3744 24.9037 22.5038 24.9359 22.6039 24.9682C22.7039 25.0005 22.798 25.0298 22.8862 25.0504C22.9657 25.0826 23.0039 25.1824 23.0039 25.3408C23.0039 25.4993 22.9804 25.6753 22.9362 25.8572C22.8921 26.0391 22.8303 26.2005 22.7539 26.3384C22.6745 26.4763 22.598 26.5379 22.5186 26.5145C22.3303 26.4587 22.0715 26.3971 21.742 26.3325C21.4126 26.2651 21.0949 26.2328 20.7831 26.2328C20.1478 26.2328 19.7124 26.3237 19.4742 26.4998C19.233 26.6788 19.1153 26.9164 19.1153 27.2157C19.1153 27.5355 19.2506 27.7937 19.5154 27.9903C19.7801 28.1869 20.2007 28.3805 20.7684 28.583C21.6685 28.938 22.3332 29.3458 22.7627 29.8065C23.1921 30.2671 23.4069 30.8481 23.4069 31.5464C23.4069 32.0687 23.3069 32.5029 23.1068 32.8462H23.1039ZM33.0488 33.6413C33.0488 33.8086 33.0283 33.9289 32.9812 34.0081C32.9371 34.0873 32.8106 34.1254 32.5988 34.1254H31.8811C31.6487 34.1254 31.4958 34.0873 31.4222 34.0081C31.3487 33.9289 31.3134 33.7792 31.3134 33.5562V27.7321C30.8693 28.4539 30.5251 29.0114 30.2869 29.4045C30.0457 29.7977 29.8721 30.0882 29.7603 30.2701C29.6486 30.452 29.5809 30.5605 29.5574 30.5928C29.5368 30.6251 29.525 30.6486 29.525 30.6603C29.425 30.8275 29.3574 30.9332 29.3162 30.983C29.2779 31.0329 29.1956 31.0593 29.075 31.0593H28.8073C28.6632 31.0593 28.5691 31.0359 28.5249 30.983C28.4808 30.9302 28.4132 30.8246 28.3249 30.6603L26.6218 27.7644V33.656C26.6218 33.7998 26.5954 33.9142 26.5454 33.9963C26.4954 34.0814 26.3659 34.1225 26.1542 34.1225H25.4541C25.2982 34.1225 25.1629 34.099 25.0423 34.0462C24.9246 33.9963 24.8688 33.835 24.8688 33.5533V25.5638C24.8688 25.3408 24.9099 25.1941 24.9952 25.1208C25.0776 25.0504 25.1982 25.0122 25.3541 25.0122H26.1895C26.3101 25.0122 26.4159 25.0298 26.4983 25.0621C26.5807 25.0944 26.6689 25.1795 26.7571 25.3115L28.975 28.8412L31.1958 25.3467C31.2634 25.2235 31.3428 25.1384 31.4399 25.0885C31.534 25.0386 31.6252 25.0122 31.7134 25.0122H32.6312C32.843 25.0122 32.9635 25.0562 32.9959 25.1442C33.0312 25.2352 33.0459 25.379 33.0459 25.5785V33.6325L33.0488 33.6413ZM40.6907 32.8462C40.4906 33.1895 40.223 33.4623 39.8906 33.6619C39.5553 33.8614 39.1758 34.0022 38.7464 34.0873C38.3169 34.1694 37.8816 34.2105 37.4375 34.2105C36.6903 34.2105 36.0873 34.1518 35.6197 34.0345C35.152 33.9171 34.8284 33.7998 34.6519 33.6765C34.6078 33.6325 34.5902 33.5298 34.6019 33.3684C34.6137 33.2071 34.6372 33.0428 34.6784 32.8697C34.7166 32.6995 34.7666 32.5469 34.8284 32.4119C34.8872 32.2799 34.9461 32.2183 35.002 32.23C35.2902 32.3298 35.6049 32.4266 35.9462 32.5205C36.2844 32.6144 36.7139 32.6613 37.2404 32.6613C37.7669 32.6613 38.2258 32.5851 38.5993 32.4295C38.9729 32.274 39.1582 31.9953 39.1582 31.5963C39.1582 31.253 39.0346 30.9713 38.7905 30.7571C38.5464 30.5429 38.1052 30.3111 37.4728 30.0676C37.1286 29.9327 36.8021 29.7859 36.4962 29.6246C36.1903 29.4632 35.9197 29.2754 35.6844 29.0583C35.452 28.8412 35.2667 28.583 35.1343 28.2837C34.999 27.9815 34.9343 27.6294 34.9343 27.2157C34.9343 26.8842 34.999 26.5673 35.1255 26.268C35.2549 25.9687 35.452 25.7105 35.7197 25.4934C35.9873 25.2792 36.3285 25.1061 36.7462 24.977C37.1639 24.8508 37.661 24.7863 38.2405 24.7863C38.6199 24.7863 38.9317 24.7951 39.1817 24.8098C39.4317 24.8274 39.6376 24.8508 39.7994 24.8772C39.9612 24.9037 40.0906 24.9359 40.1906 24.9682C40.2906 25.0005 40.3848 25.0298 40.473 25.0504C40.5524 25.0826 40.5907 25.1824 40.5907 25.3408C40.5907 25.4993 40.5671 25.6753 40.523 25.8572C40.4789 26.0391 40.4171 26.2005 40.3406 26.3384C40.2612 26.4763 40.1847 26.5379 40.1053 26.5145C39.9171 26.4587 39.6582 26.3971 39.3288 26.3325C38.9993 26.2651 38.6817 26.2328 38.3699 26.2328C37.7345 26.2328 37.2963 26.3237 37.061 26.4998C36.8198 26.6788 36.7021 26.9164 36.7021 27.2157C36.7021 27.5355 36.8374 27.7937 37.1021 27.9903C37.3669 28.1869 37.7875 28.3805 38.3552 28.583C39.2553 28.938 39.92 29.3458 40.3495 29.8065C40.7789 30.2671 40.9936 30.8481 40.9936 31.5464C40.9936 32.0687 40.8936 32.5029 40.6936 32.8462H40.6907Z" fill="#0D2957"/>
</svg>
