<svg width="58" height="58" viewBox="0 0 58 58" fill="none" xmlns="http://www.w3.org/2000/svg">
<mask id="mask0_651_2256" style="mask-type:luminance" maskUnits="userSpaceOnUse" x="11" y="14" width="36" height="28">
<path d="M47 14H11V41.8838H47V14Z" fill="white"/>
</mask>
<g mask="url(#mask0_651_2256)">
<path d="M46.604 19.7762C46.3196 19.4288 45.893 19.229 45.4448 19.229H19.7876L18.5528 15.0764C18.362 14.4392 17.777 14 17.111 14H12.5192C11.6894 14 11.0162 14.675 11.0162 15.5066C11.0162 16.3382 11.6894 17.0114 12.5192 17.0114H15.9896L21.6092 35.9078C20.999 37.0256 20.4212 38.6258 21.0764 39.9668C21.656 41.153 22.9682 41.756 24.9734 41.756C25.0094 41.756 25.0454 41.756 25.0814 41.7506C25.211 41.738 38.1674 40.55 42.635 40.802C43.2848 40.8362 43.85 40.3376 43.8878 39.6824C43.9238 39.0272 43.4234 38.4656 42.7682 38.4296C38.234 38.174 25.9868 39.281 24.9194 39.3782C23.8214 39.371 23.312 39.128 23.2112 38.921C23.0978 38.6906 23.1788 38.255 23.3696 37.7618C23.402 37.76 23.4326 37.7582 23.4668 37.7546L43.094 35.3786C43.742 35.2994 44.2676 34.8098 44.39 34.169L46.9226 21.0182C47.0072 20.5772 46.892 20.1218 46.6058 19.7744L46.604 19.7762ZM35.7086 27.077H29.5346V22.2386H35.7086V27.077ZM22.5452 28.5026H28.1108V34.16L24.3614 34.6154L22.5452 28.5026ZM29.5346 28.5026H35.7086V33.2402L29.5346 33.9872V28.5026ZM42.6908 27.077H37.1324V22.2386H43.6214L42.689 27.077H42.6908ZM28.1108 22.2386V27.077H22.1204L20.6822 22.2386H28.1126H28.1108ZM37.1342 33.0674V28.5026H42.4172L41.6432 32.522L37.1342 33.0692V33.0674Z" fill="#0D2957"/>
</g>
<mask id="mask1_651_2256" style="mask-type:luminance" maskUnits="userSpaceOnUse" x="20" y="42" width="7" height="7">
<path d="M26.2406 42.8433H20V48.9201H26.2406V42.8433Z" fill="white"/>
</mask>
<g mask="url(#mask1_651_2256)">
<path d="M26.1326 45.9249C26.1326 46.1229 26.1146 46.3173 26.075 46.5117C26.0354 46.7061 25.9796 46.8933 25.904 47.0769C25.8284 47.2587 25.7366 47.4315 25.6268 47.5971C25.517 47.7627 25.3928 47.9139 25.2524 48.0543C25.1138 48.1947 24.9626 48.3189 24.797 48.4287C24.6314 48.5385 24.4586 48.6303 24.2768 48.7059C24.0932 48.7815 23.906 48.8391 23.7116 48.8769C23.519 48.9147 23.3228 48.9345 23.1248 48.9345C22.9268 48.9345 22.7324 48.9165 22.538 48.8769C22.3436 48.8391 22.1564 48.7815 21.9746 48.7059C21.791 48.6303 21.6182 48.5385 21.4544 48.4287C21.2906 48.3189 21.1394 48.1947 20.999 48.0543C20.8586 47.9139 20.7344 47.7627 20.6246 47.5971C20.5148 47.4333 20.423 47.2587 20.3474 47.0769C20.2718 46.8933 20.216 46.7061 20.1764 46.5117C20.1368 46.3173 20.1188 46.1229 20.1188 45.9249C20.1188 45.7269 20.1386 45.5325 20.1764 45.3381C20.2142 45.1455 20.2718 44.9565 20.3474 44.7729C20.423 44.5911 20.5148 44.4183 20.6246 44.2527C20.7344 44.0871 20.8586 43.9359 20.999 43.7973C21.1394 43.6587 21.2888 43.5327 21.4544 43.4229C21.62 43.3131 21.7928 43.2195 21.9746 43.1439C22.1564 43.0683 22.3436 43.0125 22.538 42.9729C22.7306 42.9351 22.9268 42.9153 23.1248 42.9153C23.3228 42.9153 23.5172 42.9351 23.7116 42.9729C23.906 43.0107 24.0932 43.0683 24.2768 43.1439C24.4586 43.2195 24.6314 43.3131 24.797 43.4229C24.9626 43.5327 25.1138 43.6569 25.2524 43.7973C25.3928 43.9377 25.517 44.0889 25.6268 44.2527C25.7366 44.4165 25.8302 44.5911 25.904 44.7729C25.9796 44.9565 26.0354 45.1437 26.075 45.3381C26.1128 45.5325 26.1326 45.7269 26.1326 45.9249Z" fill="#0D2957"/>
</g>
<mask id="mask2_651_2256" style="mask-type:luminance" maskUnits="userSpaceOnUse" x="37" y="42" width="7" height="7">
<path d="M43.2812 42.8433H37.0406V48.9201H43.2812V42.8433Z" fill="white"/>
</mask>
<g mask="url(#mask2_651_2256)">
<path d="M43.229 45.9249C43.229 46.1229 43.211 46.3173 43.1714 46.5117C43.1318 46.7061 43.076 46.8933 43.0004 47.0769C42.9248 47.2587 42.833 47.4315 42.7232 47.5971C42.6134 47.7627 42.4892 47.9139 42.3488 48.0543C42.2102 48.1947 42.059 48.3189 41.8934 48.4287C41.7278 48.5385 41.555 48.6303 41.3732 48.7059C41.1896 48.7815 41.0024 48.8391 40.808 48.8769C40.6154 48.9147 40.4192 48.9345 40.2212 48.9345C40.0232 48.9345 39.8288 48.9165 39.6344 48.8769C39.44 48.8391 39.2528 48.7815 39.071 48.7059C38.8874 48.6303 38.7146 48.5385 38.5508 48.4287C38.387 48.3189 38.2358 48.1947 38.0954 48.0543C37.955 47.9139 37.8308 47.7627 37.721 47.5971C37.6112 47.4333 37.5194 47.2587 37.4438 47.0769C37.3682 46.8933 37.3124 46.7061 37.2728 46.5117C37.2332 46.3173 37.2152 46.1229 37.2152 45.9249C37.2152 45.7269 37.235 45.5325 37.2728 45.3381C37.3106 45.1455 37.3682 44.9565 37.4438 44.7729C37.5194 44.5911 37.6112 44.4183 37.721 44.2527C37.8308 44.0871 37.955 43.9359 38.0954 43.7973C38.2358 43.6587 38.387 43.5327 38.5508 43.4229C38.7146 43.3131 38.8892 43.2195 39.071 43.1439C39.2528 43.0683 39.44 43.0125 39.6344 42.9729C39.827 42.9351 40.0232 42.9153 40.2212 42.9153C40.4192 42.9153 40.6136 42.9351 40.808 42.9729C41.0024 43.0107 41.1896 43.0683 41.3732 43.1439C41.555 43.2195 41.7278 43.3131 41.8934 43.4229C42.059 43.5327 42.2102 43.6569 42.3488 43.7973C42.4892 43.9377 42.6134 44.0889 42.7232 44.2527C42.833 44.4165 42.9266 44.5911 43.0004 44.7729C43.076 44.9565 43.1336 45.1437 43.1714 45.3381C43.2092 45.5325 43.229 45.7269 43.229 45.9249Z" fill="#0D2957"/>
</g>
</svg>
