<svg width="58" height="58" viewBox="0 0 58 58" fill="none" xmlns="http://www.w3.org/2000/svg">
<path d="M26.5889 29.647C26.5271 29.8013 26.4628 29.9507 26.401 30.1002C26.0253 31.0041 25.8004 31.9595 25.793 33.0128C25.7855 33.907 25.6125 34.7693 25.4618 35.6266C25.4049 35.95 25.222 36.2317 25.0564 36.5012C24.9625 36.653 24.8092 36.778 24.6486 36.8637C24.1196 37.143 23.8057 37.0034 23.5857 36.3493C23.3213 35.5629 23.1285 34.7644 22.8615 33.978C22.6712 33.4219 22.466 32.8536 22.167 32.3343C21.5589 31.2809 20.4541 31.0727 19.8188 31.8492C19.3393 32.4372 19.1268 33.1917 18.8895 33.9315C18.7313 34.4263 18.5632 34.9187 18.358 35.3866C18.1924 35.7687 18.0614 35.7736 17.6413 35.5409C17.2458 35.3229 17.0134 34.9726 16.8305 34.5855C16.4548 33.7894 16.3535 32.9834 16.2868 32.1799C16.2101 31.2295 16.2126 30.2839 16.0692 29.331C15.9778 28.721 15.7108 28.0963 15.4785 27.4864C15.1077 26.5163 14.8334 25.5683 15.1176 24.6521C15.6317 23.0059 17.6684 22.4793 19.2602 23.5792C19.4555 23.7139 19.6532 23.8413 19.851 23.9687C20.6469 24.4831 21.4378 24.6374 22.2263 24.4341C22.7503 24.2994 23.2743 24.1573 23.8774 24.2871C25.3135 24.5958 26.5518 25.8084 26.9151 27.2586C27.1376 28.1453 26.8855 28.917 26.5889 29.647Z" fill="#0D2957"/>
<path d="M29.2738 48H28.7262C28.4228 47.8598 28.1102 47.7402 27.8204 47.577C27.5444 47.4207 27.3002 47.2023 27.0264 47.0391C25.5799 46.1816 24.1357 45.3218 22.6778 44.4873C20.492 43.2345 18.1306 42.5747 15.6254 42.4276C14.8246 42.3816 14.0192 42.3816 13.2229 42.3057C12.5407 42.2413 11.9977 41.9609 12 40.9356C12.0205 34.3057 12.0091 27.6757 12.0091 21.0435C12.0091 19.4987 12.0091 17.9538 12.0091 16.409C12.0091 15.7791 12.219 15.2366 12.6776 14.8044C13.4693 14.0618 14.4322 13.9101 15.4566 14.0435C17.8157 14.3515 20.1772 14.6664 22.534 14.9998C25.0369 15.3538 27.0766 16.5193 28.5893 18.5791C28.7262 18.7676 28.854 18.963 29 19.1722C29.0502 19.101 29.0821 19.0596 29.1095 19.0136C30.6245 16.6895 32.7714 15.3791 35.4865 14.9952C37.5992 14.6963 39.7143 14.4159 41.8293 14.1308C42.4886 14.0412 43.1457 13.9354 43.8165 14.0618C44.9482 14.2756 46.0045 15.0573 46 16.6251C45.9772 24.7539 45.9886 32.885 45.9886 41.0138C45.9886 41.7655 45.7285 42.1425 44.9915 42.2597C44.355 42.3609 43.7047 42.3816 43.059 42.3954C40.9007 42.4436 38.8108 42.8413 36.8463 43.7425C35.7215 44.2574 34.6537 44.9034 33.5745 45.5149C32.5661 46.0873 31.5668 46.6782 30.5857 47.2943C30.1613 47.5609 29.778 47.8897 29.2761 48H29.2738ZM13.3895 40.9425C13.588 40.9586 13.75 40.9724 13.9142 40.9816C15.087 41.0574 16.2688 41.0689 17.4324 41.2252C19.5018 41.5034 21.4571 42.177 23.2755 43.2184C24.8361 44.1126 26.3808 45.0368 27.9345 45.9471C28.0349 46.0069 28.1467 46.0437 28.2996 46.1103C28.2996 45.7379 28.2996 45.4345 28.2996 45.131C28.2996 37.1126 28.2996 29.0941 28.2973 21.0757C28.2973 20.9515 28.2745 20.8159 28.222 20.7056C27.0515 18.2343 25.0985 16.8021 22.4314 16.3929C20.1521 16.0435 17.8591 15.7676 15.5729 15.455C15.1098 15.3929 14.6489 15.3446 14.1926 15.494C13.6108 15.6825 13.3918 15.9745 13.3918 16.5837C13.3918 24.593 13.3918 32.6022 13.3918 40.6114V40.9425H13.3895Z" fill="#0D2957"/>
</svg>
