<svg width="58" height="58" viewBox="0 0 58 58" fill="none" xmlns="http://www.w3.org/2000/svg">
<path d="M28.5051 46.2677C28.0612 46.4119 27.6734 45.9342 27.9038 45.5296L27.9712 45.4116C28.2485 44.9283 28.6569 44.3569 29.1214 43.7144L29.2619 43.5214C30.384 41.976 31.7796 40.0521 32.3903 38.1114C33.1321 35.7529 33.0535 33.5724 32.7968 32.7032C32.7387 32.5047 32.5589 32.3642 32.3528 32.3473C27.7446 31.9521 26.9316 31.8284 23.3967 29.4231C21.8512 28.4846 21.042 26.2236 20.392 24.4046C20.1746 23.7958 19.8993 23.0259 19.6651 22.5857C19.5359 22.3421 19.2324 22.2428 18.9889 22.3702C17.9436 22.9191 15.735 25.1577 15.01 26.5495C14.7421 27.0628 14.4855 27.5236 14.2588 27.9301C13.2004 29.8259 12.5616 30.9705 12.5897 34.2599C12.6235 38.1938 13.3559 39.3553 13.7943 40.0484C13.8373 40.1158 13.8786 40.1814 13.916 40.2432C14.0528 40.468 14.1914 40.7134 14.2738 41.0225L14.3993 41.4964C14.5754 42.1521 14.5979 42.2364 14.6897 42.8995C14.7665 43.4465 14.671 44.7091 13.7643 45.5821C12.985 46.3314 11.8498 46.5786 10.3868 46.3164L10.295 46.2995C9.89971 46.2283 9.7386 45.7506 10.0084 45.4547L10.072 45.3854C10.4036 45.0201 10.7165 44.5592 10.8476 44.267C10.9 44.149 10.9038 44.0141 10.8588 43.8924C10.7015 43.4802 10.4598 43.0868 10.2069 42.6728C9.91844 42.2027 9.62246 41.7156 9.42015 41.1574C8.95557 39.8667 8.60152 38.5198 8.36362 37.1542C7.90279 34.5072 7.88031 31.8266 8.29431 29.1852C9.50257 21.4935 16.0703 15.8849 24.264 15.544C28.6606 15.3623 33.1059 16.7429 36.4591 19.3355C39.934 22.0218 41.9384 25.6766 42.1014 29.6273V29.6648C42.2119 32.1825 41.7717 38.4711 35.3801 42.5661C35.3726 42.5717 35.3651 42.5754 35.3576 42.5811C32.4259 44.741 31.2907 45.3573 28.6325 46.2227L28.5033 46.2639L28.5051 46.2677ZM19.3804 21.1414C19.5452 21.1339 19.7007 21.1582 19.845 21.2163C20.5456 21.4992 20.924 22.5613 21.4504 24.0281C22.0423 25.6841 22.7804 27.7447 23.9905 28.4696L24.0167 28.4865C27.413 30.7981 27.9225 30.8412 32.8099 31.2589C33.0291 31.2777 33.3307 31.3788 33.5817 31.7535C34.3273 32.8644 34.273 35.8672 33.4618 38.4486C32.7968 40.5635 31.3413 42.5698 30.1705 44.1808L30.03 44.3738C29.9757 44.4468 29.9232 44.5199 29.8726 44.5911C31.4162 43.9767 32.5271 43.2723 34.7151 41.6594L34.7469 41.6388C40.6721 37.8604 41.0786 32.042 40.9793 29.7154V29.6779C40.6702 22.2653 33.0366 16.3083 24.309 16.6698C16.6566 16.9883 10.5273 22.2073 9.40329 29.3613C9.00803 31.8809 9.0305 34.4379 9.46885 36.9631C9.69552 38.265 10.0346 39.5501 10.4767 40.779C10.6378 41.2285 10.8944 41.6463 11.1642 42.0884C11.4733 42.5942 11.7936 43.1168 11.9865 43.72C12.054 43.9298 12.0427 44.1602 11.9828 44.3944C11.8685 44.844 12.35 45.2205 12.7396 44.9695C12.8276 44.9133 12.9101 44.8477 12.9831 44.7765C13.5919 44.1902 13.6051 43.2723 13.5751 43.0587C13.4927 42.463 13.4814 42.4256 13.311 41.7905L13.1836 41.3128C13.1442 41.1611 13.0712 41.0244 12.9513 40.8277C12.9176 40.7715 12.8801 40.7115 12.8408 40.6497C12.3387 39.8536 11.4995 38.5235 11.462 34.2712C11.4321 30.6839 12.1645 29.3707 13.2735 27.385C13.5076 26.9654 13.7493 26.5327 14.0078 26.0344C14.5923 24.9104 17.5633 21.2163 19.3766 21.1414H19.3804Z" fill="#0D2957"/>
<path d="M15.4298 30.7212C14.9952 30.74 14.6093 30.9441 14.347 31.2532L13.9462 31.3619L13.1069 31.5904L13.6577 31.9108L14.0511 33.8833C14.0848 34.7132 14.7929 35.3632 15.6227 35.3295C16.4526 35.2958 17.1026 34.5877 17.0689 33.7578L17.0034 32.1674C16.9696 31.3375 16.2615 30.6875 15.4317 30.7212H15.4298Z" fill="#0D2957"/>
<path d="M26.4952 30.4329C26.0606 30.4516 25.6747 30.6558 25.4125 30.9649L25.0116 31.0736L24.1724 31.3021L24.7231 31.6224L25.1165 33.595C25.1502 34.4249 25.8583 35.0749 26.6882 35.0412C27.518 35.0074 28.1681 34.2993 28.1344 33.4695L28.0688 31.8791C28.0351 31.0492 27.327 30.3992 26.4971 30.4329H26.4952Z" fill="#0D2957"/>
<path d="M20.6514 35.4467C21.0815 35.4288 21.4211 35.1998 21.4101 34.9352C21.3991 34.6706 21.0416 34.4705 20.6116 34.4884C20.1816 34.5063 19.8419 34.7353 19.8529 34.9999C19.8639 35.2645 20.2214 35.4646 20.6514 35.4467Z" fill="#0D2957"/>
<path d="M21.8663 38.1433C22.5819 38.1433 23.3013 38.192 24.0075 38.2894C24.0169 38.3287 24.0262 38.368 24.0356 38.4093C24.1386 38.8645 24.1386 39.1942 24.0337 39.3871C23.9157 39.6044 23.5654 39.818 23.4511 39.8892C22.7561 40.3144 21.9506 40.5392 21.1189 40.5392C20.3977 40.5392 19.6877 40.365 19.0658 40.0371C18.9534 39.9791 18.6143 39.7992 18.4907 39.6082C18.367 39.4171 18.3483 39.0518 18.4364 38.5217C19.5585 38.2706 20.7105 38.1433 21.8663 38.1433ZM21.8663 37.0193C20.5831 37.0193 19.2999 37.1654 18.0505 37.4558C17.8894 37.4932 17.7226 37.5363 17.599 37.6468C17.436 37.7911 17.3836 38.0196 17.3442 38.2313C17.2225 38.9038 17.1756 39.6475 17.5466 40.2189C17.7826 40.5804 18.1572 40.8277 18.5394 41.03C19.3393 41.4533 20.2291 41.6631 21.117 41.6631C22.1342 41.6631 23.1495 41.3897 24.0356 40.8483C24.4234 40.6104 24.8036 40.3238 25.0191 39.9229C25.3057 39.3927 25.2645 38.7558 25.1296 38.1601C25.1109 38.0814 25.0921 38.0028 25.0715 37.926C25.0134 37.7068 24.9348 37.4726 24.7512 37.3415C24.6201 37.246 24.4515 37.2179 24.2922 37.1954C23.4886 37.0774 22.6775 37.0193 21.8645 37.0193H21.8663Z" fill="#0D2957"/>
<path d="M46.6741 18.2643C43.083 13.5249 37.4332 12.9048 37.1934 12.8805L36.77 12.8374L36.6145 13.2345C36.2024 14.2854 35.2845 16.6402 34.4902 18.6802L35.4981 19.1878C36.2099 17.3632 37.0285 15.2614 37.4969 14.0625C38.825 14.2986 43.0343 15.3139 45.7861 18.9537C48.1914 22.1364 48.9295 26.5142 47.976 31.9767C47.3447 35.8188 45.2166 40.5207 43.9466 43.3307C43.3996 44.5408 43.1092 45.189 43.0212 45.5299C42.772 46.4928 42.5266 48.1768 42.7477 49.2765C41.7698 49.3664 38.6564 48.8231 37.2515 47.2458C35.691 45.4962 34.76 44.2617 34.3685 42.9017L34.2111 42.9485L33.2876 43.1995C33.7896 44.9379 34.9698 46.3747 36.4141 47.9951C37.8921 49.653 40.9549 50.4679 42.6315 50.3985C43.0361 50.3817 43.3621 50.3124 43.5625 50.1925C43.9035 49.9883 44.0384 49.6249 43.9072 49.2671C43.6656 48.6058 43.8154 46.9461 44.1095 45.8109C44.177 45.5486 44.5441 44.7356 44.9712 43.7952C46.2657 40.9347 48.4312 36.1504 49.085 32.1659C50.0947 26.3831 49.2835 21.7074 46.6759 18.2662L46.6741 18.2643Z" fill="#0D2957"/>
<path d="M17.1778 28.9024C17.0129 28.9024 16.8518 28.8312 16.7394 28.6926C16.198 28.0238 15.43 27.6042 14.5758 27.5124C13.7234 27.4206 12.8823 27.6679 12.2136 28.2092C11.9719 28.4041 11.6179 28.3666 11.423 28.1249C11.2282 27.8833 11.2657 27.5292 11.5073 27.3344C12.4103 26.6057 13.5417 26.2704 14.6957 26.394C15.8477 26.5177 16.8855 27.0815 17.6142 27.9863C17.8091 28.228 17.7716 28.582 17.5299 28.7769C17.4269 28.8611 17.3014 28.9024 17.1778 28.9024Z" fill="#0D2957"/>
<path d="M37.9898 9.98978C36.39 8.88267 34.1421 9.15617 32.9938 10.5967L32.8046 10.8328L32.7203 10.5424C32.2033 8.77402 30.227 7.67066 28.3275 8.0884C26.4279 8.50614 25.2946 10.2951 25.8116 12.0635L26.9881 16.0929C29.8673 16.7205 34.1477 17.8145 35.3204 18.9778C35.3953 18.901 35.4647 18.8223 35.5321 18.738L38.8122 14.6205C39.9605 13.18 39.5896 11.095 37.9898 9.98791V9.98978Z" fill="#0D2957"/>
<path d="M29.7172 43.8324L29.3838 43.5776C28.3197 43.8343 26.8361 44.0759 25.6934 44.1228C20.4557 44.3401 15.7332 42.1764 12.839 38.7146L12.5317 40.0671C15.6714 43.4165 20.4651 45.464 25.7384 45.2467C26.8867 45.1999 28.0013 45.0444 29.0747 44.7971L29.7135 43.8343L29.7172 43.8324Z" fill="#0D2957"/>
</svg>
