<svg width="58" height="58" viewBox="0 0 58 58" fill="none" xmlns="http://www.w3.org/2000/svg">
<path d="M29.194 49C26.5748 49 23.9555 48.4626 21.6251 47.4482C16.1581 45.0666 12.4915 40.2576 12.0565 34.8985C11.4515 27.452 15.82 20.563 19.5926 16.0922C19.8302 15.8108 20.0769 15.5293 20.3218 15.2588C22.6523 12.6944 27.326 8.47761 32.4804 9.05337C34.968 9.33302 35.6882 10.8446 36.0757 11.658C36.5144 12.5774 36.6185 13.0142 37.0079 14.6373C37.0517 14.8183 37.0956 15.012 37.1431 15.2149C37.5215 16.8416 38.0387 19.0697 38.9929 20.373C39.5759 21.1699 40.3601 21.9394 41.1168 22.6833C41.8095 23.3651 42.4657 24.0084 42.9555 24.6537C45.1946 27.3022 46.3772 30.4551 46.3772 33.7744C46.3772 42.1677 38.6693 48.9982 29.194 48.9982V49ZM31.5098 10.097C27.1688 10.097 23.1897 13.7325 21.1352 15.9972C20.8976 16.2586 20.6618 16.5291 20.4315 16.8014C13.8386 24.6116 12.8315 30.9047 13.1495 34.8089C13.5517 39.7659 16.9678 44.2221 22.0619 46.4411C24.2571 47.397 26.7228 47.9033 29.194 47.9033C38.0643 47.9033 45.2805 41.5663 45.2805 33.7762C45.2805 30.7147 44.1838 27.803 42.1074 25.3537L42.0873 25.33C41.645 24.7451 41.0144 24.1254 40.3473 23.4674C39.5576 22.6924 38.7424 21.89 38.1064 21.0218C37.0188 19.5376 36.4723 17.1834 36.0739 15.4635C36.0263 15.2624 35.9825 15.0705 35.9404 14.8932C35.5474 13.2537 35.4615 12.921 35.085 12.1314C34.7286 11.382 34.2387 10.3566 32.3579 10.1446C32.0746 10.1135 31.7913 10.097 31.5098 10.097Z" fill="#0D2957"/>
<path d="M23.7548 32.2045L25.9664 31.2083C25.5113 29.9654 24.5663 29.1082 23.4697 29.1082C21.9306 29.1082 20.6841 30.7916 20.6841 32.8679C20.6841 34.9443 21.9325 36.6277 23.4697 36.6277C25.0068 36.6277 26.2552 34.9443 26.2552 32.8679C26.2552 32.8497 26.2552 32.8332 26.2534 32.8149L23.7548 32.2045Z" fill="#0D2957"/>
<path d="M35.1928 32.2045L37.4044 31.2083C36.9493 29.9654 36.0043 29.1082 34.9076 29.1082C33.3686 29.1082 32.1221 30.7916 32.1221 32.8679C32.1221 34.9443 33.3705 36.6277 34.9076 36.6277C36.4448 36.6277 37.6932 34.9443 37.6932 32.8679C37.6932 32.8497 37.6932 32.8332 37.6914 32.8149L35.1928 32.2045Z" fill="#0D2957"/>
<path d="M29.4829 37.5012C30.3601 37.5012 31.0713 37.1052 31.0713 36.6166C31.0713 36.128 30.3601 35.7319 29.4829 35.7319C28.6057 35.7319 27.8945 36.128 27.8945 36.6166C27.8945 37.1052 28.6057 37.5012 29.4829 37.5012Z" fill="#0D2957"/>
<path d="M31.8095 42.3979C30.5812 43.8291 28.5706 43.8291 27.3423 42.3979L27.0097 42.0104L25.7302 40.5226C25.1581 39.8555 25.8728 39.022 27.0188 39.022H29.5759H32.133C33.279 39.022 33.9937 39.8555 33.4216 40.5226L32.1421 42.0104L31.8095 42.3979Z" fill="#0D2957"/>
<path d="M25.9091 27.307L23.1529 25.896C22.8384 25.735 22.453 25.8594 22.292 26.1739C22.131 26.4884 22.2554 26.8739 22.5699 27.0349L25.326 28.4459C25.6405 28.6069 26.026 28.4825 26.187 28.168C26.348 27.8535 26.2236 27.468 25.9091 27.307Z" fill="#0D2957"/>
<path d="M35.2255 25.8964L32.4693 27.3074C32.1549 27.4684 32.0304 27.8538 32.1914 28.1683C32.3524 28.4828 32.7379 28.6072 33.0524 28.4462L35.8085 27.0353C36.123 26.8743 36.2474 26.4888 36.0864 26.1743C35.9254 25.8598 35.54 25.7354 35.2255 25.8964Z" fill="#0D2957"/>
</svg>
