<svg width="58" height="58" viewBox="0 0 58 58" fill="none" xmlns="http://www.w3.org/2000/svg">
<mask id="mask0_651_2224" style="mask-type:luminance" maskUnits="userSpaceOnUse" x="29" y="13" width="21" height="23">
<path d="M49.8491 13H29.102V35.138H49.8491V13Z" fill="white"/>
</mask>
<g mask="url(#mask0_651_2224)">
<path d="M36.8281 28.7479L35.2511 30.1101L37.296 30.4979C38.0563 30.6425 38.6035 31.3068 38.6035 32.0802V34.9619C38.6035 34.9976 38.5889 35.029 38.5868 35.0646H39.9277L40.4186 32.4805C40.8489 32.3988 41.2687 32.2835 41.6739 32.1389L43.3887 34.1362L45.2853 33.038L44.4185 30.5524C44.7485 30.2694 45.0555 29.9613 45.3396 29.6302L47.821 30.5L48.9155 28.5991L46.9228 26.8805C47.0649 26.4739 47.1818 26.0547 47.2633 25.623L49.8429 25.1326V22.9383L47.2633 22.4479C47.1818 22.0161 47.067 21.597 46.9228 21.1904L48.9155 19.4718L47.821 17.5709L45.3396 18.4386C45.0576 18.1095 44.7485 17.8015 44.4185 17.5164L45.2853 15.0308L43.3887 13.9326L41.6739 15.9278C41.2666 15.7853 40.8489 15.67 40.4186 15.5883L39.9257 13.0042H37.7367L37.2479 15.5883C36.8156 15.67 36.3978 15.7853 35.9905 15.9278L34.2757 13.9326L32.3791 15.0308L33.246 17.5164C32.9159 17.7994 32.6089 18.1074 32.3269 18.4386L29.8455 17.5709L29.1437 18.7886C29.2064 18.8158 29.2691 18.8305 29.3296 18.864L31.8215 20.3059C32.4899 20.6916 32.7906 21.5006 32.5358 22.232L31.8486 24.2021L33.8141 23.5125C33.8935 23.4853 33.9749 23.4874 34.0543 23.4727C34.3363 21.0646 36.3561 19.1889 38.8354 19.1889C41.5068 19.1889 43.6728 21.358 43.6728 24.0365C43.6728 26.7128 41.5068 28.8841 38.8354 28.8841C38.192 28.8841 37.5779 28.7521 37.0182 28.5236C36.9555 28.5991 36.9075 28.685 36.8323 28.75" fill="#0D2957"/>
</g>
<mask id="mask1_651_2224" style="mask-type:luminance" maskUnits="userSpaceOnUse" x="8" y="18" width="30" height="31">
<path d="M37.102 18.9292H8V48.0002H37.102V18.9292Z" fill="white"/>
</mask>
<g mask="url(#mask1_651_2224)">
<path d="M16.1125 33.5223C16.1125 30.0076 18.9552 27.1594 22.4643 27.1594C25.9712 27.1594 28.816 30.0076 28.816 33.5223C28.816 37.037 25.9712 39.8852 22.4643 39.8852C18.9552 39.8852 16.1125 37.037 16.1125 33.5223ZM8.0083 34.9642L11.3962 35.6076C11.5027 36.1756 11.6531 36.7247 11.8432 37.2591L9.22811 39.5163L10.6672 42.0124L13.9235 40.8723C14.2953 41.3062 14.6984 41.7085 15.1308 42.0816L13.9925 45.3448L16.4843 46.7867L18.738 44.1669C19.2706 44.3556 19.82 44.5065 20.386 44.6133L21.0293 48.0064H23.9055L24.5488 44.6133C25.1148 44.5065 25.6642 44.3556 26.1989 44.1669L28.4505 46.7867L30.9423 45.3448L29.804 42.0816C30.2363 41.7085 30.6416 41.3062 31.0113 40.8723L34.2676 42.0124L35.7067 39.5163L33.0916 37.2591C33.2775 36.7247 33.43 36.1756 33.5365 35.6076L36.9244 34.9642V32.0825L33.5365 31.4391C33.43 30.8711 33.2775 30.322 33.0916 29.7876L35.7067 27.5283L34.2676 25.0322L34.0503 25.1076L31.0113 26.1723C30.6395 25.7385 30.2363 25.3361 29.804 24.963L30.9423 21.6999L30.5873 21.4945L28.4526 20.26L26.201 22.8798C25.6663 22.6912 25.119 22.5382 24.5509 22.4334L23.9076 19.0403H21.0314L20.3881 22.4334C19.822 22.5403 19.2727 22.6912 18.7401 22.8798L16.4864 20.26L13.9945 21.702L15.1329 24.9651C14.7005 25.3382 14.2974 25.7406 13.9256 26.1744L10.6693 25.0343L9.2302 27.5304L11.8453 29.7897C11.6573 30.3241 11.5048 30.8732 11.3983 31.4412L8.0083 32.0825V34.9642Z" fill="#0D2957"/>
</g>
</svg>
