<?xml version="1.0" encoding="UTF-8"?>
<svg id="_圖層_2" data-name="圖層 2" xmlns="http://www.w3.org/2000/svg" viewBox="0 0 512 453.36">
  <g id="world-map">
    <path d="m512,20.35v9c-2.19,7.02-6.3,12.56-11.88,17.44-57.55,50.35-114.99,100.83-172.46,151.28-10.23,8.98-20.45,17.99-30.94,27.22,1.77,1.63,3.18,2.99,4.65,4.28,65.6,57.6,131.17,115.23,196.85,172.73,6.14,5.38,11.51,11.03,13.77,19.07v9c-3.44,9.67-9.84,16.54-19.33,20.54-1.62.68-3.12,1.63-4.67,2.46h-11c-2.8-1.74-5.9-3.12-8.34-5.26-69.29-60.95-138.51-121.97-207.74-182.98-1.58-1.4-3.23-2.72-4.87-4.11-1.5,1.26-2.66,2.2-3.78,3.18-68.63,60.44-137.23,120.91-205.92,181.28-3.44,3.02-7.55,5.28-11.35,7.89h-12c-11.53-4.3-19.33-12.17-23-24v-8c2.21-6.37,5.57-11.81,10.79-16.38,61.94-54.21,123.77-108.56,185.63-162.87,6.23-5.47,12.44-10.95,18.92-16.65-1.65-1.54-2.92-2.8-4.27-3.98C145.58,163.97,80.12,106.43,14.55,49.03c-6.37-5.58-12.13-11.32-14.55-19.68,0-2.67,0-5.33,0-8,.29-.6.65-1.17.85-1.79C7.7-.86,27.77-6.21,43.84,7.96c69.47,61.26,138.98,122.46,208.49,183.68,1.21,1.07,2.51,2.04,3.81,3.1,1.81-1.56,3.34-2.85,4.83-4.16,69.37-61.11,138.74-122.23,208.12-183.34,14.75-12.99,34.8-7.9,41.64,10.53.33.89.83,1.72,1.26,2.58Z"/>
  </g>
</svg>