<svg width="35" height="35" viewBox="0 0 35 35" fill="none" xmlns="http://www.w3.org/2000/svg">
<g clip-path="url(#clip0_320_465)">
<path d="M17.5111 13.7124C15.4168 13.703 13.7264 15.3858 13.7207 17.4839C13.716 19.5792 15.4007 21.2677 17.4979 21.2687C19.5941 21.2696 21.2807 19.5811 21.2769 17.4858C21.2731 15.3962 19.6017 13.721 17.5111 13.7124Z" fill="white"/>
<path d="M26.7167 17.4907C26.7167 15.8617 26.7158 14.2338 26.7167 12.6048C26.7167 12.1054 26.6628 11.6173 26.5048 11.1405C25.9637 9.50782 24.3887 8.25728 22.4287 8.26863C19.1425 8.2885 15.8554 8.26579 12.5691 8.28377C12.0952 8.2866 11.6043 8.3566 11.1521 8.4966C9.52415 9.00079 8.26509 10.5881 8.27644 12.5613C8.29631 15.8475 8.27361 19.1347 8.29158 22.4209C8.29442 22.8948 8.36442 23.3858 8.50442 23.838C9.0105 25.4716 10.6035 26.7259 12.5691 26.7136C15.8554 26.6938 19.1425 26.7061 22.4287 26.7098C23.1259 26.7098 23.7947 26.5897 24.4114 26.2577C25.8275 25.4971 26.6477 24.3194 26.6959 22.7047C26.7479 20.968 26.7073 19.2284 26.7073 17.4907H26.7158H26.7167ZM17.5127 23.2742C14.321 23.2808 11.715 20.6785 11.7168 17.4878C11.7187 14.3047 14.3154 11.709 17.4985 11.7081C20.6806 11.7071 23.2801 14.3019 23.2839 17.484C23.2877 20.6662 20.6958 23.2675 17.5136 23.2742H17.5127ZM23.5232 12.9388C22.7182 12.9388 22.0589 12.2813 22.0598 11.4811C22.0608 10.6865 22.7314 10.0158 23.5241 10.0177C24.3197 10.0186 24.9875 10.6884 24.9885 11.483C24.9885 12.2823 24.3273 12.9397 23.5232 12.9397V12.9388Z" fill="white"/>
<path d="M17.5 0C7.83527 0 0 7.83527 0 17.5C0 27.1647 7.83527 35 17.5 35C27.1647 35 35 27.1647 35 17.5C35 7.83527 27.1647 0 17.5 0ZM28.0492 25.3031C26.9226 27.405 25.1622 28.6291 22.7765 28.6839C19.2595 28.7653 15.7386 28.7104 12.2197 28.7C11.4393 28.6981 10.6864 28.5089 9.97878 28.1807C8.1323 27.3246 6.94514 25.9123 6.45041 23.9315C6.3823 23.6572 6.33689 23.3772 6.28108 23.1V11.882C6.29622 11.8196 6.31892 11.7572 6.32649 11.6938C6.40595 11.0846 6.55919 10.4934 6.82122 9.93811C7.68486 8.10959 9.09149 6.93189 11.0609 6.44095C11.3343 6.37284 11.6134 6.32838 11.8905 6.27257H23.1085C23.1709 6.2877 23.2324 6.31041 23.2958 6.31797C24.0847 6.42014 24.8386 6.64527 25.5216 7.05014C27.6197 8.29216 28.7047 10.1368 28.7132 12.582C28.7255 15.8531 28.7114 19.1242 28.7189 22.3943C28.7208 23.4197 28.5316 24.3997 28.0482 25.3031H28.0492Z" fill="white"/>
</g>
<defs>
<clipPath id="clip0_320_465">
<rect width="35" height="35" fill="white"/>
</clipPath>
</defs>
</svg>
