<svg width="32" height="32" viewBox="0 0 32 32" fill="none" xmlns="http://www.w3.org/2000/svg">
<g clip-path="url(#clip0_757_961)">
<path d="M15.9794 0C7.17419 0 0 7.17419 0 16C0 24.8258 7.17419 32 15.9794 32C24.7845 32 32 24.8258 32 16C32 7.17419 24.8155 0 15.9794 0ZM20.4387 3.02452C23.5561 4.09806 26.1987 6.26581 27.871 9.13548L28.3252 9.90968H22.1523L22.049 9.51742C21.5226 7.46323 20.769 5.52258 19.8194 3.75742L19.1897 2.59097L20.4387 3.01419V3.02452ZM20.6348 16C20.6348 17.2387 20.5006 18.3948 20.3665 19.3755L20.3045 19.8194H11.6748L11.6129 19.3755C11.4787 18.4052 11.3445 17.2387 11.3445 16C11.3445 15.009 11.4271 13.9665 11.6129 12.6245L11.6748 12.1806H20.3045L20.3665 12.6245C20.5523 13.9665 20.6348 15.009 20.6348 16ZM16 1.95097L16.4232 2.56C17.8477 4.62452 18.9316 6.87484 19.6439 9.24903L19.84 9.90968H12.1394L12.3355 9.24903C13.0477 6.87484 14.1316 4.62452 15.5561 2.56L15.9794 1.95097H16ZM4.12903 9.13548C5.79097 6.26581 8.42323 4.09806 11.5613 3.02452L12.8103 2.60129L12.1806 3.76774C11.2206 5.5329 10.4774 7.47355 9.95097 9.52774L9.84774 9.92H3.67484L4.11871 9.14581L4.12903 9.13548ZM2.81806 19.8194L2.72516 19.4271C2.42581 18.2503 2.28129 17.0942 2.28129 16C2.28129 14.9058 2.42581 13.7497 2.72516 12.5729L2.81806 12.1806H9.38323L9.31097 12.7587C9.20774 13.6361 9.08387 14.7923 9.08387 16C9.08387 17.2077 9.20774 18.3639 9.31097 19.2413L9.38323 19.8194H2.81806ZM11.5613 28.9755C8.42323 27.9019 5.79097 25.7342 4.12903 22.8645L3.68516 22.0903H9.84774L9.95097 22.4826C10.4774 24.5368 11.231 26.4774 12.1806 28.2426L12.8103 29.409L11.5613 28.9858V28.9755ZM16.0103 30.0594L15.5871 29.4503C14.1626 27.3858 13.0787 25.1355 12.3665 22.7613L12.1703 22.1006H19.871L19.6748 22.7613C18.9626 25.1355 17.8787 27.3858 16.4542 29.4503L16.031 30.0594H16.0103ZM27.8813 22.8748C26.209 25.7445 23.5768 27.9123 20.449 28.9858L19.2 29.409L19.8297 28.2426C20.7897 26.4774 21.5329 24.5368 22.0594 22.4826L22.1626 22.0903H28.3355L27.8813 22.8645V22.8748ZM29.1923 19.8297H22.6271L22.6994 19.2516C22.8026 18.3742 22.9264 17.2181 22.9264 16.0103C22.9264 14.8026 22.8026 13.6465 22.6994 12.769L22.6271 12.191H29.1923L29.2852 12.5832C29.5845 13.76 29.729 14.9161 29.729 16.0103C29.729 17.1045 29.5845 18.2606 29.2852 19.4374L29.1923 19.8297Z" fill="#00A3E1"/>
</g>
<defs>
<clipPath id="clip0_757_961">
<rect width="32" height="32" fill="white"/>
</clipPath>
</defs>
</svg>
