<svg width="32" height="32" viewBox="0 0 32 32" fill="none" xmlns="http://www.w3.org/2000/svg">
<path fill-rule="evenodd" clip-rule="evenodd" d="M15.89 31.78C24.6658 31.78 31.78 24.6658 31.78 15.89C31.78 7.1142 24.6658 0 15.89 0C7.1142 0 0 7.1142 0 15.89C0 24.6658 7.1142 31.78 15.89 31.78ZM5 14.6642V15.6968L5.00136 15.6954C5.02397 15.8316 5.04448 15.9681 5.06498 16.1047C5.10599 16.3779 5.147 16.6511 5.20489 16.9207C5.55362 18.5463 6.33249 19.9466 7.47908 21.1407C9.04224 22.7663 10.9555 23.7555 13.1537 24.2155C13.2306 24.2314 13.3076 24.2472 13.3845 24.263C13.7078 24.3294 14.0307 24.3958 14.3518 24.4692C14.7033 24.5493 14.7386 24.6171 14.6599 24.9604C14.6528 24.9907 14.6458 25.0209 14.6387 25.0511C14.5365 25.4886 14.4347 25.9243 14.4943 26.3825C14.6083 27.2644 15.2216 27.6702 16.0561 27.3608C16.5093 27.1925 16.9544 26.9795 17.3669 26.7271C19.462 25.4475 21.4607 24.0296 23.3183 22.4216C24.374 21.5084 25.3265 20.4935 25.9928 19.2478C26.7486 17.8339 27.1082 16.3264 27.0105 14.7171C26.8585 12.219 25.6698 10.2678 23.8014 8.69374C22.0957 7.25677 20.1011 6.4562 17.9042 6.14139C15.7427 5.83202 13.6259 6.02334 11.5756 6.78457C9.13994 7.68963 7.1982 9.20123 5.94577 11.5188C5.45321 12.4293 5.15333 13.4036 5.04342 14.4348C5.03788 14.4866 5.02667 14.5383 5.01537 14.5905C5.01008 14.6149 5.00476 14.6395 5 14.6642ZM17.4883 15.4323C17.496 15.4308 17.5035 15.4293 17.5107 15.4281H17.5121V14.4905C17.5128 14.3582 17.5129 14.2259 17.5129 14.0935C17.5129 13.7532 17.513 13.4125 17.5257 13.0725C17.5352 12.8215 17.7143 12.6532 17.9585 12.6111C18.1661 12.5745 18.4022 12.6926 18.4864 12.8947C18.5284 12.9965 18.5501 13.1159 18.5501 13.2272C18.5542 14.4891 18.5542 15.7497 18.5515 17.0116C18.5515 17.3305 18.4266 17.5205 18.181 17.5992C17.9341 17.6792 17.7441 17.5992 17.5447 17.3264C17.2228 16.8851 16.9015 16.4429 16.5801 16.0006C16.354 15.6894 16.1278 15.3782 15.9014 15.0672C15.8773 15.0341 15.8517 15.0021 15.8198 14.9622C15.798 14.9349 15.7733 14.9038 15.744 14.8663C15.7418 14.9035 15.7397 14.9357 15.7377 14.9645C15.7336 15.0254 15.7305 15.0714 15.7305 15.1174C15.7305 15.3015 15.7309 15.4857 15.7313 15.6699C15.7325 16.1308 15.7336 16.5919 15.7277 17.0523C15.7223 17.4716 15.4143 17.7118 15.0506 17.5951C14.8349 17.5259 14.6938 17.34 14.6938 17.0645C14.6884 15.7958 14.6884 14.5271 14.6938 13.2584C14.6951 12.9952 14.8539 12.797 15.0683 12.736C15.299 12.6709 15.5052 12.7523 15.6789 12.9897C16.1208 13.5947 16.561 14.2013 17.0015 14.8082C17.1292 14.9841 17.2568 15.1599 17.3845 15.3358C17.3968 15.3528 17.4093 15.3698 17.4219 15.3867C17.4344 15.4037 17.447 15.4206 17.4592 15.4376C17.4689 15.4361 17.4787 15.4342 17.4883 15.4323ZM20.5407 13.5528H20.2951L20.2938 13.5542V14.5108C20.4439 14.5108 20.5927 14.5105 20.7406 14.5102C21.0337 14.5096 21.3232 14.509 21.6127 14.5108C21.7334 14.5122 21.8569 14.5149 21.9763 14.5339C22.2274 14.576 22.397 14.7809 22.397 15.0292C22.3983 15.2775 22.2369 15.4946 21.9818 15.5258C21.7738 15.5506 21.5633 15.5523 21.3529 15.5539C21.2983 15.5544 21.2438 15.5548 21.1893 15.5556C20.9949 15.5583 20.8005 15.5575 20.6021 15.5566C20.5014 15.5561 20.3997 15.5556 20.2965 15.5556V16.5096H20.5326C20.7262 16.5096 20.9197 16.5091 21.1133 16.5087C21.5005 16.5077 21.8877 16.5068 22.2748 16.5096C22.6195 16.5123 22.8488 16.7185 22.8556 17.017C22.8624 17.3115 22.6304 17.5408 22.2938 17.5435C21.4621 17.5503 20.6303 17.5517 19.7985 17.5435C19.4565 17.5408 19.2476 17.3305 19.2476 16.9872C19.2422 15.6818 19.2422 14.3765 19.2476 13.0711C19.2476 12.7319 19.4565 12.5216 19.8026 12.5175C20.6058 12.508 21.4091 12.5094 22.2124 12.5175C22.5476 12.5202 22.7796 12.7523 22.7742 13.044C22.7688 13.3452 22.5462 13.5474 22.1975 13.5515C21.8109 13.5553 21.4244 13.5544 21.0378 13.5536C20.8721 13.5532 20.7064 13.5528 20.5407 13.5528ZM10.4792 16.3345V16.6018H10.4806C10.6352 16.6018 10.7865 16.6012 10.9357 16.6006C11.2278 16.5994 11.5116 16.5982 11.7954 16.6018C12.1211 16.6059 12.33 16.7728 12.3667 17.0415C12.4087 17.3481 12.2215 17.6182 11.9135 17.6263C11.2472 17.6439 10.581 17.6439 9.91474 17.6263C9.604 17.6182 9.44117 17.378 9.44117 16.9994C9.43846 15.7524 9.43846 14.5054 9.44117 13.2584C9.44117 13.1743 9.45203 13.0874 9.47238 13.0047C9.52937 12.7699 9.73698 12.6111 9.97308 12.6166C10.216 12.622 10.4263 12.8025 10.4643 13.0467C10.4792 13.1376 10.4792 13.2326 10.4792 13.3249V16.3345ZM13.8471 13.3113V15.135C13.8471 15.3432 13.8475 15.5512 13.848 15.7591C13.8489 16.1746 13.8498 16.5897 13.8471 17.0048C13.8444 17.3495 13.7087 17.5381 13.4386 17.6032C13.1659 17.6684 12.8972 17.5069 12.8348 17.2328C12.8145 17.1432 12.8036 17.0496 12.8036 16.9573L12.8036 16.9566C12.8009 15.7248 12.7982 14.4943 12.8063 13.2625C12.8077 13.1186 12.8443 12.9612 12.9094 12.835C13.0071 12.6478 13.193 12.5813 13.402 12.6125C13.6245 12.6464 13.7833 12.7998 13.8226 13.0128C13.8403 13.1105 13.8471 13.2123 13.8471 13.3113Z" fill="#0D2957"/>
</svg>
