<svg width="32" height="32" viewBox="0 0 32 32" fill="none" xmlns="http://www.w3.org/2000/svg">
<path d="M31.9999 14.8721V17.1216C31.9792 17.222 31.9515 17.3223 31.9377 17.4235C31.8659 17.9484 31.827 18.4795 31.7232 18.9984C30.937 22.9283 28.9824 26.162 25.8171 28.62C22.2642 31.378 18.2158 32.4314 13.7669 31.8416C10.6474 31.4282 7.86601 30.1784 5.51791 28.0777C1.24464 24.2559 -0.549081 19.4559 0.145401 13.7755C0.52767 10.6533 1.82496 7.89531 3.89803 5.52473C6.38277 2.68539 9.4833 0.908103 13.2083 0.24562C13.7592 0.147891 14.3161 0.0812969 14.8705 0C15.6203 0 16.371 0 17.1209 0C17.6242 0.0674591 18.131 0.117621 18.6309 0.204107C21.5645 0.71178 24.1799 1.91394 26.4294 3.86766C29.286 6.34894 31.0745 9.45119 31.7509 13.1805C31.852 13.7409 31.9178 14.3074 31.9999 14.8713V14.8721ZM25.3846 24.1685V23.7759C25.3846 21.7659 25.3889 19.7569 25.3812 17.7469C25.3794 17.2695 25.3673 16.7887 25.3111 16.3147C25.0828 14.4008 24.0475 12.4159 21.2956 12.2075C19.7959 12.0942 18.5263 12.5569 17.6182 13.8179C17.5628 13.8948 17.4997 13.9666 17.3795 14.1162V12.4998H13.5239V24.1599H17.3855C17.3855 24.012 17.3855 23.8874 17.3855 23.7629C17.3855 21.7322 17.3881 19.7015 17.3838 17.6717C17.3829 17.0481 17.5144 16.473 17.9356 15.9939C18.5029 15.3487 19.2156 15.1273 20.0476 15.3158C20.806 15.4879 21.1952 16.0276 21.3682 16.742C21.4409 17.0429 21.4902 17.3569 21.4919 17.6648C21.504 19.7058 21.5005 21.7469 21.5023 23.7871C21.5023 23.9091 21.5023 24.031 21.5023 24.1668H25.3855L25.3846 24.1685ZM11.3125 24.1694V12.4998H7.4699V24.1694H11.3125ZM7.23293 8.83974C7.23293 10.0168 8.12028 10.8505 9.37778 10.8583C10.6552 10.8661 11.5771 10.035 11.5901 8.86395C11.6022 7.67131 10.6777 6.80213 9.40546 6.81077C8.12633 6.82029 7.23207 7.65488 7.23293 8.83974Z" fill="#0D2957"/>
</svg>
