<svg width="86" height="86" viewBox="0 0 86 86" fill="none" xmlns="http://www.w3.org/2000/svg">
<mask id="mask0_564_11365" style="mask-type:luminance" maskUnits="userSpaceOnUse" x="11" y="15" width="54" height="62">
<path d="M11 15.3477H64.0319V76.598H11V15.3477Z" fill="white"/>
</mask>
<g mask="url(#mask0_564_11365)">
<path d="M35.608 27.4516C35.608 34.0615 30.262 39.4179 23.6678 39.4179C23.3423 39.4179 23.0202 39.4057 22.7016 39.3796C22.7713 39.7574 22.8496 40.1334 22.9332 40.5094C23.9446 45.0042 25.903 49.2308 28.6796 52.904C31.4579 56.5771 34.9865 59.6113 39.0321 61.8012C39.4256 62.0153 39.8242 62.219 40.2263 62.4157C41.2621 56.8643 46.1224 52.662 51.9611 52.662C58.5553 52.662 63.9013 58.0202 63.9013 64.63C63.9013 71.2399 58.5553 76.5963 51.9611 76.5963C51.7661 76.5963 51.5729 76.5928 51.3797 76.5824V76.5841C51.3466 76.5824 51.3118 76.5807 51.2787 76.5772C51.1186 76.5667 50.9584 76.5545 50.7982 76.5406C44.8499 76.0515 39.067 74.3315 33.8115 71.4853C28.3871 68.5468 23.6521 64.4786 19.9285 59.5521C16.2032 54.6256 13.5763 48.9575 12.2202 42.9274C10.9547 37.2889 10.8276 31.4572 11.8442 25.777C12.6572 19.9609 17.6411 15.4836 23.6678 15.4836C30.262 15.4836 35.608 20.8418 35.608 27.4516Z" fill="#00A3E1"/>
</g>
<mask id="mask1_564_11365" style="mask-type:luminance" maskUnits="userSpaceOnUse" x="41" y="10" width="35" height="42">
<path d="M41.7495 10H75.9999V51.4451H41.7495V10Z" fill="white"/>
</mask>
<g mask="url(#mask1_564_11365)">
<path d="M57.65 11.8279C53.0803 10.1671 48.1661 9.75108 43.4032 10.6058C42.4458 10.7764 41.8678 11.7408 42.0993 12.6896C42.3326 13.6366 43.2866 14.2093 44.2475 14.0474C48.3314 13.3528 52.5337 13.7288 56.4471 15.1511C60.9122 16.7752 64.7977 19.6893 67.6126 23.5261C70.4257 27.3628 72.0412 31.9498 72.2536 36.7075C72.4399 40.8732 71.5433 45.0076 69.6633 48.7068C69.2228 49.5772 69.4822 50.66 70.3161 51.1666C71.1499 51.6714 72.2397 51.4068 72.6888 50.5416C74.924 46.2401 75.9946 41.4146 75.777 36.549C75.5333 31.0934 73.681 25.8326 70.4536 21.4319C67.2279 17.0311 62.7714 13.6888 57.65 11.8279Z" fill="#00A3E1"/>
</g>
<path d="M53.6094 22.9708C51.2419 22.1091 48.709 21.8358 46.2283 22.1578C45.2639 22.2832 44.6877 23.2493 44.9192 24.1963C45.1508 25.1416 46.1047 25.7056 47.0726 25.6116C48.8726 25.4358 50.697 25.6638 52.4099 26.287C54.6782 27.1104 56.6505 28.5919 58.0797 30.5398C59.5072 32.4878 60.3289 34.817 60.4368 37.2315C60.5186 39.0576 60.1896 40.8698 59.4863 42.5392C59.1068 43.4374 59.3592 44.5185 60.1913 45.0216C61.0234 45.5264 62.1149 45.2636 62.5223 44.3792C63.5702 42.1005 64.0646 39.5972 63.9515 37.0748C63.8122 33.9622 62.7555 30.9611 60.9155 28.4508C59.0737 25.9406 56.5322 24.0327 53.6094 22.9708Z" fill="#00A3E1"/>
</svg>
