<svg width="86" height="86" viewBox="0 0 86 86" fill="none" xmlns="http://www.w3.org/2000/svg">
<path fill-rule="evenodd" clip-rule="evenodd" d="M36.4575 16.3846C16.351 18.7838 2.97727 31.7192 6.58892 45.2789C8.85548 53.7724 17.2481 60.4985 28.1484 63.7461C29.3138 64.0933 29.9649 65.3631 29.3589 66.4174C28.8751 67.259 28.2898 68.1265 27.5914 69.0197C26.2901 70.6837 27.7531 73.3814 29.7533 72.7022C35.3401 70.8049 39.965 68.5076 43.7404 66.158C44.0516 65.9644 44.4082 65.857 44.7746 65.846C46.3531 65.7985 47.9465 65.6812 49.5444 65.49C69.6538 63.0908 83.0247 50.1554 79.4101 36.5956C75.7985 23.0387 56.5669 13.9883 36.4575 16.3846ZM43.5517 35.3035C46.8708 35.3035 49.5616 38.0091 49.5616 41.3449C49.5616 44.6835 46.8708 47.3862 43.5517 47.3862C40.2356 47.3862 37.5448 44.6835 37.5448 41.3449C37.5448 38.0091 40.2356 35.3035 43.5517 35.3035ZM63.2079 35.3035C66.5241 35.3035 69.2149 38.0091 69.2149 41.3449C69.2149 44.6835 66.5241 47.3862 63.2079 47.3862C59.8888 47.3862 57.198 44.6835 57.198 41.3449C57.198 38.0091 59.8888 35.3035 63.2079 35.3035ZM23.8985 35.3035C27.2175 35.3035 29.9084 38.0091 29.9084 41.3449C29.9084 44.6835 27.2175 47.3862 23.8985 47.3862C20.5823 47.3862 17.8915 44.6835 17.8915 41.3449C17.8915 38.0091 20.5823 35.3035 23.8985 35.3035Z" fill="#00A3E1"/>
</svg>
