<svg width="132" height="140" viewBox="0 0 132 140" fill="none" xmlns="http://www.w3.org/2000/svg">
<path d="M126.61 52.7801C125.93 54.6101 125.23 56.4301 124.55 58.2201C120.46 69.0601 117.99 80.1001 117.9 91.7301C117.82 101.6 115.94 111.5 114.29 121.29C113.67 124.97 111.67 128.5 109.86 131.87C108.84 133.77 107.16 135.49 105.4 136.8C99.62 141.12 96.2 140.29 93.79 133.59C90.9 125.53 88.81 117.18 85.88 109.14C83.81 103.45 81.56 97.6501 78.28 92.6301C71.63 82.4301 59.56 82.7001 52.64 92.7201C47.39 100.33 45.07 109.12 42.49 117.83C40.76 123.66 38.92 129.47 36.68 135.11C34.86 139.7 33.43 140.06 28.84 138.49C24.53 137.01 21.98 133.69 19.98 129.85C15.88 121.94 14.76 113.3 14.05 104.6C13.21 94.3001 13.24 83.8901 11.67 73.7101C10.67 67.2101 7.74999 60.9401 5.20999 54.7601C1.17999 44.9501 -1.83001 35.1401 1.28999 24.3801C6.89999 5.04006 29.14 -5.49994 46.53 2.94006C48.65 3.97006 50.82 4.91006 52.99 5.86006C61.7 9.67006 70.31 9.55006 78.95 5.48006C84.67 2.78006 90.38 -0.00994255 96.98 0.0100575C112.65 0.0800575 126.19 10.5701 130.17 25.7101C132.6 34.9801 129.84 44.0701 126.61 52.7801Z" fill="#00A3E1"/>
</svg>
