<svg width="256" height="256" viewBox="0 0 256 256" fill="none" xmlns="http://www.w3.org/2000/svg">
<path d="M223.572 79.9188L223.357 78.0493L223.125 76.3741C222.934 75.0549 222.735 73.9138 222.487 72.6755C222.009 70.2476 221.386 67.8359 220.636 65.4484C217.669 55.9228 212.356 46.8586 204.961 39.8014C197.613 32.7119 188.288 27.7832 178.531 25.5414C168.775 23.2511 158.667 23.6072 149.374 25.9865C141.659 27.9774 134.464 31.247 128.034 35.4554C121.971 31.5708 115.302 28.4226 108.122 26.4398C99.3628 23.9956 89.8537 23.2673 80.4881 24.9425C71.1465 26.5854 62.0282 30.6239 54.4975 36.7827C46.9348 42.9092 41.0794 51.0589 37.4018 59.9127C35.551 64.3397 34.2108 68.9365 33.3332 73.5739C32.5195 78.2031 32.0728 82.6948 32.009 87.3726C31.8654 96.6553 33.4449 106.14 36.7396 114.897C39.9785 123.678 44.9484 131.634 50.5247 138.472C51.9048 140.188 53.3248 141.831 54.7049 143.401L56.6913 145.659C57.2896 146.339 57.848 146.994 58.207 147.448C58.3347 147.933 58.4942 148.572 58.6298 149.212C59.0127 150.976 59.3717 152.918 59.7227 154.877C60.0658 156.965 60.4407 159.304 60.8396 161.813C67.6523 204.593 75.0076 240 96.2037 240C113.579 240 117.887 222.317 121.03 209.4C122.729 202.432 125.05 192.882 128.09 192.882C131.129 192.882 133.451 202.432 135.15 209.4C138.293 222.317 142.601 240 159.984 240C171.407 240 180.502 228.743 187.809 205.588C192.292 191.352 195.436 174.446 196.377 159.935C191.136 162.161 183.366 164.896 176.992 166.644C175.835 176.413 173.753 186.974 171.032 196.394C166.198 213.139 161.332 219.565 159.521 220.957C156.968 219.97 154.774 210.946 153.291 204.86C150.291 192.542 145.76 173.928 128.09 173.928C110.42 173.928 105.888 192.542 102.889 204.86C101.477 210.638 99.1714 220.148 96.5707 220.981C95.5576 220.156 91.5848 215.98 87.0536 198.895C83.5834 185.793 81.0944 170.189 79.2835 158.802C78.8767 156.237 78.4937 153.857 78.1427 151.729C77.8236 149.673 77.5045 147.601 77.0817 145.384C76.8663 144.251 76.6509 143.134 76.2441 141.653C76.1324 141.264 76.0127 140.852 75.8293 140.334C75.7335 140.075 75.6298 139.791 75.4783 139.427C75.3187 139.055 75.1592 138.675 74.7603 137.987L74.513 137.566L74.0024 136.781C73.7471 136.409 73.5158 136.085 73.2924 135.793C72.4229 134.644 71.6969 133.786 71.0029 132.969L69.0165 130.646C67.7481 129.157 66.5515 127.717 65.4107 126.268C60.8715 120.489 57.2736 114.436 54.8565 107.961C52.4473 101.495 51.3065 94.6482 51.4182 87.6639C51.4501 84.2001 51.833 80.5663 52.4313 77.1996C53.0296 73.8328 53.9391 70.5794 55.1835 67.496C57.6645 61.329 61.5097 55.8986 66.4477 51.7954C71.3778 47.676 77.3769 44.8839 83.8147 43.6618C90.2605 42.4155 97.1132 42.6178 103.926 44.0179C110.739 45.4342 117.528 47.9593 124.133 51.2936L128.832 53.673L132.031 51.2936C139.043 47.9107 146.135 45.2238 153.299 43.9127C160.438 42.5612 167.602 42.4883 174.295 44.0746C180.98 45.6608 187.091 48.9709 191.957 53.7053C196.832 58.4236 200.422 64.5177 202.496 71.2997C203.014 72.9912 203.453 74.7231 203.796 76.4874C203.964 77.3452 204.123 78.3083 204.235 79.1014L204.434 80.5987L204.578 81.9097C204.945 85.584 204.969 89.2583 204.642 92.8678C203.995 100.087 201.873 107.047 198.387 113.246C194.909 119.454 190.083 124.876 184.347 129.076C181.467 131.189 178.452 132.953 175.125 134.45C171.782 135.972 168.224 137.25 164.603 138.294C157.359 140.382 149.812 141.491 142.577 141.297C135.349 141.103 128.449 139.524 122.841 136.295C120.032 134.685 117.536 132.686 115.374 130.298C115.094 129.991 114.847 129.659 114.576 129.343C122.458 126.397 130.276 123.354 138.062 120.23C143.813 117.916 149.541 115.561 155.253 113.165C160.981 110.762 166.637 108.35 172.389 105.817L178.547 103.106L177.965 96.4125V96.3963C177.566 90.626 175.699 84.8151 172.62 79.9431C169.573 75.0387 165.488 71.0407 160.981 68.0382C151.926 62.0412 141.3 59.6052 130.85 60.4388C129.542 60.544 128.233 60.7059 126.933 60.9244C126.271 61.0377 125.673 61.1429 124.939 61.3047L123.989 61.5152L123.072 61.7337C120.535 62.373 118.086 63.2147 115.717 64.2183C110.978 66.2334 106.519 68.9041 102.482 72.279C98.4534 75.6538 94.8555 79.7651 92.0874 84.54C89.3112 89.2987 87.4604 94.7292 86.7345 100.232C85.9926 105.736 86.3516 111.247 87.4285 116.362C88.4975 121.461 90.3164 126.349 92.3666 130.622C94.6242 135.356 97.4482 139.702 100.998 143.652C104.524 147.577 108.72 150.944 113.252 153.534C122.37 158.754 132.461 160.825 142.034 161.101C151.663 161.36 160.981 159.935 169.956 157.378C174.447 156.091 178.842 154.472 183.182 152.473C187.546 150.474 191.87 147.933 195.803 145.011C203.708 139.152 210.393 131.561 215.196 122.861C220.022 114.177 222.902 104.4 223.724 94.5754C224.147 89.6629 224.075 84.7504 223.572 79.9188ZM106.471 112.162C105.801 108.957 105.625 105.841 106.032 102.871C106.798 96.9548 109.909 91.5567 114.847 87.3564C119.753 83.1884 126.287 80.3073 132.477 79.7893C138.795 79.1986 145.505 80.7767 150.594 84.1353C153.139 85.8025 155.261 87.8743 156.745 90.189C157.048 90.6503 157.303 91.1358 157.543 91.6214C154.407 92.9649 151.264 94.3002 148.121 95.6275C142.489 97.9907 136.841 100.313 131.177 102.588C122.968 105.881 114.727 109.094 106.463 112.162" fill="#1B98D0"/>
</svg>
