<svg width="1146" height="200" viewBox="0 0 1146 200" fill="none" xmlns="http://www.w3.org/2000/svg">
<g clip-path="url(#clip0_652_2494)">
<g clip-path="url(#clip1_652_2494)">
<path d="M27.6884 60.7993C27.6884 60.7993 28.4129 84.922 28.4242 86.8011C28.4695 99.2643 28.0054 110.539 24.2811 122.595C21.6776 131.039 16.9232 138.873 10.6407 145.144C7.87861 147.895 4.83356 150.34 1.53947 152.4C1.06403 152.706 0.554639 153.023 0.294281 153.521C0.124483 153.86 0.0905231 154.245 0.0678833 154.619C-0.0339958 156.045 -0.0226759 157.483 0.0905231 158.909C0.147123 159.69 0.249002 160.471 0.373521 161.252C6.78058 158.796 12.8933 155.241 18.3042 151.03C22.119 148.064 25.5829 144.657 28.7072 140.967C35.5671 132.873 41.2497 123.353 44.2155 113.109C47.3737 102.208 47.3285 90.7405 47.5435 79.4885L47.8831 61.1729L37.5481 60.9804L27.6884 60.7993Z" fill="white"/>
<path d="M102.513 88.6917V0.396484H82.3184V199.989H85.6124C105.535 199.989 102.581 170.625 102.536 157.754C102.445 134.798 102.524 111.298 102.524 88.6804L102.513 88.6917Z" fill="white"/>
<path d="M182.296 153.521C182.047 153.011 181.537 152.694 181.051 152.4C177.757 150.34 174.712 147.895 171.949 145.144C165.667 138.884 160.913 131.039 158.309 122.595C154.596 110.528 154.121 99.253 154.166 86.8011C154.166 84.922 154.936 60.7993 154.902 60.7993L145.042 60.9804L134.707 61.1729L135.047 79.4885C135.262 90.7405 135.216 102.208 138.375 113.109C141.34 123.353 147.012 132.873 153.883 140.967C157.007 144.657 160.471 148.064 164.286 151.03C169.697 155.241 175.821 158.796 182.217 161.252C182.341 160.471 182.432 159.69 182.5 158.909C182.613 157.483 182.613 156.045 182.522 154.619C182.5 154.245 182.466 153.86 182.296 153.521Z" fill="white"/>
<path d="M269.708 60.7993C269.708 60.7993 270.432 84.922 270.444 86.8011C270.489 99.2643 270.025 110.539 266.301 122.595C263.697 131.039 258.943 138.873 252.66 145.144C249.898 147.895 246.853 150.34 243.559 152.4C243.084 152.706 242.574 153.023 242.314 153.521C242.144 153.86 242.11 154.245 242.087 154.619C241.986 156.045 241.997 157.483 242.11 158.909C242.167 159.69 242.269 160.471 242.393 161.252C248.8 158.796 254.913 155.241 260.324 151.03C264.139 148.064 267.602 144.657 270.727 140.967C277.587 132.873 283.269 123.353 286.235 113.109C289.393 102.208 289.348 90.7405 289.563 79.4885L289.903 61.1729L279.568 60.9804L269.708 60.7993Z" fill="white"/>
<path d="M342.099 88.4539V0.158691H321.904V199.751H325.198C345.121 199.751 342.167 170.387 342.122 157.517C342.031 134.56 342.11 111.06 342.11 88.4426L342.099 88.4539Z" fill="white"/>
<path d="M421.882 153.294C421.633 152.785 421.123 152.468 420.637 152.162C417.343 150.102 414.297 147.657 411.535 144.906C405.253 138.646 400.499 130.802 397.895 122.357C394.182 110.29 393.707 99.0152 393.752 86.5633C393.752 84.6842 394.522 60.5615 394.488 60.5615L384.628 60.7426L374.293 60.9351L374.633 79.2507C374.848 90.5027 374.802 101.97 377.961 112.871C380.926 123.115 386.598 132.635 393.469 140.729C396.593 144.419 400.057 147.827 403.872 150.792C409.283 155.003 415.407 158.558 421.803 161.014C421.927 160.233 422.018 159.452 422.086 158.671C422.199 157.245 422.199 155.807 422.108 154.381C422.086 154.007 422.052 153.622 421.882 153.283V153.294Z" fill="white"/>
<path d="M894.51 18.1459H883.631V21.7569V23.7379H860.878V11.8633L860.38 0.486845L849.988 -0.0112305H839.597V23.7266H810.912V33.1221H839.235L839.099 89.9933C839.099 102.536 839.099 115.09 839.008 127.632C838.929 141.442 838.861 154.89 832.171 167.399C830.846 169.867 829.205 172.515 827.224 175.311C825.243 178.119 822.934 180.586 820.296 182.726C817.647 184.877 815.599 186.36 814.116 187.175C812.633 187.99 811.886 189.722 811.886 192.37C811.886 195.019 812.214 196.321 812.87 196.321C813.199 196.321 814.851 195.495 817.817 193.853C821.111 192.201 824.405 190.389 827.711 188.42C831.005 186.111 834.469 183.145 838.103 179.511C842.064 175.549 845.03 172.097 847.011 169.119C851.2 162.837 854.392 155.705 856.905 148.596C860.414 138.669 860.131 128.164 860.357 117.784C860.606 106.373 860.742 94.9627 860.856 83.5636V33.1334H883.609V196.344H887.072C889.71 196.344 892.019 195.846 894 194.861C895.981 193.865 897.623 192.552 898.947 190.899C900.26 189.574 901.415 187.933 902.411 185.952C903.067 183.971 903.724 181.99 904.392 180.02C904.72 178.039 904.89 150.679 904.89 97.9172V18.1459H894.498H894.51Z" fill="white"/>
<path d="M798.461 18.2705H780.655V23.7493H740.628V18.2705H722.822V159.871H711.219V169.267H811.377V159.871H798.45V18.2705H798.461ZM780.655 116.425H740.628V80.4168H780.655V116.425ZM780.655 33.1449V71.0212H740.628V33.1335H780.655V33.1449ZM740.628 125.821H780.655V159.882H740.628V125.821Z" fill="white"/>
<path d="M1025.85 172.425C1028.06 170.851 1030.59 168.802 1033.43 166.267C1035.95 164.059 1038.16 161.693 1040.05 159.169C1041.94 156.962 1043.67 154.2 1045.26 150.883C1046.83 147.566 1048.26 144.181 1049.51 140.706L1051.4 135.024H1066.07L1081.22 134.548V152.06C1081.22 163.414 1081.46 169.097 1081.93 169.097C1082.41 169.097 1083.74 168.621 1085.95 167.682C1090.35 165.802 1094.1 161.988 1096.41 157.833C1098.8 153.509 1098.49 148.777 1098.73 144.023C1098.73 144 1099.21 135.024 1099.21 135.024H1112.46L1125.71 134.548V155.841C1125.71 170.036 1125.94 177.134 1126.42 177.134C1126.9 177.134 1128.23 176.658 1130.44 175.719C1132.65 174.768 1134.69 173.511 1136.6 171.927C1144.25 164.274 1143.32 153.769 1143.48 143.91C1143.69 130.382 1143.71 116.844 1143.71 103.305V48.8792H1125.72V62.5989C1115.5 62.5989 1105.26 62.7235 1095.04 62.5084C1094.37 62.4971 1089.44 62.8819 1089.04 62.1235C1088.88 61.8065 1091.17 59.5992 1095.9 55.5014L1103.47 49.3433L1099.68 46.502C1097.16 44.9286 1096.21 43.9777 1096.84 43.6607C1100.94 42.0873 1104.81 40.5817 1108.43 39.1667C1112.06 37.7518 1115.61 36.4047 1119.08 35.1482C1133.6 29.4656 1141.01 26.5564 1141.33 26.3979C1141.63 26.2394 1141.17 24.9037 1139.91 22.3793L1138.02 18.123H1034.38V27.111H1074.13C1082.01 27.111 1089.04 27.1903 1095.19 27.3488C1101.34 27.5072 1107.56 27.5865 1113.88 27.5865C1113.24 28.2204 1108.67 30.1108 1100.16 33.2691L1086.91 38.9517L1082.66 37.0612C1079.82 35.8047 1076.97 34.6954 1074.13 33.7445C1069.03 32.0465 1060.12 30.8806 1054.99 32.771C1055.03 33.3483 1055.34 33.7105 1055.67 34.2199C1057.16 36.45 1060.14 37.6386 1062.36 39.0196C1065.15 40.7628 1067.92 42.5288 1070.54 44.5211C1075.72 48.4491 1080.66 52.9997 1084.07 58.5804C1085.33 60.6406 1085.88 61.8179 1085.73 62.1348C1085.11 63.3234 1079.92 62.5876 1078.79 62.5876C1075.49 62.5876 1072.21 62.6103 1068.91 62.6103H1052.35V55.5127C1052.35 50.781 1052.12 48.3359 1051.64 48.1774C1051.17 48.0189 1048.09 47.9397 1042.42 47.9397H1034.37V89.5856C1034.37 117.036 1034.05 132.646 1033.42 136.439C1033.1 139.914 1032.46 143.536 1031.53 147.328C1030.89 150.487 1029.63 153.803 1027.74 157.267C1026.16 160.426 1024.51 163.029 1022.78 165.078C1020.26 168.055 1016.39 169.9 1016.39 174.304V178.56L1019.71 176.67C1021.6 175.413 1023.65 173.998 1025.87 172.413L1025.85 172.425ZM1098.97 71.8586C1099.13 71.3832 1103.62 71.1455 1112.46 71.1455H1125.71V95.2795H1112.46L1099.21 94.8041V83.9256C1098.89 76.3526 1098.81 72.3341 1098.97 71.8586ZM1098.73 115.157V104.267H1125.71V125.56H1098.73V115.146V115.157ZM1052.35 82.9748V71.1455H1081.22V95.2795H1052.35V82.9748ZM1052.35 115.157V104.267H1081.22V125.56H1052.35V115.146V115.157Z" fill="white"/>
<path d="M1089.11 190.412C1051.56 190.412 1031.53 189.937 1029.01 188.997C1026.49 188.363 1023.65 187.265 1020.49 185.68C1017.65 184.107 1015.12 182.364 1012.92 180.473C1009.66 177.666 1007.54 173.919 1006.77 169.697C1005.74 164.059 1006.72 158.275 1006.85 152.592C1007.03 144.532 1007.14 136.473 1007.24 128.413C1007.24 128.413 1007.24 101.856 1007.27 92.6873V83.6993L969.855 83.5635C969.855 85.5445 969.855 87.5368 969.855 89.5177C969.855 91.0459 969.832 92.6194 969.855 94.1702C969.855 94.5438 969.821 98.0756 970.206 98.1095C975.662 98.5623 981.401 98.5963 986.88 98.5963V130.779C986.88 152.241 986.563 164.308 985.929 166.98C983.846 175.843 979.85 182.647 970.726 185.001C970.319 185.103 964.648 186.484 964.625 186.144C964.625 186.167 964.625 191.352 964.625 191.352V196.083H966.515C967.772 196.083 970.296 195.766 974.088 195.132C978.186 194.182 981.661 193.084 984.503 191.816C988.385 190.084 993.762 187.763 996.807 184.718C997.441 184.084 998.087 183.45 998.698 182.805C1000.24 187.424 1006.03 190.718 1010.06 192.846C1021.03 198.642 1033.05 198.155 1045.09 198.393C1058.97 198.664 1072.85 198.8 1086.74 198.913H1145.43V190.389H1089.11V190.412Z" fill="white"/>
<path d="M972.743 43.7174C973.059 44.1022 973.376 44.4645 973.693 44.8154L974.146 45.3248C974.282 45.4719 974.407 45.6191 974.486 45.721C974.52 45.8342 974.554 45.97 974.576 46.1172C975.04 48.2227 974.893 50.3848 975.222 52.4903C975.539 54.5731 976.105 56.7126 976.75 58.7162C977.678 61.6028 978.731 63.6404 979.931 64.8969C979.999 64.9761 980.078 65.0554 980.157 65.1233C980.282 65.2365 980.406 65.361 980.531 65.4629C980.689 65.5874 980.859 65.7006 981.017 65.8025C981.108 65.8591 981.21 65.927 981.3 65.9723C981.481 66.0628 981.663 66.1308 981.855 66.1874C981.957 66.2213 982.059 66.2666 982.172 66.2892C982.376 66.3345 982.602 66.3572 982.817 66.3685C982.896 66.3685 982.964 66.4024 983.089 66.4024C987.028 66.4024 988.002 62.4518 988.715 59.5652C989.1 58.0257 989.621 55.9202 990.3 55.8863C990.979 55.9315 991.5 58.0257 991.884 59.5652C992.598 62.4518 993.571 66.4024 997.556 66.4024C997.635 66.4024 997.714 66.3798 997.782 66.3685C997.997 66.3572 998.224 66.3345 998.427 66.2892C998.529 66.2666 998.642 66.2213 998.744 66.1874C998.937 66.1308 999.118 66.0628 999.299 65.9723C999.401 65.927 999.491 65.8591 999.582 65.8025C999.752 65.7006 999.91 65.5874 1000.07 65.4629C1000.19 65.361 1000.32 65.2478 1000.44 65.1233C1000.52 65.0554 1000.59 64.9761 1000.67 64.8969C1001.87 63.6404 1002.92 61.6141 1003.85 58.7162C1004.53 56.5768 1005.08 54.392 1005.4 52.1733C1005.69 50.1471 1005.58 48.1095 1006.01 46.1172C1006.05 45.9813 1006.08 45.8342 1006.1 45.721C1006.18 45.6191 1006.89 44.8154 1006.89 44.8154C1007.21 44.4645 1007.53 44.1022 1007.85 43.7174C1009.11 42.1892 1010.23 40.412 1010.97 38.4536C1011.72 36.4953 1012.08 34.3784 1012.05 32.2956C1012.05 32.0352 1012.01 31.7749 1012 31.5145C1011.99 31.2542 1011.98 30.9825 1011.95 30.7221C1011.95 30.6882 1011.95 30.6655 1011.95 30.6316L1011.91 30.2127L1011.85 29.8392C1011.83 29.6694 1011.8 29.5222 1011.77 29.375C1011.77 29.3184 1011.76 29.2732 1011.75 29.2166C1011.75 29.1939 1011.74 29.16 1011.73 29.1373C1011.73 29.1034 1011.72 29.0581 1011.71 29.0128C1011.67 28.8204 1011.6 28.6393 1011.56 28.4581C1011.49 28.1525 1011.41 27.8582 1011.32 27.5525C1011.31 27.4959 1011.3 27.4507 1011.28 27.3941C1011.21 27.1677 1011.09 26.9413 1011.02 26.7149C1010.95 26.5338 1010.89 26.3413 1010.81 26.1602C1010.8 26.1149 1010.77 26.081 1010.75 26.047C1010.63 25.7527 1010.47 25.4584 1010.32 25.164C1010.22 24.9716 1010.12 24.7678 1010.01 24.5754C1009.84 24.2811 1009.65 23.9981 1009.44 23.7151C1009.33 23.5453 1009.22 23.3755 1009.09 23.217C1008.88 22.934 1008.65 22.6737 1008.41 22.4133C1008.28 22.2548 1008.13 22.0964 1007.98 21.9492C1007.89 21.8586 1007.81 21.7568 1007.72 21.6662C1007.56 21.519 1007.38 21.3945 1007.22 21.2587C1007.12 21.1794 1007.04 21.0776 1006.94 20.9983C1006.87 20.9417 1006.8 20.9078 1006.74 20.8512C1006.46 20.6361 1006.18 20.4436 1005.89 20.2625C1005.71 20.1493 1005.52 20.0248 1005.33 19.9229C1005.04 19.7531 1004.74 19.5947 1004.44 19.4475C1004.25 19.3569 1004.05 19.2664 1003.85 19.1871C1003.53 19.0513 1003.22 18.9381 1002.9 18.8362C1002.68 18.7683 1002.48 18.7004 1002.26 18.6438C1002.08 18.5985 1001.91 18.5306 1001.73 18.4853C1001.6 18.4513 1001.45 18.44 1001.31 18.4174C1001.22 18.3947 1001.14 18.3721 1001.05 18.3495C1000.93 18.3268 1000.79 18.3268 1000.67 18.3042C1000.34 18.2589 1000 18.2136 999.673 18.191C999.48 18.1797 999.288 18.1683 999.095 18.1683C998.733 18.1683 998.371 18.157 998.009 18.1683C997.873 18.1683 997.726 18.191 997.59 18.2023C997.182 18.2363 996.775 18.2702 996.378 18.3381C996.288 18.3495 996.197 18.3721 996.118 18.3947C995.79 18.4513 995.462 18.5079 995.145 18.5872C995.077 18.6098 995.009 18.6438 994.929 18.6551C994.884 18.6664 994.839 18.6777 994.794 18.6891C994.409 18.7909 994.058 18.9494 993.696 19.0853C993.299 19.2324 992.892 19.3456 992.518 19.5154C991.737 19.8663 991.002 20.2625 990.288 20.704C989.587 20.2625 988.839 19.855 988.058 19.5154C987.685 19.3456 987.277 19.2324 986.881 19.0853C986.519 18.9494 986.157 18.7909 985.783 18.6891C985.738 18.6777 985.692 18.6664 985.647 18.6551C985.579 18.6325 985.511 18.5985 985.432 18.5872C985.115 18.5079 984.787 18.4627 984.459 18.3947C984.368 18.3834 984.277 18.3608 984.198 18.3381C983.802 18.2702 983.395 18.2363 982.987 18.2023C982.851 18.2023 982.704 18.1797 982.568 18.1683C982.206 18.1457 981.844 18.157 981.481 18.1683C981.289 18.1683 981.097 18.1683 980.904 18.191C980.565 18.2136 980.236 18.2589 979.908 18.3042C979.784 18.3268 979.648 18.3268 979.523 18.3495C979.433 18.3608 979.353 18.3947 979.263 18.4174C979.127 18.44 978.98 18.4513 978.844 18.4853C978.663 18.5306 978.493 18.5985 978.312 18.6438C978.097 18.7004 977.882 18.7683 977.678 18.8362C977.361 18.9381 977.044 19.0626 976.727 19.1871C976.523 19.2664 976.331 19.3569 976.138 19.4475C975.833 19.5947 975.539 19.7531 975.244 19.9229C975.052 20.0361 974.871 20.1493 974.69 20.2625C974.395 20.455 974.112 20.6474 973.841 20.8512C973.773 20.8964 973.705 20.9417 973.637 20.9983C973.535 21.0776 973.456 21.1794 973.354 21.2587C973.184 21.3945 973.014 21.519 972.856 21.6662C972.765 21.7568 972.686 21.8586 972.595 21.9492C972.448 22.0964 972.312 22.2548 972.165 22.4133C971.927 22.6737 971.701 22.934 971.486 23.217C971.362 23.3755 971.248 23.5453 971.135 23.7151C970.943 23.9981 970.75 24.2811 970.569 24.5754C970.456 24.7678 970.354 24.9716 970.252 25.164C970.105 25.4584 969.946 25.7414 969.822 26.047C969.799 26.081 969.777 26.1262 969.765 26.1602C969.686 26.3413 969.641 26.5338 969.562 26.7149C969.471 26.9413 969.369 27.1677 969.301 27.3941C969.29 27.4507 969.279 27.4959 969.256 27.5525C969.165 27.8469 969.098 28.1525 969.018 28.4581C968.973 28.6393 968.916 28.8317 968.871 29.0128C968.871 29.0581 968.86 29.092 968.848 29.1373C968.848 29.16 968.837 29.1939 968.826 29.2166C968.826 29.2732 968.815 29.3184 968.803 29.375C968.781 29.5222 968.747 29.6694 968.724 29.8392L968.667 30.2127L968.622 30.6316C968.622 30.6316 968.622 30.6882 968.622 30.7221C968.599 30.9825 968.588 31.2542 968.577 31.5145C968.565 31.7749 968.531 32.0352 968.531 32.2956C968.498 34.3671 968.86 36.4953 969.607 38.4423C970.343 40.4006 971.463 42.1779 972.731 43.706L972.743 43.7174Z" fill="white"/>
<path d="M574.982 18.146H481.888V27.5415H585.317V79.3414H520.194C520.341 78.7754 520.602 77.949 520.975 76.851C521.915 74.9719 522.696 72.6287 523.318 69.81C523.941 66.9914 524.258 61.0484 524.258 51.9585V37.8653H503.124L503.588 63.2218V88.7369H552.32C557.697 88.8501 560.414 89.0425 560.414 89.2916C560.414 89.767 558.693 93.2762 555.252 99.853C552.739 104.551 550.09 109.407 547.271 114.41C545.698 116.923 543.513 120.206 540.694 124.27C538.181 128.028 535.363 131.945 532.238 136.009C529.103 140.084 525.582 144.069 521.677 147.985C517.76 151.902 513.923 155.264 510.176 158.083C506.723 160.596 503.441 162.939 500.316 165.124C496.864 167.003 493.275 168.882 489.517 170.761C485.442 172.957 481.061 174.995 476.363 176.862C471.349 178.741 468.53 179.681 467.907 179.681C467.591 179.681 467.443 180.315 467.443 181.56C467.749 183.134 468.066 184.073 468.383 184.379C468.689 184.696 470.568 184.537 474.02 183.903C477.926 183.066 481.831 182.273 485.759 181.56C490.14 180.315 494.215 179.058 497.973 177.802C502.354 176.24 507.199 174.202 512.531 171.7C518.168 168.882 523.33 165.916 528.027 162.78C532.725 159.656 536.631 156.679 539.766 153.86C543.207 151.042 545.868 148.698 547.747 146.819C550.248 144.635 553.214 141.499 556.667 137.424C559.791 133.983 562.927 130.224 566.062 126.149C569.187 121.768 572.085 117.467 574.756 113.233C577.416 109 579.839 105.173 582.035 101.721L584.853 96.559L585.317 146.808V197.532H588.136C590.321 197.532 592.2 197.216 593.773 196.593C595.653 195.97 597.532 194.793 599.411 193.072C601.29 191.352 602.694 189.552 603.633 187.673C604.573 185.171 605.195 182.975 605.512 181.096C605.818 178.594 605.988 162.622 605.988 133.19V88.7256H664.013V79.3301H605.988V27.5415H664.013V18.146H574.994H574.982Z" fill="white"/>
</g>
</g>
<defs>
<clipPath id="clip0_652_2494">
<rect width="1145.43" height="200" fill="white"/>
</clipPath>
<clipPath id="clip1_652_2494">
<rect width="1145.43" height="200" fill="white"/>
</clipPath>
</defs>
</svg>
