<svg width="411" height="200" viewBox="0 0 411 200" fill="none" xmlns="http://www.w3.org/2000/svg">
<g clip-path="url(#clip0_652_2508)">
<path d="M408.031 56.6132C407.457 56.3308 406.814 56.1122 406.099 55.971C405.53 55.8298 404.956 55.757 404.387 55.757H326.973V12.8666C326.973 12.0104 326.896 11.2953 326.759 10.7214C326.613 8.86318 326.185 7.21898 325.47 5.78885C323.753 1.92658 320.396 0 315.391 0C310.385 0 307.17 1.85826 305.311 5.57479C304.592 7.00492 304.095 8.64912 303.808 10.5074C303.667 11.0813 303.594 11.7963 303.594 12.6526V55.757H278.075V20.5866C278.075 19.8716 278.002 19.2294 277.861 18.6555C277.574 16.943 277.146 15.44 276.577 14.151C274.718 10.4345 271.353 8.57624 266.497 8.57624C262.066 8.57624 258.919 10.0792 257.065 13.0807C255.635 15.2259 254.92 18.3002 254.92 22.2991V55.7524H218.251C217.677 55.7524 217.035 55.8253 216.32 55.9665C215.6 56.1122 214.958 56.3263 214.389 56.6087C212.959 57.3237 212.248 58.6127 212.248 60.4709C212.248 62.475 213.031 63.8322 214.607 64.5427C215.177 64.8297 215.819 65.0437 216.538 65.1849C217.108 65.3307 217.682 65.399 218.256 65.399H404.396C404.965 65.399 405.607 65.3261 406.327 65.1849C407.042 65.0437 407.684 64.8297 408.258 64.5427C409.688 63.8277 410.403 62.5433 410.403 60.6805C410.403 58.681 409.616 57.3237 408.044 56.6087L408.031 56.6132Z" fill="white"/>
<path d="M370.842 169.211C370.865 168.924 370.878 168.642 370.878 168.36L370.933 129.095L370.842 169.211Z" fill="white"/>
<path d="M393.232 80.8437C393.086 79.1312 392.731 77.6282 392.157 76.3392C390.299 72.7685 387.011 70.9785 382.292 70.9785C377.86 70.9785 374.713 72.4086 372.855 75.2689C371.566 77.4141 370.924 80.4156 370.924 84.2733V119.23H251.262V82.3422C251.262 81.6271 251.184 80.9849 251.048 80.411C250.761 78.6985 250.328 77.2684 249.759 76.1252C247.901 72.6956 244.612 70.9785 239.894 70.9785C232.315 70.9785 228.525 75.3418 228.525 84.0592C228.525 84.0592 228.557 168.264 228.589 168.815C230.215 196.867 273.32 199.996 310.972 199.996H310.981C348.638 199.996 391.738 196.867 393.364 168.815C393.396 168.237 393.432 82.7748 393.432 82.7748C393.432 82.0598 393.36 81.4176 393.218 80.8437H393.232ZM370.837 169.211C370.277 176.125 362.229 185.198 310.99 185.198H310.986C257.615 185.198 251.33 175.355 251.33 168.36H251.271V129.095H370.933C370.933 129.095 370.865 168.924 370.842 169.211H370.837Z" fill="white"/>
<path d="M372.74 39.6248C374.453 39.4517 375.956 39.1875 377.245 38.8414C380.961 37.7073 382.819 35.6623 382.819 32.7018C382.819 30.001 381.316 28.0881 378.315 26.9585C376.17 26.0886 373.095 25.6514 369.092 25.6514H335.639V39.7523H370.809C371.524 39.7523 372.166 39.7068 372.74 39.6202V39.6248Z" fill="white"/>
<path d="M157.433 56.0713H148.538C127.546 56.0713 110.371 72.0715 110.371 91.6288V108.203C110.371 127.76 127.546 143.76 148.538 143.76H157.433C178.425 143.76 195.601 127.76 195.601 108.203V91.6288C195.601 72.0715 178.425 56.0713 157.433 56.0713ZM178.585 108.203C178.585 119.065 169.098 127.906 157.433 127.906H148.538C136.874 127.906 127.387 119.065 127.387 108.203V91.6288C127.387 80.7661 136.879 71.9257 148.538 71.9257H157.433C169.098 71.9257 178.585 80.7661 178.585 91.6288V108.203Z" fill="white"/>
<path d="M17.6444 63.6228C24.0572 56.6771 29.6684 49.7906 34.4826 42.977L40.4946 33.754C42.8994 30.0147 44.8351 26.5396 46.3063 23.3286C48.4423 19.0519 49.5127 15.9138 49.5127 13.9098C49.5127 7.49694 45.2314 4.29053 36.6825 4.29053C31.3354 4.29053 27.6644 7.69734 25.6604 14.511L24.4535 18.7194C23.916 20.5913 23.3831 22.2628 22.8502 23.7294C21.5112 28.0107 20.0446 32.0825 18.4414 35.9584C16.4329 40.9047 14.1601 45.6505 11.6278 50.1914C8.82219 55.6751 5.61578 60.9493 2.00401 66.0276C0.669521 68.1683 0 69.5711 0 70.2406C0 73.3149 1.53489 74.8498 4.61377 74.8498C6.34906 74.8498 10.6941 71.1105 17.6444 63.6228Z" fill="white"/>
<path d="M96.7485 146.056L95.0588 143.268L85.5807 130.338C81.6228 125.597 78.9857 123.096 77.6785 122.832C74.6634 122.231 72.8553 123.438 72.2541 126.448C72.0992 127.236 72.1721 128.206 72.4909 129.359C72.541 129.778 72.6594 130.21 72.8461 130.657L75.4058 138.322C76.4306 141.387 77.2003 143.997 77.7286 146.147C78.9083 151.152 79.7372 156.563 80.2109 162.384L80.762 166.784C80.9943 168.332 81.3359 169.694 81.7868 170.874C83.2533 173.757 85.8221 175.56 89.4931 176.294C97.7459 177.942 102.688 174.704 104.309 166.579C104.988 163.172 103.794 158.576 100.729 152.783C99.6498 150.66 98.3289 148.42 96.7576 146.06L96.7485 146.056Z" fill="white"/>
<path d="M98.7603 103.516C99.4298 103.384 100.031 103.184 100.564 102.915C101.898 102.25 102.568 100.979 102.568 99.1075C102.568 97.3722 101.835 96.1015 100.363 95.2999C99.826 95.0357 99.2294 94.8991 98.5599 94.8991C98.0224 94.767 97.4895 94.6987 96.9566 94.6987H69.898C70.1622 91.8931 70.3625 88.0171 70.4992 83.0709C70.6313 79.0629 70.6996 74.8545 70.6996 70.4411V42.9816H93.3494C93.8823 42.9816 94.4198 42.9133 94.9526 42.7812C95.6176 42.7812 96.2234 42.6491 96.7562 42.3804C98.2228 41.5788 98.9607 40.2443 98.9607 38.3724C98.9607 36.6371 98.2911 35.3664 96.9566 34.5648C96.4192 34.3006 95.818 34.0957 95.153 33.9636C94.6156 33.8315 94.0144 33.7632 93.3494 33.7632H48.2866L42.935 42.9862H49.2476V82.2738C49.2476 83.745 49.1793 85.2161 49.0472 86.6827C48.9151 90.5586 48.7785 93.2321 48.6464 94.7032H7.35927C6.68975 94.8399 6.08855 95.0357 5.55566 95.3044C4.08454 96.106 3.35125 97.4451 3.35125 99.3125C3.35125 101.18 4.08454 102.455 5.55566 103.12C6.08855 103.389 6.68975 103.589 7.35927 103.721H48.0497L46.0457 118.756C44.5746 125.97 42.566 132.656 40.0337 138.801C36.8273 146.821 32.6189 154.036 27.4039 160.448C21.2552 168.064 13.7721 174.613 4.95446 180.092C2.81381 181.427 1.74805 182.898 1.74805 184.501C1.74805 187.575 3.21462 189.11 6.15686 189.11C7.49135 189.11 10.3698 187.84 14.7787 185.303C19.9891 182.36 25.204 178.689 30.4145 174.276C37.096 168.797 42.9076 162.853 47.8539 156.436C53.8659 148.816 58.4797 140.873 61.6861 132.584C65.6987 122.482 68.2538 110.266 69.5245 103.639L96.9658 103.717C97.6307 103.717 98.2319 103.648 98.7694 103.516H98.7603Z" fill="white"/>
<path d="M303.812 85.2295L303.771 84.8924L303.73 84.5918C303.694 84.355 303.657 84.15 303.612 83.9269C303.525 83.4896 303.411 83.0569 303.275 82.6243C302.733 80.9117 301.763 79.2767 300.415 78.0059C299.071 76.7306 297.367 75.8425 295.587 75.4372C293.806 75.0227 291.957 75.091 290.262 75.5191C288.855 75.8789 287.539 76.4665 286.364 77.2225C285.257 76.5211 284.036 75.9564 282.725 75.6011C281.126 75.1639 279.386 75.0318 277.678 75.3324C275.97 75.6284 274.308 76.3572 272.932 77.4639C271.552 78.5661 270.482 80.0327 269.808 81.6268C269.471 82.4239 269.225 83.2528 269.065 84.0863C268.915 84.9198 268.833 85.7305 268.824 86.5731C268.797 88.2446 269.088 89.9525 269.689 91.5284C270.281 93.1089 271.188 94.539 272.208 95.7733C272.459 96.083 272.718 96.379 272.973 96.6614L273.338 97.0668C273.447 97.1897 273.547 97.3082 273.615 97.3901C273.638 97.4767 273.666 97.5951 273.693 97.709C273.761 98.0278 273.829 98.3739 273.893 98.7292C273.957 99.1072 274.025 99.5262 274.098 99.9771C275.342 107.679 276.685 114.051 280.557 114.051C283.731 114.051 284.515 110.867 285.093 108.544C285.403 107.287 285.826 105.57 286.382 105.57C286.938 105.57 287.361 107.287 287.671 108.544C288.245 110.867 289.033 114.055 292.207 114.055C294.293 114.055 295.956 112.029 297.29 107.861C298.11 105.297 299.271 99.0161 299.444 96.4064C299.444 96.4064 299.44 96.4064 299.435 96.4064C300.578 95.4408 301.558 94.2748 302.291 92.9631C303.175 91.4009 303.698 89.6383 303.849 87.8711C303.926 86.9875 303.912 86.0994 303.821 85.234L303.812 85.2295Z" fill="white"/>
<path d="M353.726 85.2295L353.685 84.8924L353.644 84.5918C353.608 84.355 353.571 84.15 353.526 83.9269C353.439 83.4896 353.325 83.0569 353.189 82.6243C352.647 80.9117 351.677 79.2767 350.329 78.0059C348.985 76.7306 347.282 75.8425 345.501 75.4372C343.72 75.0227 341.871 75.091 340.176 75.5191C338.769 75.8789 337.453 76.4665 336.278 77.2225C335.171 76.5211 333.95 75.9564 332.639 75.6011C331.04 75.1639 329.3 75.0318 327.592 75.3324C325.884 75.6284 324.222 76.3572 322.846 77.4639C321.466 78.5661 320.396 80.0327 319.722 81.6268C319.385 82.4239 319.139 83.2528 318.979 84.0863C318.829 84.9198 318.747 85.7305 318.738 86.5731C318.711 88.2446 319.002 89.9525 319.603 91.5284C320.196 93.1089 321.102 94.539 322.122 95.7733C322.373 96.083 322.632 96.379 322.887 96.6614L323.252 97.0668C323.361 97.1897 323.461 97.3082 323.529 97.3901C323.552 97.4767 323.58 97.5951 323.607 97.709C323.675 98.0278 323.744 98.3739 323.807 98.7292C323.871 99.1072 323.939 99.5262 324.012 99.9771C325.256 107.679 326.599 114.051 330.471 114.051C333.645 114.051 334.429 110.867 335.007 108.544C335.317 107.287 335.74 105.57 336.296 105.57C336.852 105.57 337.275 107.287 337.585 108.544C338.159 110.867 338.947 114.055 342.121 114.055C344.207 114.055 345.87 112.029 347.204 107.861C348.024 105.297 349.185 99.0161 349.358 96.4064C349.358 96.4064 349.354 96.4064 349.349 96.4064C350.493 95.4408 351.472 94.2748 352.205 92.9631C353.089 91.4009 353.612 89.6383 353.763 87.8711C353.84 86.9875 353.826 86.0994 353.735 85.234L353.726 85.2295Z" fill="white"/>
<path d="M303.812 147.231L303.771 146.894L303.73 146.593C303.694 146.356 303.657 146.151 303.612 145.928C303.525 145.491 303.411 145.058 303.275 144.626C302.733 142.913 301.763 141.278 300.415 140.007C299.071 138.732 297.367 137.844 295.587 137.439C293.806 137.024 291.957 137.092 290.262 137.521C288.855 137.88 287.539 138.468 286.364 139.224C285.257 138.523 284.036 137.958 282.725 137.603C281.126 137.165 279.386 137.033 277.678 137.334C275.97 137.63 274.308 138.359 272.932 139.465C271.552 140.568 270.482 142.034 269.808 143.628C269.471 144.425 269.225 145.254 269.065 146.088C268.915 146.921 268.833 147.732 268.824 148.575C268.797 150.246 269.088 151.954 269.689 153.53C270.281 155.11 271.188 156.54 272.208 157.775C272.459 158.084 272.718 158.38 272.973 158.663L273.338 159.068C273.447 159.191 273.547 159.31 273.615 159.392C273.638 159.478 273.666 159.597 273.693 159.71C273.761 160.029 273.829 160.375 273.893 160.731C273.957 161.109 274.025 161.528 274.098 161.979C275.342 169.68 276.685 176.052 280.557 176.052C283.731 176.052 284.515 172.869 285.093 170.546C285.403 169.289 285.826 167.572 286.382 167.572C286.938 167.572 287.361 169.289 287.671 170.546C288.245 172.869 289.033 176.057 292.207 176.057C294.293 176.057 295.956 174.03 297.29 169.863C298.11 167.298 299.271 161.018 299.444 158.408C299.444 158.408 299.44 158.408 299.435 158.408C300.578 157.442 301.558 156.276 302.291 154.965C303.175 153.402 303.698 151.64 303.849 149.873C303.926 148.989 303.912 148.101 303.821 147.235L303.812 147.231Z" fill="white"/>
<path d="M353.726 147.231L353.685 146.894L353.644 146.593C353.608 146.356 353.571 146.151 353.526 145.928C353.439 145.491 353.325 145.058 353.189 144.626C352.647 142.913 351.677 141.278 350.329 140.007C348.985 138.732 347.282 137.844 345.501 137.439C343.72 137.024 341.871 137.092 340.176 137.521C338.769 137.88 337.453 138.468 336.278 139.224C335.171 138.523 333.95 137.958 332.639 137.603C331.04 137.165 329.3 137.033 327.592 137.334C325.884 137.63 324.222 138.359 322.846 139.465C321.466 140.568 320.396 142.034 319.722 143.628C319.385 144.425 319.139 145.254 318.979 146.088C318.829 146.921 318.747 147.732 318.738 148.575C318.711 150.246 319.002 151.954 319.603 153.53C320.196 155.11 321.102 156.54 322.122 157.775C322.373 158.084 322.632 158.38 322.887 158.663L323.252 159.068C323.361 159.191 323.461 159.31 323.529 159.392C323.552 159.478 323.58 159.597 323.607 159.71C323.675 160.029 323.744 160.375 323.807 160.731C323.871 161.109 323.939 161.528 324.012 161.979C325.256 169.68 326.599 176.052 330.471 176.052C333.645 176.052 334.429 172.869 335.007 170.546C335.317 169.289 335.74 167.572 336.296 167.572C336.852 167.572 337.275 169.289 337.585 170.546C338.159 172.869 338.947 176.057 342.121 176.057C344.207 176.057 345.87 174.03 347.204 169.863C348.024 167.298 349.185 161.018 349.358 158.408C349.358 158.408 349.354 158.408 349.349 158.408C350.493 157.442 351.472 156.276 352.205 154.965C353.089 153.402 353.612 151.64 353.763 149.873C353.84 148.989 353.826 148.101 353.735 147.235L353.726 147.231Z" fill="white"/>
</g>
<defs>
<clipPath id="clip0_652_2508">
<rect width="410.38" height="200" fill="white"/>
</clipPath>
</defs>
</svg>
