<svg width="1651" height="200" viewBox="0 0 1651 200" fill="none" xmlns="http://www.w3.org/2000/svg">
<g clip-path="url(#clip0_966_2252)">
<path d="M400.779 126.345C398.519 123.811 395.635 122.525 392.127 122.525H348.363C344.972 122.525 342.166 123.811 339.906 126.345C337.646 128.605 336.516 131.216 336.516 134.178V184.061C336.516 187.451 337.802 190.179 340.335 192.284C342.011 193.57 344.271 194.193 347.116 194.193H393.18C396.414 194.193 399.025 193.219 401.013 191.232C403.117 188.854 404.17 186.087 404.17 183.009V135.035C404.17 131.801 403.039 128.917 400.779 126.384V126.345ZM380.709 177.709H359.937C356.547 177.709 353.819 174.981 353.819 171.59V145.362C353.819 141.972 356.547 139.244 359.937 139.244H380.709C384.099 139.244 386.827 141.972 386.827 145.362V171.59C386.827 174.981 384.099 177.709 380.709 177.709Z" fill="white"/>
<path d="M529.501 71.0834C528.76 72.0577 527.279 72.4474 525.76 72.2526C523.46 71.9018 518.784 71.2003 516.601 70.4599C510.015 68.3165 507.248 65.6664 503.624 59.548C499.922 53.3515 498.402 46.1809 495.479 39.6337C492.79 33.5932 489.633 27.9034 482.112 27.9034H460.834C456.235 27.9034 452.065 30.6703 450.272 34.9182C446.765 42.2058 443.725 49.7662 439.945 56.8979C436.555 63.2892 433.164 70.1871 425.604 72.0967C422.798 72.7982 413.445 75.1754 411.73 71.9408C411.223 71.0445 411.184 70.0702 411.613 69.0959L431.917 20.4599C432.346 19.3297 432.93 18.1996 433.71 17.0694C434.489 15.9392 435.502 14.887 436.788 13.9127C439.322 12.0811 442.127 11.1848 445.245 11.1848H498.947C502.026 11.1848 504.871 12.1201 507.404 13.9127C509.664 15.5885 511.262 17.8099 512.276 20.4599C512.276 20.4599 529.813 68.1996 529.813 68.2385C530.241 69.4466 530.085 70.4209 529.54 71.0834H529.501Z" fill="white"/>
<path d="M969.798 67.8099C967.382 65.8224 964.459 64.8481 960.913 64.8481H896.727L893.142 56.82C892.44 55.4171 891.115 54.7156 889.128 54.7156H869.72C869.019 54.7156 868.434 55.1053 868.044 55.8847C867.616 56.6641 867.538 57.3266 867.85 57.9112L870.811 64.887H803.235C799.572 64.887 796.688 65.9393 794.584 68.0437C792.324 70.304 791.193 73.1879 791.193 76.6953V96.1419C791.193 96.8434 791.466 97.5059 792.051 98.1684C792.596 98.792 793.259 99.1037 793.96 99.1037H811.302V183.009C811.302 186.672 812.355 189.439 814.459 191.232C816.564 193.336 819.525 194.388 823.345 194.388H944.818C948.637 194.388 951.794 193.258 954.327 190.998C956.704 188.62 957.912 185.308 957.912 181.06V156.742C957.912 153.235 956.626 150.39 954.093 148.285C951.833 146.454 945.597 145.557 942.207 145.557H839.712C837.413 145.557 835.582 143.687 835.582 141.426V137.685C835.582 135.269 837.53 133.32 839.946 133.32H940.453C944.389 133.32 947.429 132.268 949.533 130.164C952.066 128.059 953.352 124.942 953.352 120.85V99.0648H971.747C973.306 99.0648 974.085 98.0905 974.085 96.1029V76.6563C974.085 72.8372 972.682 69.8754 969.876 67.7709L969.798 67.8099ZM838.426 158.691H921.786C924.553 158.691 926.774 160.912 926.774 163.679V176.15C926.774 178.995 924.475 181.294 921.63 181.294H840.726C837.881 181.294 835.582 178.995 835.582 176.15V161.574C835.582 159.977 836.868 158.691 838.465 158.691H838.426ZM925.605 114.264C925.605 117.537 922.955 120.226 919.642 120.226H840.492C837.764 120.226 835.543 118.005 835.543 115.277V109.431C835.543 106.508 837.881 104.17 840.804 104.17H920.227C923.228 104.17 925.644 106.586 925.644 109.587V114.264H925.605ZM946.961 90.8418H818.239V81.6836C818.239 79.7351 819.798 78.1762 821.747 78.1762H942.83C945.129 78.1762 946.961 80.0468 946.961 82.3072V90.8418Z" fill="white"/>
<path d="M1327.44 44.5051C1326.19 44.4272 1324.94 44.3882 1323.73 44.3882C1305.65 44.3882 1287.61 44.3103 1269.52 44.2713C1269.52 40.1403 1269.52 36.0094 1269.52 31.8785C1283.9 31.8785 1298.28 31.8785 1312.7 31.8785C1318.9 31.8785 1325.76 31.6446 1330.28 27.3968C1333.98 23.8894 1335.19 18.5503 1336.16 13.562C1336.44 12.159 1336.59 10.4833 1335.46 9.62592C1334.84 9.15827 1334.02 9.1193 1333.24 9.08033C1329.7 8.96341 1326.11 8.88547 1322.56 8.76856C1319.1 8.65164 1315.47 8.61267 1312.35 10.1325C1309.24 11.6914 1306.94 15.4326 1308.18 18.6672C1294.15 18.6672 1280.12 18.7452 1266.09 18.7841C1261.34 18.7841 1255.07 18.7452 1251.29 22.2526C1247.43 25.8379 1247.51 32.4241 1247.54 37.2175C1247.66 72.7982 1247.78 108.418 1247.9 143.998C1247.9 154.91 1247.93 165.978 1245.17 176.539C1243.76 181.801 1241.7 186.906 1240.69 192.245C1240.53 192.985 1240.49 193.843 1241.04 194.31C1241.43 194.661 1242.05 194.661 1242.56 194.661C1247.31 194.583 1252.1 194.544 1256.86 194.466C1258.34 194.466 1259.94 194.388 1261.11 193.531C1262.31 192.634 1262.82 191.115 1263.25 189.673C1267.15 176.695 1267.69 163.094 1268.2 149.688C1268.35 145.324 1269.52 87.919 1268.82 87.919C1288.19 87.88 1307.52 87.841 1326.89 87.8021C1330.01 87.8021 1333.36 87.6852 1335.78 85.7756C1338.58 83.5542 1339.2 79.6181 1339.48 76.0718C1339.98 69.5246 1339.87 62.9385 1339.36 56.4303C1339.17 53.8192 1338.85 51.1302 1337.41 48.9868C1335.27 45.8301 1331.37 44.8559 1327.44 44.5441V44.5051ZM1315.98 74.7857H1276.85C1274.67 74.7857 1272.91 73.032 1272.91 70.8496V61.9252C1272.91 59.47 1274.9 57.4435 1277.4 57.4435H1316.29C1318.43 57.4435 1320.15 59.1583 1320.15 61.3017V70.6158C1320.15 72.9151 1318.28 74.7857 1315.98 74.7857Z" fill="white"/>
<path d="M1272.88 138.815V185.892C1272.88 188.075 1273.77 190.218 1275.37 191.699C1277.28 193.492 1279.38 194.388 1281.72 194.388H1331.29C1331.88 194.388 1332.42 194.193 1332.97 193.843C1333.48 193.492 1333.75 193.024 1333.75 192.479V182.97C1333.75 181.567 1332.93 180.865 1331.33 180.865H1323.81C1321.43 180.865 1319.52 178.956 1319.52 176.578V167.771H1330.24C1330.98 167.771 1331.64 167.537 1332.23 167.03C1332.81 166.524 1333.12 165.744 1333.12 164.614V157.015C1333.12 155.456 1332.15 154.677 1330.24 154.677H1319.52V143.492H1331.14C1331.88 143.492 1332.54 143.258 1333.12 142.751C1333.71 142.245 1334.02 141.465 1334.02 140.335V132.736C1334.02 131.177 1333.05 130.398 1331.14 130.398H1319.52V123.928C1319.52 121.317 1321.63 119.213 1324.24 119.213H1332.89C1333.63 119.213 1334.29 118.979 1334.88 118.472C1335.46 117.966 1335.77 117.186 1335.77 116.056V108.457C1335.77 106.898 1334.8 106.118 1332.89 106.118H1319.06L1315.98 94.6999C1315.67 93.7257 1315.2 93.1021 1314.54 92.9073C1313.87 92.7124 1312.94 92.5955 1311.77 92.5955H1302.57C1301.68 92.5955 1300.9 92.9073 1300.23 93.5308C1299.57 94.1543 1299.38 95.0507 1299.69 96.1808L1302.1 106.118H1293.26L1295.91 95.986C1296.22 94.8558 1296.06 93.9595 1295.48 93.3359C1294.89 92.7124 1294.08 92.4006 1293.06 92.4006H1282.42C1281.25 92.4006 1280.12 92.6734 1279.11 93.258C1278.06 93.8036 1277.4 94.583 1277.12 95.5963L1265.59 136.75C1266.33 137.724 1266.48 137.919 1267.22 138.932H1272.88V138.815ZM1297.12 119.174H1301.6C1303.9 119.174 1305.77 121.044 1305.77 123.344V130.398H1292.83V123.5C1292.83 121.122 1294.78 119.174 1297.15 119.174H1297.12ZM1292.79 143.492H1305.73V154.677H1292.79V143.492ZM1292.79 167.81H1305.73V177.124C1305.73 179.345 1303.94 181.138 1301.71 181.138H1296.84C1294.58 181.138 1292.75 179.306 1292.75 177.046V167.81H1292.79Z" fill="white"/>
<path d="M1606.39 157.833V115.783C1606.39 111.847 1605.11 108.652 1602.53 106.274C1600.47 104.014 1597.66 102.884 1594.08 102.884H1529.19C1526.5 102.884 1524.12 103.663 1522.06 105.222C1519.1 107.483 1517.62 110.717 1517.62 114.965V159.353C1517.62 162.588 1518.82 165.355 1521.28 167.576C1523.46 169.564 1526.11 170.538 1529.19 170.538H1594.08C1597.78 170.538 1600.82 169.252 1603.12 166.719C1605.3 164.614 1606.39 161.652 1606.39 157.833ZM1578.33 155.495H1545.67C1541.86 155.495 1538.78 152.104 1538.78 147.896V125.448C1538.78 121.239 1541.86 117.849 1545.67 117.849H1578.33C1582.15 117.849 1585.23 121.239 1585.23 125.448V147.896C1585.23 152.104 1582.15 155.495 1578.33 155.495Z" fill="white"/>
<path d="M1497.86 171.551C1498.09 140.335 1498.01 90.647 1498.01 90.647H1541.39C1543.77 90.647 1546.03 90.2183 1548.17 89.3609C1550.27 88.5036 1552.11 87.3344 1553.66 85.7756C1556.63 82.8138 1558.11 79.2284 1558.11 74.9806V25.2923C1558.11 23.6166 1557.72 21.9019 1556.94 20.2261C1556.16 18.5503 1555.14 16.9915 1553.86 15.5885C1551.33 12.7826 1548.44 11.3796 1545.21 11.3796H1489.4C1485.19 11.3796 1481.57 13.0164 1478.61 16.251C1476.07 19.2128 1474.79 22.6813 1474.79 26.6174C1474.79 26.6174 1473.62 186.789 1473.58 195.674C1486.91 195.674 1497.74 184.918 1497.86 171.59V171.551ZM1502.88 26.8122H1530.09C1532.74 26.8122 1534.88 28.9556 1534.88 31.6057V42.8683H1498.01V31.6836C1498.01 28.9946 1500.2 26.8122 1502.88 26.8122ZM1498.01 58.3009H1534.88V68.8621C1534.88 72.3695 1532.03 75.2144 1528.53 75.2144H1503.51C1500.47 75.2144 1498.01 72.7592 1498.01 69.7195V58.3009Z" fill="white"/>
<path d="M1645.75 16.212C1644.19 14.6532 1642.4 13.4451 1640.37 12.6267C1638.35 11.7693 1636.24 11.3406 1634.14 11.3406H1584.72C1580.09 11.3406 1576.27 13.0164 1573.3 16.4069C1571.04 18.94 1569.91 22.0577 1569.91 25.721V74.9805C1569.91 80.2027 1571.04 83.9829 1573.3 86.3991C1575.84 89.205 1579.85 90.6469 1585.35 90.6469H1627.01V179.657H1618.98C1609.43 179.657 1600.86 185.542 1597.39 194.466H1633.52C1638.74 194.466 1642.83 193.18 1645.79 190.647C1648.75 188.114 1650.23 184.567 1650.23 180.086V26.3835C1650.23 22.2915 1648.75 18.901 1645.79 16.251L1645.75 16.212ZM1622.68 75.1754H1594.97C1592.6 75.1754 1590.65 73.2268 1590.65 70.8496V58.2619H1626.97V70.8886C1626.97 73.2658 1625.06 75.1754 1622.68 75.1754ZM1626.97 42.8293H1590.65V31.6446C1590.65 28.9556 1592.83 26.7342 1595.56 26.7342H1622.21C1624.86 26.7342 1627.01 28.8777 1627.01 31.5277V42.8293H1626.97Z" fill="white"/>
<path d="M1356.04 195.635H1363.45C1372.56 195.635 1380.36 189.127 1382.03 180.164C1383.67 171.356 1384.72 161.691 1385.19 153.858H1365.51C1364.34 167.108 1360.41 185.581 1356.04 195.674V195.635Z" fill="white"/>
<path d="M1419.64 195.635H1410.56C1402.53 195.635 1395.6 189.984 1394.04 182.112C1392.2 172.798 1391 162.276 1390.49 153.858H1410.17C1411.34 167.108 1415.28 185.581 1419.64 195.674V195.635Z" fill="white"/>
<path d="M1152.42 175.487V151.091H1193.26V150.779C1193.26 140.491 1184.92 132.151 1174.63 132.151H1152.46V112.198H1185.7C1189.09 112.198 1191.82 110.99 1193.92 108.613C1196.02 106.235 1197.08 103.546 1197.08 100.585V24.4739C1197.08 20.9665 1195.79 17.9268 1193.26 15.3936C1191 12.8605 1188.11 11.5745 1184.61 11.5745H1100.47C1097.66 11.5745 1094.97 12.7046 1092.44 14.965C1091.15 16.0951 1090.14 17.3812 1089.36 18.8621C1088.58 20.343 1088.19 21.8628 1088.19 23.4217V101.442C1088.19 104.832 1089.32 107.521 1091.58 109.47C1093.69 111.302 1096.22 112.198 1099.18 112.198H1132.62V132.151H1110.17C1100.35 132.151 1092.4 140.101 1092.4 149.922V151.091H1132.62V175.487H1105.92C1095.75 175.487 1087.49 183.749 1087.49 193.921V194.427H1200.62V193.921C1200.62 183.71 1192.36 175.448 1182.15 175.448H1152.42V175.487ZM1152.42 27.8644H1167.65C1171.24 27.8644 1174.12 30.7483 1174.12 34.3336V53.2346H1152.38V27.8644H1152.42ZM1152.42 69.7194H1174.16V87.5682C1174.16 91.7381 1170.81 95.0897 1166.64 95.0897H1152.42V69.7194ZM1132.62 95.0897H1118.16C1114.26 95.0897 1111.11 91.933 1111.11 88.0359V69.7194H1132.62V95.0897ZM1132.62 53.2346H1111.11V34.9961C1111.11 31.06 1114.3 27.8644 1118.24 27.8644H1132.66V53.2346H1132.62Z" fill="white"/>
<path d="M857.795 36.2432H878.411C878.411 28.9946 872.526 23.1489 865.316 23.1489H833.204L838.27 14.926C838.543 14.3804 838.465 13.64 838.075 12.8216C837.647 11.9642 836.867 11.5355 835.737 11.5355H816.524C814.693 11.5355 813.29 12.3149 812.316 13.8738C812.316 13.8738 787.257 55.8068 787.179 55.9237C785.659 58.4958 789.089 59.509 790.92 59.587C799.182 59.8208 809.665 56.5862 815.667 50.6626C819.798 46.5706 821.863 40.8418 825.41 36.2432C828.605 36.2432 857.795 36.2432 857.795 36.2432Z" fill="white"/>
<path d="M949.65 33.5542H971.902C971.902 26.3056 966.018 20.4599 958.808 20.4599H921.396L925.215 12.4319C925.488 11.7304 925.41 10.9899 924.981 10.2105C924.552 9.43109 923.773 9.04138 922.643 9.04138H904.092C903.235 9.04138 902.417 9.23624 901.559 9.66492C900.702 10.0936 900.156 10.6392 899.884 11.3407L882.97 47.7008C882.697 48.4023 882.775 49.1817 883.165 50.039C883.594 50.8964 884.217 51.3251 885.075 51.3251C889.361 51.3251 893.843 51.8707 898.091 50.8964C902.573 49.8442 906.353 46.7655 909.003 43.0632C910.406 41.1147 911.692 39.0881 913.017 37.1396C913.29 36.7499 915.004 33.5932 915.472 33.5932H949.689L949.65 33.5542Z" fill="white"/>
<path d="M342.869 60.3664H384.685C392.83 60.3664 399.455 66.9915 399.455 75.1365H357.639C349.494 75.1365 342.869 68.5114 342.869 60.3664Z" fill="white"/>
<path d="M342.869 89.8676H384.685C392.83 89.8676 399.455 96.4927 399.455 104.638H357.639C349.494 104.638 342.869 98.0125 342.869 89.8676Z" fill="white"/>
<path d="M389.751 26.7733H386.048L379.774 16.0172C374.864 8.65167 369.447 9.00241 367.03 9.00241H358.184C357.404 9.00241 356.664 9.31418 356.196 9.93772C355.495 10.873 355.378 11.9642 355.885 13.2113L361.808 26.7343H334.957C334.957 35.8535 342.323 43.2191 351.442 43.2191H406.274C406.274 34.0998 398.909 26.7343 389.789 26.7343L389.751 26.7733Z" fill="white"/>
<path d="M436.361 100.156H442.362C444.584 100.156 446.649 99.0647 447.857 97.2331L463.485 73.8114C467.966 67.0694 475.566 63.0164 483.672 63.0164H492.518L465.589 105.105C462.549 109.821 457.327 112.705 451.715 112.705H417.732L423.461 106.08C426.696 102.299 431.411 100.156 436.4 100.156H436.361Z" fill="white"/>
<path d="M435.659 138.737H453.04C455.69 138.737 458.223 137.451 459.782 135.308L475.604 113.718C480.71 106.742 488.816 102.65 497.428 102.65H508.691L478.722 145.752C475.721 150.078 470.811 152.611 465.55 152.611H416.836L419.603 147.935C422.954 142.245 429.073 138.737 435.698 138.737H435.659Z" fill="white"/>
<path d="M515.277 143.726C511.926 144.31 508.496 144.934 505.418 146.415C499.338 149.299 494.077 153.975 489.946 159.236L479.073 172.915C475.995 176.773 471.357 179.034 466.447 179.034H436.945C426.189 179.034 420.733 187.997 414.498 195.323C414.732 195.44 414.966 195.518 415.2 195.596C432.425 195.596 449.65 195.09 466.875 194.817C470.967 194.739 475.059 194.7 479.151 194.622C485.231 194.544 490.92 191.66 494.623 186.867C499.572 179.462 504.482 172.058 509.432 164.692C512.861 159.548 516.291 154.365 519.759 149.221C521.357 146.843 523.929 144.037 524.864 141.387C521.708 141.933 518.551 143.18 515.316 143.726H515.277Z" fill="white"/>
<path d="M1070.97 32.9307C1076.03 32.9307 1080.13 28.8387 1080.13 23.7725V16.0562H1080.09L1029.27 16.0172C1023.42 16.0172 1018.67 20.7717 1018.67 26.6174V32.9307H1040.3V87.6852H1033.44C1026.66 87.6852 1021.12 93.1801 1021.12 100V107.054H1040.3V166.602L1035.04 167.459C1027.36 168.667 1021.71 175.331 1021.71 183.087V188.893L1067.5 179.93C1074.86 178.488 1080.16 172.058 1080.16 164.536V158.028L1062.55 161.341V107.093H1069.29C1074.28 107.093 1078.29 103.079 1078.29 98.0905V87.7241H1062.55V32.9697H1071.01L1070.97 32.9307Z" fill="white"/>
<path d="M742.012 15.9003C738.699 15.9003 735.503 17.2643 733.36 19.7974C733.36 19.7974 733.36 19.7974 733.36 19.8364C733.048 20.2261 730.164 25.5261 730.827 25.5261C719.642 25.5261 708.496 25.5261 697.312 25.5261H693.025C686.945 25.5261 682.035 26.8512 678.216 29.5402C673.851 32.9307 671.669 38.4256 671.669 46.025C671.669 74.1622 671.357 102.338 671.63 130.475C671.747 142.323 672.994 156.703 669.798 168.161C666.446 180.281 662.588 188.075 651.949 198.168C653.508 198.948 655.496 198.675 657.366 198.675C681.723 198.675 695.987 173.11 695.753 151.403C695.558 134.139 695.753 116.875 695.753 99.6103V98.9088H712.316C716.992 98.9088 720.733 102.689 720.733 107.327V175.058C720.733 188.114 731.295 198.675 744.35 198.675V98.8699H762.355C762.588 98.8699 762.783 98.675 762.783 98.4412C762.783 89.244 755.301 81.7615 746.104 81.7615H695.714V50.3118C695.714 45.986 699.221 42.4396 703.586 42.4396H740.803C746.298 42.4396 750.819 41.0367 754.326 38.2307C757.288 35.6976 759.471 32.0343 760.874 27.2409L763.835 17.1084C763.913 16.6407 763.835 16.251 763.719 15.9782H742.012V15.9003Z" fill="white"/>
<path d="M639.712 16.0952C638.309 16.29 636.945 16.6407 635.659 17.2643C633.788 18.1996 632.19 19.7584 631.528 21.7849C631.099 23.1489 631.528 25.8769 629.384 25.8769H585.854C582.619 25.8769 579.93 26.9291 577.826 29.0336C575.838 31.0211 574.864 33.5542 574.864 36.633V130.904C574.864 141.894 575.176 153.546 574.123 164.731C572.954 176.968 574.045 185.737 565.082 198.519C566.914 198.909 568.94 198.792 570.889 198.792C584.022 198.792 592.206 189.049 594.973 176.968C595.869 172.993 596.688 139.79 596.064 139.79H644.661C646.493 139.79 647.974 139.556 649.104 139.049C650.234 138.543 651.364 137.763 652.494 136.633C654.599 134.529 655.651 131.839 655.651 128.605V77.0071C655.651 73.7725 654.521 70.8886 652.261 68.3555C650 65.8224 647.038 64.5363 643.375 64.5363H596.064V49.5324C596.064 45.5574 599.299 42.3617 603.235 42.3617H645.285C648.792 42.3617 651.91 41.1536 654.599 38.7764C656.976 36.6719 658.457 34.0609 659.042 30.9432L661.575 16.9915C661.653 16.6797 661.614 16.3679 661.575 16.0562C655.3 16.0562 649.026 15.8613 642.752 15.9003C641.777 15.9003 640.764 15.9782 639.79 16.0952H639.712ZM601.949 85.3859C601.949 83.0866 603.819 81.2549 606.08 81.2549H630.865C632.853 81.2549 634.451 82.8528 634.451 84.8403V118.706C634.451 121.122 632.463 123.11 630.047 123.11H605.573C603.547 123.11 601.91 121.473 601.91 119.447V85.3859H601.949Z" fill="white"/>
<path d="M834.606 33.7491H856.196C856.936 33.7491 857.638 34.1778 857.989 34.8403L865.666 49.2206C866.407 50.5846 865.393 52.2604 863.873 52.2604H851.208C844.855 52.2604 839.01 48.714 836.087 43.1022L832.774 36.7888C832.073 35.4248 833.047 33.7881 834.606 33.7881V33.7491Z" fill="white"/>
<path d="M955.223 48.5971L952.962 44.3882C952.962 44.1544 952.885 43.9205 952.768 43.6867L945.09 29.3063C944.74 28.6438 944.038 28.2151 943.298 28.2151H921.708C920.149 28.2151 919.174 29.8519 919.876 31.2159L922.136 35.5417C922.136 35.7366 922.214 35.9314 922.331 36.1263L925.644 42.4396C928.606 48.0904 934.412 51.5978 940.765 51.5978H953.43C954.989 51.5978 955.963 49.9611 955.223 48.5581V48.5971Z" fill="white"/>
<path d="M1424.9 47.9346C1422.8 45.8301 1419.68 44.7779 1415.59 44.7779H1392.71L1397.78 26.1887H1427.4V25.0975C1427.4 17.3032 1421.04 10.9509 1413.25 10.9509H1346.26C1343.84 18.4724 1351.91 26.1887 1359.78 26.1887H1374.78L1368.86 44.7779H1358.49C1355.1 44.7779 1352.14 46.0639 1349.61 48.5971C1347.5 50.9743 1346.45 53.7413 1346.45 56.82V144.544C1346.45 147.779 1347.31 150.195 1348.99 151.715C1350.97 153.391 1353.55 154.248 1356.82 154.248H1415.78C1419.6 154.248 1422.49 153.313 1424.43 151.481C1426.97 149.104 1428.25 145.713 1428.25 141.348V56.5862C1428.25 53.0788 1427.12 50.1559 1424.86 47.9346H1424.9ZM1405.49 133.203C1405.49 136.516 1402.81 139.244 1399.45 139.244H1375.56C1372.1 139.244 1369.25 136.438 1369.25 132.931V122.097H1405.49V133.203ZM1405.49 107.521H1369.25V91.894H1405.49V107.521ZM1405.49 77.085H1369.25V65.5495C1369.25 62.4708 1371.75 59.9766 1374.82 59.9766H1399.96C1403 59.9766 1405.49 62.4708 1405.49 65.5106V77.085Z" fill="white"/>
<path d="M179.969 51.7927L179.775 50.039L179.58 48.4801C179.385 47.272 179.19 46.1808 178.956 45.0507C178.488 42.7904 177.943 40.569 177.202 38.3866C174.397 29.5791 169.408 21.1614 162.471 14.6532C155.573 8.06705 146.805 3.50743 137.647 1.44195C128.488 -0.662489 118.98 -0.350719 110.25 1.87064C103.001 3.70228 96.2593 6.74203 90.1798 10.6391C84.49 7.0538 78.2157 4.13096 71.4737 2.29932C63.2897 2.08627e-05 54.3653 -0.662489 45.5578 0.896358C36.7893 2.41623 28.2157 6.15746 21.1229 11.8473C14.0302 17.4981 8.53524 25.0585 5.06681 33.2424C3.35208 37.3344 2.06603 41.5823 1.24763 45.8691C0.507182 50.1949 0.0784989 54.3648 0.000556609 58.6906C-0.116357 67.2642 1.36455 76.0717 4.44327 84.1777C7.48302 92.3227 12.1596 99.6883 17.3817 106.002C18.7067 107.599 20.0317 109.119 21.3178 110.561L23.1884 112.666C23.734 113.289 24.2796 113.913 24.5914 114.341C24.7083 114.809 24.8642 115.394 24.9811 115.978C25.3318 117.615 25.6826 119.408 25.9943 121.2C26.3061 123.149 26.6568 125.292 27.0465 127.631C33.4378 167.225 40.3357 200.039 60.2889 200.039C76.6179 200.039 80.6319 183.671 83.5937 171.707C85.1915 165.277 87.3739 156.43 90.2188 156.43C93.0637 156.43 95.2461 165.277 96.8439 171.707C99.8057 183.671 103.82 200.039 120.188 200.039C130.905 200.039 139.478 189.595 146.337 168.161C150.546 154.988 153.508 139.322 154.404 125.877C149.494 127.942 142.167 130.475 136.205 132.073C135.114 141.115 133.165 150.896 130.632 159.626C126.072 175.136 121.513 181.099 119.798 182.385C117.421 181.489 115.355 173.11 113.952 167.459C111.146 156.041 106.859 138.815 90.2967 138.815C73.734 138.815 69.4472 156.041 66.6023 167.459C65.2772 172.798 63.0949 181.606 60.6786 182.385C59.7433 181.606 56.0021 177.747 51.7543 161.925C48.4807 149.805 46.1424 135.347 44.4666 124.786C44.0769 122.408 43.7262 120.226 43.3755 118.239C43.0637 116.329 42.7909 114.419 42.4012 112.354C42.2063 111.302 41.9725 110.288 41.6218 108.885C41.5048 108.535 41.4269 108.145 41.232 107.677C41.1541 107.444 41.0372 107.171 40.9203 106.82C40.7644 106.469 40.6085 106.118 40.2188 105.495L39.985 105.105L39.4783 104.365C39.2445 104.014 39.0107 103.702 38.8158 103.429C37.9974 102.377 37.296 101.559 36.6334 100.818L34.7628 98.675C33.5547 97.311 32.4246 95.947 31.3723 94.622C27.1245 89.283 23.734 83.6711 21.4737 77.6695C19.2133 71.707 18.1221 65.3547 18.2391 58.8854C18.278 55.6898 18.6288 52.2993 19.1744 49.1816C19.72 46.0639 20.6163 43.0632 21.7854 40.1793C24.1237 34.4505 27.7091 29.4622 32.3856 25.643C37.0232 21.8239 42.635 19.2518 48.7145 18.1216C54.755 16.9525 61.2242 17.1473 67.5765 18.4724C73.9678 19.7584 80.3591 22.0967 86.5555 25.2144L90.9592 27.3967L93.96 25.2144C100.546 22.0577 107.21 19.6025 113.952 18.3554C120.655 17.1084 127.397 17.0304 133.711 18.5113C139.985 19.9922 145.714 23.0709 150.273 27.4357C154.833 31.8005 158.223 37.4513 160.172 43.7257C160.679 45.2845 161.068 46.9213 161.38 48.5581C161.536 49.3375 161.692 50.2338 161.809 50.9743L162.004 52.3773L162.121 53.5854C162.471 56.9759 162.471 60.4053 162.199 63.7179C161.575 70.3819 159.587 76.8512 156.314 82.5799C153.04 88.3087 148.52 93.3749 143.142 97.2331C140.414 99.1816 137.608 100.818 134.49 102.182C131.333 103.585 128.021 104.755 124.591 105.768C117.771 107.677 110.679 108.73 103.898 108.535C97.1167 108.34 90.6085 106.898 85.3474 103.897C82.6974 102.416 80.3591 100.546 78.3326 98.3243C78.0598 98.0515 77.826 97.7397 77.5921 97.4279C84.9967 94.6999 92.3622 91.894 99.6498 88.9712C105.067 86.8278 110.406 84.6454 115.784 82.424C121.162 80.2027 126.462 77.9423 131.879 75.643L137.647 73.1099L137.101 66.9135C136.711 61.5355 134.958 56.1575 132.074 51.6758C129.19 47.1162 125.371 43.4139 121.123 40.6469C112.627 35.113 102.651 32.8137 92.8299 33.5932C91.5828 33.7101 90.3747 33.827 89.1666 34.0608C88.543 34.1777 87.9585 34.2557 87.296 34.4116L86.3996 34.6064L85.5423 34.8013C83.165 35.3858 80.8657 36.2042 78.6444 37.1006C74.2016 38.9712 69.9928 41.4264 66.2126 44.583C62.4324 47.7007 59.0419 51.5199 56.4308 55.9236C53.8197 60.3274 52.066 65.3547 51.4035 70.4599C50.702 75.5651 51.0528 80.6314 52.066 85.3858C53.0793 90.1013 54.794 94.622 56.7036 98.5971C58.847 102.962 61.4581 107.015 64.8096 110.678C68.1221 114.302 72.0582 117.42 76.3061 119.836C84.8797 124.669 94.3497 126.578 103.352 126.851C112.393 127.085 121.162 125.76 129.58 123.422C133.789 122.214 137.919 120.733 142.011 118.862C146.103 116.991 150.156 114.653 153.859 111.964C161.263 106.547 167.538 99.5324 172.058 91.4653C176.618 83.4373 179.307 74.357 180.047 65.2767C180.437 60.7171 180.398 56.1575 179.891 51.7148L179.969 51.7927ZM69.9538 81.6446C69.3303 78.6828 69.1744 75.76 69.5251 73.032C70.2266 67.537 73.1494 62.5487 77.826 58.6906C82.4246 54.8324 88.582 52.1824 94.3887 51.6758C100.312 51.1302 106.626 52.6111 111.419 55.6898C113.796 57.2487 115.784 59.1582 117.187 61.3017C117.46 61.7303 117.693 62.159 117.927 62.6267C114.965 63.8738 112.043 65.1208 109.081 66.3289C103.781 68.5113 98.4807 70.6547 93.1806 72.7592C85.4643 75.7989 77.7091 78.7607 69.9538 81.6446Z" fill="white"/>
<path d="M254.988 19.0569H245.012V188.465H254.988V19.0569Z" fill="white"/>
</g>
<defs>
<clipPath id="clip0_966_2252">
<rect width="1650.19" height="200" fill="white"/>
</clipPath>
</defs>
</svg>
