<?xml version="1.0" encoding="UTF-8"?>
<svg id="_圖層_2" data-name="圖層 2" xmlns="http://www.w3.org/2000/svg" viewBox="0 0 1551.83 676.4">
  <defs>
    <style>
      .cls-1 {
        fill: #221714;
      }

      .cls-2 {
        fill: #1b98d0;
      }
    </style>
  </defs>
  <g id="_圖層_1-2" data-name="圖層 1">
    <g>
      <circle class="cls-2" cx="9.49" cy="542.19" r="9.49"/>
      <circle class="cls-1" cx="55.02" cy="482.47" r="9.56"/>
      <circle class="cls-2" cx="148.97" cy="306.48" r="10.25"/>
      <circle class="cls-1" cx="130.31" cy="359.43" r="2.46"/>
      <circle class="cls-2" cx="59.6" cy="524.48" r="9.68"/>
      <circle class="cls-1" cx="118.2" cy="430.05" r="3.26"/>
      <circle class="cls-1" cx="219.32" cy="269.06" r="9.63"/>
      <circle class="cls-1" cx="187.91" cy="336.48" r="3.86"/>
      <circle class="cls-1" cx="205.38" cy="322.75" r="6.43"/>
      <circle class="cls-1" cx="134.61" cy="557.13" r="2.55"/>
      <circle class="cls-1" cx="199.32" cy="378.69" r="5.52"/>
      <circle class="cls-1" cx="185.92" cy="476.32" r="6.14"/>
      <circle class="cls-1" cx="242.97" cy="321.76" r="8.04"/>
      <circle class="cls-1" cx="212.81" cy="427.93" r="2.99"/>
      <circle class="cls-1" cx="230.35" cy="441.19" r="2.91"/>
      <circle class="cls-1" cx="262.39" cy="396.04" r="6.42"/>
      <circle class="cls-1" cx="287.93" cy="339.9" r="7.4"/>
      <circle class="cls-1" cx="322.14" cy="267" r="5.88"/>
      <circle class="cls-1" cx="277.22" cy="587.99" r="3.24"/>
      <circle class="cls-1" cx="308.28" cy="501.39" r="8.46"/>
      <circle class="cls-1" cx="353.76" cy="302.02" r="9"/>
      <circle class="cls-1" cx="341.82" cy="432.28" r="5.33"/>
      <circle class="cls-1" cx="349.68" cy="430.72" r="4.5"/>
      <circle class="cls-1" cx="350.19" cy="549.09" r="5.98"/>
      <circle class="cls-1" cx="389.25" cy="280.02" r="6.93"/>
      <circle class="cls-2" cx="367.67" cy="629.11" r="8.77"/>
      <circle class="cls-1" cx="412.43" cy="366.5" r="1.31"/>
      <circle class="cls-1" cx="427.03" cy="431.12" r="7.36"/>
      <circle class="cls-1" cx="432.38" cy="487.95" r="2.95"/>
      <circle class="cls-1" cx="447.31" cy="392.5" r="8.42"/>
      <circle class="cls-1" cx="446.42" cy="545.36" r="6.05"/>
      <circle class="cls-1" cx="449.14" cy="656.12" r="2.86"/>
      <circle class="cls-1" cx="462.99" cy="458.32" r="2.77"/>
      <circle class="cls-1" cx="479.82" cy="345.61" r="7.43"/>
      <circle class="cls-1" cx="491.88" cy="424.58" r="2.56"/>
      <circle class="cls-1" cx="495.42" cy="477.13" r="7.5"/>
      <circle class="cls-2" cx="504.13" cy="353.02" r="10.41"/>
      <circle class="cls-1" cx="524.99" cy="376.63" r="8.47"/>
      <circle class="cls-1" cx="523.19" cy="599.78" r="7.13"/>
      <circle class="cls-1" cx="526.26" cy="639.46" r="2.11"/>
      <circle class="cls-1" cx="547.57" cy="346.8" r="4.85"/>
      <circle class="cls-1" cx="551.96" cy="438.39" r="1.91"/>
      <circle class="cls-1" cx="554.4" cy="314.51" r="4.81"/>
      <circle class="cls-1" cx="564.7" cy="616.01" r="5.04"/>
      <circle class="cls-1" cx="567.17" cy="435.48" r="3.63"/>
      <circle class="cls-1" cx="586.48" cy="540.03" r="5.24"/>
      <circle class="cls-1" cx="604.89" cy="669.51" r="6.89"/>
      <circle class="cls-1" cx="622.09" cy="429.47" r="10.33"/>
      <circle class="cls-1" cx="636.31" cy="641.52" r="6.91"/>
      <circle class="cls-1" cx="638.49" cy="487.56" r="2.43"/>
      <circle class="cls-1" cx="652.73" cy="307.72" r="2.99"/>
      <circle class="cls-1" cx="665.79" cy="367.55" r="5.15"/>
      <circle class="cls-1" cx="686.87" cy="402.81" r="9.81"/>
      <circle class="cls-1" cx="687.14" cy="278.83" r="1.47"/>
      <circle class="cls-1" cx="738.03" cy="652.35" r="4.43"/>
      <circle class="cls-1" cx="741.36" cy="612.81" r="6.35"/>
      <circle class="cls-2" cx="717.27" cy="303.62" r="3.97"/>
      <circle class="cls-1" cx="754.57" cy="569.41" r="9.21"/>
      <circle class="cls-2" cx="744.88" cy="304.05" r="7.71"/>
      <circle class="cls-1" cx="773.75" cy="588.65" r="6.1"/>
      <circle class="cls-2" cx="762.43" cy="369.03" r="4.42"/>
      <circle class="cls-1" cx="803.66" cy="522.34" r="4.04"/>
      <circle class="cls-1" cx="792.11" cy="428.14" r="4.15"/>
      <circle class="cls-1" cx="788.28" cy="321.97" r="7.97"/>
      <circle class="cls-1" cx="836.8" cy="489.79" r="6.12"/>
      <circle class="cls-1" cx="814.72" cy="346.7" r="4.28"/>
      <circle class="cls-1" cx="854.39" cy="492.87" r="6.3"/>
      <circle class="cls-1" cx="857.71" cy="477.03" r="6.23"/>
      <circle class="cls-2" cx="865.96" cy="420.18" r="9.03"/>
      <circle class="cls-1" cx="924.32" cy="595.84" r="2.28"/>
      <circle class="cls-1" cx="947.47" cy="632.35" r="3.36"/>
      <circle class="cls-1" cx="922.21" cy="526.53" r="4.82"/>
      <circle class="cls-1" cx="854.35" cy="252.06" r="2.43"/>
      <circle class="cls-1" cx="961.68" cy="554.78" r="3.9"/>
      <circle class="cls-1" cx="965.94" cy="550.65" r="8.7"/>
      <circle class="cls-2" cx="938.17" cy="385.94" r="9.72"/>
      <circle class="cls-1" cx="934.22" cy="351.4" r="2.07"/>
      <circle class="cls-1" cx="966.31" cy="386.91" r="4.6"/>
      <circle class="cls-1" cx="1036.51" cy="543.68" r="2.28"/>
      <circle class="cls-2" cx="929.34" cy="268.24" r="9.91"/>
      <circle class="cls-1" cx="941.71" cy="271.96" r="2.67"/>
      <circle class="cls-2" cx="1017.53" cy="421.34" r="9.96"/>
      <circle class="cls-1" cx="1008.4" cy="352.08" r="3.71"/>
      <circle class="cls-1" cx="1006.62" cy="303.54" r="7.52"/>
      <circle class="cls-1" cx="1011.51" cy="272.51" r="1.75"/>
      <circle class="cls-1" cx="1081.61" cy="391.36" r="8.21"/>
      <circle class="cls-1" cx="1167.82" cy="541.13" r="1.48"/>
      <circle class="cls-1" cx="1060.64" cy="332.56" r="6.25"/>
      <circle class="cls-1" cx="1064.64" cy="332.07" r="4.96"/>
      <circle class="cls-1" cx="1049.18" cy="295.34" r="9.9"/>
      <circle class="cls-1" cx="1035.42" cy="251" r="7.57"/>
      <circle class="cls-1" cx="1028.28" cy="218.71" r="2.27"/>
      <circle class="cls-2" cx="1192.27" cy="479.37" r="9.89"/>
      <circle class="cls-1" cx="1129.49" cy="341.78" r="6.28"/>
      <circle class="cls-1" cx="1042.39" cy="182.9" r="7.81"/>
      <circle class="cls-2" cx="1244.69" cy="467.07" r="9.05"/>
      <circle class="cls-1" cx="1127.92" cy="286.27" r="8.59"/>
      <circle class="cls-1" cx="1075.35" cy="190.37" r="1.44"/>
      <circle class="cls-1" cx="1126.94" cy="238.02" r="3.08"/>
      <circle class="cls-1" cx="1113.4" cy="201.21" r="2.3"/>
      <circle class="cls-1" cx="1198.89" cy="314.42" r="5.47"/>
      <circle class="cls-1" cx="1098.45" cy="160.84" r="10.44"/>
      <circle class="cls-1" cx="1278.17" cy="394.63" r="2.62"/>
      <circle class="cls-1" cx="1260.64" cy="325.84" r="6.63"/>
      <circle class="cls-1" cx="1342.64" cy="399.5" r="8.74"/>
      <circle class="cls-1" cx="1197.61" cy="210.04" r="7.03"/>
      <circle class="cls-1" cx="1138.68" cy="114.99" r="8.27"/>
      <circle class="cls-1" cx="1245.46" cy="219.66" r="1.91"/>
      <circle class="cls-1" cx="1357.26" cy="326.93" r="3.31"/>
      <circle class="cls-1" cx="1252.45" cy="205.56" r="9.19"/>
      <circle class="cls-1" cx="1194.19" cy="139.35" r="3.85"/>
      <circle class="cls-1" cx="1323.92" cy="238.7" r="2.39"/>
      <circle class="cls-1" cx="1383.52" cy="264.56" r="3.22"/>
      <circle class="cls-1" cx="1451.65" cy="305.42" r="1.63"/>
      <circle class="cls-1" cx="1435.53" cy="277.1" r="5.92"/>
      <circle class="cls-1" cx="1246.03" cy="99.93" r="1.77"/>
      <circle class="cls-1" cx="1395.69" cy="213.13" r="9.27"/>
      <circle class="cls-1" cx="1307.74" cy="121.58" r="4.18"/>
      <circle class="cls-1" cx="1377.53" cy="140.6" r="2.28"/>
      <circle class="cls-1" cx="1264.23" cy="65.55" r="7.89"/>
      <circle class="cls-1" cx="1475.58" cy="187.79" r="9.57"/>
      <circle class="cls-1" cx="1393.74" cy="119.54" r="9.77"/>
      <circle class="cls-2" cx="1409.11" cy="118.47" r="6.64"/>
      <circle class="cls-1" cx="1241.97" cy="3.44" r="3.44"/>
      <circle class="cls-1" cx="1433.35" cy="115.2" r="3.57"/>
      <circle class="cls-1" cx="1529.66" cy="170.59" r="8.23"/>
      <circle class="cls-1" cx="1527.38" cy="128.17" r="7.18"/>
      <circle class="cls-1" cx="1391.97" cy="46.83" r="7.57"/>
      <circle class="cls-1" cx="1507.75" cy="88.72" r="2.95"/>
      <circle class="cls-1" cx="1507.57" cy="80.74" r="8.1"/>
      <circle class="cls-1" cx="1547.16" cy="56.77" r="4.67"/>
      <circle class="cls-1" cx="1460.63" cy="20.07" r="1.81"/>
      <circle class="cls-1" cx="1508.83" cy="13.26" r="2.68"/>
    </g>
  </g>
</svg>