<?xml version="1.0" encoding="UTF-8"?>
<svg width="152px" height="36px" viewBox="0 0 152 36" version="1.1" xmlns="http://www.w3.org/2000/svg" xmlns:xlink="http://www.w3.org/1999/xlink">
    <!-- Generator: Sketch 63.1 (92452) - https://sketch.com -->
    <title>Artboard</title>
    <desc>Created with Sketch.</desc>
    <g id="Artboard" stroke="none" stroke-width="1" fill="none" fill-rule="evenodd">
        <path d="M7.6858677,20.9543521 C7.6858677,22.5095198 8.06193247,23.7286802 8.81524275,24.6127982 C9.56796267,25.4973022 10.6085856,25.9392648 11.9365213,25.9392648 C12.5109499,25.9392648 13.0013494,25.9151402 13.4077198,25.866119 C13.8136966,25.8178698 14.1456805,25.7644097 14.4034747,25.7059317 L14.4034747,16.9606706 C14.0860532,16.7470232 13.6649237,16.5480436 13.1402828,16.3629597 C12.6148548,16.1786478 12.0551854,16.0860094 11.4606843,16.0860094 C10.1530179,16.0860094 9.19681763,16.52334 8.59228023,17.3978082 C7.98754603,18.2724694 7.6858677,19.4580484 7.6858677,20.9543521 L7.6858677,20.9543521 Z M18,28.1546743 C17.286638,28.3687077 16.3898682,28.5628624 15.3098873,28.7377174 C14.2297096,28.9125725 13.0956116,29 11.9066093,29 C10.6776588,29 9.57799893,28.8149161 8.60723623,28.4460994 C7.63607995,28.0772826 6.8089736,27.5475066 6.12532681,26.8575432 C5.44168002,26.1677729 4.91644879,25.332097 4.54982992,24.3505156 C4.18301425,23.3693202 4,22.2661509 4,21.0417796 C4,19.836901 4.15329904,18.7437675 4.46068427,17.7621861 C4.76787271,16.7811837 5.21871749,15.9404899 5.81321863,15.2408767 C6.40771977,14.5412635 7.13092126,14.0018377 7.98301988,13.6229851 C8.83472492,13.2437465 9.81552388,13.0544167 10.9256136,13.0544167 C11.6785303,13.0544167 12.3423013,13.1420372 12.9173203,13.3168922 C13.4917489,13.4917473 13.9872649,13.686288 14.4034747,13.8997424 L14.4034747,6.58265715 L18,6 L18,28.1546743 Z" id="Fill-1" fill="#231916"></path>
        <path d="M32.4108959,18.4992523 C32.4108959,18.0136028 32.3413799,17.5518788 32.2033299,17.1146592 C32.0648872,16.6776325 31.8624269,16.2988761 31.5955564,15.9781969 C31.3284895,15.6575177 31.002118,15.405335 30.616442,15.2204911 C30.230766,15.036033 29.7712538,14.943611 29.2373164,14.943611 C28.6835454,14.943611 28.1992903,15.0456804 27.783962,15.2496262 C27.3686337,15.4535719 27.0173229,15.7209975 26.7310115,16.0511312 C26.4441109,16.3816507 26.2216206,16.7604071 26.063737,17.1875935 C25.9050678,17.6151657 25.7966701,18.0523853 25.7373655,18.4992523 L32.4108959,18.4992523 Z M22,20.0729343 C22,18.7321403 22.2026566,17.5568955 22.6079699,16.5464281 C23.0130868,15.5365395 23.5521299,14.6958661 24.2245101,14.0255656 C24.8964976,13.3552651 25.6678496,12.8503208 26.5381735,12.5101539 C27.4079082,12.1703729 28.2978694,12 29.2076641,12 C31.3432174,12 33.0088508,12.6511987 34.2055461,13.9528243 C35.4016523,15.2546428 36,17.1976267 36,19.7815831 C36,19.9758815 35.9948943,20.1944913 35.9850757,20.4372196 C35.9748643,20.6805267 35.9601363,20.8991366 35.9406954,21.0928561 L25.7077132,21.0928561 C25.8062923,22.3169167 26.2461672,23.2640972 27.0275343,23.9345907 C27.8085085,24.6046983 28.9405973,24.9400415 30.4238004,24.9400415 C31.2937315,24.9400415 32.0894337,24.8624765 32.8112998,24.7067676 C33.5331659,24.5514447 34.101665,24.3860885 34.5169933,24.2112778 L34.9916261,27.0966186 C34.7936824,27.1940572 34.5215098,27.2961266 34.1758938,27.4026337 C33.8296887,27.5095268 33.4343905,27.6065795 32.9894099,27.6939849 C32.5444293,27.7813902 32.0648872,27.8541315 31.5509798,27.9125947 C31.0362869,27.9708649 30.5127572,28 29.9788198,28 C28.6144222,28 27.4279382,27.800492 26.4195643,27.4026337 C25.4109941,27.0045825 24.5805339,26.4508224 23.9279873,25.7413535 C23.2754408,25.0322705 22.7905966,24.1968067 22.4744365,23.2349621 C22.15808,22.2733105 22,21.2196228 22,20.0729343 L22,20.0729343 Z" id="Fill-3" fill="#231916"></path>
        <path d="M39,12.8389 C39.6938612,12.6393414 40.5960973,12.4495028 41.7071024,12.2697811 C42.8175166,12.0900593 44.0468897,12 45.3960095,12 C46.6649699,12 47.7261461,12.1749609 48.5791443,12.5242877 C49.4315517,12.8742096 50.1110354,13.3633861 50.6166106,13.9924124 C51.1225798,14.621637 51.4794564,15.3809913 51.6876345,16.2696819 C51.8962064,17.1585708 52,18.1325597 52,19.1908552 L52,28 L48.400509,28 L48.400509,19.7603709 C48.400509,18.9212725 48.3455595,18.2071462 48.2368421,17.617992 C48.1277308,17.0290362 47.9490955,16.5495797 47.7015271,16.179821 C47.4531709,15.8102606 47.1161864,15.5406779 46.6899827,15.3708746 C46.2633851,15.2012696 45.7426446,15.1159711 45.128155,15.1159711 C44.6718177,15.1159711 44.1957852,15.1461231 43.7002545,15.2060304 C43.2043299,15.2657393 42.8374087,15.3159265 42.599491,15.3557986 L42.599491,28 L39,28 L39,12.8389 Z" id="Fill-5" fill="#231916"></path>
        <path d="M57,8.5772207 L60.6889912,8 L60.6889912,12.5600627 L66.3597352,12.5600627 L66.3597352,15.4748266 L60.6889912,15.4748266 L60.6889912,21.6219118 C60.6889912,22.8340562 60.8920512,23.6999828 61.2989786,24.2195005 C61.7053006,24.7390183 62.3964313,24.9986816 63.3719672,24.9986816 C64.0429131,24.9986816 64.6373582,24.9316163 65.1555044,24.7965302 C65.6738525,24.6622084 66.0854225,24.5366758 66.3904162,24.4214609 L67,27.1919674 C66.5734932,27.3650763 66.0139679,27.5433441 65.3232409,27.7260065 C64.6321101,27.9084777 63.8188608,28 62.8840983,28 C61.7456703,28 60.7959711,27.8557426 60.0333858,27.5672278 C59.2714061,27.2785219 58.666263,26.8602709 58.2195713,26.3117106 C57.7720722,25.7633414 57.4573897,25.0995663 57.2743127,24.3203852 C57.0914376,23.5410131 57,22.6513939 57,21.6509544 L57,8.5772207 Z" id="Fill-7" fill="#231916"></path>
        <path d="M74.7919771,25.1919972 C75.9391317,25.1919972 76.8097727,25.1333196 77.4043073,25.0165454 L77.4043073,21.0969608 C77.1992112,21.0384769 76.9019439,20.979993 76.5129124,20.9213154 C76.123474,20.8630251 75.6933419,20.8335895 75.2221092,20.8335895 C74.8121205,20.8335895 74.3972485,20.8630251 73.9774933,20.9213154 C73.5575346,20.979993 73.1782696,21.0874717 72.8405121,21.2431706 C72.5023477,21.3994505 72.230514,21.618862 72.0258248,21.9014052 C71.8207287,22.1843357 71.7187911,22.5402743 71.7187911,22.9690272 C71.7187911,23.8077486 71.9953046,24.3875528 72.548535,24.709408 C73.101562,25.0312632 73.8493082,25.1919972 74.7919771,25.1919972 M74.4845364,12 C75.7138922,12 76.7481218,12.1464035 77.5886496,12.4388231 C78.4283635,12.7312427 79.0991986,13.1408238 79.601562,13.667179 C80.103315,14.193728 80.4622331,14.8327907 80.6772992,15.5832052 C80.8921618,16.3342007 81,17.1582043 81,18.0548287 L81,27.3272413 C80.4260158,27.4444028 79.5604614,27.5859648 78.4029299,27.7515402 C77.2453985,27.9167282 75.9391317,28 74.4845364,28 C73.5213172,28 72.6407062,27.9122741 71.8414825,27.7368224 C71.0424623,27.5611769 70.3612502,27.2788274 69.7978464,26.8886119 C69.234239,26.4987836 68.7939335,25.9919875 68.4763194,25.367449 C68.1582984,24.7438787 68,23.9735176 68,23.0567531 C68,22.179107 68.1790522,21.4383752 68.5379703,20.8335895 C68.8958712,20.2295784 69.3829744,19.7367255 69.9976523,19.35658 C70.6123302,18.9762409 71.3240625,18.7033805 72.1336631,18.5374178 C72.9426532,18.3720362 73.7878608,18.288958 74.6690822,18.288958 C75.078664,18.288958 75.5087961,18.3133586 75.959682,18.3617724 C76.4101609,18.4109609 76.8917705,18.4934581 77.4043073,18.6108132 L77.4043073,18.0255867 C77.4043073,17.6160056 77.3528298,17.2261774 77.2504852,16.855521 C77.1477337,16.4854456 76.9686815,16.158749 76.7127183,15.8758185 C76.4563482,15.5932753 76.1183873,15.3738638 75.6986321,15.2175839 C75.2784699,15.0616913 74.750673,14.9834546 74.1158517,14.9834546 C73.2553841,14.9834546 72.4661303,15.0421321 71.7493113,15.1589063 C71.0320854,15.2760678 70.4479278,15.4127885 69.9976523,15.5686811 L69.536593,12.7020007 C70.0076222,12.5461081 70.6937175,12.3904092 71.5956927,12.2341293 C72.497261,12.0782368 73.4598698,12 74.4845364,12" id="Fill-9" fill="#00A1E1"></path>
        <path d="M90.4924901,28 C89.4179842,27.9802394 88.5270751,27.8632255 87.8209486,27.6489585 C87.1142292,27.434304 86.5523715,27.1270458 86.1341897,26.7271839 C85.7166008,26.3275158 85.4227273,25.8300132 85.2537549,25.23487 C85.0843874,24.6399205 85,23.9618602 85,23.2010765 L85,5.5850692 L88.6118577,5 L88.6118577,22.5278594 C88.6118577,22.9573622 88.6464427,23.3178966 88.7166008,23.6106249 C88.7859684,23.9033532 88.9104743,24.1519108 89.0895257,24.3568787 C89.2687747,24.561653 89.5120553,24.7179943 89.8209486,24.8249341 C90.129249,24.9324551 90.522332,25.0153722 91,25.0736854 L90.4924901,28 Z" id="Fill-11" fill="#00A1E1"></path>
        <path d="M99.492671,28 C98.4181297,27.9802394 97.5271913,27.8632255 96.8208439,27.6489585 C96.1141013,27.434304 95.552225,27.1270458 95.1342271,26.7271839 C94.7164268,26.3275158 94.4227412,25.8300132 94.2535657,25.23487 C94.0843901,24.6399205 94,23.9618602 94,23.2010765 L94,5.5850692 L97.6119767,5 L97.6119767,22.5278594 C97.6119767,22.9573622 97.6465628,23.3178966 97.7165256,23.6106249 C97.7858955,23.9033532 97.9106031,24.1519108 98.0896604,24.3568787 C98.2689153,24.561653 98.512204,24.7179943 98.8211074,24.8249341 C99.1292203,24.9324551 99.5225139,25.0153722 100,25.0736854 L99.492671,28 Z" id="Fill-14" fill="#00A1E1"></path>
        <path d="M120.139001,27 C120.71238,27 121.181508,26.8021108 121.546385,26.4063325 C121.911263,26.0105541 122.093702,25.412489 122.093702,24.6121372 L122.093702,24.6121372 L122.093702,9.37467018 C122.093702,8.57431838 121.913435,7.97845207 121.552901,7.58707124 C121.192367,7.19569041 120.721067,7 120.139001,7 C119.565622,7 119.10301,7.19788918 118.751164,7.59366755 C118.399317,7.98944591 118.223394,8.58311346 118.223394,9.37467018 L118.223394,9.37467018 L118.223394,14.9155673 L109.870307,14.9155673 L109.870307,9.37467018 C109.870307,8.57431838 109.69004,7.97845207 109.329507,7.58707124 C108.968973,7.19569041 108.497673,7 107.915607,7 C107.324853,7 106.857896,7.19788918 106.514738,7.59366755 C106.171579,7.98944591 106,8.58311346 106,9.37467018 L106,9.37467018 L106,24.6121372 C106,25.4036939 106.173751,25.9995602 106.521253,26.3997361 C106.868756,26.799912 107.33354,27 107.915607,27 C108.488985,27 108.958114,26.8021108 109.322991,26.4063325 C109.687868,26.0105541 109.870307,25.412489 109.870307,24.6121372 L109.870307,24.6121372 L109.870307,18.1081794 L118.223394,18.1081794 L118.223394,24.6121372 C118.223394,25.4036939 118.397146,25.9995602 118.744648,26.3997361 C119.09215,26.799912 119.556935,27 120.139001,27 Z M127.801427,10.6807388 C128.279243,10.6807388 128.691902,10.5246262 129.039404,10.2124011 C129.386907,9.9001759 129.560658,9.46701847 129.560658,8.91292876 C129.560658,8.3412489 129.382563,7.9058927 129.026373,7.60686016 C128.670183,7.30782762 128.261868,7.15831135 127.801427,7.15831135 C127.323612,7.15831135 126.904437,7.323219 126.543903,7.6530343 C126.18337,7.9828496 126.003103,8.40281442 126.003103,8.91292876 C126.003103,9.47581354 126.179026,9.91116974 126.530872,10.2189974 C126.882718,10.526825 127.306236,10.6807388 127.801427,10.6807388 Z M127.762333,27 C128.283587,27 128.713621,26.8153034 129.052436,26.4459103 C129.39125,26.0765172 129.560658,25.5312225 129.560658,24.8100264 L129.560658,24.8100264 L129.560658,14.4010554 C129.560658,13.759015 129.39125,13.2576957 129.052436,12.8970976 C128.713621,12.5364996 128.283587,12.3562005 127.762333,12.3562005 C127.24108,12.3562005 126.817561,12.5364996 126.491778,12.8970976 C126.165994,13.2576957 126.003103,13.7941953 126.003103,14.5065963 L126.003103,14.5065963 L126.003103,24.8100264 C126.003103,25.5136324 126.165994,26.0545295 126.491778,26.4327177 C126.817561,26.8109059 127.24108,27 127.762333,27 Z M140.415762,27 C141.98821,27 143.347813,26.7361478 144.49457,26.2084433 C145.641328,25.6807388 146.512256,24.9507476 147.107353,24.0184697 C147.702451,23.0861917 148,22.0351803 148,20.8654354 C148,19.8891821 147.828421,19.0646438 147.485262,18.3918206 C147.142104,17.7189974 146.664288,17.1627089 146.051815,16.7229551 C145.439342,16.2832014 144.696556,15.9094107 143.823456,15.6015831 C142.950357,15.2937555 141.975178,15.0123131 140.897921,14.7572559 C140.037853,14.5373791 139.421036,14.3702726 139.047471,14.2559367 C138.673906,14.1416007 138.304685,13.9832894 137.939808,13.7810026 C137.57493,13.5787159 137.288241,13.3368514 137.079739,13.055409 C136.871238,12.7739666 136.766987,12.4397537 136.766987,12.0527704 C136.766987,11.4283201 137.073224,10.8940193 137.685697,10.4498681 C138.298169,10.0057168 139.10394,9.78364116 140.10301,9.78364116 C141.180267,9.78364116 141.962147,9.98812665 142.44865,10.3970976 C142.935154,10.8060686 143.352156,11.3755497 143.699659,12.1055409 C143.968973,12.6156552 144.21874,12.9828496 144.448961,13.207124 C144.679181,13.4313984 145.015824,13.5435356 145.458889,13.5435356 C145.945392,13.5435356 146.351536,13.3566403 146.677319,12.9828496 C147.003103,12.6090589 147.165994,12.1890941 147.165994,11.7229551 C147.165994,11.2128408 147.035681,10.6895339 146.775054,10.1530343 C146.514428,9.61653474 146.101769,9.10422164 145.537077,8.61609499 C144.972386,8.12796834 144.262178,7.73658751 143.406454,7.44195251 C142.550729,7.1473175 141.536457,7 140.363636,7 C138.895439,7 137.618368,7.22207564 136.532423,7.66622691 C135.446478,8.11037819 134.616817,8.74582234 134.043438,9.57255937 C133.470059,10.3992964 133.18337,11.3447669 133.18337,12.408971 C133.18337,13.5259455 133.454856,14.4604222 133.997828,15.2124011 C134.5408,15.9643799 135.274899,16.5580475 136.200124,16.9934037 C137.125349,17.4287599 138.274279,17.8091469 139.646913,18.1345646 C140.672045,18.3720317 141.490847,18.5963061 142.10332,18.8073879 C142.715793,19.0184697 143.215327,19.3240985 143.601924,19.7242744 C143.98852,20.1244503 144.181818,20.6455585 144.181818,21.2875989 C144.181818,22.0967458 143.823456,22.7717678 143.106733,23.3126649 C142.390009,23.853562 141.458269,24.1240106 140.311511,24.1240106 C139.477505,24.1240106 138.80422,23.9898857 138.291654,23.7216359 C137.779088,23.4533861 137.381632,23.112577 137.099286,22.6992084 C136.816941,22.2858399 136.554142,21.7713281 136.31089,21.1556728 C136.111077,20.6367634 135.869997,20.2453826 135.587651,19.9815303 C135.305306,19.7176781 134.959975,19.585752 134.55166,19.585752 C134.047782,19.585752 133.632951,19.7550572 133.307167,20.0936675 C132.981384,20.4322779 132.818492,20.8390501 132.818492,21.3139842 C132.818492,22.1319261 133.089978,22.9740545 133.632951,23.8403694 C134.175923,24.7066843 134.881787,25.3992964 135.750543,25.9182058 C136.975489,26.6394019 138.530562,27 140.415762,27 Z" id="HiS" fill="#343539" fill-rule="nonzero"></path>
    </g>
</svg>