<?xml version="1.0" encoding="UTF-8"?>
<svg width="168px" height="39px" viewBox="0 0 168 39" version="1.1" xmlns="http://www.w3.org/2000/svg" xmlns:xlink="http://www.w3.org/1999/xlink">
    <!-- Generator: Sketch 63.1 (92452) - https://sketch.com -->
    <title>Logo/Graph/dentall/Color</title>
    <desc>Created with Sketch.</desc>
    <g id="Page-1" stroke="none" stroke-width="1" fill="none" fill-rule="evenodd">
        <g id="Logo/Graph/dentall/Color" transform="translate(-0.016935, 0.500000)">
            <path d="M48.9586392,27.0425618 C48.9586392,29.0054079 49.4241696,30.5441643 50.3562044,31.660049 C51.2875087,32.7764208 52.5747783,33.3342413 54.2177696,33.3342413 C54.9287261,33.3342413 55.535474,33.3037925 56.0380131,33.2419208 C56.5403087,33.1810233 56.9510566,33.113549 57.2702566,33.0397413 L57.2702566,22.0019592 C56.8775261,21.7323054 56.3564827,21.4811643 55.7071261,21.2475618 C55.0572827,21.0149336 54.364587,20.8980105 53.6292827,20.8980105 C52.0111261,20.8980105 50.8280653,21.4499849 50.0803435,22.55369 C49.3321348,23.6576387 48.9586392,25.1540105 48.9586392,27.0425618 L48.9586392,27.0425618 Z M61.7198218,36.1304079 C60.8372131,36.400549 59.7276827,36.6456002 58.3917174,36.8662925 C57.0552653,37.0869849 55.6518566,37.197331 54.1810044,37.197331 C52.6602392,37.197331 51.2996827,36.9637284 50.0988479,36.4982284 C48.8972827,36.0327284 47.8739435,35.3640746 47.0278566,34.4932413 C46.1820131,33.6226515 45.5324131,32.5679079 45.0785696,31.3290105 C44.6249696,30.0906002 44.3985348,28.6982413 44.3985348,27.1529079 C44.3985348,25.6321772 44.5879609,24.2524849 44.968274,23.0135874 C45.3483435,21.7754208 45.9061522,20.7143438 46.6417,19.831331 C47.3774914,18.9483182 48.2720305,18.2674849 49.3265348,17.7893182 C50.3803087,17.3106643 51.5938044,17.0717028 52.9672653,17.0717028 C53.8985696,17.0717028 54.7198218,17.1822925 55.4312653,17.4029849 C56.1422218,17.6236772 56.7550566,17.8692156 57.2702566,18.1386259 L57.2702566,8.90340793 L61.7198218,8.1680105 L61.7198218,36.1304079 Z" id="Fill-156" fill="#231916"></path>
            <path d="M80.1445279,25.2030451 C80.1445279,24.5899297 80.0583366,24.0070195 79.8869279,23.4550451 C79.7152757,22.9033143 79.4642496,22.4251477 79.1333627,22.0203015 C78.8022322,21.6154554 78.3975714,21.2970836 77.9196235,21.0637246 C77.4414322,20.8308528 76.8716931,20.7141733 76.2096757,20.7141733 C75.523067,20.7141733 74.9224061,20.8430323 74.4074496,21.1005066 C73.8927366,21.357981 73.457154,21.6955964 73.1019192,22.1123784 C72.7461974,22.5296477 72.4703366,23.0078143 72.27458,23.547122 C72.0780931,24.0869169 71.9434496,24.6388913 71.8699192,25.2030451 L80.1445279,25.2030451 Z M67.2360409,27.1897631 C67.2360409,25.4970579 67.4873105,24.0133528 67.9900931,22.7376733 C68.4923887,21.4627246 69.1607366,20.4014041 69.9944061,19.5551733 C70.8273453,18.7089425 71.7837279,18.0714682 72.8628235,17.6420195 C73.9414322,17.2130579 75.0448757,16.9979682 76.1729105,16.9979682 C78.8207366,16.9979682 80.8859192,17.8200836 82.3694322,19.46334 C83.8524583,21.10684 84.5943366,23.5597887 84.5943366,26.8219425 C84.5943366,27.0672374 84.5882496,27.3432246 84.5760757,27.6496605 C84.5634148,27.9568272 84.5449105,28.2328143 84.5210496,28.4773784 L71.833154,28.4773784 C71.95538,30.0227118 72.5007714,31.2184938 73.4695714,32.0649682 C74.4381279,32.9109554 75.84178,33.3343143 77.6805279,33.3343143 C78.7591366,33.3343143 79.7457105,33.2363913 80.64098,33.0398143 C81.5357627,32.8437246 82.2408757,32.6349682 82.7558322,32.4142759 L83.3443192,36.0569169 C83.0988931,36.1799297 82.7614322,36.3087887 82.332667,36.4432502 C81.9036583,36.578199 81.4135366,36.7007246 80.8618148,36.8110708 C80.3100931,36.9214169 79.7152757,37.0132502 79.0780931,37.0870579 C78.44018,37.160622 77.7908235,37.1974041 77.1288061,37.1974041 C75.4373627,37.1974041 73.9660235,36.9455323 72.7157627,36.4432502 C71.4655018,35.9407246 70.4355887,35.241622 69.626754,34.3459425 C68.8176757,33.4507502 68.2165279,32.3960066 67.8245279,31.1817118 C67.4320409,29.9676605 67.2360409,28.6374169 67.2360409,27.1897631 L67.2360409,27.1897631 Z" id="Fill-157" fill="#231916"></path>
            <path d="M90.2210705,18.1018195 C91.0788444,17.8567682 92.1944618,17.6236528 93.5679227,17.4029605 C94.9406531,17.1822682 96.4604444,17.0716784 98.128027,17.0716784 C99.6967574,17.0716784 101.008862,17.2865246 102.063123,17.7154861 C103.116897,18.1451784 103.95714,18.7458708 104.582149,19.5182938 C105.207401,20.2909605 105.648584,21.223422 105.906184,22.3147041 C106.163784,23.4062297 106.29234,24.6022554 106.29234,25.9018066 L106.29234,36.71914 L101.842288,36.71914 L101.842288,26.6011528 C101.842288,25.5707682 101.774601,24.6938451 101.640201,23.9703836 C101.505314,23.2471656 101.284479,22.6584092 100.978427,22.2043579 C100.671401,21.7505502 100.25481,21.4195118 99.7276792,21.210999 C99.2003053,21.0027297 98.5567922,20.8979861 97.7968966,20.8979861 C97.2330009,20.8979861 96.6442705,20.9350118 96.0316792,21.0085759 C95.4188444,21.0818964 94.9652444,21.1435246 94.6711227,21.1924861 L94.6711227,36.71914 L90.2210705,36.71914 L90.2210705,18.1018195 Z" id="Fill-158" fill="#231916"></path>
            <path d="M112.43369,12.398872 L116.883255,11.6629874 L116.883255,17.4765002 L123.723777,17.4765002 L123.723777,21.1924618 L116.883255,21.1924618 L116.883255,29.029231 C116.883255,30.5745643 117.128194,31.6785131 117.619046,32.3408336 C118.109411,33.0031541 118.942837,33.3341925 120.119811,33.3341925 C120.92889,33.3341925 121.645933,33.2486925 122.271185,33.0764746 C122.896437,32.905231 123.39289,32.7451925 123.760542,32.5983079 L124.49609,36.1303592 C123.981377,36.3510515 123.306455,36.5783208 122.473272,36.8111925 C121.639846,37.0438208 120.658629,37.1605002 119.531324,37.1605002 C118.158107,37.1605002 117.012298,36.97659 116.092681,36.6087695 C115.173307,36.2407054 114.443603,35.7074874 113.904542,35.0081413 C113.364994,34.3090387 112.985411,33.4628079 112.764577,32.469449 C112.543985,31.4758464 112.43369,30.3416925 112.43369,29.0662566 L112.43369,12.398872 Z" id="Fill-159" fill="#231916"></path>
            <path d="M135.712987,33.5916669 C137.085717,33.5916669 138.127317,33.5178592 138.838761,33.3709746 L138.838761,28.4407182 C138.593335,28.3671541 138.237613,28.29359 137.772326,28.2197823 C137.306309,28.1464618 136.791596,28.1094361 136.227457,28.1094361 C135.737091,28.1094361 135.240396,28.1464618 134.7381,28.2197823 C134.235561,28.29359 133.781961,28.4287823 133.377544,28.6246284 C132.972883,28.8212054 132.647596,29.0971925 132.4029,29.45259 C132.157474,29.8084746 132.035248,30.2561925 132.035248,30.7955002 C132.035248,31.8504874 132.366135,32.5797951 133.028152,32.9846413 C133.689926,33.3894874 134.584952,33.5916669 135.712987,33.5916669 M135.344848,16.99809 C136.816187,16.99809 138.053787,17.1822438 139.059352,17.5500643 C140.06443,17.9178849 140.867178,18.4330772 141.468326,19.0951541 C142.068744,19.7574746 142.497996,20.5613208 142.755352,21.505231 C143.012709,22.449872 143.141509,23.4863464 143.141509,24.6141669 L143.141509,36.2774874 C142.454657,36.4248592 141.419144,36.6029233 140.033996,36.8111925 C138.648604,37.0189746 137.085717,37.1237182 135.344848,37.1237182 C134.192222,37.1237182 133.138448,37.013372 132.182309,36.7926797 C131.22617,36.5717438 130.410761,36.21659 129.736813,35.7257566 C129.062135,35.2354105 128.535248,34.5979361 128.155178,33.8123592 C127.774865,33.0280002 127.585439,32.0590002 127.585439,30.9058464 C127.585439,29.8018977 127.799457,28.8701669 128.228952,28.1094361 C128.657474,27.3496797 129.240361,26.7297438 129.975909,26.2515772 C130.711213,25.7731669 131.5629,25.429949 132.5317,25.2211925 C133.49977,25.0131669 134.511178,24.9086669 135.565683,24.9086669 C136.055804,24.9086669 136.570761,24.9393592 137.110065,25.0002566 C137.64937,25.0621284 138.225683,25.1658977 138.838761,25.3135131 L138.838761,24.5773849 C138.838761,24.0621925 138.777404,23.5718464 138.654935,23.1056156 C138.531978,22.6401156 138.317474,22.2291797 138.011178,21.8732951 C137.704639,21.5178977 137.299978,21.2419105 136.797683,21.0453336 C136.295144,20.8492438 135.663561,20.7508336 134.903665,20.7508336 C133.873996,20.7508336 132.929787,20.8246413 132.072013,20.9715259 C131.213509,21.1188977 130.514726,21.290872 129.975909,21.4869618 L129.424187,17.8811028 C129.987839,17.6850131 130.808848,17.4891669 131.888187,17.29259 C132.966796,17.0965002 134.118935,16.99809 135.344848,16.99809" id="Fill-160" fill="#00A1E1"></path>
            <path d="M155.829185,37.0870823 C154.505394,37.0622361 153.407794,36.9151079 152.537603,36.6456977 C151.666924,36.3758002 150.974716,35.9894669 150.459759,35.4866977 C149.945046,34.984172 149.583237,34.3586336 149.37482,33.6103259 C149.166403,32.8622618 149.062437,32.0096977 149.062437,31.0531208 L149.062437,8.90350537 L153.512246,8.16786434 L153.512246,30.2066464 C153.512246,30.7466849 153.554855,31.2000054 153.641046,31.5680695 C153.726507,31.9361336 153.880142,32.2486592 154.100733,32.5063772 C154.321568,32.7638515 154.62129,32.9604284 155.001846,33.09489 C155.381429,33.2300823 155.86595,33.3343387 156.454194,33.4076592 L155.829185,37.0870823 Z" id="Fill-161" fill="#00A1E1"></path>
            <path d="M167.303342,37.0870823 C165.97955,37.0622361 164.88195,36.9151079 164.011516,36.6456977 C163.141081,36.3758002 162.448872,35.9894669 161.933916,35.4866977 C161.418959,34.984172 161.05715,34.3586336 160.848977,33.6103259 C160.640559,32.8622618 160.53635,32.0096977 160.53635,31.0531208 L160.53635,8.90350537 L164.986403,8.16786434 L164.986403,30.2066464 C164.986403,30.7466849 165.028768,31.2000054 165.114959,31.5680695 C165.20042,31.9361336 165.354055,32.2486592 165.574646,32.5063772 C165.795481,32.7638515 166.095446,32.9604284 166.476003,33.09489 C166.855585,33.2300823 167.339864,33.3343387 167.92835,33.4076592 L167.303342,37.0870823 Z" id="Fill-162" fill="#00A1E1"></path>
            <path d="M13.2659922,15.4879797 C13.1466879,14.9252874 13.1160096,14.3772105 13.1875922,13.856172 C13.32394,12.816531 13.8776096,11.8689669 14.758514,11.13089 C15.632114,10.3989028 16.7961835,9.89296691 17.8984096,9.80235152 C19.0242531,9.69858229 20.2190009,9.97530024 21.1262009,10.5655182 C21.5798009,10.8580695 21.9569487,11.2219925 22.2213661,11.6292746 C22.2746879,11.7108772 22.3202183,11.7956464 22.3642879,11.8804156 C21.8062357,12.1169413 21.2455053,12.3515182 20.6864792,12.5836592 C19.6826183,12.998249 18.6772966,13.4062618 17.6685661,13.8067233 C16.2057487,14.3857361 14.7378183,14.9494028 13.2659922,15.4879797 M34.1262357,9.82354383 L34.0875227,9.49494126 L34.0466183,9.20019767 C34.0122879,8.96781306 33.97674,8.7673387 33.932914,8.54981306 C33.8469661,8.1237746 33.7371574,7.69968485 33.6037314,7.28095409 C33.0744096,5.60724896 32.1280096,4.0149028 30.8117661,2.77551819 C29.5030705,1.52980024 27.8410879,0.663595111 26.1043574,0.270684854 C24.3661661,-0.131725402 22.5656444,-0.0688792481 20.9107227,0.349364342 C19.5365314,0.699646393 18.2541314,1.27378742 17.1088096,2.01356947 C16.029227,1.33103101 14.8408096,0.777351521 13.5615748,0.429505367 C12.0001487,0.00103100829 10.3050531,-0.128071556 8.63747048,0.166915624 C6.97354005,0.45556947 5.34856613,1.16514639 4.0072444,2.24692844 C2.66032266,3.32286434 1.61726179,4.75444126 0.961331352,6.3092746 C0.631661787,7.08681306 0.392566134,7.89455665 0.237227004,8.70912075 C0.0921139605,9.52319767 0.0120096127,10.3114541 0.00154004747,11.1335695 C-0.0235382134,12.7641592 0.257679178,14.4300695 0.844218308,15.9685823 C1.42077483,17.5114797 2.3070357,18.9079797 3.29945309,20.1093643 C3.54560961,20.4106849 3.798827,20.7003131 4.04400961,20.9750823 L4.39827048,21.37189 C4.50491396,21.4914925 4.60474005,21.6067105 4.66853135,21.6870951 C4.69190526,21.7718643 4.71893135,21.8851336 4.74327918,21.9964541 C4.81120961,22.3063002 4.87500092,22.6473259 4.93757483,22.992249 L4.93806179,22.992249 C4.99966179,23.3590951 5.0656444,23.7693002 5.137227,24.2114156 C6.35047918,31.725672 7.66160961,37.9457361 11.4374705,37.9457361 C14.5330531,37.9457361 15.3000096,34.8389925 15.8600096,32.5709284 C16.1626531,31.3464028 16.5765661,29.6688002 17.1175748,29.6688002 C17.6590705,29.6688002 18.0729835,31.3464028 18.3748966,32.5704413 C18.9353835,34.8389925 19.7020966,37.9457361 22.7984096,37.9457361 C24.8331574,37.9457361 26.4542357,35.9682746 27.75514,31.9005695 C28.5542357,29.39939 29.1139922,26.430031 29.2817487,23.87989 C28.34874,24.2713387 26.9635922,24.7519413 25.82874,25.0583772 C25.6232444,26.7747105 25.2521835,28.6303772 24.7674183,30.2845951 C23.9064792,33.2261849 23.0396966,34.3547361 22.7168444,34.5997874 C22.2627574,34.4261079 21.8714879,32.8410695 21.6070705,31.7719541 C21.0728792,29.6081464 20.2655053,26.3379541 17.1175748,26.3379541 C13.9701314,26.3379541 13.1627574,29.6081464 12.6285661,31.7721977 C12.3777835,32.7879669 11.9658183,34.4572874 11.5029661,34.6046592 C11.3225487,34.4594797 10.614027,33.7253002 9.807627,30.7242746 C9.18919222,28.4218643 8.74654874,25.6812361 8.42345309,23.68039 C8.35089657,23.229749 8.28345309,22.8119925 8.21990526,22.4373515 L8.21990526,22.4363772 C8.16366179,22.0768387 8.10668787,21.712672 8.03169657,21.3224413 C7.99274005,21.1231849 7.95475744,20.9280695 7.88268787,20.6666977 C7.86296613,20.5989797 7.84154005,20.5266336 7.80915744,20.4352874 C7.79260092,20.3899797 7.77385309,20.3398002 7.74634005,20.2754925 C7.71785309,20.2111849 7.68912266,20.1437105 7.61827048,20.02289 L7.57395744,19.9485951 L7.48289657,19.8104797 C7.43785309,19.7456849 7.39597483,19.6881977 7.35653135,19.6368002 C7.2014357,19.4348643 7.07214874,19.2848131 6.94821831,19.1403643 L6.59420092,18.7323515 C6.36825309,18.4709797 6.15447918,18.2183772 5.95190526,17.9633387 C5.14380092,16.9487874 4.50247918,15.8847874 4.07225309,14.7474669 C3.6432444,13.6118515 3.43994005,12.4085182 3.45966179,11.1810695 C3.46574874,10.5733131 3.53416613,9.93510793 3.64105309,9.34245409 C3.74696613,8.75174896 3.90960961,8.17931306 4.13166179,7.63805665 C4.57430526,6.55481306 5.25920961,5.60115921 6.13914005,4.8794028 C7.01736613,4.15545409 8.08550526,3.66608229 9.23301831,3.45074896 C10.3810183,3.23224896 11.6018183,3.26659511 12.8145835,3.51310793 C14.0278357,3.76108229 15.2379227,4.20538998 16.4146531,4.79146691 L17.2519748,5.20897973 L17.821227,4.79146691 L17.821714,4.79097973 C19.0710009,4.19735152 20.3339227,3.72576178 21.6104792,3.49410793 C22.8824096,3.25612075 24.1592096,3.24345409 25.3510357,3.52309511 C26.5416444,3.80103101 27.6309661,4.3832105 28.4967748,5.2143387 C29.3645314,6.04278742 30.0046357,7.11409511 30.3744792,8.3042746 C30.4674879,8.60145409 30.544914,8.90594126 30.6057835,9.21651819 C30.6352444,9.36705665 30.6632444,9.5368387 30.6834531,9.67641562 L30.7182705,9.93973614 L30.7435922,10.1709028 C30.8090879,10.8169028 30.8124966,11.4614413 30.7550357,12.0952618 C30.6393835,13.3626592 30.2617487,14.5859669 29.6406357,15.6755438 C29.021714,16.7656079 28.1612618,17.7190182 27.1398705,18.4568515 C26.6266183,18.8283259 26.0895053,19.1371977 25.4973661,19.401249 C24.9025487,19.6691977 24.2678009,19.8928131 23.6238009,20.0772105 C22.3338531,20.4433259 20.9891227,20.6389284 19.7001487,20.6045823 C18.4119053,20.5704797 17.1835574,20.2927874 16.1835922,19.7261977 C15.6832444,19.44339 15.2379227,19.0916464 14.8534705,18.6719413 C14.8040444,18.6188387 14.7590009,18.5601336 14.7115227,18.5038643 C16.1149314,17.9867233 17.5088444,17.4520438 18.8949661,16.9025054 C19.9192792,16.4964413 20.9401835,16.0820951 21.9574357,15.6614156 C22.9778531,15.2392746 23.9856096,14.8151849 25.0099227,14.3708772 L26.1075227,13.8946592 L26.0030705,12.7188515 L26.0030705,12.7151977 C25.9327053,11.7013772 25.59914,10.6812233 25.0518009,9.8242746 C24.5088444,8.96318485 23.7813314,8.26091562 22.9780966,7.73354383 C21.3648096,6.68050537 19.4724966,6.25178742 17.6111053,6.39867203 C17.3780966,6.41767203 17.1453314,6.44495409 16.9137835,6.48344126 C16.7961835,6.50365921 16.68954,6.52217203 16.5580618,6.55018485 L16.3888444,6.58745409 L16.22474,6.62642844 C15.7730879,6.7392105 15.3372618,6.88682588 14.9140966,7.06245409 C14.0694705,7.41614639 13.2752444,7.8862746 12.5560096,8.47941562 C11.8387227,9.07255665 11.1976444,9.79455665 10.7043574,10.6334797 C10.2091227,11.4692361 9.87969657,12.4236208 9.75040961,13.3901849 C9.61795744,14.3574797 9.68174874,15.3252618 9.87336613,16.2245951 C10.0644966,17.1202746 10.3875922,17.979172 10.75354,18.7299156 C11.1560096,19.5617746 11.6583053,20.3249413 12.2915922,21.0189284 C12.9200096,21.708531 13.6672444,22.2997233 14.4748618,22.7545054 C16.0993487,23.6716208 17.8971922,24.0362746 19.6017835,24.0842618 C21.3173314,24.1293259 22.9776096,23.87989 24.5758009,23.4299797 C25.3753835,23.2039284 26.1584096,22.9199028 26.93194,22.5684028 C27.7098531,22.2169028 28.4797314,21.7711336 29.1794879,21.2574028 C30.5870357,20.227749 31.7783748,18.8950695 32.6342009,17.3667874 C33.4936792,15.8406977 34.0074183,14.1238772 34.1535053,12.3982874 C34.2282531,11.5362233 34.2160792,10.6719669 34.1262357,9.82354383" id="Fill-182" fill="#231916"></path>
        </g>
    </g>
</svg>