<?xml version="1.0" encoding="UTF-8"?>
<svg width="1108px" height="651px" viewBox="0 0 1108 651" version="1.1" xmlns="http://www.w3.org/2000/svg" xmlns:xlink="http://www.w3.org/1999/xlink">
    <!-- Generator: Sketch 63.1 (92452) - https://sketch.com -->
    <title>Artboard Copy 2</title>
    <desc>Created with Sketch.</desc>
    <defs>
        <linearGradient x1="100%" y1="0.15388142%" x2="-1.6%" y2="100.571001%" id="linearGradient-1">
            <stop stop-color="#C6EAFE" offset="0%"></stop>
            <stop stop-color="#D7FAF6" offset="100%"></stop>
        </linearGradient>
        <linearGradient x1="100%" y1="0.15388142%" x2="-1.6%" y2="100.571001%" id="linearGradient-2">
            <stop stop-color="#FEC6DC" offset="0%"></stop>
            <stop stop-color="#D7D7FA" offset="100%"></stop>
        </linearGradient>
        <linearGradient x1="100%" y1="0.153482035%" x2="-1.6%" y2="100.571802%" id="linearGradient-3">
            <stop stop-color="#FEC6DC" offset="0%"></stop>
            <stop stop-color="#D7D7FA" offset="100%"></stop>
        </linearGradient>
        <linearGradient x1="100%" y1="0.15188448%" x2="-1.5996%" y2="100.573012%" id="linearGradient-4">
            <stop stop-color="#FEC6DC" offset="0%"></stop>
            <stop stop-color="#D7D7FA" offset="100%"></stop>
        </linearGradient>
        <linearGradient x1="100%" y1="0.15388142%" x2="-1.5996%" y2="100.571001%" id="linearGradient-5">
            <stop stop-color="#FEC6DC" offset="0%"></stop>
            <stop stop-color="#D7D7FA" offset="100%"></stop>
        </linearGradient>
    </defs>
    <g id="Artboard-Copy-2" stroke="none" stroke-width="1" fill="none" fill-rule="evenodd">
        <g id="homepage-hero-pattern">
            <polygon id="Path" fill-opacity="0.230632649" fill="#F2FCFF" fill-rule="nonzero" points="0 0.99853516 2500 0.99853516 2500 650.999 0 650.999"></polygon>
            <path d="M644,12.4808 L644,1 L646,1 L646,12.4808 C646,39.5012 667.938,61.4056 695,61.4056 L1246.5,61.4056 C1274.67,61.4056 1297.5,84.204 1297.5,112.327 L1297.5,353.956 C1297.5,380.976 1319.44,402.88 1346.5,402.88 L2083,402.88 L2083,305.031 C2083,276.907 2105.83,254.109 2134,254.109 L2219,254.109 C2247.17,254.109 2270,276.907 2270,305.031 L2270,353.956 C2270,382.079 2247.17,404.877 2219,404.877 L2085,404.877 L2085,651 L2083,651 L2083,404.877 L1346.5,404.877 C1318.33,404.877 1295.5,382.079 1295.5,353.956 L1295.5,112.327 C1295.5,85.3069 1273.56,63.4025 1246.5,63.4025 L695,63.4025 C666.833,63.4025 644,40.6041 644,12.4808 Z M2085,402.88 L2219,402.88 C2246.06,402.88 2268,380.976 2268,353.956 L2268,305.031 C2268,278.01 2246.06,256.106 2219,256.106 L2134,256.106 C2106.94,256.106 2085,278.01 2085,305.031 L2085,402.88 Z" id="Shape" fill="#E6E6E6"></path>
            <path d="M125,0.5 L125,245.623 C125,272.643 146.938,294.548 174,294.548 L388,294.548 C416.167,294.548 439,317.346 439,345.469 L439,552.651 C439,579.671 460.938,601.575 488,601.575 L814,601.575 C840.234,601.575 861.552,622.589 862,648.677 C862,648.951 862,650.725 862,651 L860,651 C860,650.725 859.998,648.951 859.993,648.677 C859.552,623.692 839.129,603.572 814,603.572 L488,603.572 C459.833,603.572 437,580.774 437,552.651 L437,345.469 C437,318.449 415.062,296.545 388,296.545 L174,296.545 C145.833,296.545 123,273.746 123,245.623 L123,0.5 L125,0.5 Z" id="Path" fill="#E6E6E6"></path>
            <path d="M684,587.596 C684,582.082 688.477,577.611 694,577.611 L724,577.611 C729.523,577.611 734,582.082 734,587.596 L734,617.55 C734,623.064 729.523,627.535 724,627.535 L694,627.535 C688.477,627.535 684,623.064 684,617.55 L684,587.596 Z" id="Path" fill="#FFFFFF" fill-rule="nonzero"></path>
            <path d="M413,479.762 C413,474.248 417.477,469.777 423,469.777 L453,469.777 C458.523,469.777 463,474.248 463,479.762 L463,509.716 C463,515.23 458.523,519.701 453,519.701 L423,519.701 C417.477,519.701 413,515.23 413,509.716 L413,479.762 Z" id="Path" fill="#FFFFFF" fill-rule="nonzero"></path>
            <path d="M280,281.068 C280,275.553 284.477,271.083 290,271.083 L320,271.083 C325.523,271.083 330,275.553 330,281.068 L330,311.022 C330,316.536 325.523,321.006 320,321.006 L290,321.006 C284.477,321.006 280,316.536 280,311.022 L280,281.068 Z" id="Path" fill="#FFFFFF" fill-rule="nonzero"></path>
            <path d="M755,47.427 C755,41.9127 759.477,37.4424 765,37.4424 L795,37.4424 C800.523,37.4424 805,41.9127 805,47.427 L805,77.3809 C805,82.8953 800.523,87.3656 795,87.3656 L765,87.3656 C759.477,87.3656 755,82.8953 755,77.3809 L755,47.427 Z" id="Path" fill="#FFFFFF" fill-rule="nonzero"></path>
            <path d="M0,97.3502 L0,1 L2,1 L2,97.3502 C2,124.371 23.938,146.275 51,146.275 L321,146.275 C348.062,146.275 370,124.371 370,97.3502 L370,1 L372,1 L372,97.3502 C372,125.473 349.167,148.272 321,148.272 L51,148.272 C22.8335,148.272 0,125.473 0,97.3502 Z" id="Path" fill="#E6E6E6"></path>
            <polygon id="Path" fill="#E6E6E6" points="112 651 112 551.154 114 551.154 114 651"></polygon>
            <path d="M99,132.296 C99,126.782 103.477,122.312 109,122.312 L139,122.312 C144.523,122.312 149,126.782 149,132.296 L149,162.25 C149,167.765 144.523,172.235 139,172.235 L109,172.235 C103.477,172.235 99,167.765 99,162.25 L99,132.296 Z" id="Path" fill="#FFFFFF" fill-rule="nonzero"></path>
            <path d="M87,529.685 C87,524.171 91.4772,519.7 97,519.7 L127,519.7 C132.523,519.7 137,524.171 137,529.685 L137,559.639 C137,565.153 132.523,569.624 127,569.624 L97,569.624 C91.4772,569.624 87,565.153 87,559.639 L87,529.685 Z" id="Path" fill="#FFFFFF" fill-rule="nonzero"></path>
            <g id="Group" opacity="0.5" transform="translate(87.000000, 37.000000)" fill-rule="nonzero">
                <path d="M597,550.654 C597,545.139 601.477,540.669 607,540.669 L637,540.669 C642.523,540.669 647,545.139 647,550.654 L647,580.608 C647,586.122 642.523,590.592 637,590.592 L607,590.592 C601.477,590.592 597,586.122 597,580.608 L597,550.654 Z" id="Path" fill="url(#linearGradient-1)"></path>
                <path d="M326,442.82 C326,437.305 330.477,432.835 336,432.835 L366,432.835 C371.523,432.835 376,437.305 376,442.82 L376,472.774 C376,478.288 371.523,482.758 366,482.758 L336,482.758 C330.477,482.758 326,478.288 326,472.774 L326,442.82 Z" id="Path" fill="url(#linearGradient-2)"></path>
                <path d="M193,244.125 C193,238.611 197.477,234.141 203,234.141 L233,234.141 C238.523,234.141 243,238.611 243,244.125 L243,274.079 C243,279.594 238.523,284.064 233,284.064 L203,284.064 C197.477,284.064 193,279.594 193,274.079 L193,244.125 Z" id="Path" fill="url(#linearGradient-1)"></path>
                <path d="M668,10.4846 C668,4.9703 672.477,0.5 678,0.5 L708,0.5 C713.523,0.5 718,4.9703 718,10.4846 L718,40.4386 C718,45.9529 713.523,50.4232 708,50.4232 L678,50.4232 C672.477,50.4232 668,45.9529 668,40.4386 L668,10.4846 Z" id="Path" fill="url(#linearGradient-3)"></path>
                <path d="M12,95.354 C12,89.84 16.477,85.369 22,85.369 L52,85.369 C57.523,85.369 62,89.84 62,95.354 L62,125.308 C62,130.822 57.523,135.293 52,135.293 L22,135.293 C16.477,135.293 12,130.822 12,125.308 L12,95.354 Z" id="Path" fill="url(#linearGradient-4)"></path>
                <path d="M0,492.743 C0,487.228 4.4772,482.758 10,482.758 L40,482.758 C45.523,482.758 50,487.228 50,492.743 L50,522.697 C50,528.211 45.523,532.681 40,532.681 L10,532.681 C4.4772,532.681 0,528.211 0,522.697 L0,492.743 Z" id="Path" fill="url(#linearGradient-5)"></path>
            </g>
        </g>
    </g>
</svg>