<?xml version="1.0" encoding="UTF-8"?>
<svg width="1244px" height="936px" viewBox="0 0 1244 936" version="1.1" xmlns="http://www.w3.org/2000/svg" xmlns:xlink="http://www.w3.org/1999/xlink">
    <!-- Generator: Sketch 63.1 (92452) - https://sketch.com -->
    <title>Artboard Copy 3</title>
    <desc>Created with Sketch.</desc>
    <defs>
        <linearGradient x1="78.0979702%" y1="13.907977%" x2="50%" y2="78.2159458%" id="linearGradient-1">
            <stop stop-color="#F3F8FF" stop-opacity="0" offset="0%"></stop>
            <stop stop-color="#E3EEFF" offset="100%"></stop>
        </linearGradient>
        <linearGradient x1="50%" y1="21.7840542%" x2="75.8853801%" y2="72.984772%" id="linearGradient-2">
            <stop stop-color="#85EAFD" stop-opacity="0" offset="0%"></stop>
            <stop stop-color="#4DD1FA" stop-opacity="0.256610577" offset="100%"></stop>
        </linearGradient>
    </defs>
    <g id="Artboard-Copy-3" stroke="none" stroke-width="1" fill="none" fill-rule="evenodd">
        <path d="M935.18478,198.477228 C655.211731,153.197791 339.624378,283.736253 563.662259,394.579692 C749.827295,486.684983 662.608778,541.723351 821.42215,635.786433 C980.235522,729.849516 1236.77058,436.869394 1028.54649,382.247406 C855.302269,336.800816 1084.62175,222.645346 935.18478,198.477228 Z" id="Path" fill="url(#linearGradient-1)" fill-rule="nonzero" transform="translate(797.143739, 421.761400) rotate(-18.000000) translate(-797.143739, -421.761400) "></path>
        <path d="M541.18478,421.477228 C261.211731,376.197791 -54.3756216,506.736253 169.662259,617.579692 C355.827295,709.684983 268.608778,764.723351 427.42215,858.786433 C586.235522,952.849516 842.770578,659.869394 634.546489,605.247406 C461.302269,559.800816 690.621754,445.645346 541.18478,421.477228 Z" id="Path-Copy" fill="url(#linearGradient-2)" fill-rule="nonzero" transform="translate(403.143739, 644.761400) rotate(-44.000000) translate(-403.143739, -644.761400) "></path>
        <g id="Group" transform="translate(471.500000, 283.000000)" fill-rule="nonzero">
            <path d="M365.5,220.998199 L365.5,356.262912 C365.5,361.511643 359.382313,363.898857 355.353894,360.234992 L316.828218,325.163027 C308.953665,318.001385 299.079749,313.621108 288.873431,312.79397 L188.01696,304.621749 C162.333726,302.541097 140.708605,283.311176 134.378114,259.040754 C133.166454,254.360526 132.5,249.482809 132.5,244.506761 L132.5,152.905174 C132.5,149.385913 135.376971,146.735932 138.890703,147.02101 L309.98304,160.884038 C340.634162,163.367104 365.5,190.292464 365.5,220.998199 Z" id="Path" fill="#EC3433"></path>
            <path d="M295.5,159.644236 L295.5,185.506165 C295.5,199.23906 292.252761,211.983444 286.486411,223.044063 C284.301199,227.283953 281.752335,231.252826 278.868747,234.95233 C263.117695,255.128672 237.686085,267.022935 209.068395,264.715585 L134.381895,258.694727 C133.167796,254.028953 132.5,249.1663 132.5,244.205621 L132.5,152.886936 C132.5,149.378545 135.382762,146.736748 138.903566,147.020945 L295.5,159.644236 Z" id="Path" fill="#000000" opacity="0.1"></path>
            <ellipse id="Oval" fill="#FF8686" transform="translate(249.232741, 232.277292) rotate(-43.841276) translate(-249.232741, -232.277292) " cx="249.232741" cy="232.277292" rx="12.0639284" ry="13.0797313"></ellipse>
            <ellipse id="Oval" fill="#FF8686" transform="translate(291.395056, 235.684209) rotate(-43.841276) translate(-291.395056, -235.684209) " cx="291.395056" cy="235.684209" rx="12.0639284" ry="13.0797313"></ellipse>
            <ellipse id="Oval" fill="#FFFFFF" transform="translate(207.071595, 228.870317) rotate(-43.841276) translate(-207.071595, -228.870317) " cx="207.071595" cy="228.870317" rx="12.0639284" ry="13.0797313"></ellipse>
            <path d="M274.5,76.5008164 L274.5,183.608875 C274.5,219.521437 245.268545,246.279703 209.209577,243.375513 L90.631285,233.823993 C78.6245927,232.856479 66.993575,236.091964 57.7432088,242.970871 L12.4355293,276.667381 C7.68415593,280.201197 0.5,276.256971 0.5,270.114 L0.5,111.982365 C0.5,76.0698031 29.731455,49.3115371 65.7904233,52.2157266 L266.994783,68.4228182 C271.140443,68.7565858 274.5,72.3728127 274.5,76.5008164 Z" id="Path" fill="#5C3DC6"></path>
            <path d="M187.293366,223.979927 L163.706634,222.120536 C160.278787,221.850318 157.5,218.922415 157.5,215.580947 C157.5,212.239479 160.278787,209.749855 163.706634,210.020073 L187.293366,211.879464 C190.721213,212.149682 193.5,215.077585 193.5,218.419053 C193.5,221.760521 190.721213,224.250145 187.293366,223.979927 Z" id="Path" fill="#775DD4"></path>
            <path d="M208.561388,225.844618 C205.213758,225.573199 202.5,222.632272 202.5,219.275942 C202.5,215.919612 205.213758,213.418914 208.561388,213.690333 C227.759083,215.246856 243.377225,200.855019 243.377225,181.60577 C243.377225,178.24944 246.090983,175.748743 249.438612,176.020162 C252.786242,176.291581 255.5,179.232507 255.5,182.588838 C255.499175,208.538334 234.441961,227.943152 208.561388,225.844618 Z" id="Path" fill="#775DD4"></path>
            <path d="M106.329004,85.979951 L82.6709964,84.1062878 C79.2628317,83.8363881 76.5,80.9119265 76.5,77.5743867 C76.5,74.2368469 79.2628317,71.7501493 82.6709964,72.020049 L106.329004,73.8937122 C109.737168,74.1636119 112.5,77.0880735 112.5,80.4256133 C112.5,83.7631531 109.736328,86.2498507 106.329004,85.979951 Z" id="Path" fill="#775DD4"></path>
            <ellipse id="Oval" fill="#9B87E1" transform="translate(137.344870, 147.329635) rotate(-43.841276) translate(-137.344870, -147.329635) " cx="137.34487" cy="147.329635" rx="14.1416923" ry="15.3327191"></ellipse>
            <ellipse id="Oval" fill="#9B87E1" transform="translate(87.921576, 143.335493) rotate(-43.841276) translate(-87.921576, -143.335493) " cx="87.9215755" cy="143.335493" rx="14.1416923" ry="15.3327191"></ellipse>
            <ellipse id="Oval" fill="#9B87E1" transform="translate(186.768105, 151.322690) rotate(-43.841276) translate(-186.768105, -151.322690) " cx="186.768105" cy="151.32269" rx="14.1416923" ry="15.3327191"></ellipse>
            <path d="M478.384164,256 L475.5,253.602914 C476.870629,252.114861 478.197834,250.566056 479.443718,249 L482.5,251.194578 C481.199639,252.829637 479.814798,254.445944 478.384164,256 Z" id="Path" fill="#1ACFFF"></path>
            <path d="M490.194812,240 L486.676091,238.052819 C488.745732,234.322378 490.59333,230.374203 492.170001,226.31592 L495.91905,227.770511 C494.276097,231.996026 492.350619,236.111433 490.194812,240 Z M499.984593,214.911003 L496.08144,213.941551 C497.106318,209.822005 497.909982,205.522808 498.471718,201.162348 L502.458552,201.674808 C501.878588,206.188426 501.045926,210.641609 499.984593,214.911003 Z M503.462717,188.269724 L499.441913,188.174518 C499.466769,187.148771 499.478368,186.12054 499.478368,185.090653 C499.478368,181.820515 499.356576,178.4709 499.118791,175.134531 L503.129652,174.848083 C503.375722,178.279659 503.5,181.726136 503.5,185.090653 C503.499171,186.151999 503.487572,187.212518 503.462717,188.269724 Z M497.6142,162.155808 C496.938957,157.911251 496.072326,153.597152 495.038335,149.33107 L498.946459,148.385628 C500.004478,152.754367 500.89265,157.175263 501.585292,161.524133 L497.6142,162.155808 Z M491.480674,136.73069 C490.155043,132.623562 488.650452,128.481662 487.01247,124.41924 L490.743292,122.91746 C492.417729,127.067638 493.952974,131.298949 495.308432,135.495488 L491.480674,136.73069 Z M481.688406,112.445567 C479.782812,108.530507 477.717314,104.633662 475.549908,100.861826 L479.037145,98.8608329 C481.25012,102.711317 483.359529,106.690951 485.304064,110.687971 L481.688406,112.445567 Z M468.625146,89.7276265 C466.1893,86.0990148 463.601835,82.5266992 460.93566,79.1116814 L464.105574,76.6396225 C466.830573,80.1308055 469.476035,83.7809421 471.965735,87.4890305 L468.625146,89.7276265 Z M338.181443,89.6489776 L337.964371,85.6362282 C342.397777,85.3977978 346.650565,84.7272125 350.607572,83.6435135 L351.670562,87.5188343 C347.437658,88.6778707 342.898202,89.3939896 338.181443,89.6489776 Z M324.573845,89.0818776 C319.784176,88.4195712 315.318459,87.2969617 311.297655,85.7446809 L312.747564,81.9960262 C316.478385,83.4365428 320.643351,84.4813312 325.125639,85.1014157 L324.573845,89.0818776 Z M364.302164,82.2162431 L362.338574,78.7093302 C366.264098,76.5162679 369.8375,74.0814637 372.957703,71.4711483 L375.53854,74.5525292 C372.226121,77.3234539 368.44476,79.9023098 364.302164,82.2162431 Z M299.381065,78.4021856 C295.977509,74.9590198 294.251704,71.0630019 294.251704,66.8217568 C294.251704,66.1478599 294.296444,65.4623727 294.385095,64.7843365 L298.371929,65.3034192 C298.306476,65.8100836 298.272507,66.3200596 298.272507,66.8209289 C298.272507,69.9668847 299.607251,72.9133206 302.24277,75.5774485 L299.381065,78.4021856 Z M452.495536,69.100919 C449.531095,65.8456826 446.440719,62.7113172 443.308088,59.7855783 L446.0538,56.8507327 C449.264312,59.8501532 452.432569,63.0623396 455.469091,66.3962249 L452.495536,69.100919 Z M384.925662,64.5525292 L381.653011,62.2178988 C384.215621,58.6306813 386.070675,54.8605017 387.165977,51.012501 L391.032676,52.1111019 C389.811439,56.4045037 387.756711,60.5894528 384.925662,64.5525292 Z M303.862525,54.7636394 L300.833459,52.1218644 C303.454065,49.121616 306.889934,46.0675553 311.046614,43.0441262 L313.412865,46.2927395 C309.49894,49.1390016 306.286772,51.9894031 303.862525,54.7636394 Z M433.379944,51.289014 C429.903478,48.5735574 426.318475,46.0402351 422.725188,43.7602451 L424.882652,40.3692359 C428.584475,42.719596 432.276356,45.3282557 435.856387,48.1248448 L433.379944,51.289014 Z M324.387428,39.3194801 L322.416382,35.8167067 C326.402387,33.5772829 330.492786,31.6044375 334.570757,29.9536385 L336.081147,33.6774567 C332.158938,35.2653365 328.225957,37.1636725 324.387428,39.3194801 Z M388.037579,38.7457571 C387.520583,35.1709579 386.328344,31.713718 384.489032,28.4477192 C381.019194,27.8375693 377.526986,27.4310787 374.076204,27.2356983 L374.304047,23.2246047 C378.748223,23.4754533 383.257024,24.0624224 387.704515,24.9689544 L387.551239,25.7165328 C389.886005,29.6365593 391.387282,33.8231642 392.016128,38.1720341 L388.037579,38.7457571 Z M411.374477,37.3789221 C407.42824,35.439192 403.397495,33.7478268 399.394919,32.3536717 L400.719721,28.5594834 C404.873916,30.0082788 409.05628,31.7617352 413.149164,33.7726633 L411.374477,37.3789221 Z M348.399569,29.6638795 L347.428544,25.7653779 C351.821353,24.6734001 356.309441,23.9051246 360.767702,23.4820763 L361.147164,27.4815796 C356.888575,27.8855866 352.599332,28.619091 348.399569,29.6638795 Z M210.944937,27.1305572 L209.5,23.3810746 C213.518318,21.8337611 217.743765,20.3170792 222.055378,18.874079 L223.332955,22.683997 C219.077681,24.107956 214.909401,25.6039407 210.944937,27.1305572 Z M235.906561,18.7540359 L234.780603,14.8969286 C238.990309,13.6708337 243.317664,12.4960676 247.639219,11.4065734 L248.6235,15.3025913 C244.347513,16.3796672 240.068212,17.5411872 235.906561,18.7540359 Z M375.390235,17.8971769 C372.260919,15.3621989 368.616263,13.1236029 364.557348,11.2401689 L366.250841,7.59665535 C370.608023,9.61834589 374.535204,12.0332809 377.921361,14.7760576 L375.390235,17.8971769 Z M261.460575,12.3081381 L260.614657,8.38066065 C264.908043,7.45591522 269.304165,6.58829373 273.681232,5.80014902 L274.392929,9.75411872 C270.06226,10.5339846 265.710049,11.3933273 261.460575,12.3081381 Z M287.40565,7.63142644 L286.824858,3.6551039 C291.192811,3.01597814 295.63533,2.4397715 300.028139,1.93973011 L300.483824,5.93178243 C296.132442,6.42685653 291.731348,6.99809587 287.40565,7.63142644 Z M352.428657,6.97574303 C348.428567,5.95082374 344.139324,5.18172034 339.678577,4.68912989 L340.121006,0.69624969 C344.768998,1.20870933 349.245487,2.01175594 353.427851,3.08303668 L352.428657,6.97574303 Z M313.609224,4.64856362 L313.279473,0.644093054 C314.262097,0.563788393 315.252177,0.485967381 316.2464,0.412285785 C319.789976,0.146535309 323.297926,0.00827883103 326.670827,0 L326.681598,4.0177167 C323.403976,4.02516765 319.99462,4.16011259 316.546324,4.41758424 C315.560386,4.49126583 314.581077,4.56825896 313.609224,4.64856362 Z" id="Shape" fill="#83A7E1"></path>
            <path d="M193.206032,35 L191.5,31.1936387 C191.577176,31.1437659 193.43756,29.9459288 197.011396,28 L198.5,31.9363868 C195.051574,33.8137405 193.223842,34.9884224 193.206032,35 Z" id="Path" fill="#1ACFFF"></path>
            <path d="M178.532365,63.7585978 C174.457282,61.6642468 170.804018,59.3548802 167.557597,56.71068 C168.009367,56.4439621 168.458641,56.1690375 168.914571,55.913809 C175.340855,52.2503361 182.027551,50.0419119 189.304127,48.248747 L182.614103,32.764337 C175.521396,36.9472943 168.305555,42.085512 162.612254,48.1798107 C162.011558,48.8092649 161.466605,49.4658013 160.891701,50.1075656 C158.339158,47.0678022 156.025397,43.681716 153.753235,39.9845956 C150.495166,34.7060433 147.46007,28.8940552 143.397467,23 L143.300125,23.0196961 C141.962286,30.0142703 142.333353,37.0055619 144.179537,43.913145 C145.708733,49.7316985 148.614039,55.5305559 152.901278,60.3651255 C151.859628,61.8956759 150.850425,63.4377157 149.876166,64.9904242 C148.944338,66.4758377 149.25883,68.4085166 150.634108,69.508215 C152.672481,67.6863266 154.744966,65.9144991 156.853226,64.2198146 C162.202916,68.7761769 168.741518,71.7634174 175.252664,73.0732074 C182.426073,74.4773746 189.591995,74.2935444 196.468384,72.4700146 L196.5,72.115485 C190.093684,69.0215574 183.996869,66.6465371 178.532365,63.7585978 Z" id="Path" fill="#83A7E1"></path>
            <path d="M25.5613875,120.979844 C22.2137585,120.708425 19.5,117.767498 19.5,114.411168 C19.5,88.4616684 40.5563887,69.0568482 66.4386125,71.1553823 C69.7862415,71.4268015 72.5,74.3677282 72.5,77.7240587 C72.5,81.0803892 69.7862415,83.5810872 66.4386125,83.3096679 C47.2409172,81.7531448 31.6227751,96.1466392 31.6227751,115.394235 C31.6227751,118.749738 28.9090166,121.251263 25.5613875,120.979844 Z" id="Path" fill="#775DD4"></path>
        </g>
    </g>
</svg>