<svg width="107" height="24" viewBox="0 0 107 24" fill="none" xmlns="http://www.w3.org/2000/svg">
<g clip-path="url(#clip0_800_1135)">
<path d="M39.0538 22.8505C38.4961 23.0215 37.7936 23.1755 36.9478 23.3157C36.102 23.4559 35.2146 23.5253 34.284 23.5253C33.3535 23.5253 32.4614 23.3774 31.7004 23.0831C30.9408 22.7888 30.2922 22.3652 29.7576 21.8152C29.223 21.2652 28.8117 20.5981 28.5236 19.8139C28.237 19.0312 28.0938 18.15 28.0938 17.1732C28.0938 16.1965 28.2139 15.3383 28.4543 14.5557C28.6946 13.7731 29.0474 13.1013 29.5127 12.5421C29.9779 11.9828 30.5449 11.553 31.212 11.251C31.8791 10.9491 32.6463 10.7965 33.5152 10.7965C34.1053 10.7965 34.6245 10.8659 35.0744 11.0061C35.5242 11.1463 35.9125 11.3003 36.2375 11.4713V5.6308L39.0538 5.16553V22.8505ZM30.9794 17.1024C30.9794 18.3441 31.2736 19.3178 31.8637 20.0234C32.4537 20.729 33.2672 21.0818 34.3071 21.0818C34.757 21.0818 35.1406 21.0633 35.4595 21.0233C35.7769 20.9848 36.0373 20.9416 36.2391 20.8954V13.9148C35.991 13.7438 35.6613 13.5851 35.25 13.4372C34.8386 13.2893 34.4011 13.2153 33.9358 13.2153C32.9113 13.2153 32.1641 13.5651 31.6896 14.263C31.2166 14.9609 30.9794 15.9068 30.9794 17.1024Z" fill="white"/>
<path d="M42.5445 17.1965C42.5445 16.1258 42.7032 15.1875 43.0221 14.3802C43.3395 13.5745 43.7632 12.9028 44.29 12.3666C44.8169 11.832 45.4224 11.4284 46.1049 11.1572C46.7874 10.8861 47.4853 10.7505 48.1986 10.7505C49.8748 10.7505 51.1813 11.2712 52.1195 12.3096C53.0578 13.3495 53.5277 14.901 53.5277 16.9639C53.5277 17.1195 53.5231 17.2936 53.5154 17.4877C53.5077 17.6818 53.4953 17.8559 53.4799 18.0115H45.4517C45.5287 18.9883 45.8738 19.7447 46.487 20.2809C47.1002 20.8155 47.9876 21.0835 49.1507 21.0835C49.8332 21.0835 50.4572 21.0219 51.0242 20.8971C51.5896 20.7739 52.0364 20.6414 52.363 20.5012L52.7358 22.8044C52.5802 22.8814 52.3676 22.9631 52.0964 23.0494C51.8253 23.1341 51.5141 23.2127 51.1659 23.282C50.8162 23.3513 50.4403 23.4099 50.0366 23.4561C49.633 23.5023 49.2216 23.5254 48.8026 23.5254C47.7318 23.5254 46.8013 23.3667 46.0109 23.0478C45.219 22.7305 44.5674 22.2883 44.0559 21.7213C43.5444 21.1559 43.1638 20.4873 42.9158 19.7201C42.6678 18.9528 42.543 18.1101 42.543 17.195L42.5445 17.1965ZM50.713 15.9393C50.713 15.5511 50.659 15.1829 50.5496 14.8347C50.4403 14.485 50.2816 14.183 50.072 13.9273C49.8625 13.6715 49.6068 13.4697 49.3048 13.3218C49.0028 13.1739 48.6423 13.1 48.2233 13.1C47.8042 13.1 47.4083 13.1816 47.0832 13.3449C46.7581 13.5082 46.4824 13.7208 46.2574 13.9843C46.0325 14.2477 45.8584 14.5512 45.7336 14.8917C45.6088 15.2337 45.5241 15.5819 45.4779 15.9393H50.7145H50.713Z" fill="white"/>
<path d="M57.0879 11.4481C57.6302 11.2925 58.3373 11.1461 59.2063 11.0059C60.0752 10.8657 61.0365 10.7964 62.0919 10.7964C63.084 10.7964 63.9144 10.932 64.5815 11.2031C65.2486 11.4743 65.7802 11.8548 66.1761 12.3432C66.572 12.8316 66.8509 13.4216 67.0142 14.1118C67.1775 14.802 67.2592 15.5585 67.2592 16.3812V23.2231H64.4429V16.8233C64.4429 16.1717 64.3997 15.617 64.315 15.1595C64.2303 14.7019 64.0901 14.3291 63.896 14.0425C63.7018 13.7559 63.4384 13.5464 63.1041 13.4139C62.7698 13.283 62.363 13.2167 61.8823 13.2167C61.5249 13.2167 61.1536 13.2398 60.7654 13.2861C60.3771 13.3323 60.0906 13.3708 59.9042 13.4031V23.2231H57.0879V11.4481Z" fill="white"/>
<path d="M71.1445 7.84174L73.9608 7.37646V11.054H78.2885V13.405H73.9608V18.3612C73.9608 19.3379 74.1164 20.0374 74.4261 20.4549C74.7357 20.874 75.2642 21.0835 76.0083 21.0835C76.5198 21.0835 76.9743 21.0296 77.3702 20.9202C77.7662 20.8123 78.0805 20.7107 78.3131 20.6182L78.7784 22.8521C78.4533 22.9923 78.025 23.1356 77.4981 23.282C76.9712 23.4299 76.3503 23.5023 75.637 23.5023C74.7681 23.5023 74.0425 23.3852 73.4616 23.1526C72.8793 22.9199 72.4186 22.5825 72.0766 22.1404C71.7346 21.6982 71.4943 21.1636 71.3556 20.535C71.2154 19.9064 71.1461 19.19 71.1461 18.3828V7.84174H71.1445Z" fill="white"/>
<path d="M85.6409 10.7506C86.5714 10.7506 87.3556 10.8677 87.9919 11.1003C88.6282 11.3329 89.135 11.658 89.5156 12.0771C89.8961 12.4961 90.1673 13.0045 90.3306 13.6007C90.4939 14.1985 90.5755 14.8533 90.5755 15.5666V22.9431C90.1411 23.0356 89.4863 23.1496 88.6097 23.2805C87.7331 23.4115 86.744 23.4777 85.6424 23.4777C84.9137 23.4777 84.2466 23.4084 83.6411 23.2682C83.0357 23.128 82.5196 22.9046 82.0943 22.5934C81.6676 22.2838 81.3333 21.8801 81.0929 21.384C80.8526 20.8879 80.7324 20.2748 80.7324 19.546C80.7324 18.8173 80.868 18.2581 81.1391 17.7774C81.4103 17.2967 81.7785 16.9054 82.2438 16.6019C82.7091 16.2999 83.2483 16.0827 83.8614 15.9502C84.4746 15.8193 85.114 15.753 85.7811 15.753C86.0907 15.753 86.4174 15.773 86.7578 15.8115C87.0983 15.8501 87.4634 15.9163 87.8517 16.0087V15.5435C87.8517 15.2184 87.8132 14.9072 87.7361 14.6129C87.6591 14.3187 87.522 14.0583 87.3294 13.8334C87.1353 13.6084 86.8795 13.4343 86.5622 13.3096C86.2448 13.1863 85.8442 13.1231 85.3636 13.1231C84.7119 13.1231 84.1141 13.1694 83.5718 13.2633C83.028 13.3558 82.5858 13.4652 82.2453 13.5884L81.8956 11.3083C82.253 11.185 82.7722 11.0602 83.4547 10.9354C84.1372 10.8122 84.8659 10.749 85.6424 10.749L85.6409 10.7506ZM85.8735 21.2454C86.7424 21.2454 87.4018 21.1991 87.8517 21.1052V17.9869C87.6961 17.9407 87.4711 17.8945 87.1769 17.8467C86.8826 17.8005 86.556 17.7774 86.2001 17.7774C85.8905 17.7774 85.5762 17.8005 85.2573 17.8467C84.9399 17.8929 84.6518 17.9792 84.396 18.1025C84.1403 18.2273 83.9339 18.4014 83.7798 18.6263C83.6242 18.8512 83.5472 19.1347 83.5472 19.4752C83.5472 20.1423 83.7567 20.6045 84.1757 20.8602C84.5948 21.116 85.1602 21.2438 85.8751 21.2438L85.8735 21.2454Z" fill="white"/>
<path d="M98.6017 23.4559C97.7636 23.4405 97.0688 23.3466 96.5188 23.1771C95.9673 23.0061 95.5297 22.7627 95.2046 22.4437C94.8796 22.1264 94.65 21.7304 94.5175 21.2575C94.385 20.7845 94.3203 20.2453 94.3203 19.6398V5.6308L97.1366 5.16553V19.1052C97.1366 19.4472 97.1628 19.7338 97.2183 19.9664C97.2722 20.199 97.3692 20.3962 97.5094 20.5595C97.6496 20.7229 97.8391 20.8461 98.0795 20.9324C98.3198 21.0171 98.6264 21.0834 98.9992 21.1296L98.6033 23.4559H98.6017Z" fill="white"/>
<path d="M105.863 23.4559C105.025 23.4405 104.331 23.3466 103.781 23.1771C103.229 23.0061 102.791 22.7627 102.466 22.4437C102.14 22.1264 101.912 21.7304 101.779 21.2575C101.647 20.7845 101.582 20.2453 101.582 19.6398V5.6308L104.398 5.16553V19.1052C104.398 19.4472 104.425 19.7338 104.48 19.9664C104.534 20.199 104.631 20.3962 104.771 20.5595C104.911 20.7229 105.101 20.8461 105.341 20.9324C105.582 21.0171 105.888 21.0834 106.261 21.1296L105.865 23.4559H105.863Z" fill="white"/>
<path d="M2.93863 13.6606L2.93555 13.6514C2.93555 13.6514 2.93555 13.6529 2.93863 13.6606Z" fill="white"/>
<path d="M21.5945 6.21328L21.5698 6.00529L21.5436 5.81888C21.522 5.67252 21.4989 5.54464 21.4712 5.40753C21.4173 5.13791 21.348 4.86984 21.2632 4.60486C20.9289 3.54644 20.3296 2.53887 19.4961 1.75468C18.6672 0.967418 17.6165 0.418952 16.5181 0.17091C15.4181 -0.0832945 14.2795 -0.043238 13.2319 0.22021C12.363 0.442062 11.5511 0.805652 10.8254 1.27246C10.1429 0.841086 9.38955 0.491362 8.58072 0.271051C7.59471 -0.000100222 6.52089 -0.0817538 5.46709 0.104663C4.41484 0.287998 3.3857 0.736323 2.53681 1.42036C1.68484 2.10133 1.02391 3.00568 0.609475 3.99014C0.401489 4.48161 0.248966 4.9931 0.151906 5.50767C0.0594684 6.02224 0.00862745 6.5214 0.000924282 7.04214C-0.0144821 8.07282 0.162691 9.12662 0.533984 10.1003C0.899114 11.0755 1.4599 11.9598 2.08694 12.7194C2.24255 12.9104 2.40277 13.0938 2.55838 13.2663L2.78331 13.5174C2.8511 13.5929 2.91426 13.6653 2.95432 13.7162C2.96973 13.7701 2.98667 13.841 3.00208 13.9118C3.04522 14.1075 3.08527 14.3232 3.12533 14.5419C3.16385 14.7746 3.20544 15.0334 3.25166 15.3123C4.0189 20.0651 4.8493 23.9984 7.23882 23.9984C9.19697 23.9984 9.68227 22.0341 10.0366 20.5982C10.2277 19.8232 10.4896 18.7633 10.8331 18.7633C11.1767 18.7633 11.4371 19.8248 11.6281 20.5982C11.9824 22.0325 12.4677 23.9984 14.4274 23.9984C15.7154 23.9984 16.7399 22.7474 17.5642 20.1745C18.0695 18.5923 18.4238 16.7142 18.5301 15.1012C17.9401 15.3492 17.0634 15.6527 16.3455 15.8469C16.2161 16.933 15.9804 18.1054 15.6738 19.1515C15.1284 21.0126 14.5799 21.7259 14.3766 21.8815C14.0885 21.7721 13.842 20.7692 13.6741 20.0929C13.3367 18.7248 12.8252 16.6557 10.8331 16.6557C8.84108 16.6557 8.33113 18.7232 7.99219 20.0929C7.83351 20.7353 7.57314 21.7906 7.28042 21.8846C7.16641 21.7922 6.71809 21.3284 6.20814 19.4304C5.81682 17.9745 5.53642 16.2413 5.33306 14.9749C5.28684 14.6898 5.2437 14.4264 5.20365 14.1891C5.16821 13.9611 5.13124 13.73 5.08502 13.4835C5.06037 13.3572 5.03572 13.2339 4.99104 13.0691C4.97871 13.026 4.96485 12.9797 4.94482 12.9227C4.93404 12.8935 4.92325 12.8627 4.90476 12.8211C4.88628 12.781 4.86779 12.7379 4.82311 12.6608L4.79538 12.6146L4.73837 12.5268C4.71064 12.4852 4.68291 12.4498 4.65826 12.4174C4.55966 12.2895 4.47801 12.194 4.39943 12.1031L4.17604 11.8458C4.03276 11.681 3.89719 11.5208 3.76932 11.359C3.25782 10.7166 2.85264 10.0448 2.57995 9.32536C2.30879 8.60742 2.17938 7.84635 2.19171 7.06987C2.19633 6.68471 2.23947 6.28107 2.30725 5.90669C2.37504 5.53232 2.47672 5.17027 2.61846 4.82825C2.89886 4.14267 3.33178 3.54028 3.88948 3.08271C4.44565 2.62514 5.12045 2.31547 5.84763 2.17836C6.57481 2.0397 7.34667 2.06127 8.1139 2.21841C8.88114 2.37556 9.64683 2.65595 10.3925 3.02725L10.9225 3.29069L11.283 3.02725C12.0733 2.65133 12.8729 2.35245 13.6802 2.20609C14.4844 2.05511 15.2933 2.0474 16.0466 2.22458C16.8 2.40021 17.4887 2.76842 18.0371 3.29378C18.5856 3.81759 18.9908 4.49547 19.225 5.24884C19.2835 5.4368 19.3328 5.62938 19.3713 5.82504C19.3898 5.92056 19.4083 6.0284 19.4206 6.11622L19.4422 6.28261L19.4576 6.42897C19.4992 6.83723 19.5007 7.2455 19.4653 7.64607C19.3929 8.4472 19.1525 9.2206 18.7597 9.9108C18.3684 10.601 17.823 11.2034 17.1775 11.6702C16.8524 11.9044 16.5134 12.1 16.1375 12.268C15.7616 12.4374 15.3595 12.5792 14.9512 12.6947C14.1347 12.9258 13.2843 13.0506 12.4677 13.0275C11.6527 13.0059 10.8747 12.8303 10.2431 12.4713C9.92569 12.2926 9.64529 12.0692 9.40187 11.8042C9.37106 11.7703 9.34179 11.7334 9.31252 11.6979C10.1999 11.3713 11.0827 11.0324 11.9593 10.6857C12.6079 10.4285 13.2535 10.1665 13.8974 9.90156C14.543 9.63503 15.1808 9.36696 15.8294 9.08502L16.5242 8.7846L16.458 8.04047C16.4133 7.39648 16.2022 6.75096 15.8556 6.2102C15.512 5.66481 15.0514 5.22111 14.543 4.88833C13.5215 4.22278 12.3245 3.95163 11.1474 4.04406C10.9995 4.05639 10.8532 4.07334 10.7068 4.09799C10.6328 4.11031 10.5651 4.12264 10.4819 4.13958L10.3756 4.16269L10.2723 4.18734C9.98577 4.25821 9.71 4.35219 9.44347 4.46312C8.90887 4.68651 8.40662 4.98385 7.95214 5.35977C7.49765 5.73568 7.09246 6.19171 6.77971 6.72169C6.46697 7.25012 6.25744 7.85405 6.17579 8.46569C6.09259 9.07732 6.13265 9.68895 6.25436 10.259C6.37453 10.8259 6.57943 11.3682 6.81053 11.8428C7.06473 12.3681 7.38364 12.8519 7.78421 13.291C8.18169 13.727 8.65467 14.1013 9.16616 14.3879C10.1938 14.9672 11.3323 15.1983 12.4107 15.2291C13.4969 15.2568 14.5461 15.0997 15.5582 14.8146C16.0636 14.6714 16.5597 14.4926 17.0496 14.2693C17.5426 14.0474 18.0294 13.7655 18.4716 13.4404C19.3621 12.7887 20.1154 11.946 20.6577 10.98C21.2016 10.0156 21.5267 8.92942 21.6191 7.83711C21.6669 7.29172 21.6592 6.7448 21.6022 6.20866L21.5945 6.21328ZM8.3943 9.79525C8.31881 9.43937 8.29878 9.09272 8.345 8.76303C8.43127 8.10518 8.781 7.50587 9.33871 7.03906C9.8918 6.57687 10.6282 6.25642 11.3261 6.19941C12.0379 6.13317 12.7943 6.3088 13.369 6.68163C13.6556 6.86651 13.8944 7.0976 14.0623 7.35489C14.0962 7.40573 14.1255 7.45965 14.1532 7.51357C13.8004 7.66301 13.446 7.81092 13.0917 7.95882C12.457 8.22072 11.8207 8.47955 11.1828 8.73221C10.2569 9.09889 9.32792 9.45477 8.39738 9.79525H8.3943Z" fill="white"/>
</g>
<defs>
<clipPath id="clip0_800_1135">
<rect width="106.261" height="24" fill="white"/>
</clipPath>
</defs>
</svg>
