<?xml version="1.0" encoding="UTF-8"?>
<svg id="_圖層_2" data-name="圖層 2" xmlns="http://www.w3.org/2000/svg" viewBox="0 0 689.71 155.78">
  <defs>
    <style>
      .cls-1 {
        fill: #00a1e2;
      }

      .cls-2 {
        fill: #231815;
      }
    </style>
  </defs>
  <g id="_圖層_1-2" data-name="圖層 1">
    <g>
      <g>
        <path class="cls-2" d="m253.49,148.32c-3.62,1.11-8.18,2.11-13.67,3.02-5.49.91-11.25,1.36-17.29,1.36s-11.83-.96-16.77-2.87c-4.93-1.91-9.14-4.66-12.61-8.23-3.47-3.57-6.14-7.9-8.01-12.99-1.86-5.08-2.79-10.8-2.79-17.14s.78-11.91,2.34-16.99c1.56-5.08,3.85-9.44,6.87-13.07s6.7-6.42,11.03-8.38c4.33-1.96,9.31-2.95,14.95-2.95,3.83,0,7.2.45,10.12,1.36,2.92.91,5.44,1.91,7.55,3.02v-37.91l18.28-3.02v114.79Zm-52.41-37.31c0,8.06,1.91,14.37,5.74,18.96,3.83,4.58,9.11,6.87,15.86,6.87,2.92,0,5.41-.12,7.48-.38,2.06-.25,3.75-.53,5.06-.83v-45.31c-1.61-1.11-3.75-2.14-6.42-3.1-2.67-.96-5.51-1.44-8.53-1.44-6.65,0-11.5,2.27-14.58,6.8-3.07,4.53-4.61,10.67-4.61,18.43Z"/>
        <path class="cls-2" d="m276.15,111.62c0-6.95,1.03-13.04,3.1-18.28,2.06-5.23,4.81-9.59,8.23-13.07,3.42-3.47,7.35-6.09,11.78-7.85,4.43-1.76,8.96-2.64,13.59-2.64,10.88,0,19.36,3.38,25.45,10.12,6.09,6.75,9.14,16.82,9.14,30.21,0,1.01-.03,2.14-.08,3.4-.05,1.26-.13,2.39-.23,3.4h-52.11c.5,6.34,2.74,11.25,6.72,14.73,3.98,3.47,9.74,5.21,17.29,5.21,4.43,0,8.48-.4,12.16-1.21,3.67-.8,6.57-1.66,8.69-2.57l2.42,14.95c-1.01.5-2.39,1.03-4.15,1.59-1.76.55-3.78,1.06-6.04,1.51-2.27.45-4.71.83-7.33,1.13-2.62.3-5.29.45-8.01.45-6.95,0-12.99-1.03-18.12-3.1-5.14-2.06-9.37-4.93-12.69-8.61-3.32-3.67-5.79-8.01-7.4-12.99-1.61-4.98-2.42-10.45-2.42-16.39Zm53.02-8.16c0-2.52-.35-4.91-1.06-7.17-.71-2.27-1.74-4.23-3.1-5.89-1.36-1.66-3.02-2.97-4.98-3.93-1.96-.96-4.3-1.44-7.02-1.44s-5.29.53-7.4,1.59c-2.11,1.06-3.9,2.44-5.36,4.15-1.46,1.71-2.59,3.68-3.4,5.89-.81,2.22-1.36,4.48-1.66,6.8h33.99Z"/>
        <path class="cls-2" d="m370.55,74.31c3.52-1.01,8.11-1.96,13.75-2.87,5.64-.91,11.88-1.36,18.73-1.36,6.44,0,11.83.88,16.16,2.64,4.33,1.76,7.78,4.23,10.35,7.4,2.57,3.17,4.38,7,5.44,11.48,1.06,4.48,1.59,9.39,1.59,14.73v44.41h-18.28v-41.54c0-4.23-.28-7.83-.83-10.8-.55-2.97-1.46-5.39-2.72-7.25-1.26-1.86-2.97-3.22-5.14-4.08-2.17-.85-4.81-1.28-7.93-1.28-2.32,0-4.73.15-7.25.45-2.52.3-4.38.55-5.59.76v63.74h-18.28v-76.43Z"/>
        <path class="cls-2" d="m461.78,50.9l18.28-3.02v23.87h28.09v15.26h-28.09v32.17c0,6.34,1.01,10.88,3.02,13.59,2.01,2.72,5.44,4.08,10.27,4.08,3.32,0,6.27-.35,8.84-1.06,2.57-.7,4.61-1.36,6.12-1.96l3.02,14.5c-2.11.91-4.89,1.84-8.31,2.79-3.42.96-7.45,1.44-12.08,1.44-5.64,0-10.35-.76-14.12-2.27-3.78-1.51-6.77-3.7-8.99-6.57-2.22-2.87-3.78-6.34-4.68-10.42-.91-4.08-1.36-8.73-1.36-13.97V50.9Z"/>
        <path class="cls-1" d="m555.88,69.78c6.04,0,11.13.76,15.26,2.27,4.13,1.51,7.42,3.62,9.89,6.34,2.47,2.72,4.23,6.02,5.29,9.89,1.06,3.88,1.59,8.13,1.59,12.76v47.88c-2.82.6-7.07,1.34-12.76,2.19-5.69.85-12.11,1.28-19.26,1.28-4.73,0-9.06-.45-12.99-1.36-3.93-.91-7.28-2.36-10.04-4.38-2.77-2.01-4.94-4.63-6.5-7.85-1.56-3.22-2.34-7.2-2.34-11.93s.88-8.36,2.64-11.48c1.76-3.12,4.15-5.66,7.17-7.63,3.02-1.96,6.52-3.37,10.5-4.23,3.98-.85,8.13-1.28,12.46-1.28,2.01,0,4.13.13,6.34.38,2.21.25,4.58.68,7.1,1.28v-3.02c0-2.11-.25-4.13-.75-6.04-.5-1.91-1.39-3.6-2.64-5.06-1.26-1.46-2.92-2.59-4.98-3.4-2.06-.8-4.66-1.21-7.78-1.21-4.23,0-8.11.3-11.63.91-3.53.6-6.4,1.31-8.61,2.11l-2.27-14.8c2.32-.8,5.69-1.61,10.12-2.42,4.43-.8,9.16-1.21,14.2-1.21Zm1.51,68.12c5.64,0,9.92-.3,12.84-.91v-20.24c-1.01-.3-2.47-.6-4.38-.91-1.91-.3-4.03-.45-6.34-.45-2.01,0-4.05.15-6.12.45-2.06.3-3.93.86-5.59,1.66-1.66.81-3,1.94-4,3.4-1.01,1.46-1.51,3.3-1.51,5.51,0,4.33,1.36,7.33,4.08,8.99,2.72,1.66,6.39,2.49,11.03,2.49Z"/>
        <path class="cls-1" d="m640.01,152.25c-5.44-.1-9.95-.71-13.52-1.81-3.58-1.11-6.42-2.69-8.53-4.76-2.11-2.06-3.6-4.63-4.46-7.7-.86-3.07-1.28-6.57-1.28-10.5V36.55l18.28-3.02v90.48c0,2.22.17,4.08.53,5.59.35,1.51.98,2.79,1.89,3.85.91,1.06,2.14,1.86,3.7,2.42,1.56.55,3.55.98,5.97,1.28l-2.57,15.1Z"/>
        <path class="cls-1" d="m687.14,152.25c-5.44-.1-9.95-.71-13.52-1.81-3.58-1.11-6.42-2.69-8.53-4.76-2.12-2.06-3.6-4.63-4.46-7.7-.86-3.07-1.28-6.57-1.28-10.5V36.55l18.28-3.02v90.48c0,2.22.17,4.08.53,5.59.35,1.51.98,2.79,1.89,3.85.91,1.06,2.14,1.86,3.7,2.42,1.56.55,3.55.98,5.97,1.28l-2.57,15.1Z"/>
      </g>
      <g>
        <path class="cls-2" d="m19.07,88.67l-.02-.06s0,.01.02.06Z"/>
        <path class="cls-2" d="m140.16,40.33l-.16-1.35-.17-1.21c-.14-.95-.29-1.78-.47-2.67-.35-1.75-.8-3.49-1.35-5.21-2.17-6.87-6.06-13.41-11.47-18.5-5.38-5.11-12.2-8.67-19.33-10.28-7.14-1.65-14.53-1.39-21.33.32-5.64,1.44-10.91,3.8-15.62,6.83-4.43-2.8-9.32-5.07-14.57-6.5C49.29,0,42.32-.53,35.48.68c-6.83,1.19-13.51,4.1-19.02,8.54-5.53,4.42-9.82,10.29-12.51,16.68-1.35,3.19-2.34,6.51-2.97,9.85C.38,39.09.05,42.33,0,45.71c-.1,6.69,1.05,13.53,3.46,19.85,2.37,6.33,6.01,12.07,10.08,17,1.01,1.24,2.05,2.43,3.06,3.55l1.46,1.63c.44.49.85.96,1.11,1.29.1.35.21.81.31,1.27.28,1.27.54,2.67.8,4.09h0c.25,1.51.52,3.19.82,5,4.98,30.85,10.37,56.38,25.88,56.38,12.71,0,15.86-12.75,18.16-22.07,1.24-5.03,2.94-11.91,5.17-11.91s3.92,6.89,5.16,11.91c2.3,9.31,5.45,22.07,18.17,22.07,8.36,0,15.01-8.12,20.36-24.82,3.28-10.27,5.58-22.46,6.27-32.93-3.83,1.61-9.52,3.58-14.18,4.84-.84,7.05-2.37,14.66-4.36,21.45-3.54,12.08-7.1,16.71-8.42,17.72-1.87-.71-3.47-7.22-4.56-11.61-2.19-8.88-5.51-22.31-18.44-22.31s-16.24,13.42-18.44,22.31c-1.03,4.17-2.72,11.02-4.62,11.63-.74-.6-3.65-3.61-6.96-15.93-2.54-9.45-4.36-20.7-5.68-28.92-.3-1.85-.58-3.56-.84-5.1h0c-.23-1.48-.47-2.98-.77-4.58-.16-.82-.32-1.62-.61-2.69-.08-.28-.17-.58-.3-.95-.07-.19-.14-.39-.26-.66-.12-.26-.24-.54-.53-1.04l-.18-.3-.37-.57c-.18-.27-.36-.5-.52-.71-.64-.83-1.17-1.45-1.68-2.04l-1.45-1.67c-.93-1.07-1.81-2.11-2.64-3.16-3.32-4.17-5.95-8.53-7.72-13.2-1.76-4.66-2.6-9.6-2.52-14.64.03-2.5.31-5.12.75-7.55.44-2.43,1.1-4.78,2.02-7,1.82-4.45,4.63-8.36,8.25-11.33,3.61-2.97,7.99-4.98,12.71-5.87,4.72-.9,9.73-.76,14.71.26,4.98,1.02,9.95,2.84,14.79,5.25l3.44,1.71,2.34-1.71h0c5.13-2.44,10.32-4.38,15.56-5.33,5.22-.98,10.47-1.03,15.36.12,4.89,1.14,9.36,3.53,12.92,6.94,3.56,3.4,6.19,7.8,7.71,12.69.38,1.22.7,2.47.95,3.74.12.62.24,1.32.32,1.89l.14,1.08.1.95c.27,2.65.28,5.3.05,7.9-.47,5.2-2.03,10.22-4.58,14.7-2.54,4.48-6.08,8.39-10.27,11.42-2.11,1.52-4.31,2.79-6.75,3.88-2.44,1.1-5.05,2.02-7.7,2.77-5.3,1.5-10.82,2.31-16.12,2.16-5.29-.14-10.34-1.28-14.44-3.61-2.06-1.16-3.88-2.61-5.46-4.33-.2-.22-.39-.46-.58-.69,5.76-2.12,11.49-4.32,17.18-6.57,4.21-1.67,8.4-3.37,12.58-5.09,4.19-1.73,8.33-3.47,12.54-5.3l4.51-1.95-.43-4.83h0c-.29-4.18-1.66-8.37-3.91-11.88-2.23-3.54-5.22-6.42-8.52-8.58-6.63-4.32-14.4-6.08-22.04-5.48-.96.08-1.91.19-2.86.35-.48.08-.92.16-1.46.27l-.69.15-.67.16c-1.86.46-3.65,1.07-5.38,1.79-3.47,1.45-6.73,3.38-9.68,5.82-2.95,2.44-5.58,5.4-7.61,8.84-2.03,3.43-3.39,7.35-3.92,11.32-.54,3.97-.28,7.94.51,11.64.78,3.68,2.11,7.2,3.61,10.28,1.65,3.41,3.72,6.55,6.32,9.4,2.58,2.83,5.65,5.26,8.97,7.12,6.67,3.76,14.06,5.26,21.06,5.46,7.05.18,13.86-.84,20.43-2.69,3.28-.93,6.5-2.09,9.68-3.54,3.2-1.44,6.36-3.27,9.23-5.38,5.78-4.23,10.67-9.7,14.19-15.97,3.53-6.26,5.64-13.31,6.24-20.4.31-3.54.26-7.09-.11-10.57Zm-85.68,23.25c-.49-2.31-.62-4.56-.32-6.7.56-4.27,2.83-8.16,6.45-11.19,3.59-3,8.37-5.08,12.9-5.45,4.62-.43,9.53.71,13.26,3.13,1.86,1.2,3.41,2.7,4.5,4.37.22.33.41.68.59,1.03-2.29.97-4.59,1.93-6.89,2.89-4.12,1.7-8.25,3.38-12.39,5.02-6.01,2.38-12.04,4.69-18.08,6.9Z"/>
      </g>
    </g>
  </g>
</svg>