<svg width="1129" height="200" viewBox="0 0 1129 200" fill="none" xmlns="http://www.w3.org/2000/svg">
<g clip-path="url(#clip0_652_2569)">
<path fill-rule="evenodd" clip-rule="evenodd" d="M743.944 196.198C749.93 198.055 757.481 199.068 766.589 199.24L770.888 173.89C766.842 173.385 763.509 172.667 760.897 171.735C758.279 170.808 756.217 169.455 754.698 167.68C753.18 165.906 752.123 163.752 751.536 161.216C750.942 158.68 750.649 155.558 750.649 151.836V0L720.037 5.06814V157.669C720.037 164.258 720.752 170.133 722.186 175.286C723.619 180.442 726.109 184.751 729.65 188.214C733.193 191.677 737.954 194.339 743.944 196.198ZM31.3715 130.038C31.3715 143.561 34.5741 154.162 40.9861 161.85C47.3932 169.541 56.2485 173.384 67.5515 173.384C72.4427 173.384 76.617 173.174 80.0742 172.748C83.5295 172.328 86.3555 171.863 88.5512 171.355V95.3102C85.8497 93.452 82.2649 91.7223 77.7979 90.1128C73.3269 88.5105 68.5612 87.7042 63.5037 87.7042C52.3711 87.7042 44.2327 91.5072 39.0883 99.1111C33.9409 106.717 31.3715 117.026 31.3715 130.038ZM119.162 192.649C113.09 194.509 105.457 196.198 96.2664 197.719C87.0724 199.239 77.4175 199.999 67.2986 199.999C56.837 199.999 47.4768 198.39 39.2152 195.183C30.949 191.975 23.9092 187.369 18.0886 181.369C12.2694 175.371 7.80062 168.104 4.67845 159.57C1.55792 151.037 0 141.445 0 130.798C0 120.321 1.30316 110.816 3.91948 102.28C6.53437 93.7496 10.3716 86.4392 15.4318 80.3551C20.4937 74.2719 26.6478 69.5811 33.9022 66.2867C41.1517 62.9893 49.5002 61.3432 58.9481 61.3432C65.3558 61.3432 71.0058 62.1056 75.9 63.6254C80.7912 65.1462 85.0073 66.8372 88.5512 68.6943V5.06743L119.162 0.00102068V192.649ZM1111.11 55.6402C1106.54 55.6402 1102.42 54.0389 1099.21 50.6079C1095.78 47.4053 1094.18 43.059 1094.18 38.0265C1094.18 33.4518 1095.78 29.563 1099.21 26.1318C1102.42 22.9292 1106.54 21.0992 1111.11 21.0992C1115.69 21.0992 1119.58 22.9292 1123.01 26.1318C1126.22 29.563 1128.05 33.4518 1128.05 38.0265C1128.05 43.059 1126.22 47.4053 1123.01 50.6079C1119.58 54.0389 1115.69 55.6402 1111.11 55.6402ZM1125.77 71.6095V194.262H1096.24V71.6095H1125.77ZM1001.24 58.9417C1011.35 58.9417 1019.85 60.2077 1026.77 62.7386C1033.67 65.2695 1039.19 68.8136 1043.32 73.3688C1047.44 77.9251 1050.4 83.4547 1052.16 89.9487C1053.94 96.4477 1054.81 103.579 1054.81 111.338V191.578C1050.09 192.591 1042.98 193.816 1033.46 195.249C1023.94 196.678 1013.2 197.399 1001.24 197.399C993.317 197.399 986.076 196.64 979.509 195.122C972.931 193.602 967.332 191.159 962.702 187.782C958.062 184.408 954.442 180.023 951.83 174.617C949.216 169.221 947.915 162.555 947.915 154.622C947.915 147.027 949.385 140.617 952.337 135.384C955.281 130.157 959.287 125.892 964.343 122.602C969.392 119.311 975.246 116.95 981.905 115.514C988.555 114.083 995.51 113.364 1002.75 113.364C1006.13 113.364 1009.67 113.575 1013.37 113.994C1017.07 114.419 1021.04 115.133 1025.25 116.149V111.085C1025.25 107.54 1024.83 104.167 1023.98 100.959C1023.14 97.7565 1021.67 94.929 1019.56 92.4806C1017.46 90.0363 1014.67 88.1374 1011.23 86.7848C1007.77 85.4363 1003.42 84.7584 998.202 84.7584C991.135 84.7584 984.638 85.2671 978.744 86.2772C972.849 87.2914 968.045 88.4748 964.343 89.8233L960.551 65.0157C964.425 63.6672 970.065 62.3196 977.479 60.967C984.893 59.6185 992.818 58.9417 1001.24 58.9417ZM1003.77 173.1C1013.2 173.1 1020.36 172.592 1025.25 171.581V137.663C1024.31 137.383 1023.15 137.102 1021.75 136.822C1021.29 136.73 1020.81 136.64 1020.31 136.548C1019.57 136.412 1018.77 136.278 1017.92 136.143C1014.71 135.639 1011.19 135.384 1007.3 135.384C1003.93 135.384 1000.52 135.639 997.07 136.143C993.613 136.651 990.503 137.58 987.718 138.928C984.934 140.28 982.701 142.179 981.018 144.624C979.335 147.072 978.489 150.152 978.489 153.863C978.489 161.121 980.763 166.138 985.322 168.924C989.86 171.708 996.02 173.1 1003.77 173.1ZM920.667 180.647C920.667 191.175 912.128 199.708 901.594 199.708C891.061 199.708 882.522 191.175 882.522 180.647C882.522 170.118 891.061 161.584 901.594 161.584C912.128 161.584 920.667 170.118 920.667 180.647ZM244.143 105.322C245.322 109.125 245.916 113.141 245.916 117.365H188.99C189.496 113.477 190.422 109.675 191.774 105.956C193.121 102.24 195.018 98.946 197.466 96.0716C199.91 93.1992 202.906 90.8742 206.447 89.0996C209.99 87.326 214.122 86.4382 218.846 86.4382C223.4 86.4382 227.32 87.2425 230.609 88.8458C233.897 90.4543 236.681 92.6478 238.959 95.4366C241.235 98.2264 242.962 101.52 244.143 105.322ZM162.299 100.379C158.84 109.167 157.112 119.39 157.112 131.052C157.112 141.026 158.46 150.19 161.159 158.554C163.857 166.921 167.992 174.187 173.559 180.354C179.123 186.525 186.208 191.342 194.809 194.804C203.411 198.264 213.533 200 225.168 200C229.723 200 234.19 199.746 238.579 199.24C242.962 198.731 247.054 198.098 250.85 197.338C254.646 196.578 258.018 195.734 260.969 194.804C263.919 193.877 266.241 192.99 267.928 192.142L263.881 167.046C260.338 168.567 255.486 170.005 249.33 171.356C243.172 172.71 236.384 173.385 228.964 173.385C216.315 173.385 206.659 170.468 199.995 164.64C193.331 158.808 189.578 150.569 188.737 139.923H276.024C276.188 138.238 276.316 136.337 276.402 134.221C276.486 132.109 276.528 130.208 276.528 128.518C276.528 106.043 271.424 89.1434 261.222 77.8201C251.016 66.4988 236.809 60.8356 218.593 60.8356C210.832 60.8356 203.241 62.3176 195.821 65.2725C188.397 68.2316 181.817 72.6227 176.088 78.4531C170.352 84.2834 165.755 91.5959 162.299 100.379ZM315.237 68.4405C321.138 66.7515 328.813 65.1462 338.261 63.6254C347.705 62.1046 358.161 61.3432 369.633 61.3432C380.425 61.3432 389.452 62.8232 396.705 65.7781C403.954 68.7392 409.734 72.8775 414.034 78.1993C418.336 83.522 421.371 89.9466 423.142 97.465C424.916 104.985 425.799 113.225 425.799 122.178V196.705H395.185V126.996C395.185 119.898 394.72 113.856 393.795 108.872C392.867 103.889 391.347 99.8328 389.242 96.7046C387.13 93.5784 384.264 91.2972 380.638 89.861C377.009 88.4259 372.583 87.7042 367.356 87.7042C363.476 87.7042 359.425 87.959 355.211 88.4666C350.995 88.9712 347.874 89.3962 345.851 89.7336V196.705H315.237V68.4405ZM498.66 24.0797L468.049 29.1495V143.98C468.049 152.767 468.808 160.581 470.326 167.426C471.845 174.27 474.457 180.1 478.168 184.916C481.876 189.735 486.897 193.408 493.221 195.944C499.548 198.478 507.431 199.745 516.878 199.745C524.634 199.745 531.383 198.941 537.117 197.339C542.848 195.734 547.491 194.169 551.032 192.648L545.973 168.314C543.444 169.325 540.028 170.428 535.726 171.609C531.425 172.795 526.493 173.384 520.926 173.384C512.829 173.384 507.095 171.103 503.723 166.54C500.345 161.977 498.66 154.371 498.66 143.725V89.7336H545.72V64.132H498.66V24.0797ZM628.2 175.158C637.643 175.158 644.809 174.649 649.703 173.637V139.67C648.015 139.163 645.567 138.657 642.367 138.148C639.16 137.643 635.62 137.388 631.739 137.388C628.365 137.388 624.948 137.643 621.493 138.148C618.035 138.657 614.915 139.588 612.132 140.937C609.349 142.292 607.111 144.193 605.428 146.642C603.739 149.093 602.899 152.178 602.899 155.894C602.899 163.162 605.175 168.187 609.729 170.976C614.281 173.765 620.439 175.158 628.2 175.158ZM625.667 60.8356C635.789 60.8356 644.303 62.1046 651.22 64.6385C658.136 67.1725 663.658 70.7227 667.794 75.2841C671.924 79.8464 674.878 85.3853 676.647 91.8884C678.419 98.3966 679.304 105.537 679.304 113.307V193.662C674.579 194.677 667.455 195.904 657.926 197.339C648.395 198.77 637.643 199.491 625.667 199.491C617.738 199.491 610.487 198.732 603.91 197.211C597.332 195.689 591.722 193.242 587.086 189.86C582.445 186.482 578.82 182.091 576.205 176.679C573.589 171.274 572.286 164.599 572.286 156.653C572.286 149.048 573.758 142.629 576.713 137.388C579.66 132.154 583.671 127.883 588.731 124.588C593.789 121.292 599.649 118.927 606.313 117.489C612.974 116.056 619.932 115.336 627.186 115.336C630.558 115.336 634.101 115.547 637.81 115.967C641.521 116.393 645.486 117.108 649.703 118.125V113.054C649.703 109.504 649.282 106.126 648.439 102.914C647.593 99.7064 646.117 96.8758 644.01 94.4234C641.901 91.975 639.117 90.0741 635.661 88.7194C632.204 87.3688 627.859 86.691 622.632 86.691C615.548 86.691 609.053 87.1986 603.152 88.2108C597.245 89.226 592.438 90.4114 588.731 91.762L584.935 66.9197C588.813 65.5692 594.461 64.2196 601.887 62.865C609.307 61.5144 617.233 60.8356 625.667 60.8356ZM845.526 199.24C836.419 199.068 828.868 198.055 822.879 196.198C816.892 194.339 812.129 191.677 808.587 188.214C805.044 184.751 802.555 180.442 801.123 175.286C799.689 170.133 798.972 164.258 798.972 157.669V5.06814L829.586 0V151.836C829.586 155.558 829.877 158.68 830.471 161.216C831.058 163.752 832.115 165.906 833.633 167.68C835.153 169.455 837.216 170.808 839.834 171.735C842.445 172.667 845.777 173.385 849.826 173.89L845.526 199.24Z" fill="white"/>
</g>
<defs>
<clipPath id="clip0_652_2569">
<rect width="1128.05" height="200" fill="white"/>
</clipPath>
</defs>
</svg>
