<svg width="32" height="32" viewBox="0 0 32 32" fill="none" xmlns="http://www.w3.org/2000/svg">
<g clip-path="url(#clip0_731_919)">
<path d="M13.67 15.9701H10.08V20.4701H13.65V32.0001C13.15 31.9001 12.66 31.8101 12.17 31.6901C7.39 30.4501 3.87 27.6201 1.64 23.2101C0.770001 21.4901 0.290001 19.6401 0.100001 17.7301C-0.319999 13.5301 0.710001 9.72006 3.24 6.37006C5.78 3.01006 9.15 0.900062 13.31 0.220062C21.14 -1.06994 28.54 3.34006 31.13 10.7801C31.93 13.0801 32.17 15.4401 31.9 17.8601C31.41 22.1701 29.49 25.7001 26.21 28.5001C24.21 30.2101 21.9 31.3501 19.33 31.9401C19.26 31.9601 19.2 31.9401 19.11 31.9601V20.4701H22.22C22.46 18.9601 22.69 17.4901 22.93 15.9601H18.19V13.0301C18.19 11.4501 19.03 10.5701 20.62 10.5201C21.51 10.4901 22.41 10.5201 23.3 10.5201H23.6V6.57006C22.95 6.49006 22.3 6.40006 21.65 6.35006C20.39 6.25006 19.14 6.19006 17.9 6.51006C15.63 7.09006 14.04 8.82006 13.81 11.1601C13.67 12.5701 13.71 13.9901 13.67 15.4101V15.9701Z" fill="#00A3E1"/>
</g>
<defs>
<clipPath id="clip0_731_919">
<rect width="32" height="32" fill="white"/>
</clipPath>
</defs>
</svg>
