<svg width="32" height="32" viewBox="0 0 32 32" fill="none" xmlns="http://www.w3.org/2000/svg">
<path d="M27.9465 9.98985L27.9196 9.75617L27.8907 9.54676C27.8667 9.38186 27.8418 9.23922 27.8109 9.08444C27.7511 8.78095 27.6733 8.47948 27.5796 8.18105C27.2086 6.99036 26.5445 5.85732 25.6201 4.97518C24.7017 4.08899 23.536 3.4729 22.3164 3.19268C21.0969 2.90638 19.8334 2.9509 18.6717 3.24832C17.7074 3.49718 16.808 3.90588 16.0042 4.43193C15.2464 3.94635 14.4127 3.55282 13.5153 3.30497C12.4204 2.99946 11.2317 2.90841 10.061 3.11782C8.89331 3.32318 7.75353 3.82798 6.81219 4.59784C5.86685 5.36365 5.13492 6.38236 4.67522 7.48909C4.44387 8.04246 4.27634 8.61707 4.16665 9.19673C4.06494 9.77539 4.0091 10.3368 4.00112 10.9216C3.98317 12.0819 4.18062 13.2676 4.59245 14.3621C4.99731 15.4598 5.61856 16.4542 6.31559 17.309C6.4881 17.5235 6.6656 17.7289 6.83811 17.9251L7.08641 18.2074C7.1612 18.2923 7.231 18.3743 7.27588 18.4309C7.29183 18.4916 7.31178 18.5716 7.32873 18.6515C7.37659 18.872 7.42147 19.1148 7.46534 19.3596C7.50822 19.6206 7.55509 19.913 7.60495 20.2266C8.45654 25.5741 9.37595 30 12.0255 30C14.1973 30 14.7358 27.7896 15.1287 26.175C15.3411 25.304 15.6313 24.1103 16.0112 24.1103C16.3911 24.1103 16.6813 25.304 16.8937 26.175C17.2866 27.7896 17.8251 30 19.998 30C21.4259 30 22.5627 28.5928 23.4761 25.6985C24.0366 23.9191 24.4294 21.8058 24.5471 19.9919C23.892 20.2701 22.9207 20.612 22.124 20.8305C21.9794 22.0516 21.7191 23.3718 21.3791 24.5493C20.7748 26.6424 20.1665 27.4456 19.9401 27.6196C19.621 27.4962 19.3468 26.3682 19.1613 25.6075C18.7864 24.0678 18.22 21.741 16.0112 21.741C13.8025 21.741 13.236 24.0678 12.8611 25.6075C12.6846 26.3298 12.3964 27.5185 12.0713 27.6227C11.9447 27.5195 11.4481 26.9975 10.8817 24.8619C10.4479 23.2241 10.1368 21.2736 9.91044 19.8503C9.85958 19.5296 9.81172 19.2322 9.76784 18.9661C9.72795 18.7091 9.68807 18.4502 9.63522 18.173C9.60829 18.0313 9.58137 17.8917 9.53051 17.7066C9.51655 17.658 9.50159 17.6065 9.47866 17.5417C9.46669 17.5093 9.45373 17.4739 9.43478 17.4284C9.41484 17.3819 9.39489 17.3343 9.34503 17.2483L9.31412 17.1957L9.2503 17.0976C9.21839 17.0511 9.18947 17.0106 9.16155 16.9742C9.05286 16.8305 8.96212 16.7233 8.87536 16.6211L8.62706 16.3308C8.46851 16.1446 8.31893 15.9646 8.17633 15.7835C7.60894 15.0612 7.15921 14.3045 6.85706 13.4952C6.55591 12.6869 6.41331 11.831 6.42727 10.958C6.43126 10.525 6.47913 10.0708 6.55391 9.64994C6.6287 9.2291 6.74238 8.82243 6.89794 8.43699C7.20807 7.66613 7.68871 6.98732 8.30597 6.47442C8.92223 5.9595 9.67211 5.61049 10.4768 5.45773C11.2826 5.30194 12.1391 5.32723 12.9907 5.50224C13.8423 5.67928 14.6909 5.99491 15.5166 6.4117L16.104 6.70912L16.5038 6.4117C17.3803 5.98884 18.2668 5.65297 19.1623 5.48909C20.0548 5.32015 20.9503 5.31104 21.7869 5.50932C22.6225 5.7076 23.3864 6.12136 23.9947 6.71317C24.604 7.30295 25.0527 8.06471 25.312 8.91246C25.3768 9.12389 25.4316 9.34038 25.4745 9.56092C25.4954 9.66815 25.5154 9.78854 25.5293 9.88768L25.5543 10.0748L25.5722 10.2387C25.6181 10.698 25.6211 11.1573 25.5802 11.6085C25.4994 12.5108 25.2342 13.3809 24.7984 14.1558C24.3636 14.9317 23.7603 15.6095 23.0434 16.1345C22.6834 16.3986 22.3064 16.6191 21.8906 16.8063C21.4728 16.9964 21.0281 17.1563 20.5753 17.2868C19.6699 17.5478 18.7265 17.6864 17.8221 17.6621C16.9187 17.6378 16.0561 17.4405 15.3551 17.0369C15.0041 16.8356 14.6919 16.5857 14.4217 16.2873C14.3868 16.2488 14.3559 16.2074 14.322 16.1679C15.3072 15.7997 16.2844 15.4193 17.2577 15.0288C17.9767 14.7395 18.6926 14.4451 19.4066 14.1457C20.1226 13.8452 20.8296 13.5437 21.5486 13.2271L22.3184 12.8882L22.2456 12.0516V12.0495C22.1958 11.3282 21.9624 10.6019 21.5775 9.99289C21.1966 9.37984 20.686 8.88009 20.1226 8.50477C18.9908 7.75515 17.6626 7.45065 16.3562 7.55485C16.1927 7.568 16.0292 7.58823 15.8666 7.61555C15.7839 7.62971 15.7091 7.64286 15.6173 7.66309L15.4987 7.6894L15.384 7.71671C15.0669 7.79663 14.7607 7.90184 14.4646 8.02728C13.8723 8.27918 13.3148 8.61302 12.8103 9.03487C12.3067 9.45672 11.8569 9.97063 11.5109 10.5675C11.1639 11.1623 10.9326 11.8411 10.8418 12.5291C10.7491 13.217 10.7939 13.9059 10.9286 14.5452C11.0622 15.1826 11.2895 15.7936 11.5458 16.3277C11.828 16.9196 12.181 17.4628 12.6248 17.9565C13.0655 18.4471 13.5901 18.868 14.1565 19.1917C15.2962 19.8442 16.5577 20.1032 17.7543 20.1376C18.9579 20.1699 20.1226 19.9919 21.2444 19.6722C21.8059 19.5114 22.3553 19.309 22.8978 19.0592C23.4432 18.8093 23.9837 18.4916 24.4753 18.1264C25.4635 17.394 26.2992 16.4451 26.8995 15.3576C27.5028 14.2721 27.8628 13.0501 27.9655 11.8219C28.0183 11.2079 28.0093 10.5938 27.9465 9.98985ZM13.3088 14.0202C13.2251 13.6196 13.2031 13.2301 13.254 12.8589C13.3497 12.1193 13.7386 11.4446 14.3559 10.9195C14.9692 10.3986 15.7859 10.0384 16.5597 9.97367C17.3494 9.89982 18.1881 10.0971 18.8243 10.5169C19.1424 10.7253 19.4076 10.9843 19.5931 11.2736C19.631 11.3313 19.6629 11.392 19.6928 11.4527C19.3009 11.6206 18.908 11.7875 18.5151 11.9534C17.8111 12.2488 17.1051 12.5392 16.3971 12.8234C15.371 13.2352 14.3409 13.6368 13.3078 14.0202" fill="#1B98D0"/>
</svg>
