<svg width="32" height="32" viewBox="0 0 32 32" fill="none" xmlns="http://www.w3.org/2000/svg">
<path fill-rule="evenodd" clip-rule="evenodd" d="M15.89 31.78C24.6658 31.78 31.78 24.6658 31.78 15.89C31.78 7.1142 24.6658 0 15.89 0C7.1142 0 0 7.1142 0 15.89C0 24.6658 7.1142 31.78 15.89 31.78ZM15.99 6C10.47 6 6 10.48 6 16C6 21.52 10.47 26 15.99 26C21.52 26 26 21.52 26 16C26 10.48 21.52 6 15.99 6ZM22.92 12H19.97C19.65 10.75 19.19 9.55 18.59 8.44C20.43 9.07 21.96 10.35 22.92 12ZM17.91 12C17.48 10.57 16.83 9.24 16 8.04C15.17 9.24 14.52 10.57 14.09 12H17.91ZM8.26 18C8.1 17.36 8 16.69 8 16C8 15.31 8.1 14.64 8.26 14H11.64C11.56 14.66 11.5 15.32 11.5 16C11.5 16.68 11.56 17.34 11.64 18H8.26ZM12.03 20H9.08C10.04 21.66 11.57 22.93 13.41 23.56C12.81 22.45 12.35 21.25 12.03 20ZM12.03 12H9.08C10.04 10.34 11.57 9.07 13.41 8.44C12.81 9.55 12.35 10.75 12.03 12ZM14.09 20C14.52 21.43 15.17 22.76 16 23.96C16.83 22.76 17.48 21.43 17.91 20H14.09ZM13.66 18C13.57 17.34 13.5 16.68 13.5 16C13.5 15.32 13.57 14.65 13.66 14H18.34C18.43 14.65 18.5 15.32 18.5 16C18.5 16.68 18.43 17.34 18.34 18H13.66ZM19.97 20C19.65 21.25 19.19 22.45 18.59 23.56C20.43 22.93 21.96 21.65 22.92 20H19.97ZM20.36 18C20.44 17.34 20.5 16.68 20.5 16C20.5 15.32 20.44 14.66 20.36 14H23.74C23.9 14.64 24 15.31 24 16C24 16.69 23.9 17.36 23.74 18H20.36Z" fill="#0D2957"/>
</svg>
