<svg width="60" height="60" viewBox="0 0 60 60" fill="none" xmlns="http://www.w3.org/2000/svg">
<g clip-path="url(#clip0_492_247)">
<circle cx="30" cy="30" r="30" fill="url(#paint0_linear_492_247)" fill-opacity="0.3"/>
</g>
<g clip-path="url(#clip1_492_247)">
<circle cx="30" cy="30" r="25" fill="url(#paint1_linear_492_247)" fill-opacity="0.3"/>
</g>
<g clip-path="url(#clip2_492_247)">
<circle cx="30" cy="30" r="15" fill="url(#paint2_linear_492_247)" fill-opacity="0.3"/>
</g>
<path fill-rule="evenodd" clip-rule="evenodd" d="M33.9966 23.5303C33.7037 23.2374 33.2289 23.2374 32.936 23.5303L26.5303 29.936C26.2374 30.2289 26.2374 30.7037 26.5303 30.9966C26.8232 31.2895 27.2981 31.2895 27.591 30.9966L33.9966 24.591C34.2895 24.2981 34.2895 23.8232 33.9966 23.5303Z" fill="white"/>
<path fill-rule="evenodd" clip-rule="evenodd" d="M34.1848 37.591C33.8919 37.8839 33.4171 37.8839 33.1242 37.591L26.7185 31.1854C26.4256 30.8925 26.4256 30.4176 26.7185 30.1247C27.0114 29.8318 27.4863 29.8318 27.7792 30.1247L34.1848 36.5303C34.4777 36.8232 34.4777 37.2981 34.1848 37.591Z" fill="white"/>
<defs>
<linearGradient id="paint0_linear_492_247" x1="6.2069" y1="60" x2="60" y2="8.27586" gradientUnits="userSpaceOnUse">
<stop stop-color="#00A3E1" stop-opacity="0.8"/>
<stop offset="1" stop-color="#00A1E1" stop-opacity="0.3"/>
</linearGradient>
<linearGradient id="paint1_linear_492_247" x1="10.1724" y1="55" x2="55" y2="11.8966" gradientUnits="userSpaceOnUse">
<stop stop-color="#00A3E1" stop-opacity="0.8"/>
<stop offset="1" stop-color="#00A1E1" stop-opacity="0.3"/>
</linearGradient>
<linearGradient id="paint2_linear_492_247" x1="18.1034" y1="45" x2="45" y2="19.1379" gradientUnits="userSpaceOnUse">
<stop stop-color="#00A3E1" stop-opacity="0.8"/>
<stop offset="1" stop-color="#00A1E1" stop-opacity="0.3"/>
</linearGradient>
<clipPath id="clip0_492_247">
<rect width="60" height="60" fill="white"/>
</clipPath>
<clipPath id="clip1_492_247">
<rect width="50" height="50" fill="white" transform="translate(5 5)"/>
</clipPath>
<clipPath id="clip2_492_247">
<rect width="30" height="30" fill="white" transform="translate(15 15)"/>
</clipPath>
</defs>
</svg>
