<svg width="60" height="60" viewBox="0 0 60 60" fill="none" xmlns="http://www.w3.org/2000/svg">
<g clip-path="url(#clip0_492_246)">
<circle cx="30" cy="30" r="30" fill="url(#paint0_linear_492_246)" fill-opacity="0.3"/>
</g>
<g clip-path="url(#clip1_492_246)">
<circle cx="30" cy="30" r="25" fill="url(#paint1_linear_492_246)" fill-opacity="0.3"/>
</g>
<g clip-path="url(#clip2_492_246)">
<circle cx="30" cy="30" r="15" fill="url(#paint2_linear_492_246)" fill-opacity="0.3"/>
</g>
<path fill-rule="evenodd" clip-rule="evenodd" d="M26.7185 22.5303C27.0114 22.2374 27.4863 22.2374 27.7792 22.5303L34.1848 28.936C34.4777 29.2289 34.4777 29.7037 34.1848 29.9966C33.8919 30.2895 33.4171 30.2895 33.1242 29.9966L26.7185 23.591C26.4256 23.2981 26.4256 22.8232 26.7185 22.5303Z" fill="white"/>
<path fill-rule="evenodd" clip-rule="evenodd" d="M26.5303 36.591C26.8232 36.8839 27.2981 36.8839 27.591 36.591L33.9966 30.1854C34.2895 29.8925 34.2895 29.4176 33.9966 29.1247C33.7037 28.8318 33.2289 28.8318 32.936 29.1247L26.5303 35.5303C26.2374 35.8232 26.2374 36.2981 26.5303 36.591Z" fill="white"/>
<defs>
<linearGradient id="paint0_linear_492_246" x1="6.2069" y1="60" x2="60" y2="8.27586" gradientUnits="userSpaceOnUse">
<stop stop-color="#00A3E1" stop-opacity="0.8"/>
<stop offset="1" stop-color="#00A1E1" stop-opacity="0.3"/>
</linearGradient>
<linearGradient id="paint1_linear_492_246" x1="10.1724" y1="55" x2="55" y2="11.8966" gradientUnits="userSpaceOnUse">
<stop stop-color="#00A3E1" stop-opacity="0.8"/>
<stop offset="1" stop-color="#00A1E1" stop-opacity="0.3"/>
</linearGradient>
<linearGradient id="paint2_linear_492_246" x1="18.1034" y1="45" x2="45" y2="19.1379" gradientUnits="userSpaceOnUse">
<stop stop-color="#00A3E1" stop-opacity="0.8"/>
<stop offset="1" stop-color="#00A1E1" stop-opacity="0.3"/>
</linearGradient>
<clipPath id="clip0_492_246">
<rect width="60" height="60" fill="white"/>
</clipPath>
<clipPath id="clip1_492_246">
<rect width="50" height="50" fill="white" transform="translate(5 5)"/>
</clipPath>
<clipPath id="clip2_492_246">
<rect width="30" height="30" fill="white" transform="translate(15 15)"/>
</clipPath>
</defs>
</svg>
