<svg width="58" height="58" viewBox="0 0 58 58" fill="none" xmlns="http://www.w3.org/2000/svg">
<path d="M44.7068 25.2262C43.1273 23.8709 41.6339 22.5911 40.1379 21.3113C36.6449 18.3235 33.1442 15.3432 29.6587 12.3478C29.4207 12.1437 29.2258 11.9951 29.0006 12.0001C28.7753 11.9951 28.5804 12.1437 28.3424 12.3453C24.857 15.3407 21.3563 18.3209 17.8632 21.3088C16.3672 22.5886 14.8738 23.8683 13.2943 25.2237C12.702 25.7301 13.064 26.6975 13.8436 26.6975C14.0714 26.6975 14.2967 26.6975 14.5194 26.6975C15.6855 26.6975 16.2685 27.2634 16.2685 28.3954C16.2685 33.8924 16.2888 39.3895 16.2483 44.884C16.2432 45.7481 16.4761 46.0025 17.3519 46C21.2348 45.9849 25.1177 45.9773 29.0006 45.9773C32.8835 45.9773 36.7664 45.9849 40.6492 46C41.525 46.0025 41.7605 45.7481 41.7529 44.884C41.7149 39.3869 41.7326 33.8924 41.7326 28.3954C41.7326 27.2634 42.3156 26.6975 43.4817 26.6975C43.7044 26.6975 43.9297 26.6975 44.1575 26.6975C44.9371 26.6975 45.2966 25.7301 44.7068 25.2237V25.2262ZM35.8222 32.9754C35.7463 33.1795 35.6678 33.381 35.5919 33.5801C35.1337 34.7843 34.8578 36.0137 34.8477 37.306C34.8401 38.4044 34.6275 39.5053 34.4452 40.5937C34.3769 41.0043 34.1516 41.3948 33.9516 41.7702C33.8377 41.9818 33.6504 42.1732 33.453 42.3194C32.8075 42.8005 32.4253 42.7073 32.157 41.9616C31.833 41.0648 31.6001 40.1377 31.2736 39.2433C31.0433 38.611 30.7901 37.9661 30.4256 37.4068C29.6815 36.2731 28.3349 36.3034 27.5628 37.4169C26.9756 38.2634 26.7174 39.2408 26.4288 40.2082C26.2365 40.8557 26.0289 41.5031 25.7808 42.1304C25.5784 42.6393 25.4189 42.6821 24.905 42.5058C24.4241 42.342 24.1381 41.9717 23.9153 41.5459C23.4572 40.6667 23.3332 39.7044 23.2522 38.7395C23.1585 37.5957 23.161 36.4369 22.9864 35.3057C22.875 34.5827 22.5485 33.8849 22.265 33.1997C21.8119 32.1063 21.4778 31.0155 21.8245 29.8188C22.4498 27.6674 24.9354 26.4959 26.8794 27.4356C27.1173 27.549 27.3578 27.6548 27.6008 27.7606C28.5728 28.1838 29.5372 28.1712 30.5016 27.7178C31.142 27.418 31.7798 27.1081 32.5164 27.1106C34.268 27.1182 35.7792 28.2846 36.2247 29.9674C36.4955 30.9978 36.1892 32.008 35.8273 32.978L35.8222 32.9754Z" fill="#0D2957"/>
</svg>
