<svg width="58" height="58" viewBox="0 0 58 58" fill="none" xmlns="http://www.w3.org/2000/svg">
<path d="M39.9807 35.6288C39.9667 35.4594 39.9433 35.2916 39.9106 35.1238C39.878 34.956 39.8391 34.7914 39.7893 34.63C39.7411 34.467 39.6835 34.3072 39.6197 34.1505C39.5544 33.9939 39.4813 33.8405 39.4004 33.6919C39.3195 33.5433 39.2324 33.3994 39.1375 33.2604C39.0426 33.1198 38.9399 32.9871 38.8326 32.8577C38.7237 32.7282 38.6086 32.6068 38.4872 32.4901C38.3659 32.375 38.2399 32.2648 38.1077 32.1625C37.9754 32.0586 37.8385 31.9643 37.697 31.8764C37.5554 31.7885 37.4092 31.7086 37.2598 31.6351C37.109 31.5632 36.9565 31.4993 36.7994 31.4417C36.6423 31.3858 36.4836 31.3379 36.3218 31.2995C36.16 31.2611 35.9982 31.2308 35.8333 31.2084C35.6684 31.186 35.5051 31.1748 35.3386 31.1701C35.1737 31.1653 35.0073 31.1701 34.8424 31.1844C34.6775 31.1972 34.5142 31.2196 34.3508 31.2516C33.7737 30.7689 33.1359 30.3998 32.4343 30.1425C31.7327 29.8868 31.0109 29.7589 30.2673 29.7589H20.3423C19.8694 29.7589 19.4074 29.687 18.9563 29.5416C18.5051 29.3946 18.0867 29.1836 17.6993 28.9055C17.8486 28.7889 17.9933 28.661 18.1287 28.5252C18.264 28.3909 18.3916 28.2471 18.5098 28.0969C18.6296 27.9467 18.7385 27.7884 18.8396 27.6238C18.9407 27.4592 19.0309 27.2898 19.1118 27.1156C19.1927 26.9398 19.2643 26.7609 19.3234 26.5771C19.3825 26.3933 19.4323 26.2063 19.4712 26.0161C19.5101 25.826 19.5381 25.6342 19.5536 25.4424C19.5692 25.249 19.5754 25.0557 19.5692 24.8607C19.563 24.6673 19.5458 24.474 19.5178 24.2822C19.4898 24.0904 19.4509 23.9002 19.3996 23.7133C19.3498 23.5263 19.2876 23.3441 19.216 23.1635C19.1445 22.9845 19.0636 22.8103 18.9703 22.6393C18.8785 22.4699 18.7774 22.3069 18.6669 22.1487C18.5565 21.9921 18.4367 21.8419 18.3076 21.6996C18.1784 21.5574 18.0447 21.4232 17.9 21.2969C17.7569 21.1707 17.606 21.054 17.4488 20.9469C17.8595 20.6081 18.3107 20.3492 18.8069 20.1702C19.3032 19.9912 19.8134 19.9018 20.3392 19.9018H31.6798V18H20.3392C19.8881 18 19.4416 18.0479 19.0014 18.1438C18.5596 18.2397 18.1333 18.3819 17.7211 18.5705C17.3088 18.7591 16.9199 18.9876 16.5544 19.2609C16.1888 19.5326 15.8559 19.8394 15.5525 20.1846C15.3799 20.1543 15.2056 20.1351 15.0298 20.1255C14.854 20.1159 14.6783 20.1159 14.5025 20.1271C14.3282 20.1367 14.1525 20.1575 13.9798 20.1878C13.8071 20.2182 13.636 20.2581 13.4664 20.3061C13.2969 20.3556 13.1304 20.4147 12.9686 20.4835C12.8053 20.5522 12.6466 20.6289 12.4926 20.7152C12.3386 20.8015 12.1892 20.8974 12.0446 20.9997C11.8999 21.1035 11.7614 21.2138 11.6292 21.3337C11.497 21.4519 11.371 21.5782 11.2528 21.7108C11.133 21.8435 11.0225 21.9841 10.9183 22.1295C10.8156 22.2766 10.7192 22.4268 10.6321 22.5834C10.5449 22.74 10.4656 22.9014 10.3956 23.0676C10.3256 23.2338 10.2649 23.4016 10.212 23.5742C10.1607 23.7468 10.1187 23.9226 10.0845 24.1C10.0502 24.2774 10.0285 24.4564 10.0145 24.6354C10.0005 24.8144 9.99736 24.9965 10.002 25.1771C10.0082 25.3561 10.0222 25.5367 10.0471 25.7157C10.072 25.8947 10.1078 26.0705 10.1514 26.2463C10.1949 26.4221 10.2478 26.5931 10.3116 26.7609C10.3738 26.9303 10.4454 27.0949 10.5263 27.2547C10.6072 27.4161 10.6943 27.5711 10.7923 27.7213C10.8887 27.8715 10.9945 28.017 11.1065 28.156C11.2185 28.295 11.3383 28.4261 11.4659 28.5523C11.5934 28.677 11.7257 28.7953 11.8657 28.9055C12.0057 29.0158 12.1488 29.1165 12.2997 29.2108C12.449 29.3035 12.6046 29.3882 12.7633 29.4649C12.9235 29.54 13.0853 29.6071 13.2533 29.6662C13.4198 29.7238 13.5893 29.7717 13.7604 29.8101C13.9331 29.8484 14.1058 29.8772 14.28 29.8964C14.4542 29.9155 14.63 29.9235 14.8058 29.9235C14.9816 29.9219 15.1574 29.9107 15.3316 29.89C15.5059 29.8692 15.6785 29.8388 15.8497 29.7973C16.1483 30.0929 16.4704 30.3582 16.8188 30.5899C17.1673 30.8217 17.5328 31.0182 17.9171 31.178C18.3013 31.3379 18.698 31.4593 19.1056 31.5392C19.5116 31.6207 19.9239 31.6623 20.3377 31.6623H30.2626C30.9891 31.6623 31.6767 31.8301 32.3254 32.1657C32.246 32.2264 32.1698 32.2887 32.0951 32.3543C32.0205 32.4198 31.9474 32.4869 31.8758 32.5588C31.8058 32.6291 31.7358 32.701 31.6705 32.7762C31.6036 32.8497 31.5398 32.9264 31.4791 33.0063C31.4169 33.0846 31.3578 33.1645 31.3002 33.2476C31.2427 33.3307 31.1898 33.4138 31.1369 33.5001C31.084 33.5864 31.0358 33.6727 30.9891 33.7622C30.9424 33.8517 30.8989 33.9412 30.8584 34.0339C30.8164 34.125 30.7791 34.2193 30.7433 34.3119C30.7091 34.4062 30.6748 34.5021 30.6468 34.598C30.6173 34.6939 30.5908 34.7914 30.566 34.8889C30.5411 34.9863 30.5208 35.0854 30.5022 35.1845C30.4851 35.2836 30.4695 35.3827 30.4571 35.485C30.4462 35.584 30.4368 35.6863 30.4306 35.787C30.4244 35.8877 30.4213 35.99 30.4213 36.0906C30.4213 36.1913 30.4259 36.2936 30.4322 36.3943C30.4384 36.495 30.4477 36.5956 30.4602 36.6963C30.4726 36.797 30.4882 36.8961 30.5068 36.9968C30.5255 37.0959 30.5473 37.1933 30.5722 37.2924C30.5971 37.3899 30.6235 37.4874 30.6546 37.5833C30.6857 37.6792 30.7184 37.7751 30.7542 37.8693C30.79 37.9636 30.8289 38.0563 30.8709 38.1474C30.9129 38.2385 30.9564 38.3296 31.0031 38.4175C31.0498 38.507 31.0995 38.5933 31.1524 38.6796C31.2053 38.7659 31.2598 38.849 31.3173 38.9305C31.3749 39.0136 31.434 39.0935 31.4962 39.1718C31.5584 39.2501 31.6238 39.3268 31.6891 39.4003C31.756 39.4739 31.826 39.5458 31.896 39.6161C31.966 39.6864 32.0407 39.7519 32.1154 39.819C32.19 39.8846 32.2678 39.9469 32.3472 40.006C32.4265 40.0668 32.5074 40.1243 32.5898 40.1786C32.6723 40.233 32.7563 40.2857 32.8418 40.3352C32.4607 40.5989 32.05 40.8003 31.6098 40.9393C31.1695 41.0768 30.72 41.1455 30.2595 41.1455H19.4789C19.4603 41.048 19.4369 40.9489 19.4136 40.853C19.3887 40.7555 19.3607 40.6597 19.3296 40.5638C19.2985 40.4679 19.2658 40.3736 19.23 40.2809C19.1943 40.1882 19.1554 40.0955 19.1118 40.0044C19.0698 39.9133 19.0263 39.8254 18.9796 39.7359C18.9329 39.648 18.8831 39.5618 18.8318 39.4771C18.7789 39.3924 18.7245 39.3092 18.6669 39.2277C18.6109 39.1462 18.5502 39.0663 18.488 38.9896C18.4258 38.9113 18.362 38.8362 18.2951 38.7627C18.2282 38.6892 18.1598 38.6173 18.0898 38.5485C18.0198 38.4782 17.9466 38.4127 17.872 38.3472C17.7973 38.2833 17.7211 38.2209 17.6433 38.1602C17.564 38.0995 17.4846 38.0435 17.4022 37.9876C17.3197 37.9333 17.2373 37.8805 17.1517 37.831C17.0662 37.7815 16.9806 37.7351 16.8919 37.6904C16.8048 37.6456 16.7146 37.6057 16.6259 37.5673C16.5357 37.5289 16.4439 37.4938 16.3521 37.4602C16.2603 37.4283 16.167 37.3979 16.0721 37.3707C15.9788 37.3436 15.8839 37.3196 15.7874 37.2988C15.6925 37.278 15.5961 37.2605 15.4996 37.2461C15.4032 37.2317 15.3067 37.2189 15.2087 37.2109C15.1123 37.2013 15.0143 37.1965 14.9163 37.1933C14.8198 37.1901 14.7203 37.1917 14.6238 37.1949C14.5258 37.1997 14.4278 37.2061 14.3314 37.2157C14.2349 37.2253 14.1369 37.2381 14.0404 37.2541C13.944 37.2701 13.8491 37.2892 13.7527 37.31C13.6578 37.3324 13.5629 37.3564 13.4695 37.3851C13.3762 37.4123 13.2829 37.4426 13.1911 37.4778C13.0993 37.5114 13.0075 37.5481 12.9173 37.5881C12.8286 37.6264 12.7384 37.6696 12.6513 37.7143C12.5642 37.7607 12.4786 37.807 12.3946 37.8582C12.309 37.9077 12.2266 37.962 12.1457 38.0164C12.0648 38.0723 11.9839 38.1298 11.9061 38.1906C11.8283 38.2513 11.7537 38.3152 11.679 38.3807C11.6059 38.4463 11.5328 38.5134 11.4628 38.5837C11.3928 38.654 11.3243 38.7259 11.259 38.7994C11.1936 38.8746 11.1299 38.9497 11.0692 39.028C11.0085 39.1063 10.9494 39.1862 10.8934 39.2693C10.8374 39.3524 10.783 39.4355 10.7316 39.5202C10.6803 39.6065 10.6321 39.6928 10.5854 39.7823C10.5387 39.8702 10.4952 39.9597 10.4547 40.0524C10.4143 40.1435 10.3754 40.2362 10.3412 40.3288C10.3054 40.4215 10.2727 40.5174 10.2447 40.6133C10.2151 40.7092 10.1887 40.8051 10.1638 40.9026C10.1405 41.0001 10.1187 41.0975 10.1016 41.1966C10.0845 41.2957 10.0689 41.3948 10.0565 41.4939C10.044 41.593 10.0347 41.6936 10.03 41.7943C10.0238 41.895 10.0207 41.9957 10.0207 42.0964C10.0207 42.197 10.0238 42.2977 10.03 42.3968C10.0362 42.4975 10.044 42.5982 10.0565 42.6972C10.0689 42.7963 10.0829 42.8954 10.1016 42.9945C10.1187 43.092 10.1405 43.1911 10.1638 43.2885C10.1887 43.386 10.2151 43.4819 10.2447 43.5778C10.2743 43.6737 10.3069 43.768 10.3412 43.8623C10.3754 43.955 10.4143 44.0477 10.4547 44.1387C10.4952 44.2298 10.5387 44.3209 10.5854 44.4088C10.6321 44.4967 10.6803 44.5846 10.7316 44.6693C10.783 44.7556 10.8374 44.8387 10.8934 44.9202C10.9494 45.0033 11.0085 45.0832 11.0692 45.1615C11.1314 45.2398 11.1936 45.3166 11.259 45.3901C11.3243 45.4652 11.3928 45.5371 11.4628 45.6074C11.5328 45.6777 11.6043 45.7448 11.679 45.8104C11.7537 45.8759 11.8283 45.9398 11.9061 46.0005C11.9839 46.0613 12.0648 46.1188 12.1457 46.1747C12.2266 46.2307 12.309 46.2834 12.3946 46.333C12.4786 46.3841 12.5642 46.4304 12.6513 46.4768C12.7384 46.5215 12.8286 46.5647 12.9173 46.6046C13.0075 46.643 13.0977 46.6797 13.1911 46.7149C13.2829 46.7485 13.3762 46.7788 13.4695 46.8076C13.5629 46.8348 13.6578 46.8603 13.7527 46.8827C13.8476 46.9051 13.944 46.9243 14.0404 46.9386C14.1369 46.9546 14.2333 46.9674 14.3314 46.977C14.4294 46.9866 14.5258 46.993 14.6238 46.9962C14.7203 47.001 14.8198 47.001 14.9163 46.9978C15.0143 46.9946 15.1123 46.9898 15.2087 46.9818C15.3052 46.9738 15.4032 46.9626 15.4996 46.9466C15.5961 46.9322 15.6925 46.9147 15.7874 46.8939C15.8823 46.8731 15.9772 46.8491 16.0721 46.822C16.167 46.7948 16.2603 46.766 16.3521 46.7325C16.4439 46.7005 16.5357 46.6638 16.6259 46.6254C16.7161 46.5871 16.8048 46.5455 16.8919 46.5008C16.9806 46.456 17.0662 46.4097 17.1517 46.3601C17.2373 46.3106 17.3197 46.2578 17.4022 46.2035C17.4846 46.1492 17.564 46.0916 17.6433 46.0309C17.7211 45.9702 17.7973 45.9079 17.872 45.8439C17.9466 45.78 18.0198 45.7129 18.0898 45.6426C18.1598 45.5739 18.2298 45.5019 18.2951 45.4284C18.362 45.3549 18.4258 45.2782 18.488 45.2015C18.5502 45.1248 18.6093 45.0449 18.6669 44.9634C18.7245 44.8819 18.7789 44.7988 18.8318 44.7141C18.8831 44.6294 18.9329 44.5431 18.9796 44.4552C19.0263 44.3673 19.0714 44.2778 19.1118 44.1867C19.1538 44.0956 19.1927 44.0045 19.23 43.9118C19.2658 43.8191 19.2985 43.7232 19.3296 43.6289C19.3607 43.5331 19.3887 43.4372 19.4136 43.3397C19.4385 43.2422 19.4603 43.1447 19.4789 43.0472H30.2642C30.7029 43.0472 31.1384 43.0009 31.5693 42.9098C32.0002 42.8187 32.4172 42.6829 32.8201 42.5039C33.223 42.3249 33.6057 42.1075 33.965 41.8487C34.3244 41.5898 34.6557 41.2957 34.9575 40.9665C35.0415 40.9713 35.1224 40.9793 35.2064 40.9793C35.3729 40.9793 35.5378 40.9713 35.7027 40.9537C35.8676 40.9377 36.0309 40.9106 36.1942 40.877C36.356 40.8434 36.5163 40.8003 36.6749 40.7475C36.8336 40.6964 36.9876 40.6357 37.1401 40.5686C37.291 40.4998 37.4403 40.4231 37.5834 40.34C37.7265 40.2553 37.8665 40.1642 38.0019 40.0652C38.1357 39.9661 38.2663 39.8606 38.3892 39.7471C38.5137 39.6353 38.6319 39.5154 38.7439 39.3908C38.8559 39.2645 38.9617 39.1335 39.0597 38.9976C39.1593 38.8602 39.2495 38.7195 39.3351 38.5725C39.4191 38.4255 39.4953 38.2753 39.5653 38.1203C39.6337 37.9652 39.6944 37.807 39.7489 37.6456C39.8018 37.4842 39.8453 37.3212 39.8826 37.155C39.9184 36.9888 39.948 36.821 39.9667 36.6516C39.9853 36.4822 39.9962 36.3128 39.9993 36.1418C40.0024 35.9724 39.9947 35.8014 39.9807 35.632V35.6288ZM17.494 26.1728C17.4208 26.3549 17.3306 26.5275 17.2233 26.6905C17.1159 26.8551 16.9946 27.0054 16.8593 27.146C16.7224 27.285 16.5746 27.4097 16.4159 27.5184C16.2557 27.627 16.0877 27.7197 15.9103 27.7948C15.733 27.8699 15.5494 27.9275 15.3612 27.9658C15.173 28.0042 14.9832 28.0234 14.7903 28.0234C14.5989 28.0234 14.4091 28.0042 14.2209 27.9642C14.0327 27.9259 13.8507 27.8684 13.6733 27.7916C13.496 27.7165 13.328 27.6222 13.1693 27.5136C13.0106 27.4033 12.8628 27.2802 12.7275 27.1396C12.5922 26.999 12.4708 26.8488 12.365 26.6841C12.2592 26.5195 12.169 26.3469 12.0975 26.1648C12.0259 25.9826 11.9699 25.7956 11.9326 25.6006C11.8952 25.4073 11.8781 25.2123 11.8781 25.0157C11.8781 24.8192 11.8968 24.6242 11.9357 24.4308C11.973 24.2374 12.029 24.0505 12.1021 23.8683C12.1752 23.6861 12.2655 23.5135 12.3728 23.3505C12.4801 23.1875 12.5999 23.0357 12.7368 22.8966C12.8737 22.7576 13.02 22.6329 13.1802 22.5243C13.3404 22.4156 13.5069 22.3229 13.6842 22.2478C13.8616 22.1727 14.0436 22.1167 14.2318 22.0784C14.42 22.04 14.6098 22.0209 14.8027 22.0209C14.9956 22.0209 15.1838 22.04 15.3721 22.0784C15.5603 22.1167 15.7423 22.1743 15.9197 22.2494C16.097 22.3245 16.265 22.4172 16.4237 22.5275C16.5839 22.6361 16.7301 22.7608 16.8655 22.8998C17.0008 23.0404 17.1222 23.1907 17.2279 23.3537C17.3353 23.5183 17.4255 23.6909 17.4971 23.8731C17.5702 24.0553 17.6262 24.2422 17.6635 24.4356C17.7009 24.629 17.7195 24.8239 17.7195 25.0205C17.7195 25.2171 17.7009 25.4121 17.662 25.607C17.6246 25.8004 17.5686 25.989 17.494 26.1712V26.1728ZM17.662 42.6797C17.6246 42.873 17.5686 43.0616 17.494 43.2438C17.4208 43.426 17.3306 43.5986 17.2233 43.7616C17.1159 43.9262 16.9962 44.0764 16.8593 44.2155C16.7224 44.3561 16.5746 44.4791 16.4159 44.5894C16.2557 44.6981 16.0877 44.7908 15.9103 44.8659C15.7314 44.941 15.5494 44.9969 15.3612 45.0353C15.173 45.0736 14.9832 45.0928 14.7903 45.0928C14.5989 45.0928 14.4091 45.072 14.2209 45.0321C14.0327 44.9937 13.8507 44.9362 13.6733 44.8595C13.496 44.7844 13.328 44.6917 13.1693 44.5814C13.0106 44.4712 12.8628 44.3465 12.7275 44.2075C12.5922 44.0668 12.4708 43.9166 12.365 43.752C12.2592 43.5874 12.169 43.4148 12.0975 43.2326C12.0259 43.0504 11.9699 42.8635 11.9326 42.6701C11.8952 42.4767 11.8781 42.2817 11.8781 42.0836C11.8781 41.887 11.8968 41.692 11.9357 41.4987C11.973 41.3053 12.029 41.1183 12.1021 40.9361C12.1752 40.7539 12.2655 40.5813 12.3728 40.4183C12.4801 40.2553 12.6015 40.1035 12.7368 39.9645C12.8737 39.8254 13.02 39.7008 13.1802 39.5921C13.3404 39.4834 13.5084 39.3908 13.6858 39.3156C13.8631 39.2405 14.0451 39.1846 14.2333 39.1462C14.4216 39.1079 14.6114 39.0887 14.8027 39.0887C14.9941 39.0887 15.1838 39.1079 15.3721 39.1462C15.5603 39.1846 15.7423 39.2421 15.9197 39.3172C16.097 39.3924 16.265 39.485 16.4237 39.5953C16.5824 39.704 16.7301 39.8286 16.8655 39.9677C17.0008 40.1083 17.1222 40.2585 17.2279 40.4215C17.3337 40.5861 17.424 40.7587 17.4971 40.9409C17.5702 41.1231 17.6262 41.3101 17.6635 41.5035C17.7009 41.6968 17.7195 41.8918 17.7195 42.0884C17.7195 42.2849 17.7009 42.4815 17.662 42.6749V42.6797ZM38.0843 36.65C38.047 36.8434 37.991 37.0319 37.9179 37.2157C37.8448 37.3995 37.7545 37.5721 37.6472 37.7367C37.5414 37.9013 37.4201 38.0531 37.2832 38.1938C37.1463 38.3344 36.9985 38.4591 36.8383 38.5677C36.678 38.678 36.51 38.7707 36.3311 38.8458C36.1522 38.9209 35.9702 38.9784 35.7804 39.0184C35.5922 39.0567 35.4009 39.0759 35.208 39.0759C35.0151 39.0759 34.8253 39.0567 34.637 39.0184C34.4488 38.98 34.2653 38.9241 34.0879 38.8474C33.9106 38.7723 33.7426 38.6796 33.5808 38.5709C33.4205 38.4622 33.2743 38.3376 33.1374 38.1986C33.0005 38.0595 32.8792 37.9077 32.7734 37.7431C32.6661 37.5801 32.5758 37.4075 32.5027 37.2253C32.4296 37.0431 32.3736 36.8545 32.3347 36.6612C32.2974 36.4678 32.2787 36.2728 32.2772 36.0747C32.2772 35.8765 32.2943 35.6815 32.3316 35.4866C32.3674 35.2932 32.4234 35.1046 32.4965 34.9208C32.5696 34.737 32.6598 34.5644 32.7656 34.3982C32.8714 34.2336 32.9927 34.0818 33.1281 33.9412C33.265 33.8005 33.4112 33.6759 33.5714 33.5656C33.7317 33.4554 33.8997 33.3611 34.0786 33.286C34.2559 33.2092 34.4395 33.1517 34.6277 33.1134C34.8159 33.075 35.0073 33.0558 35.2002 33.0542C35.3931 33.0542 35.5829 33.0734 35.7727 33.1118C35.9609 33.1501 36.146 33.2061 36.3234 33.2812C36.5023 33.3563 36.6703 33.449 36.832 33.5592C36.9923 33.6695 37.1401 33.7926 37.277 33.9332C37.4139 34.0738 37.5352 34.2256 37.6425 34.3887C37.7499 34.5533 37.8401 34.7259 37.9132 34.9096C37.9863 35.0934 38.0423 35.2804 38.0797 35.4754C38.117 35.6687 38.1372 35.8653 38.1372 36.0635C38.1372 36.2616 38.1186 36.4566 38.0812 36.6516L38.0843 36.65Z" fill="#0D2957"/>
<mask id="mask0_651_2241" style="mask-type:luminance" maskUnits="userSpaceOnUse" x="31" y="12" width="16" height="16">
<path d="M46.7044 12H31.4806V27.1717H46.7044V12Z" fill="white"/>
</mask>
<g mask="url(#mask0_651_2241)">
<path d="M46.1237 18.275C46.0433 17.8285 45.5983 17.5208 45.1487 17.6028C44.7053 17.6849 44.3977 18.1314 44.4781 18.5763C44.546 18.966 44.576 19.2831 44.576 19.5719C44.576 22.6043 42.1162 25.0704 39.0917 25.0704C36.0671 25.0704 33.6074 22.6106 33.6074 19.5861C33.6074 16.5615 36.0671 14.0876 39.0917 14.0876C39.8506 14.0876 40.5685 14.2327 41.2248 14.5215C41.6461 14.7029 42.1383 14.5025 42.3229 14.075C42.5012 13.6537 42.3024 13.1614 41.8733 12.9753C40.9676 12.6045 40.0304 12.4167 39.0901 12.4167C35.1473 12.4167 31.9397 15.6322 31.9397 19.5845C31.9397 23.5368 35.1473 26.7538 39.0901 26.7538C43.0329 26.7538 46.2405 23.5384 46.2405 19.5845C46.2405 19.1601 46.201 18.7309 46.1206 18.2734L46.1237 18.275Z" fill="#0D2957"/>
</g>
<path d="M38.0375 16.9829C37.2591 15.9994 35.4005 16.9416 36.1924 17.925C37.1472 19.1164 38.0205 20.3622 38.9735 21.5536C39.4348 22.1212 40.3726 22.1758 40.8169 21.5536C42.5653 19.0869 44.3764 16.6924 46.6963 14.6017C47.6493 13.7436 46.14 12.4122 45.187 13.285C43.1368 15.1413 41.4359 17.2188 39.8638 19.3788C39.2601 18.5767 38.6717 17.7732 38.0375 16.9829Z" fill="#0D2957"/>
</svg>
