<svg width="58" height="58" viewBox="0 0 58 58" fill="none" xmlns="http://www.w3.org/2000/svg">
<path d="M49.8795 33.9795C50.2648 31.4821 49.7206 29.1878 48.3232 27.1144C46.9258 25.0455 45.0234 23.6328 42.7205 22.8115C39.7428 21.7491 36.8064 21.7268 33.9463 22.7624C34.1466 22.9432 34.2815 23.2088 34.2815 23.5658C34.2859 27.8353 34.3468 34.7271 31.5084 38.423C31.4975 38.5234 31.4758 38.6239 31.4453 38.7198C31.2734 39.2488 30.936 39.4965 30.5398 39.5746C30.407 39.7621 30.2242 39.9161 30 39.9964C31.3648 41.2172 33.0016 42.0385 34.8322 42.5295C37.984 43.3732 41.0488 43.0853 43.996 41.6413C44.1288 41.5765 44.2028 41.6145 44.3029 41.6904C45.1953 42.3621 46.1661 42.8487 47.2849 42.9737C47.7551 43.0272 48.3711 42.958 48.752 42.7951C48.5822 42.5898 48.4059 42.3912 48.247 42.1791C47.6158 41.3288 47.3198 40.3624 47.3394 39.2979C47.3394 39.1952 47.409 39.0747 47.4787 38.9943C48.739 37.5548 49.5835 35.8988 49.8795 33.9817V33.9795Z" stroke="#0D2957" stroke-miterlimit="10"/>
<path d="M38.3985 22.096C36.9297 19.3177 34.6231 17.3112 31.7698 15.9345C27.0493 13.6615 22.1704 13.4076 17.2098 15.088C13.981 16.1809 11.3117 18.063 9.35247 20.8239C7.3907 23.5872 6.62949 26.6468 7.16847 29.9753C7.58228 32.5321 8.76752 34.7378 10.5352 36.6572C10.6348 36.7642 10.7293 36.926 10.7318 37.063C10.7599 38.482 10.3436 39.7716 9.45976 40.9043C9.24008 41.1881 8.98975 41.4495 8.75219 41.7233C9.28606 41.9399 10.1494 42.032 10.8085 41.9623C12.3769 41.7955 13.7384 41.1483 14.99 40.252C15.1305 40.1525 15.2327 40.1002 15.4217 40.1873C19.5547 42.1142 23.8563 42.4976 28.2754 41.3723C32.0074 40.4213 35.1672 38.5393 37.4125 35.4398C40.4727 31.2126 40.8405 26.7165 38.3985 22.0985V22.096ZM15.93 30.3836C14.5788 30.3836 13.4855 29.3156 13.4855 28.0011C13.4855 26.6867 14.5813 25.6187 15.93 25.6187C17.2788 25.6187 18.3746 26.6867 18.3746 28.0011C18.3746 29.3156 17.2788 30.3836 15.93 30.3836ZM23.4987 30.3836C22.1474 30.3836 21.0542 29.3156 21.0542 28.0011C21.0542 26.6867 22.15 25.6187 23.4987 25.6187C24.8474 25.6187 25.9433 26.6867 25.9433 28.0011C25.9433 29.3156 24.8474 30.3836 23.4987 30.3836ZM31.0674 30.3836C29.7161 30.3836 28.6228 29.3156 28.6228 28.0011C28.6228 26.6867 29.7187 25.6187 31.0674 25.6187C32.4161 25.6187 33.5119 26.6867 33.5119 28.0011C33.5119 29.3156 32.4161 30.3836 31.0674 30.3836Z" fill="#0D2957"/>
</svg>
