<svg width="58" height="58" viewBox="0 0 58 58" fill="none" xmlns="http://www.w3.org/2000/svg">
<path fill-rule="evenodd" clip-rule="evenodd" d="M29.9181 37.9312C31.259 38.2516 32.6119 37.4222 32.9314 36.0779C33.251 34.7365 32.4237 33.3891 31.0798 33.0688C29.7389 32.7484 28.3891 33.5778 28.0696 34.9221C27.747 36.2635 28.5772 37.6138 29.9181 37.9312Z" fill="#0D2957"/>
<path fill-rule="evenodd" clip-rule="evenodd" d="M26.6555 46C26.512 44.3551 26.6451 42.764 27.0861 41.2C27.2245 40.7086 27.6551 40.6816 27.6551 41.2V46H32.3449V41.2C32.3449 40.6816 32.7755 40.7086 32.9139 41.2C33.3549 42.761 33.488 44.3551 33.3445 46H34.9339C35.0826 44.0884 34.9939 41.9251 34.5293 40.1813C34.2162 39.0067 33.3601 38 31.609 38H28.391C26.6399 38 25.7838 39.0067 25.4707 40.1813C25.0061 41.9251 24.9174 44.0854 25.0661 46H26.6555Z" fill="#0D2957"/>
<path fill-rule="evenodd" clip-rule="evenodd" d="M40.9181 37.9312C42.259 38.2516 43.6119 37.4222 43.9314 36.0779C44.251 34.7365 43.4237 33.3891 42.0798 33.0688C40.7389 32.7484 39.3891 33.5778 39.0696 34.9221C38.747 36.2635 39.5772 37.6138 40.9181 37.9312Z" fill="#0D2957"/>
<path fill-rule="evenodd" clip-rule="evenodd" d="M37.8211 46C37.6632 44.3551 37.8096 42.764 38.2947 41.2C38.4469 40.7086 38.9206 40.6816 38.9206 41.2V46H44.0794V41.2C44.0794 40.6816 44.5531 40.7086 44.7053 41.2C45.1904 42.761 45.3368 44.3551 45.1789 46H46.9273C47.0909 44.0884 46.9933 41.9251 46.4823 40.1813C46.1378 39.0067 45.1962 38 43.2699 38H39.7301C37.8038 38 36.8622 39.0067 36.5177 40.1813C36.0067 41.9251 35.9091 44.0854 36.0727 46H37.8211Z" fill="#0D2957"/>
<mask id="mask0_651_2284" style="mask-type:luminance" maskUnits="userSpaceOnUse" x="26" y="13" width="20" height="18">
<path d="M45.504 13.0474H26.2827V30.4147H45.504V13.0474Z" fill="white"/>
</mask>
<g mask="url(#mask0_651_2284)">
<path fill-rule="evenodd" clip-rule="evenodd" d="M44.9469 13.0583H27.0752C26.7593 13.0583 26.5043 13.2662 26.5016 13.5211V18.4789C26.4794 18.7449 26.7454 18.9749 27.078 18.9749C27.4105 18.9749 27.6793 18.7477 27.6544 18.4789V13.9895H44.3677V29.4475H27.6544V27.2748C27.6793 27.006 27.4133 26.776 27.078 26.776C26.7427 26.776 26.4766 27.0032 26.5016 27.2748V29.913C26.5043 30.168 26.7593 30.3758 27.0752 30.3786H44.9469C45.2656 30.3786 45.5234 30.1708 45.5261 29.913V13.5211C45.5261 13.2828 45.3017 13.0833 45.0051 13.0611C44.9857 13.0611 44.9663 13.0611 44.9469 13.0611V13.0583Z" fill="#0D2957"/>
</g>
<path fill-rule="evenodd" clip-rule="evenodd" d="M17.3121 12.0974C19.1942 12.5463 20.3515 14.4333 19.9038 16.3112C19.4531 18.1921 17.5649 19.3524 15.6858 18.9035C13.8068 18.4547 12.6464 16.5677 13.0972 14.6898C13.5449 12.8089 15.4331 11.6455 17.3121 12.0974Z" fill="#0D2957"/>
<path fill-rule="evenodd" clip-rule="evenodd" d="M13.9476 20C11.394 20 10.1436 21.3005 9.68886 22.8182C8.66021 26.2373 8.88756 30.9117 9.68886 33.792C10.1796 35.5664 12.4144 35.0473 11.9791 33.3999C11.1251 30.1726 11.0974 27.109 12.0456 24.1356C12.248 23.4981 12.8774 23.467 12.8774 24.1356V45.3553C12.8774 45.9421 13.0715 46.3314 13.3543 46.5938C13.6371 46.859 14.0225 46.9972 14.4162 46.9972C14.8099 46.9972 15.1981 46.859 15.4781 46.5938C15.7609 46.3314 15.955 45.9449 15.955 45.3553V32.1106H16.7841V45.3582C16.7841 45.9449 16.9781 46.3342 17.2609 46.5966C17.541 46.8618 17.9319 47 18.3229 47C18.7138 47 19.102 46.8618 19.3848 46.5966C19.6648 46.3342 19.8589 45.9478 19.8589 45.3582V24.1356C19.8589 23.656 20.1057 23.5347 20.4107 23.8479C20.9486 24.398 21.0512 26.0313 21.4504 27.975C21.65 28.9652 23.2582 29.2304 23.8321 28.4038L26.4883 23.3937L28.2462 22.9451C29.2637 22.6602 29.1029 21.7519 28.6288 21.7519L26.297 21.7434C25.9255 21.7434 25.5789 21.9211 25.3626 22.2286L23.5327 24.8493C23.2055 23.2216 22.2489 20 19.2378 20H13.9504H13.9476Z" fill="#0D2957"/>
</svg>
