<svg width="58" height="58" viewBox="0 0 58 58" fill="none" xmlns="http://www.w3.org/2000/svg">
<path d="M18.9361 31.8988C19.8663 31.8988 20.6203 31.1439 20.6203 30.2127C20.6203 29.2815 19.8663 28.5266 18.9361 28.5266C18.006 28.5266 17.252 29.2815 17.252 30.2127C17.252 31.1439 18.006 31.8988 18.9361 31.8988Z" fill="#0D2957"/>
<path d="M21.191 17.1856C22.1212 17.1856 22.8752 16.4307 22.8752 15.4995C22.8752 14.5684 22.1212 13.8135 21.191 13.8135C20.2609 13.8135 19.5068 14.5684 19.5068 15.4995C19.5068 16.4307 20.2609 17.1856 21.191 17.1856Z" fill="#0D2957"/>
<path d="M31.0319 17.1856C31.962 17.1856 32.716 16.4307 32.716 15.4995C32.716 14.5684 31.962 13.8135 31.0319 13.8135C30.1017 13.8135 29.3477 14.5684 29.3477 15.4995C29.3477 16.4307 30.1017 17.1856 31.0319 17.1856Z" fill="#0D2957"/>
<path d="M19.8724 24.7967C20.8026 24.7967 21.5566 24.0418 21.5566 23.1106C21.5566 22.1794 20.8026 21.4246 19.8724 21.4246C18.9423 21.4246 18.1882 22.1794 18.1882 23.1106C18.1882 24.0418 18.9423 24.7967 19.8724 24.7967Z" fill="#0D2957"/>
<path d="M46.6732 24.7095C47.6034 24.7095 48.3574 23.9547 48.3574 23.0235C48.3574 22.0923 47.6034 21.3374 46.6732 21.3374C45.7431 21.3374 44.989 22.0923 44.989 23.0235C44.989 23.9547 45.7431 24.7095 46.6732 24.7095Z" fill="#0D2957"/>
<path d="M28.9654 30.0125C29.8956 30.0125 30.6496 29.2576 30.6496 28.3265C30.6496 27.3953 29.8956 26.6404 28.9654 26.6404C28.0353 26.6404 27.2812 27.3953 27.2812 28.3265C27.2812 29.2576 28.0353 30.0125 28.9654 30.0125Z" fill="#0D2957"/>
<path d="M15.2445 38.2208C16.1747 38.2208 16.9287 37.4659 16.9287 36.5347C16.9287 35.6035 16.1747 34.8486 15.2445 34.8486C14.3143 34.8486 13.5603 35.6035 13.5603 36.5347C13.5603 37.4659 14.3143 38.2208 15.2445 38.2208Z" fill="#0D2957"/>
<path d="M39.2787 37.317C40.2088 37.317 40.9629 36.5621 40.9629 35.6309C40.9629 34.6997 40.2088 33.9448 39.2787 33.9448C38.3485 33.9448 37.5945 34.6997 37.5945 35.6309C37.5945 36.5621 38.3485 37.317 39.2787 37.317Z" fill="#0D2957"/>
<path d="M21.2303 38.9129C22.1605 38.9129 22.9145 38.158 22.9145 37.2268C22.9145 36.2957 22.1605 35.5408 21.2303 35.5408C20.3002 35.5408 19.5461 36.2957 19.5461 37.2268C19.5461 38.158 20.3002 38.9129 21.2303 38.9129Z" fill="#0D2957"/>
<path d="M15.2445 44.5032C16.1747 44.5032 16.9287 43.7484 16.9287 42.8172C16.9287 41.886 16.1747 41.1311 15.2445 41.1311C14.3143 41.1311 13.5603 41.886 13.5603 42.8172C13.5603 43.7484 14.3143 44.5032 15.2445 44.5032Z" fill="#0D2957"/>
<path d="M27.6411 23.9273C29.02 23.9273 30.1378 22.8082 30.1378 21.4278C30.1378 20.0473 29.02 18.9282 27.6411 18.9282C26.2621 18.9282 25.1443 20.0473 25.1443 21.4278C25.1443 22.8082 26.2621 23.9273 27.6411 23.9273Z" fill="#0D2957" stroke="#0D2957" stroke-miterlimit="10"/>
<path d="M39.8017 17.9991C41.1806 17.9991 42.2985 16.88 42.2985 15.4996C42.2985 14.1191 41.1806 13 39.8017 13C38.4228 13 37.3049 14.1191 37.3049 15.4996C37.3049 16.88 38.4228 17.9991 39.8017 17.9991Z" fill="#0D2957" stroke="#0D2957" stroke-miterlimit="10"/>
<path d="M36.7817 29.7088C38.1606 29.7088 39.2784 28.5897 39.2784 27.2093C39.2784 25.8288 38.1606 24.7097 36.7817 24.7097C35.4028 24.7097 34.2849 25.8288 34.2849 27.2093C34.2849 28.5897 35.4028 29.7088 36.7817 29.7088Z" fill="#0D2957"/>
<path d="M27.1686 38.1307C28.5476 38.1307 29.6654 37.0116 29.6654 35.6311C29.6654 34.2507 28.5476 33.1316 27.1686 33.1316C25.7897 33.1316 24.6719 34.2507 24.6719 35.6311C24.6719 37.0116 25.7897 38.1307 27.1686 38.1307Z" fill="#0D2957"/>
<path d="M47.4858 34.0211C48.8647 34.0211 49.9825 32.902 49.9825 31.5215C49.9825 30.1411 48.8647 29.022 47.4858 29.022C46.1069 29.022 44.989 30.1411 44.989 31.5215C44.989 32.902 46.1069 34.0211 47.4858 34.0211Z" fill="#0D2957" stroke="#0D2957" stroke-miterlimit="10"/>
<path d="M11.2321 28.0985C12.611 28.0985 13.7289 26.9794 13.7289 25.5989C13.7289 24.2185 12.611 23.0994 11.2321 23.0994C9.85319 23.0994 8.73535 24.2185 8.73535 25.5989C8.73535 26.9794 9.85319 28.0985 11.2321 28.0985Z" fill="#0D2957" stroke="#0D2957" stroke-miterlimit="10"/>
<path d="M21.7844 47.0001C23.1633 47.0001 24.2811 45.881 24.2811 44.5005C24.2811 43.1201 23.1633 42.001 21.7844 42.001C20.4054 42.001 19.2876 43.1201 19.2876 44.5005C19.2876 45.881 20.4054 47.0001 21.7844 47.0001Z" fill="#0D2957" stroke="#0D2957" stroke-miterlimit="10"/>
<path d="M21.4216 15.9529L25.7713 19.7726" stroke="#0D2957" stroke-miterlimit="10"/>
<path d="M37.1023 27.1135L45.273 30.3674" stroke="#0D2957" stroke-miterlimit="10"/>
<path d="M16.0146 35.907L20.3587 37.3172" stroke="#0D2957" stroke-miterlimit="10"/>
<path d="M28.209 23.8594L28.94 28.5911" stroke="#0D2957" stroke-miterlimit="10"/>
<path d="M29.1453 28.3154L27.2896 35.7634" stroke="#0D2957" stroke-miterlimit="10"/>
<path d="M36.391 27.3811L26.5107 36.1295" stroke="#0D2957" stroke-miterlimit="10"/>
<path d="M21.5537 14.5593L19.8132 23.6962" stroke="#0D2957" stroke-miterlimit="10"/>
<path d="M36.9504 27.0376L39.4219 36.0056" stroke="#0D2957" stroke-miterlimit="10"/>
<path d="M21.2305 37.8152L21.7844 42.0008" stroke="#0D2957" stroke-miterlimit="10"/>
<path d="M25.7516 35.8169L22.3523 37.2524" stroke="#0D2957" stroke-miterlimit="10"/>
<path d="M13.4617 26.7224L26.2126 34.9051" stroke="#0D2957" stroke-miterlimit="10"/>
<path d="M21.5538 15.1843L12.8657 23.7104" stroke="#0D2957" stroke-miterlimit="10"/>
<path d="M37.5803 16.6453L29.8679 20.6198" stroke="#0D2957" stroke-miterlimit="10"/>
<path d="M38.8286 17.864L37.0713 27.0853" stroke="#0D2957" stroke-miterlimit="10"/>
<path d="M47.1598 22.8408L36.3911 27.3811" stroke="#0D2957" stroke-miterlimit="10"/>
<path d="M37.3049 15.4998H21.7844" stroke="#0D2957" stroke-miterlimit="10"/>
<path d="M38.7781 35.6311H26.5107" stroke="#0D2957" stroke-miterlimit="10"/>
<path d="M37.0714 27.0852L18.5593 30.2125" stroke="#0D2957" stroke-miterlimit="10"/>
<path d="M46.4848 22.984L41.4351 17.3882" stroke="#0D2957" stroke-miterlimit="10"/>
<path d="M49.8505 25.8835L46.2122 22.6887" stroke="#0D2957" stroke-miterlimit="10" stroke-linecap="round"/>
<path d="M48.4363 29.0976L49.8618 25.9141" stroke="#0D2957" stroke-miterlimit="10" stroke-linecap="round"/>
<path d="M44.1118 35.614L45.3799 33.03" stroke="#0D2957" stroke-miterlimit="10" stroke-linecap="round"/>
<path d="M39.2786 35.1187L44.0865 35.6309" stroke="#0D2957" stroke-miterlimit="10" stroke-linecap="round"/>
<path d="M11.145 32.6838L15.43 36.9652" stroke="#0D2957" stroke-miterlimit="10" stroke-linecap="round"/>
<path d="M10.9595 28.0986L11.1225 32.6333" stroke="#0D2957" stroke-miterlimit="10" stroke-linecap="round"/>
<path d="M18.5255 30.9248L16.1018 36.3377" stroke="#0D2957" stroke-miterlimit="10"/>
<path d="M15.8264 37.0442L19.8724 42.4655" stroke="#0D2957" stroke-miterlimit="10"/>
<path d="M15.2444 36.5349V42.4657" stroke="#0D2957" stroke-miterlimit="10"/>
<path d="M19.9934 23.0686L28.9655 28.3267" stroke="#0D2957" stroke-miterlimit="10"/>
</svg>
