<svg width="24" height="24" viewBox="0 0 24 24" fill="none" xmlns="http://www.w3.org/2000/svg">
<path d="M11.9871 2C6.48387 2 2 6.48387 2 12C2 17.5161 6.48387 22 11.9871 22C17.4903 22 22 17.5161 22 12C22 6.48387 17.5097 2 11.9871 2ZM14.7742 3.89032C16.7226 4.56129 18.3742 5.91613 19.4194 7.70968L19.7032 8.19355H15.8452L15.7806 7.94839C15.4516 6.66452 14.9806 5.45161 14.3871 4.34839L13.9935 3.61935L14.7742 3.88387V3.89032ZM14.8968 12C14.8968 12.7742 14.8129 13.4968 14.729 14.1097L14.6903 14.3871H9.29677L9.25806 14.1097C9.17419 13.5032 9.09032 12.7742 9.09032 12C9.09032 11.3806 9.14193 10.729 9.25806 9.89032L9.29677 9.6129H14.6903L14.729 9.89032C14.8452 10.729 14.8968 11.3806 14.8968 12ZM12 3.21935L12.2645 3.6C13.1548 4.89032 13.8323 6.29677 14.2774 7.78065L14.4 8.19355H9.5871L9.70968 7.78065C10.1548 6.29677 10.8323 4.89032 11.7226 3.6L11.9871 3.21935H12ZM4.58065 7.70968C5.61935 5.91613 7.26452 4.56129 9.22581 3.89032L10.0065 3.62581L9.6129 4.35484C9.0129 5.45806 8.54839 6.67097 8.21935 7.95484L8.15484 8.2H4.29677L4.57419 7.71613L4.58065 7.70968ZM3.76129 14.3871L3.70323 14.1419C3.51613 13.4065 3.42581 12.6839 3.42581 12C3.42581 11.3161 3.51613 10.5935 3.70323 9.85806L3.76129 9.6129H7.86452L7.81935 9.97419C7.75484 10.5226 7.67742 11.2452 7.67742 12C7.67742 12.7548 7.75484 13.4774 7.81935 14.0258L7.86452 14.3871H3.76129ZM9.22581 20.1097C7.26452 19.4387 5.61935 18.0839 4.58065 16.2903L4.30323 15.8065H8.15484L8.21935 16.0516C8.54839 17.3355 9.01935 18.5484 9.6129 19.6516L10.0065 20.3806L9.22581 20.1161V20.1097ZM12.0065 20.7871L11.7419 20.4065C10.8516 19.1161 10.1742 17.7097 9.72903 16.2258L9.60645 15.8129H14.4194L14.2968 16.2258C13.8516 17.7097 13.1742 19.1161 12.2839 20.4065L12.0194 20.7871H12.0065ZM19.4258 16.2968C18.3806 18.0903 16.7355 19.4452 14.7806 20.1161L14 20.3806L14.3935 19.6516C14.9935 18.5484 15.4581 17.3355 15.7871 16.0516L15.8516 15.8065H19.7097L19.4258 16.2903V16.2968ZM20.2452 14.3935H16.1419L16.1871 14.0323C16.2516 13.4839 16.329 12.7613 16.329 12.0065C16.329 11.2516 16.2516 10.529 16.1871 9.98064L16.1419 9.61935H20.2452L20.3032 9.86452C20.4903 10.6 20.5806 11.3226 20.5806 12.0065C20.5806 12.6903 20.4903 13.4129 20.3032 14.1484L20.2452 14.3935Z" fill="#424242"/>
</svg>
