<svg width="35" height="35" viewBox="0 0 35 35" fill="none" xmlns="http://www.w3.org/2000/svg">
<g clip-path="url(#clip0_320_459)">
<path d="M35.0001 16.2665V18.7269C34.9774 18.8366 34.9471 18.9464 34.932 19.057C34.8535 19.6312 34.8109 20.212 34.6974 20.7796C33.8375 25.078 31.6997 28.6149 28.2375 31.3032C24.3516 34.3199 19.9236 35.472 15.0577 34.8269C11.6457 34.3747 8.60349 33.0078 6.03525 30.7101C1.36133 26.53 -0.600561 21.28 0.159034 15.067C0.577142 11.6522 1.99606 8.63554 4.26349 6.0427C6.9812 2.93716 10.3724 0.993243 14.4466 0.268649C15.0492 0.161757 15.6584 0.0889189 16.2647 0C17.0848 0 17.9059 0 18.7261 0C19.2766 0.0737838 19.8309 0.128649 20.3777 0.223243C23.5863 0.778513 26.4469 2.09338 28.9073 4.23027C32.0317 6.94419 33.988 10.3373 34.7277 14.4162C34.8384 15.0292 34.9102 15.6488 35.0001 16.2655V16.2665ZM27.7646 26.4345V26.005C27.7646 23.8066 27.7693 21.6092 27.7608 19.4108C27.7589 18.8886 27.7457 18.3627 27.6842 17.8443C27.4344 15.7509 26.3021 13.58 23.2921 13.352C21.6519 13.2281 20.2632 13.7342 19.27 15.1134C19.2094 15.1976 19.1404 15.2761 19.0089 15.4397V13.6718H14.7919V26.425H19.0155C19.0155 26.2632 19.0155 26.127 19.0155 25.9908C19.0155 23.7697 19.0184 21.5486 19.0136 19.3285C19.0127 18.6465 19.1565 18.0174 19.6171 17.4934C20.2377 16.7877 21.0171 16.5455 21.9271 16.7518C22.7567 16.94 23.1824 17.5303 23.3716 18.3116C23.4511 18.6408 23.505 18.9842 23.5069 19.3209C23.5201 21.5534 23.5163 23.7858 23.5182 26.0173C23.5182 26.1507 23.5182 26.2841 23.5182 26.4326H27.7655L27.7646 26.4345ZM12.3731 26.4354V13.6718H8.17025V26.4354H12.3731ZM7.91106 9.66851C7.91106 10.9559 8.8816 11.8678 10.257 11.8764C11.6542 11.8849 12.6625 10.9758 12.6767 9.695C12.69 8.39054 11.6788 7.43986 10.2873 7.44932C8.88822 7.45973 7.91011 8.37257 7.91106 9.66851Z" fill="white"/>
</g>
<defs>
<clipPath id="clip0_320_459">
<rect width="35" height="35" fill="white"/>
</clipPath>
</defs>
</svg>
