<svg width="1056" height="200" viewBox="0 0 1056 200" fill="none" xmlns="http://www.w3.org/2000/svg">
<g clip-path="url(#clip0_652_2560)">
<path d="M162.744 144.967L158.913 136.307H158.42L157.796 136.614L124.395 151.524L122.6 152.269L116.535 155.334L111.214 157.775C82.7617 168.657 51.2985 157.283 35.8954 132.246L138.309 86.7151L150.056 81.4603C156.515 78.3074 160.73 71.8813 161.069 64.6997C161.211 62.1599 160.883 59.62 160.084 57.2116C158.934 54.0697 157.314 51.1248 155.256 48.4864C154.457 47.5012 153.712 46.5049 152.902 45.5744L152.464 45.0161C151.348 43.779 150.176 42.6076 149.005 41.4253C143.728 36.2143 137.762 31.7586 131.259 28.1898C107.153 12.907 77.0252 10.5862 50.8606 22.0044C7.47567 41.5129 -11.9014 92.4845 7.57419 135.88C26.7214 178.192 75.8319 197.876 118.899 180.47L120.136 179.977H120.75L168.743 158.64L166.083 152.455L162.744 144.967ZM85.9364 39.0278C94.377 39.8051 102.609 42.0821 110.24 45.7715C117.903 49.0557 124.723 54.0478 130.153 60.3645L58.4692 92.156L26.9951 106.147C24.3129 80.9786 37.1763 55.9307 60.7024 43.9761C62.5307 43.155 64.4136 42.4544 66.3295 41.8741C70.7632 40.4291 75.3502 39.4876 79.992 39.0606C80.605 39.0168 81.2181 39.0606 81.8311 39.0278H85.9364Z" fill="white"/>
<path d="M956.745 181.148C929.836 181.148 910.174 176.134 901.077 169.949C907.766 156.571 912.988 142.515 916.666 128.02C918.089 121.43 917.64 114.577 915.363 108.227C912.769 105.118 908.817 103.487 904.788 103.837L868.355 102.972V123.258C868.355 123.564 897.727 123.258 897.727 123.258C898.778 123.258 899.643 124.867 899.216 126.039C890.907 152.105 879.072 176.912 864.02 199.759H886.287C889.571 194.658 892.483 189.326 895.012 183.798C901.197 190.913 924.395 199.759 944.801 199.759H1047.35L1055.51 181.203L956.745 181.137V181.148Z" fill="white"/>
<path d="M943.816 127.287H975.979V168.23H994.535V127.287H1027.56V152.028C1027.61 154.557 1025.59 156.637 1023.08 156.681C1022.9 156.681 1022.74 156.681 1022.56 156.659H1005.99L1011.55 171.383H1027.75C1032.94 171.547 1037.98 169.533 1041.6 165.822C1044.57 162.658 1046.19 158.465 1046.11 154.13V66.4186C1046.26 61.4922 1044.61 56.6753 1041.47 52.8765C1037.92 49.023 1032.85 46.9211 1027.61 47.1291H996.002C995.389 46.3846 994.338 45.2789 993.649 44.3484C1007.56 38.9403 1020.48 31.2442 1031.87 21.5885C1035.27 18.1838 1035.98 12.9181 1033.6 8.7252C1031.7 4.87168 1027.75 2.46323 1023.45 2.53986H926.967V17.5708H1007.37C999.068 23.2963 989.981 27.7958 980.402 30.9267C978.88 29.1751 977.501 27.3141 976.253 25.3654H951.205C955.781 31.5508 963.083 40.0898 969.389 47.0086H944.648C939.656 46.6693 934.707 48.0377 930.613 50.9059C926.683 54.5405 924.69 59.8063 925.238 65.1268V171.438H943.794V127.276L943.816 127.287ZM994.404 61.3608H1021.81C1024.77 61.3608 1027.24 63.6598 1027.43 66.6156V79.2928H994.404V61.3608ZM994.404 94.4442H1027.43V112.628H994.404V94.4442ZM943.443 67.0426C943.192 64.2838 945.206 61.8316 947.954 61.536H975.596V79.2819H943.432V67.0316L943.443 67.0426ZM943.443 94.4442H975.607V112.628H943.443V94.4442Z" fill="white"/>
<path d="M885.432 83.5514H911.038C901.656 70.6552 893.96 56.5986 888.158 41.7428H913.392C904.043 28.8467 896.358 14.812 890.512 0H868.551C873.674 14.4836 880.144 28.4526 887.852 41.7428H866.143C871.255 56.2483 877.714 70.2501 885.443 83.5514H885.432Z" fill="white"/>
<path d="M646.701 184.181L668.224 193.399C672.242 187.268 675.854 180.886 679.051 174.284C682.313 167.891 684.908 161.18 686.78 154.25L664.392 148.744C660.714 161.541 654.726 173.551 646.701 184.181Z" fill="white"/>
<path d="M686.221 79.4791H706.824V70.316H733.908L734.029 56.0295H706.693V46.2643H729.956L730.077 31.9778H706.824L706.638 23.0118H733.164L733.295 8.78006H706.758L706.638 0.251953H686.1L686.221 8.78006H656.728L656.542 23.0118H686.035L686.287 31.9778H660.56L660.374 46.2643H686.1L686.166 56.0295H653.696L653.51 70.316H686.287L686.221 79.4791Z" fill="white"/>
<path d="M744.244 183.195C734.774 184.115 725.436 180.491 719.075 173.419C715.123 168.066 713.109 161.519 713.383 154.863H691.236C690.995 161.06 692.09 167.245 694.454 172.981C696.655 178.116 699.851 182.758 703.858 186.644C709.036 191.089 715.079 194.417 721.604 196.42C729.618 198.861 737.971 200.022 746.346 199.879C758.738 200.624 771.065 197.635 781.717 191.286C789.533 186.359 795.193 178.641 797.547 169.697L774.415 164.815C771.777 177.065 761.716 183.184 744.233 183.184L744.244 183.195Z" fill="white"/>
<path d="M740.838 56.0295L740.958 70.316H773.68L773.615 79.4791H794.207L794.273 70.316H827.301L827.422 56.0295H794.152L794.087 46.2643H823.338L823.47 31.9778H794.273L794.021 23.0118H826.491L826.677 8.78006H794.207L794.087 0.251953H773.494L773.615 8.78006H743.87L743.684 23.0118H773.494L773.68 31.9778H747.702L747.822 46.2643H773.549V56.0295H740.838Z" fill="white"/>
<path d="M813.508 148.744L792.85 155.673C797.634 161.596 802.067 167.792 806.151 174.229C810.223 180.59 813.924 187.169 817.219 193.957L838.183 187.027C834.833 180.086 830.991 173.386 826.677 166.993C822.287 160.808 817.897 154.622 813.508 148.744Z" fill="white"/>
<path d="M739.536 175.708L760.5 168.778C757.14 161.815 753.297 155.104 748.995 148.678L728.457 155.915C732.54 162.286 736.241 168.887 739.525 175.708H739.536Z" fill="white"/>
<path d="M815.489 139.471C818.226 136.526 819.627 132.596 819.386 128.59V120.116H829.524V108.796H819.32V98.8342C819.386 96.6885 818.915 94.5647 817.963 92.6488C817.153 91.0067 815.971 89.5945 814.504 88.4997C811.942 86.5182 808.767 85.5111 805.538 85.6534H666.132L665.76 96.9074H797.371V108.72H656.356L655.863 120.094H797.371V131.786H666.439L665.76 143.04H805.592C809.238 143.248 812.818 141.945 815.489 139.449V139.471Z" fill="white"/>
<path d="M485.653 82.818C490.295 85.8505 494.871 89.0033 499.501 92.408C504.143 95.8127 508.774 99.4582 513.536 103.29L527.33 92.1015C521.944 87.9524 516.383 83.9346 510.69 79.7308C504.997 75.527 499.184 72.0019 493.25 68.225C493.612 67.8309 493.842 67.3382 493.929 66.8018L527.702 67.0536V50.2273H497.958C498.483 45.6841 498.768 41.1299 498.823 36.5538V31.6056H524.495V15.8302H470.874C472.231 11.6702 473.37 7.43347 474.278 3.15299L452.635 0.306641C449.384 14.6588 442.487 27.9381 432.601 38.8419L452.821 46.0782C456.927 41.6882 460.496 36.8275 463.462 31.6056H474.782V36.3677C474.782 40.9985 474.508 45.6184 473.983 50.2163H436.871V67.0426H468.848C465.291 73.8191 460.134 79.6104 453.818 83.9237C446.165 88.9814 437.845 92.9116 429.076 95.6156L446.143 109.53C461.536 104.439 475.209 95.1996 485.664 82.807L485.653 82.818Z" fill="white"/>
<path d="M602.176 119.613C597.151 116.482 591.251 115.048 585.35 115.529H455.469V199.705H607.059L606.993 129.257C607.114 125.437 605.296 121.813 602.165 119.613H602.176ZM478.229 128.885H584.792V151.645H478.229V128.885ZM584.726 186.655H478.469V164.519H584.846L584.726 186.655Z" fill="white"/>
<path d="M615.161 14.3524C609.501 11.2543 603.042 9.89678 596.605 10.4551H538.342L537.543 94.5648H563.083L559.186 111.446L587.825 94.5648H619.496L620.361 24.4241C620.536 20.3845 618.555 16.5529 615.161 14.3415V14.3524ZM598.652 27.5223L597.601 77.005V80.0375H562.219V79.917H559.066V76.7641L559.81 27.2814V24.3694H598.652V27.5223Z" fill="white"/>
<path d="M275.438 140.697L274.387 141.004L272.898 141.496L270.917 142.109V23.7449H277.102V8.47314H213.65V23.7449H220.514V155.17H219.277L213.891 156.155L218.04 170.879C229.853 168.777 241.238 166.369 251.934 163.709L253.85 163.271V199.759H271.048V158.323L272.165 157.95L281.569 154.984L275.449 140.697H275.438ZM253.85 114.292V147.441H252.613C248.529 148.557 244.26 149.608 240.242 150.539L238.392 150.977V112.693H253.85V114.303V114.292ZM253.85 66.6701V100.312H238.074L238.009 99.009V65.1155H253.839V66.6591L253.85 66.6701ZM253.85 24.982V52.7558H238.206V25.0477L238.02 23.7449H253.85V24.982Z" fill="white"/>
<path d="M383.107 10.5098H348.469V199.705H367.025L367.397 161.859V159.823L369.499 160.633C372.75 161.826 376.188 162.417 379.636 162.363C394.733 162.177 402.276 153.637 402.276 135.519V23.5592C401.652 14.7793 395.532 10.5098 383.107 10.5098ZM383.599 26.0333V133.034C383.687 137.041 383.227 141.026 382.242 144.912C381.07 148.81 378.782 149.609 377.107 149.609C373.331 149.609 370.178 146.576 367.769 140.577V24.4897H383.599V26.0333Z" fill="white"/>
<path d="M316.687 36.1158L317.738 113.427V114.292L317.06 114.785C313.348 117.073 309.572 119.295 305.74 121.408L303.331 122.711V29.9305C306.298 28.6934 309.517 27.3907 312.177 26.0332C316.107 24.194 319.928 22.1249 323.617 19.8478C325.905 18.4247 328.193 17.0015 330.361 15.4579L320.464 0C309.517 6.73272 297.606 11.7576 285.148 14.9105L285.52 130.133V131.118L284.589 131.556L279.389 133.779L286.932 147.441C296.117 143.96 305.05 139.822 313.655 135.07L316.501 133.527L315.943 136.68C314.18 147.78 309.955 158.345 303.572 167.606C296.851 176.616 288.016 183.841 277.846 188.636L291.946 199.891C302.795 194.734 312.287 187.104 319.654 177.623C326.212 168.789 330.886 158.706 333.382 147.999C335.835 137.249 336.918 126.236 336.601 115.223L334.751 36.1158H316.687Z" fill="white"/>
</g>
<defs>
<clipPath id="clip0_652_2560">
<rect width="1055.51" height="200" fill="white"/>
</clipPath>
</defs>
</svg>
