<svg width="86" height="86" viewBox="0 0 86 86" fill="none" xmlns="http://www.w3.org/2000/svg">
<path d="M68.2926 29.7239C65.1524 16.1232 53.0998 10 42.5126 10C42.5126 10 42.5126 10 42.4827 10C31.9253 10 19.8428 16.0938 16.7026 29.6945C13.2034 44.8848 23.5195 55.3544 31.2076 65.8451C33.9373 69.57 38.4153 76.3393 42.4827 76.3393C46.5501 76.3393 51.0278 69.3241 53.7876 65.8451C61.5726 56.0314 71.7918 44.9142 68.2926 29.7239ZM42.5126 44.4727C37.3087 44.4727 33.0917 40.3218 33.0917 35.1995C33.0917 30.0772 37.3087 25.9263 42.5126 25.9263C47.7165 25.9263 51.9334 30.0772 51.9334 35.1995C51.9334 40.3218 47.7165 44.4727 42.5126 44.4727Z" fill="#00A3E1"/>
</svg>
