<?xml version="1.0" encoding="UTF-8"?>
<svg id="_圖層_2" data-name="圖層 2" xmlns="http://www.w3.org/2000/svg" viewBox="0 0 147.45 133">
  <defs>
    <style>
      .cls-1 {
        fill: none;
      }

      .cls-2 {
        fill: #00a3e1;
      }

      .cls-3 {
        fill: #fff;
      }
    </style>
  </defs>
  <g id="_圖層_2-2" data-name=" 圖層 2">
    <g>
      <path class="cls-3" d="m70,46.5h-35c-1.66,0-3-1.34-3-3s1.34-3,3-3h35c1.66,0,3,1.34,3,3s-1.34,3-3,3Z"/>
      <path class="cls-3" d="m70,69.5h-35c-1.66,0-3-1.34-3-3s1.34-3,3-3h35c1.66,0,3,1.34,3,3s-1.34,3-3,3Z"/>
      <path class="cls-3" d="m70,92.5h-35c-1.66,0-3-1.34-3-3s1.34-3,3-3h35c1.66,0,3,1.34,3,3s-1.34,3-3,3Z"/>
    </g>
    <path class="cls-1" d="m97.53,80.4h0c-.13.06-.31.14-.49.21h0c-.37.16-.73.31-1.08.48-1.44.67-2.16,1.8-2.17,3.33-.01,3.54-.01,7,0,10.84,0,.84.03,1.69.09,2.52.14,2.24.61,4.54,1.4,6.83h0c.88,2.55,2.13,5,3.71,7.33v-32.18l-1.47.64h.01Z"/>
    <path class="cls-1" d="m91.41,109.3c-1.42-3.16-2.33-6.39-2.69-9.59h0c-.15-1.3-.22-2.61-.23-3.89h0c-.03-4.06-.06-7.75,0-11.48h0c.03-1.81.45-3.47,1.39-4.9s2.29-2.47,3.94-3.21h0c1.72-.77,3.45-1.53,5.18-2.29V24.77h-24.32c-1.66,0-3-1.34-3-3V6H11c-2.76,0-5,2.24-5,5v111c0,2.76,2.24,5,5,5h83c2.76,0,5-2.24,5-5v-1.63c-3.25-3.37-5.77-7.01-7.59-11.06h0Z"/>
    <polygon class="cls-1" points="146.1 84.4 147.42 84.38 146.1 84.4 146.1 84.4"/>
    <path class="cls-1" d="m117.81,126.87s.09.03.15.03c.07,0,.12-.02.14-.02,6.2-2.73,11.17-6.17,15.26-10.5,2.96-3.13,5.21-6.58,6.7-10.24,1.28-3.14,1.96-6.33,2.04-9.48h0c.04-1.39.03-2.78.02-4.17h0v-.02h0v-.02h0v-2.01h0v-5.86c0-1.68-.78-2.87-2.34-3.55-7.36-3.19-14.76-6.4-20.38-8.84h0c-.52-.23-1.03-.34-1.52-.34h-.1c-.46.01-.95.11-1.46.33-3.77,1.65-7.54,3.3-11.31,4.95v41.61c3.6,3.24,7.8,5.92,12.81,8.13h-.01Z"/>
    <path class="cls-3" d="m99,120.37v1.63c0,2.76-2.24,5-5,5H11c-2.76,0-5-2.24-5-5V11c0-2.76,2.24-5,5-5h60.68v15.77c0,1.66,1.34,3,3,3h24.32v49.17c2-.88,4.01-1.76,6-2.63V22c0-.85-.35-1.61-.91-2.15-.17-.2-.37-.39-.61-.55L76.66.79c-.56-.36-1.08-.58-1.56-.69-.13-.03-.27-.05-.41-.07-.04,0-.08,0-.12,0-.06,0-.12-.02-.19-.02H5C2.24,0,0,2.24,0,5v123c0,2.76,2.24,5,5,5h95c2.76,0,5-2.24,5-5v-2.37c-1.47-1.09-2.86-2.24-4.18-3.46-.64-.59-1.24-1.19-1.82-1.8Z"/>
    <path class="cls-2" d="m147.42,84.4v-.02c-.03-1.82-.45-3.49-1.39-4.92-.94-1.43-2.3-2.48-3.95-3.21-5.44-2.41-11-4.81-16.35-7.12-.71-.31-1.42-.61-2.13-.92-.71-.31-1.42-.61-2.13-.92-1.16-.5-2.37-.78-3.6-.78s-2.43.27-3.6.78c-.61.27-1.22.53-1.83.8-.61.27-1.22.53-1.84.8-1.85.8-3.72,1.62-5.6,2.44h0c-1.99.86-3.99,1.74-5.99,2.62h0c-1.73.75-3.46,1.52-5.18,2.28-1.65.73-3.01,1.78-3.94,3.21-.94,1.43-1.36,3.09-1.39,4.9-.06,3.73-.03,7.42,0,11.48,0,1.28.09,2.58.23,3.89.35,3.21,1.26,6.43,2.69,9.59,1.83,4.06,4.34,7.69,7.58,11.06h0c.59.62,1.19,1.22,1.82,1.81,1.31,1.22,2.7,2.36,4.17,3.45v.03c2.61,1.93,5.44,3.64,8.47,5.11.25.12.5.25.78.39.91.46,2.05,1.04,3.25,1.32l.46.11.46-.11c.06-.02.17-.04.27-.07.03,0,.26-.07.49-.17.32-.14.64-.29.96-.43,1.23-.56,2.57-1.16,3.83-1.82,4.88-2.54,9.19-5.71,12.81-9.43,3.06-3.15,5.53-6.62,7.31-10.31,2.21-4.58,3.35-9.39,3.36-14.3v-3c.01-2.79.02-5.69-.02-8.54Zm-5.33,12.28c-.08,3.16-.76,6.35-2.04,9.49-1.5,3.66-3.74,7.1-6.7,10.24-4.09,4.33-9.06,7.77-15.26,10.5-.02,0-.07.02-.14.02-.06,0-.11-.01-.15-.03-5.01-2.21-9.2-4.89-12.8-8.12v-.03c-.69-.62-1.37-1.26-2.01-1.92h0c-1.51-1.57-2.83-3.19-3.98-4.88h0c-1.58-2.34-2.83-4.79-3.71-7.34h-.01c-.79-2.29-1.26-4.59-1.4-6.83-.05-.83-.08-1.68-.09-2.52-.01-3.84-.01-7.3,0-10.84,0-1.53.72-2.66,2.17-3.33.36-.16.71-.32,1.08-.48.18-.07.35-.15.49-.21l1.47-.64h0s3.29-1.44,3.29-1.44c.9-.39,1.8-.79,2.7-1.18h0c3.77-1.64,7.54-3.29,11.31-4.94.51-.22.99-.32,1.46-.33h.1c.49,0,1,.1,1.52.33,5.62,2.44,13.01,5.66,20.38,8.85,1.56.68,2.34,1.87,2.34,3.55v7.91c0,1.39.02,2.79-.02,4.17Z"/>
    <path class="cls-2" d="m133.08,90.02c-1.07-1.03-2.94-1.23-4.2,0l-12.82,12.56-7.82-6.76c-1.27-1.1-3.15-.92-4.22.3-1.08,1.23-1,3.13.29,4.24l9.83,8.5c.59.51,1.31.73,2.01.71.77.04,1.59-.2,2.24-.83l14.74-14.44c1.31-1.28,1.06-3.22-.04-4.28h-.01Z"/>
  </g>
</svg>