<svg width="660" height="200" viewBox="0 0 660 200" fill="none" xmlns="http://www.w3.org/2000/svg">
<g clip-path="url(#clip0_652_2665)">
<path d="M67.3585 199.89C67.2955 198.77 67.2092 197.653 67.1742 196.531C67.0529 192.532 66.9269 188.535 66.8429 184.536C66.6632 176.035 66.5093 167.531 66.3483 159.029C66.1896 150.681 66.0356 142.334 65.8817 133.986C65.7253 125.482 65.569 116.98 65.415 108.476C65.2564 99.741 65.1024 91.0037 64.9484 82.2687C64.7944 73.571 64.6405 64.8733 64.4795 56.1756C64.4631 55.3287 64.4072 54.4795 64.3605 53.4436C59.9813 55.5224 55.7305 57.5428 51.209 59.6892C54.0973 49.4984 56.897 39.5572 59.7317 29.6253C62.5524 19.7518 65.3147 9.86188 68.1727 0C68.2614 0.0256638 68.3524 0.0536606 68.441 0.0793243C68.4807 0.0839905 68.5204 0.0816574 68.5554 0.0956558C68.5903 0.107321 68.6393 0.130652 68.6463 0.156316C74.2527 19.7658 79.8591 39.3729 85.4584 58.9846C85.4981 59.1223 85.4864 59.2763 85.5121 59.6052C81.1679 57.5568 76.9497 55.5667 72.6032 53.5159V101.703C73.0232 101.703 73.4361 101.736 73.8421 101.698C79.9314 101.153 85.6008 99.3304 90.8175 96.1201C96.5219 92.6088 101.221 88.0127 105.238 82.7026C111.435 74.5089 115.842 65.3866 119.106 55.6834C119.661 54.0362 120.142 52.3657 120.734 50.4619C119.979 50.6999 119.428 50.8166 118.922 51.0405C115.84 52.4101 112.767 53.8029 109.69 55.1864C106.825 56.4743 103.96 57.7621 101.092 59.0476C100.791 59.183 100.479 59.2903 100.096 59.4396C101.099 56.6679 134.159 5.71602 136.62 3.17064C136.683 3.92656 136.798 4.55415 136.779 5.17941C136.576 11.5067 136.193 17.8176 135.524 24.1169C133.317 44.8253 127.916 64.6913 120.193 84.0068C108.796 112.517 96.3585 140.558 83.1277 168.256C78.3286 178.305 73.4781 188.328 68.6393 198.358C68.3617 198.931 67.9744 199.454 67.6385 200C67.5451 199.963 67.4495 199.925 67.3562 199.888L67.3585 199.89Z" fill="white"/>
<path d="M341.274 83.1342C340.754 83.7338 340.429 84.1514 340.061 84.5224C336.064 88.5469 332.061 92.5645 328.062 96.5867C327.045 97.6086 325.836 98.0332 324.387 98.0239C316.772 97.9865 309.155 97.9842 301.539 97.9889C300.849 97.9889 300.137 98.0542 299.47 98.2269C298.408 98.4998 297.797 99.4191 297.828 100.492C297.856 101.519 298.464 102.359 299.505 102.611C300.177 102.774 300.886 102.835 301.579 102.837C307.913 102.853 314.248 102.844 320.582 102.849C322.525 102.849 324.471 102.802 326.41 102.905C327.796 102.977 329.212 103.117 330.544 103.483C334.636 104.612 336.916 107.447 337.63 111.556C337.875 112.965 338.012 114.409 338.019 115.839C338.038 119.642 338.036 123.45 337.879 127.248C337.826 128.575 337.424 129.929 336.969 131.193C335.719 134.669 333.155 136.739 329.55 137.322C327.455 137.66 325.299 137.726 323.172 137.728C309.106 137.742 295.04 137.705 280.973 137.681C280.705 137.681 280.437 137.651 280.033 137.628C280.213 137.343 280.318 137.114 280.476 136.935C280.892 136.473 281.321 136.023 281.76 135.584C285.46 131.867 289.179 128.167 292.853 124.427C294.043 123.214 295.392 122.661 297.107 122.67C305.228 122.717 313.349 122.696 321.471 122.698C321.893 122.698 322.315 122.698 322.817 122.698V117.976C321.893 117.916 320.976 117.806 320.059 117.804C311.744 117.787 303.427 117.787 295.112 117.792C293.39 117.792 291.701 117.603 290.068 117.057C286.148 115.751 283.689 112.582 283.554 108.453C283.414 104.148 283.383 99.8367 283.362 95.5298C283.355 94.137 283.423 92.7231 283.642 91.349C284.244 87.5507 286.468 85.0567 290.07 83.7805C291.43 83.2999 292.842 83.0596 294.293 83.0596C309.332 83.0666 324.371 83.0619 339.41 83.0666C339.937 83.0666 340.464 83.1039 341.276 83.1319L341.274 83.1342Z" fill="white"/>
<path d="M444.192 137.641C439.066 137.641 433.938 137.581 428.812 137.662C425.392 137.716 422.326 135.28 422.335 130.983C422.356 121.237 422.342 111.492 422.34 101.745C422.34 97.8228 422.326 93.9009 422.326 89.979C422.326 89.4377 422.326 88.8871 422.419 88.3552C422.954 85.2265 425.434 83.1361 428.723 83.0824C431.637 83.0334 434.549 83.0358 437.463 83.0381C444.572 83.0428 451.681 83.0638 458.787 83.0684C463.922 83.0731 468.239 85.0352 471.787 88.6538C475.035 91.9644 476.813 95.947 476.974 100.643C477.195 107.127 477.13 113.604 476.988 120.087C476.817 127.784 470.94 135.15 463.022 137.156C460.917 137.688 458.787 137.651 456.66 137.674C452.504 137.721 448.347 137.688 444.192 137.688C444.192 137.672 444.192 137.658 444.192 137.641ZM437.549 122.609C438.021 122.642 438.434 122.693 438.849 122.696C440.326 122.707 441.8 122.707 443.277 122.705C447.316 122.705 451.357 122.724 455.395 122.691C458.913 122.661 461.267 120.715 461.888 117.379C461.979 116.886 461.998 116.375 462 115.871C462.028 112.185 462.068 108.497 462.058 104.81C462.051 102.153 460.924 100.091 458.563 98.7933C457.495 98.2054 456.321 97.9697 455.094 97.9721C450.045 97.9861 444.999 97.9721 439.95 97.9931C439.152 97.9954 438.354 98.1284 437.549 98.2031V122.609Z" fill="white"/>
<path d="M581.196 111.864V83.3978C582.153 83.1178 594.896 83.0805 596.065 83.3371V148.003C582.965 134.863 570.044 121.9 556.951 108.765C556.82 109.425 556.659 109.887 556.65 110.352C556.606 112.874 556.585 115.396 556.585 117.918C556.585 124.247 556.596 130.579 556.599 136.909C556.599 137.096 556.552 137.28 556.517 137.525H541.781V73.1416C542.124 73.4146 542.397 73.5966 542.626 73.8205C545.654 76.7789 548.692 79.7302 551.699 82.7095C555.479 86.4564 559.233 90.229 562.996 93.9922C568.707 99.7083 574.416 105.427 580.128 111.143C580.398 111.413 580.683 111.675 580.961 111.938C581.04 111.913 581.119 111.885 581.198 111.859L581.196 111.864Z" fill="white"/>
<path d="M0.546383 2.96777C12.8253 21.7723 25.0156 40.4462 37.2876 59.2414C36.9493 59.3277 36.7323 59.456 36.569 59.407C36.2003 59.3021 35.8551 59.1107 35.5004 58.9498C29.5628 56.2714 23.6251 53.5907 17.6851 50.9147C17.3351 50.7584 16.9782 50.623 16.4602 50.4107C16.5022 51.015 16.4462 51.5236 16.5839 51.9739C20.0368 63.3499 24.8266 74.0657 32.2435 83.475C35.1388 87.1496 38.3281 90.5302 42.0447 93.3999C46.8485 97.1094 52.1982 99.6501 58.1102 101.017C58.5605 101.122 59.0084 101.244 59.5357 101.377V134.625C59.2021 134.49 58.9151 134.408 58.6631 134.268C55.5671 132.53 52.7721 130.365 50.0518 128.107C40.5189 120.186 32.7521 110.732 26.1145 100.322C18.6393 88.5961 13.159 75.9578 9.05509 62.6967C6.32073 53.8613 4.1953 44.8814 2.83746 35.7357C2.09787 30.75 1.57293 25.7269 1.11099 20.7038C0.674701 15.9933 0.455393 11.2572 0.12643 6.5327C0.0611043 5.60647 -0.153538 4.68258 0.189423 3.77035C0.268747 3.56271 0.369069 3.36206 0.546383 2.96777Z" fill="white"/>
<path d="M223.504 110.34C223.6 106.913 223.649 103.495 223.801 100.082C224.125 92.8191 229.491 85.6379 237.918 83.5405C240.097 82.9992 242.309 83.0459 244.518 83.0412C249.646 83.0319 254.777 82.9993 259.905 83.0762C266.727 83.1789 271.936 86.2609 275.639 91.9186C277.424 94.6459 278.315 97.7046 278.348 100.948C278.413 107.198 278.488 113.453 278.343 119.701C278.112 129.593 270.366 136.28 262.856 137.399C261.9 137.542 260.929 137.656 259.963 137.658C253.748 137.67 247.53 137.775 241.32 137.595C235.45 137.425 230.772 134.712 227.251 130.055C225.14 127.262 223.943 124.087 223.798 120.573C223.656 117.16 223.598 113.744 223.502 110.338L223.504 110.34ZM263.316 110.373C263.316 108.318 263.325 106.262 263.309 104.209C263.304 103.75 263.243 103.278 263.134 102.83C262.411 99.9233 260.285 98.1455 257.044 98.0522C253.05 97.9356 249.047 97.9239 245.053 98.0499C241.091 98.1735 238.786 100.665 238.753 104.629C238.721 108.546 238.711 112.466 238.758 116.383C238.802 119.99 241.313 122.601 244.892 122.671C248.965 122.752 253.043 122.75 257.119 122.671C260.698 122.601 263.215 120.011 263.311 116.423C263.365 114.407 263.32 112.391 263.32 110.373H263.316Z" fill="white"/>
<path d="M164.274 83.1574C164.834 83.1247 165.331 83.071 165.826 83.071C179.817 83.0664 193.809 83.05 207.798 83.0967C209.092 83.1014 210.432 83.358 211.675 83.7406C215.632 84.9608 217.897 87.7558 218.45 91.799C218.765 94.0971 218.8 96.4442 218.826 98.7679C218.854 101.6 218.782 104.437 218.665 107.27C218.618 108.385 218.455 109.523 218.14 110.594C216.922 114.74 213.969 116.922 209.811 117.523C208.166 117.761 206.482 117.782 204.816 117.787C196.695 117.813 188.571 117.799 180.449 117.799H179.066V119.159C179.066 124.714 179.038 130.269 179.087 135.822C179.099 137.182 178.639 138.148 177.615 139.046C173.585 142.581 169.619 146.19 165.623 149.764C165.256 150.091 164.843 150.364 164.419 150.686C164.12 149.792 164.001 85.5511 164.274 83.1597V83.1574ZM179.299 104.545C179.899 104.545 180.358 104.545 180.818 104.545C183.653 104.554 186.49 104.554 189.324 104.575C192.586 104.598 195.848 104.647 199.109 104.673C200.896 104.687 202.684 104.71 204.471 104.659C205.857 104.619 206.428 104.176 206.496 102.916C206.591 101.138 206.589 99.3442 206.486 97.5664C206.416 96.3462 205.926 95.9729 204.706 95.8213C204.284 95.7676 203.855 95.7349 203.43 95.7349C195.778 95.7303 188.125 95.7303 180.473 95.7303C180.097 95.7303 179.721 95.7303 179.299 95.7303V104.545Z" fill="white"/>
<path d="M621.057 137.472V98.269C619.319 97.821 617.644 97.9983 615.985 97.9936C611.321 97.975 606.658 97.9843 601.994 97.9773C601.807 97.9773 601.623 97.9353 601.385 97.9073V83.167H659.147C658.869 83.5216 658.715 83.7689 658.512 83.9696C654.166 88.3044 649.81 92.6323 645.466 96.9718C644.761 97.6764 643.924 97.9773 642.948 97.9773C641.161 97.9773 639.374 97.982 637.587 97.9843C637.125 97.9843 636.663 97.9843 636.054 97.9843C635.928 111.168 636.017 124.278 635.973 137.472H621.06H621.057Z" fill="white"/>
<path d="M402.58 150.844V83.1992H417.204C417.271 83.4862 417.369 83.7382 417.388 83.9971C417.428 84.5781 417.442 85.1613 417.444 85.7423C417.446 101.892 417.432 118.044 417.467 134.193C417.47 135.658 417.052 136.762 415.991 137.798C411.982 141.696 408.049 145.672 404.078 149.608C403.677 150.004 403.208 150.331 402.582 150.842L402.58 150.844Z" fill="white"/>
<path d="M536.484 83.3628V97.7345C535.595 97.9678 484.058 98.0401 482.334 97.8021C481.725 93.0264 481.832 88.2086 482.117 83.4118C483.073 83.1061 535.378 83.0758 536.486 83.3628H536.484Z" fill="white"/>
<path d="M343.014 97.8019V83.3228C343.886 83.0802 395.925 83.0289 397.199 83.2552C397.785 85.187 397.869 95.6554 397.293 97.8019H343.014Z" fill="white"/>
<path d="M397.5 117.619H343.049V103.32C345.475 102.702 394.675 102.669 397.5 103.283V117.619Z" fill="white"/>
<path d="M482.129 117.45V103.197C482.987 102.942 534.842 102.863 536.503 103.113V117.335C534.446 117.916 485.255 118.03 482.129 117.45Z" fill="white"/>
<path d="M397.504 122.965V137.498H342.98V122.965H397.504Z" fill="white"/>
<path d="M482.127 137.509V122.979H536.48V137.509H482.127Z" fill="white"/>
</g>
<defs>
<clipPath id="clip0_652_2665">
<rect width="659.15" height="200" fill="white"/>
</clipPath>
</defs>
</svg>
