<svg width="1249" height="200" viewBox="0 0 1249 200" fill="none" xmlns="http://www.w3.org/2000/svg">
<g clip-path="url(#clip0_652_2613)">
<path d="M599.749 1.41892L503.543 198.585H547.826L679.208 135.685L710.057 198.585H757.038L660.832 1.41892H599.722H599.749ZM573.227 148.425L630.25 35.8735L663.156 102.94L573.227 148.398V148.425Z" fill="white"/>
<path d="M215.488 95.8612C204.19 85.8454 188.325 80.8241 167.919 80.8241H69.203C61.2971 80.8241 55.1273 79.0346 50.7204 75.4556C46.3134 71.8766 44.0965 66.1341 44.0965 58.2283C44.0965 50.3224 46.3134 44.58 50.7204 41.001C55.1273 37.422 61.2971 35.6325 69.203 35.6325L219.494 35.8995V0.0560784H64.5289C44.1233 0.0560784 28.2581 4.97053 16.9602 14.7994C5.66228 24.6283 0 39.1046 0 58.2283C0 77.3519 5.66228 91.8282 16.9602 101.657C28.2581 111.486 44.1233 116.4 64.5289 116.4H163.245C171.338 116.4 177.535 118.297 181.862 122.063C186.188 125.829 188.352 131.945 188.352 140.412C188.352 148.879 186.188 154.995 181.862 158.761C177.535 162.527 171.338 164.423 163.245 164.423L4.70077 164.156V200H167.946C188.352 200 204.217 194.952 215.515 184.829C226.813 174.733 232.475 159.909 232.475 140.439C232.475 120.968 226.813 105.931 215.515 95.9146L215.488 95.8612Z" fill="white"/>
<path d="M494.037 16.8567C482.739 6.57375 466.874 1.41892 446.468 1.41892H281.3V198.585H325.423V126.07H446.468C466.874 126.07 482.739 120.915 494.037 110.632C505.335 100.349 510.997 84.6976 510.997 63.7577C510.997 42.8179 505.335 27.1664 494.037 16.8834V16.8567ZM459.85 84.1367C455.523 88.1697 449.326 90.1996 441.233 90.1996L325.423 89.9325V37.2624H441.233C449.326 37.2624 455.523 39.2388 459.85 43.1918C464.176 47.1447 466.34 53.9822 466.34 63.731C466.34 73.4798 464.176 80.1036 459.85 84.1367Z" fill="white"/>
<path d="M828.14 148.799C816.548 138.596 810.779 122.277 810.779 99.8413C810.779 77.4057 816.575 61.14 828.14 51.044C839.732 40.948 857.467 35.8732 881.371 35.8732H977.604V0.563956L878.326 0.00306733C841.922 -0.183896 814.065 8.17602 794.781 25.1095C775.47 42.0163 765.828 66.9358 765.828 99.8413C765.828 132.747 775.47 157.88 794.781 174.707C814.091 191.533 841.922 199.947 878.326 199.947H980.355V164.103H881.371C857.467 164.103 839.732 159.002 828.14 148.799Z" fill="white"/>
<path d="M1248.35 37.2624V1.41892H1032.17V198.558H1248.35V162.715H1076.29V116.668H1232.38V80.8247H1076.29V37.2624H1248.35Z" fill="white"/>
</g>
<defs>
<clipPath id="clip0_652_2613">
<rect width="1248.35" height="200" fill="white"/>
</clipPath>
</defs>
</svg>
