<svg width="63" height="63" viewBox="0 0 63 63" fill="none" xmlns="http://www.w3.org/2000/svg">
<mask id="mask0_647_1598" style="mask-type:luminance" maskUnits="userSpaceOnUse" x="0" y="0" width="63" height="63">
<path d="M0 0H63V63H0V0Z" fill="white"/>
</mask>
<g mask="url(#mask0_647_1598)">
<path d="M31.4726 -0.0136719C14.0803 -0.0136719 -0.0175781 14.0859 -0.0175781 31.4781C-0.0175781 48.8688 14.0803 62.9683 31.4726 62.9683C48.8648 62.9683 62.9644 48.8688 62.9644 31.4781C62.9644 14.0859 48.8648 -0.0136719 31.4726 -0.0136719ZM43.1981 33.2123L25.0249 43.7041C24.7493 43.8648 24.4376 43.9436 24.1291 43.9436C23.8191 43.9436 23.509 43.8648 23.2317 43.7041C22.6772 43.3841 22.3343 42.7919 22.3343 42.1504V21.1668C22.3343 20.527 22.6772 19.933 23.2317 19.6131C23.7879 19.2916 24.4704 19.2916 25.0266 19.6131L43.1981 30.1049C43.7543 30.4248 44.0955 31.0171 44.0939 31.6586C44.0955 32.3001 43.7527 32.8923 43.1981 33.2123Z" fill="white"/>
</g>
</svg>
