<svg width="866" height="200" viewBox="0 0 866 200" fill="none" xmlns="http://www.w3.org/2000/svg">
<g clip-path="url(#clip0_652_2505)">
<path d="M146.976 16.0055H182.826V0.000506347H16.2748V16.0055H125.652V73.5455H43.5389C40.6025 73.5455 37.4221 71.2205 37.4221 67.5205L54.5256 25.983H33.657C33.657 25.983 17.9471 63.9005 17.3947 65.4105C16.8248 66.9205 16.6158 69.628 16.6979 70.8055C17.1184 75.9055 18.4324 79.8205 20.6397 82.8255C24.2729 87.708 29.7103 90.248 36.5114 90.248H125.65V174.483C125.65 178.668 122.698 181.208 118.851 181.208H93.1945L100.909 200.001H126.336C131.791 200.001 138.134 197.676 142.437 192.813C145.162 189.558 146.979 185.623 146.979 180.511V90.248H194.103V73.548H146.976V16.0055Z" fill="white"/>
<path d="M79.6148 102.781C61.6975 131.321 29.4863 164.276 0 190.721H29.9417C56.0212 166.116 86.8688 131.321 103.193 102.781H79.6148Z" fill="white"/>
<path fill-rule="evenodd" clip-rule="evenodd" d="M405.218 51.773L405.034 50.048L404.82 48.4905C404.636 47.2705 404.437 46.2155 404.206 45.0605C403.742 42.7963 403.149 40.5609 402.429 38.3655C399.577 29.5405 394.483 21.158 387.398 14.6255C380.346 8.06051 371.405 3.49301 362.048 1.43051C352.688 -0.699494 343.001 -0.356993 334.074 1.83551C326.83 3.65342 319.919 6.61529 313.599 10.6105C307.793 7.02051 301.388 4.09551 294.502 2.26051C286.091 0.000506401 276.966 -0.681994 267.99 0.878006C259.031 2.40551 250.286 6.14301 243.055 11.8455C235.803 17.518 230.194 25.058 226.661 33.263C224.914 37.3246 223.607 41.5631 222.764 45.9055C221.983 50.1197 221.555 54.3921 221.484 58.678C221.353 67.273 222.863 76.048 226.031 84.158C229.134 92.283 233.912 99.643 239.255 105.98C240.581 107.573 241.943 109.101 243.269 110.546L245.178 112.643L245.352 112.836L245.583 113.096C245.996 113.558 246.375 113.981 246.638 114.301C246.758 114.701 246.88 115.231 246.999 115.766L247.036 115.926C247.4 117.551 247.748 119.353 248.082 121.176C248.248 122.146 248.418 123.176 248.599 124.258L248.607 124.313L248.609 124.323L248.612 124.343L249.159 127.608C255.679 167.208 262.746 200.001 283.073 200.001C299.736 200.001 303.871 183.641 306.892 171.701L306.905 171.646C308.53 165.198 310.752 156.386 313.666 156.386C316.57 156.386 318.81 165.226 320.435 171.678C323.456 183.638 327.587 200.001 344.26 200.001C355.212 200.001 363.939 189.586 370.939 168.136C375.237 154.956 378.255 139.311 379.169 125.853C374.142 127.918 366.691 130.453 360.57 132.078C359.427 141.401 357.519 150.614 354.863 159.62C350.232 175.12 345.554 181.071 343.829 182.371C341.408 181.466 339.315 173.216 337.889 167.596L337.857 167.471C334.985 156.061 330.64 138.821 313.684 138.821C296.727 138.821 292.38 156.061 289.51 167.471C288.166 172.831 285.942 181.621 283.453 182.403C282.475 181.638 278.658 177.771 274.328 161.943C270.993 149.806 268.604 135.361 266.862 124.813C266.482 122.441 266.116 120.231 265.767 118.263C265.466 116.302 265.128 114.347 264.755 112.398L264.707 112.168C264.508 111.193 264.312 110.218 263.943 108.938C263.829 108.526 263.696 108.119 263.545 107.718C263.493 107.568 263.428 107.413 263.356 107.236L263.212 106.873C263.013 106.413 262.78 105.968 262.515 105.543L262.284 105.151L261.786 104.421L261.627 104.201C261.46 103.965 261.286 103.735 261.104 103.511C260.29 102.456 259.601 101.686 258.932 100.933L256.991 98.7505C255.814 97.4239 254.663 96.0745 253.539 94.703C249.192 89.358 245.742 83.753 243.418 77.753C241.121 71.7591 240 65.3749 240.118 58.953C240.151 55.753 240.517 52.3905 241.096 49.2705C241.676 46.1505 242.54 43.1455 243.734 40.283C246.123 34.5805 249.806 29.543 254.534 25.7405C259.262 21.9205 265.003 19.353 271.192 18.2155C277.364 17.063 283.951 17.2405 290.471 18.5405C297.008 19.858 303.513 22.198 309.851 25.2855L314.363 27.478L317.431 25.2855C324.168 22.1655 330.954 19.678 337.84 18.443C344.693 17.193 351.561 17.128 357.982 18.5905C364.387 20.053 370.26 23.123 374.906 27.4955C379.584 31.8655 383.018 37.5055 385.027 43.778C385.524 45.353 385.937 46.9455 386.271 48.588C386.435 49.383 386.584 50.2755 386.684 51.008L386.868 52.388L387 53.608C387.348 57.003 387.366 60.4155 387.067 63.748C386.458 70.4013 384.408 76.8401 381.06 82.613C377.725 88.3655 373.097 93.388 367.605 97.2705C364.835 99.2296 361.871 100.896 358.76 102.243C355.488 103.672 352.118 104.862 348.674 105.803C341.722 107.736 334.488 108.758 327.552 108.578C320.619 108.403 313.997 106.941 308.622 103.951C305.958 102.486 303.539 100.61 301.455 98.3905C301.253 98.1755 301.058 97.9538 300.87 97.7255L300.751 97.583L300.691 97.513C308.235 94.7888 315.746 91.9719 323.222 89.063C328.737 86.9242 334.235 84.7417 339.716 82.5155C345.206 80.2905 350.633 78.0655 356.14 75.708L362.048 73.2055L361.483 66.998V66.9805C361.08 61.5468 359.317 56.3036 356.357 51.738C353.435 47.2055 349.521 43.5005 345.191 40.7205C336.513 35.1655 326.308 32.9055 316.287 33.6855C314.854 33.7938 313.428 33.9765 312.014 34.233C311.571 34.308 311.13 34.383 310.63 34.498L309.717 34.693L308.839 34.9055C306.415 35.4905 304.061 36.2705 301.786 37.1955C297.216 39.0534 292.94 41.5716 289.095 44.6705C285.23 47.7905 281.778 51.593 279.123 56.0305C276.444 60.4705 274.693 65.4129 273.98 70.5555C273.265 75.658 273.614 80.7605 274.644 85.4905C275.672 90.203 277.414 94.7355 279.39 98.7005C281.548 103.105 284.337 107.167 287.669 110.758C291.081 114.409 295.045 117.497 299.415 119.908C308.159 124.733 317.847 126.666 327.022 126.908C336.264 127.153 345.191 125.821 353.801 123.466C358.136 122.268 362.378 120.752 366.492 118.931C370.745 117.043 374.798 114.73 378.589 112.026C386.154 106.598 392.574 99.578 397.188 91.518C401.781 83.4956 404.572 74.561 405.365 65.3405C405.763 60.7905 405.699 56.2405 405.218 51.773ZM292.927 81.638C292.28 78.663 292.113 75.788 292.511 73.043C293.243 67.568 296.229 62.5605 300.975 58.678C305.686 54.828 311.942 52.1455 317.879 51.673C323.954 51.123 330.374 52.583 335.251 55.688C337.69 57.2305 339.731 59.148 341.142 61.293C341.421 61.7225 341.676 62.1674 341.906 62.6255C333.514 66.1019 325.085 69.4871 316.62 72.7805C308.758 75.8296 300.86 78.7823 292.927 81.638Z" fill="white"/>
<path d="M433 117.476C433 117.228 433.042 116.951 433.154 116.626C433.249 116.429 433.394 116.262 433.575 116.141L433.645 116.098L454.12 102.448V42.7155H433.47V31.408H454.12V0.210506L454.224 0.105506C454.252 0.0765238 454.282 0.0497748 454.314 0.0255063L454.334 0.0155063H454.336L454.356 0.00800635C454.39 0.00235568 454.424 -0.000154982 454.458 0.000506347H477.353L477.457 0.105506L477.559 0.215506V31.4105H495.394V42.718H477.559V86.818L496.569 73.973V86.5405C496.569 87.558 496.295 87.998 495.944 88.298L477.559 100.633V186.908C477.559 190.478 476.208 193.498 473.222 196.145C471.804 197.294 470.202 198.19 468.484 198.795L468.332 198.853L468.182 198.923C466.601 199.65 464.88 200.018 463.141 200H438.31L438.091 199.835L433.849 189.163H454.12V116.515L433 130.685V117.476ZM631.431 15.5455L631.428 15.5555C630.284 19.298 628.89 21.2455 627.633 22.148L627.584 22.183L627.536 22.2205C625.76 23.588 622.838 24.5355 618.254 24.5355H505.042V13.2255H606.411L610.326 0.280506C610.385 0.254221 610.448 0.238971 610.513 0.235506H636.159L631.431 15.5455ZM617.874 75.583L628.221 39.9105H607.462C607.449 39.9105 607.392 39.9105 607.283 39.953L596.729 76.018H617.319C617.334 76.018 617.413 76.018 617.58 75.943C617.694 75.8387 617.793 75.7158 617.874 75.583ZM552.575 39.9105L561.253 75.963C561.385 76.018 561.452 76.018 561.467 76.018H582.154L573.608 40.0755L573.392 39.9105H552.575ZM557.139 200H580.24C580.274 200.001 580.308 199.999 580.342 199.993L580.362 199.988L580.384 199.975L580.417 199.95L580.474 199.895L580.578 199.79V116.875H634.081V105.565H580.578V89.488C580.545 89.4495 580.51 89.4119 580.474 89.3755L580.369 89.2705H557.139V105.565H502.225V116.875H557.139V200ZM512.212 39.9105L520.889 75.963C521.023 76.018 521.091 76.018 521.103 76.018H541.79L533.245 40.0755L533.028 39.9105H512.212Z" fill="white"/>
<path d="M621.718 132.888L621.497 132.721H599.046L614.459 195.918L614.477 195.928L614.668 196.083C614.731 196.134 614.798 196.181 614.867 196.223H637.057L621.718 132.888ZM522.041 195.801L521.832 195.928L521.641 196.083C521.578 196.134 521.511 196.181 521.441 196.223H499.269L515.32 132.753C515.412 132.721 515.462 132.721 515.472 132.721H537.953L522.128 195.743C522.101 195.764 522.072 195.783 522.041 195.801Z" fill="white"/>
<path fill-rule="evenodd" clip-rule="evenodd" d="M856.123 168.666H866V160.211H856.123V110.601C856.123 106.851 855.001 104.546 853.207 103.051L853.08 102.943L852.963 102.826C852.052 101.913 850.82 101.176 849.135 100.696L849.101 100.686L849.066 100.673C847.278 100.138 845.421 99.8752 843.556 99.893H814.269V82.2005H865.296V73.743H842.486V53.4555H857.534V45.0005H842.486V24.2405H862.003V15.7855H842.486V0.235506H819.704V15.7855H788.874V0.000506347H766.091V15.7855H745.163V24.2405H766.091V45.0005H750.337V53.4555H766.091V73.743H742.341V82.2005H793.132V99.8955H763.608C760.136 99.8955 757.168 101.043 754.54 103.426L754.532 103.431C752.171 105.561 751.041 108.106 751.041 111.311V160.211H740.46V168.666H751.041V200.001H772.178V168.666H834.988V190.84H810.536L814.194 200.001H845.674C849.28 200.001 851.544 198.936 853.042 197.236L853.057 197.216C855.001 195.041 856.123 192.051 856.123 187.881V168.666ZM819.704 24.2405V45.0005H788.874V24.2405H819.704ZM819.704 53.4555V73.743H788.874V53.4555H819.704ZM834.988 108.588V129.818H814.269V108.588H834.988ZM834.988 160.211H814.269V138.273H834.988V160.211ZM793.132 108.586V129.818H772.178V108.588H793.132V108.586ZM793.132 160.211H772.178V138.273H793.132V160.211ZM722.779 148.518L722.854 148.483C723.852 148.038 724.735 147.433 725.516 146.651C727.089 145.076 727.972 142.991 727.972 140.051V12.8255C727.972 10.158 727.077 7.79301 725.133 5.60301C723.349 3.59051 721.147 2.59301 718.225 2.59301H676.371C673.658 2.59301 671.516 3.55551 669.699 5.60301L669.627 5.68301L669.552 5.75801C667.671 7.64301 666.86 9.63801 666.86 11.883V141.233C666.86 144.333 667.858 146.181 669.522 147.408C671.292 148.578 673.084 149.111 674.96 149.111H719.402C721.109 149.111 722.134 148.841 722.704 148.556L722.779 148.518ZM709.421 13.8755V47.1205H685.412V13.8755H709.421ZM709.421 58.168V91.8855H685.412V58.168H709.421ZM709.421 102.933V137.826H685.412V102.933H709.421Z" fill="white"/>
<path d="M717.595 200.001H737.357L726.751 165.026C726.615 164.886 726.459 164.768 726.288 164.676C725.769 164.37 725.177 164.211 724.576 164.215H706.504L717.595 200.001ZM661.943 200.001H681.93L692.8 164.215H674.723C674.111 164.215 673.561 164.361 673.011 164.676C672.847 164.763 672.696 164.874 672.563 165.006L672.556 165.013L672.549 165.023L661.943 200.001Z" fill="white"/>
</g>
<defs>
<clipPath id="clip0_652_2505">
<rect width="866" height="200" fill="white"/>
</clipPath>
</defs>
</svg>
