<svg width="872" height="200" viewBox="0 0 872 200" fill="none" xmlns="http://www.w3.org/2000/svg">
<g clip-path="url(#clip0_652_2491)">
<path d="M79.7078 103.687C61.8507 131.609 29.5455 163.751 0 189.725H29.8701C56.0065 165.7 86.8507 131.609 103.084 103.687H79.7078Z" fill="white"/>
<path d="M147.079 18.7841H182.955V3.19971H16.2344V18.7841H125.65V75.1153H43.5071C40.585 75.1153 37.3383 72.8426 37.3383 69.2711L54.3837 28.6867H33.6045C33.6045 28.6867 17.8578 65.6997 17.3707 67.1607C16.8837 68.6218 16.5591 71.2192 16.7214 72.5179C17.2084 77.5504 18.5071 81.2841 20.6175 84.2062C24.1889 88.914 29.7084 91.5114 36.5266 91.5114H125.65V173.817C125.65 177.875 122.728 180.472 118.832 180.472H93.1824L100.975 198.817H126.462C131.981 198.817 138.312 196.544 142.533 191.836C145.293 188.589 147.079 184.856 147.079 179.823V91.3491H194.156V75.1153H147.079V18.7841Z" fill="white"/>
<path d="M403.41 51.7389L403.248 49.9532L403.085 48.3298C402.923 47.0311 402.761 46.0571 402.436 44.9207C401.949 42.648 401.462 40.3752 400.65 38.2649C397.89 29.4986 392.858 21.0571 385.877 14.5636C379.059 8.07005 370.293 3.5246 361.04 1.41421C351.949 -0.696183 342.371 -0.371508 333.605 1.90122C326.299 3.68693 319.644 6.77135 313.637 10.6675C307.955 7.09602 301.624 4.17395 294.968 2.38823C286.689 0.115505 277.761 -0.533846 268.994 0.927193C260.228 2.38823 251.624 6.122 244.644 11.8038C237.501 17.4856 231.981 24.9532 228.572 33.2324C226.786 37.2908 225.65 41.5116 224.676 45.8947C223.864 50.1155 223.54 54.3363 223.377 58.7194C223.215 67.3233 224.676 76.0895 227.761 84.2064C230.845 92.3233 235.39 99.6285 240.748 105.96C242.046 107.583 243.345 109.044 244.644 110.505L246.429 112.616C246.916 113.265 247.566 113.914 247.89 114.239C248.053 114.726 248.215 115.213 248.215 115.862C248.54 117.486 248.864 119.271 249.189 121.057C249.514 123.005 249.838 125.116 250.163 127.551C256.494 167.161 263.475 199.791 283.28 199.791C299.514 199.791 303.572 183.395 306.657 171.544C308.28 165.051 310.39 156.284 313.312 156.284C316.235 156.284 318.345 165.051 319.968 171.544C322.89 183.557 326.949 199.791 343.345 199.791C354.059 199.791 362.663 189.401 369.481 167.973C373.702 154.823 376.624 139.239 377.598 125.765C372.728 127.875 365.423 130.31 359.416 131.934C358.28 141.025 356.332 150.765 353.897 159.531C349.351 174.953 344.806 180.96 343.02 182.258C340.585 181.284 338.637 173.005 337.176 167.323C334.416 155.96 330.033 138.752 313.475 138.752C296.916 138.752 292.696 155.96 289.774 167.323C288.475 172.68 286.202 181.447 283.767 182.258C282.793 181.447 279.059 177.551 274.838 161.804C271.592 149.628 269.319 135.18 267.533 124.791C267.209 122.356 266.722 120.245 266.397 118.297C266.072 116.349 265.748 114.564 265.423 112.453C265.261 111.479 264.936 110.343 264.611 109.044C264.449 108.719 264.449 108.232 264.286 107.745C264.124 107.583 264.124 107.258 263.962 106.934C263.799 106.609 263.637 106.284 263.312 105.635L263.15 105.31L262.663 104.661C262.501 104.336 262.176 104.012 262.014 103.687C261.202 102.551 260.553 101.901 259.903 101.09L258.118 98.9791C256.981 97.6804 255.845 96.2194 254.709 94.9207C250.488 89.5636 247.079 84.0441 244.806 78.0376C242.533 72.0311 241.397 65.6999 241.559 59.2064C241.559 55.9597 241.884 52.7129 242.533 49.4662C243.02 46.3817 243.994 43.2973 245.131 40.5376C247.403 34.8558 251.137 29.8233 255.683 26.0895C260.228 22.3558 265.91 19.7584 271.916 18.622C277.923 17.4856 284.416 17.648 290.748 18.9467C297.079 20.2454 303.572 22.5181 309.741 25.6025L314.124 27.8752L317.046 25.6025C323.702 22.5181 330.358 19.9207 337.014 18.7843C343.67 17.4856 350.488 17.4856 356.657 18.9467C362.988 20.4077 368.67 23.4921 373.215 27.8752C377.761 32.2584 381.17 37.9402 383.118 44.109C383.605 45.7324 384.092 47.3558 384.254 48.9791C384.416 49.7908 384.579 50.6025 384.741 51.4142L384.903 52.8752L385.066 54.1739C385.39 57.583 385.39 60.9921 385.066 64.2389C384.416 70.8947 382.468 77.3882 379.222 83.07C375.975 88.7519 371.429 93.7843 366.072 97.6804C363.312 99.6285 360.553 101.252 357.468 102.713C354.384 104.174 350.975 105.31 347.566 106.284C340.748 108.232 333.605 109.206 326.949 109.044C320.131 108.882 313.637 107.421 308.442 104.499C305.845 103.038 303.41 101.09 301.462 98.9791C301.137 98.6545 300.975 98.3298 300.65 98.1674C308.118 95.4077 315.423 92.648 322.728 89.7259C328.085 87.6155 333.442 85.3428 338.799 83.2324C344.157 80.9597 349.514 78.8493 354.871 76.4142L360.715 73.9791L360.228 67.8103C359.903 62.4532 358.118 57.096 355.196 52.5506C352.274 48.0051 348.54 44.2713 344.319 41.5116C335.877 35.9921 325.812 33.7194 316.072 34.5311C314.774 34.6934 313.637 34.8558 312.338 35.0181C311.689 35.1804 311.202 35.1804 310.39 35.3428L309.579 35.5051L308.767 35.6675C306.332 36.3168 304.059 36.9662 301.786 37.9402C297.403 39.7259 293.183 42.3233 289.449 45.4077C285.715 48.4921 282.306 52.3882 279.709 56.7713C277.111 61.1545 275.325 66.1869 274.676 71.2194C274.027 76.2519 274.351 81.4467 275.325 86.1545C276.299 90.8623 278.085 95.4077 280.033 99.3038C282.144 103.687 284.741 107.745 288.15 111.317C291.397 114.888 295.455 118.135 299.676 120.408C308.28 125.278 317.696 127.226 326.624 127.388C335.715 127.551 344.481 126.252 352.761 123.979C356.981 122.843 361.04 121.219 365.098 119.434C369.157 117.648 373.215 115.213 376.949 112.453C384.416 107.096 390.585 99.9532 395.131 91.9986C399.676 83.8817 402.436 74.9532 403.085 65.8623C403.897 60.6674 403.897 56.122 403.41 51.7389ZM293.507 81.4467C292.858 78.5246 292.696 75.6025 293.02 72.8428C293.67 67.3233 296.592 62.4532 301.299 58.5571C305.845 54.661 312.014 52.0636 317.858 51.5765C323.864 51.0895 330.033 52.5506 334.903 55.635C337.338 57.096 339.286 59.0441 340.748 61.3168C341.072 61.8038 341.235 62.1285 341.559 62.6155C338.637 63.9142 335.715 65.0506 332.793 66.3493C327.436 68.4597 322.241 70.7324 316.884 72.8428C308.929 75.7649 301.299 78.6869 293.507 81.4467Z" fill="white"/>
<path d="M627.272 191.511C623.863 195.57 618.344 198.654 610.876 198.654H459.902C453.896 198.654 448.701 195.894 444.805 191.349C441.396 187.291 439.285 181.771 439.285 176.089V22.6802C439.285 16.6737 442.207 10.9919 447.24 7.42045C450.811 4.66071 455.844 2.875 461.85 2.875H609.74C616.883 2.875 622.24 5.63474 626.136 9.69318C630.032 14.0763 632.305 19.9205 632.305 26.0893V177.55C632.305 182.583 630.681 187.615 627.272 191.511ZM611.038 25.1153C611.038 22.1932 608.116 18.9464 605.519 18.9464H466.558C463.636 18.9464 460.227 21.2192 460.227 24.6282V176.414C460.227 180.31 463.798 182.583 466.558 182.583H605.032C608.441 182.583 611.038 180.31 611.038 176.576V25.1153ZM580.194 125.927C581.818 132.096 585.064 144.109 586.525 149.953C587.499 152.713 590.584 154.336 593.181 154.336H605.032L601.785 170.083H589.285C585.876 170.083 581.98 169.596 578.571 167.972C575.649 166.674 572.889 164.401 571.103 160.667C569.48 157.42 567.857 151.739 567.045 148.167C562.499 154.823 552.597 167.485 547.402 173.492H521.59C536.363 158.719 550.973 138.589 560.551 123.33C556.655 107.096 549.999 79.0114 547.727 62.6153H467.532V47.3555H544.805C543.668 41.836 541.883 31.6088 541.233 26.414H559.74C560.714 31.4464 562.175 41.6737 563.636 47.3555H574.837C573.051 42.8101 570.292 33.8815 569.155 29.336H586.688C587.986 34.2062 591.233 42.9724 593.019 47.3555H604.22V62.6153H566.558C568.181 72.6802 572.077 90.862 574.35 99.6282C577.921 93.6218 583.441 80.9594 586.038 73.3295H605.844C599.675 88.1023 589.285 110.505 580.194 125.927ZM468.019 164.563V147.031C487.662 144.109 522.727 135.018 541.071 129.498V145.894C522.564 151.739 487.175 161.154 468.019 164.563ZM536.201 120.57C533.766 123.979 529.87 126.089 524.188 126.089H488.636C484.09 126.089 480.357 124.304 477.759 121.219C475.324 118.459 473.701 114.563 473.701 110.343V88.1023C473.701 84.2062 475.486 80.6347 478.571 77.875C481.493 75.4399 485.714 73.8166 489.772 73.8166H522.24C527.922 73.8166 532.305 75.6023 535.227 78.362C538.473 81.6088 540.097 85.8295 540.097 90.6997V108.07C539.61 112.778 538.636 117.323 536.201 120.57ZM519.48 92.9724C519.48 90.5373 517.694 88.5893 515.097 88.5893H497.24C494.805 88.5893 492.37 90.375 492.37 93.1347V106.771C492.37 109.206 494.642 111.317 496.753 111.317H515.422C517.532 111.317 519.318 110.018 519.318 106.933V92.9724H519.48Z" fill="white"/>
<path d="M804.22 76.414C794.642 83.7192 784.577 90.375 774.837 96.7062H862.175V112.291H749.675L744.805 132.42H842.207C847.077 132.42 851.623 134.693 855.032 138.427C858.603 142.323 861.039 147.843 861.039 154.174V176.252C861.039 182.42 859.253 188.265 854.87 192.648C850.811 197.031 844.318 199.953 835.714 199.953H744.642L751.298 184.206H833.116C837.013 184.206 840.259 180.148 840.259 176.739V154.661C840.259 151.252 836.363 148.005 833.116 148.005H733.603C729.707 148.005 726.461 146.219 724.513 143.459C722.564 140.7 721.753 137.291 722.727 133.394L725 124.953C721.59 127.226 714.935 130.472 711.688 131.609H668.344C703.733 115.862 739.285 98.3296 771.753 76.414H672.564V60.5049H750.811V37.6153H688.311V21.3815H750.811V0.439941H772.078V21.3815H813.311V37.6153H772.078V60.5049H793.831C812.337 46.3815 828.733 28.362 843.993 10.8296H869.318C858.441 25.6023 837.662 47.3555 823.052 60.5049H871.428V76.414H804.22Z" fill="white"/>
</g>
<defs>
<clipPath id="clip0_652_2491">
<rect width="871.43" height="200" fill="white"/>
</clipPath>
</defs>
</svg>
